<?xml version="1.0" encoding="UTF-8" standalone="no"?>
<!-- Created with Inkscape (http://www.inkscape.org/) -->

<svg
   xmlns:dc="http://purl.org/dc/elements/1.1/"
   xmlns:cc="http://creativecommons.org/ns#"
   xmlns:rdf="http://www.w3.org/1999/02/22-rdf-syntax-ns#"
   xmlns:svg="http://www.w3.org/2000/svg"
   xmlns="http://www.w3.org/2000/svg"
   xmlns:sodipodi="http://sodipodi.sourceforge.net/DTD/sodipodi-0.dtd"
   xmlns:inkscape="http://www.inkscape.org/namespaces/inkscape"
   width="746"
   height="473"
   id="svg2"
   version="1.1"
   inkscape:version="0.91 r"
   sodipodi:docname="Bridge_Networking.svg">
  <defs
     id="defs4" />
  <sodipodi:namedview
     id="base"
     pagecolor="#ffffff"
     bordercolor="#666666"
     borderopacity="1.0"
     inkscape:pageopacity="0.0"
     inkscape:pageshadow="2"
     inkscape:zoom="1"
     inkscape:cx="184.43396"
     inkscape:cy="234.6997"
     inkscape:document-units="px"
     inkscape:current-layer="layer1"
     showgrid="false"
     inkscape:window-width="1672"
     inkscape:window-height="990"
     inkscape:window-x="0"
     inkscape:window-y="0"
     inkscape:window-maximized="1"
     fit-margin-top="0"
     fit-margin-left="0"
     fit-margin-right="0"
     fit-margin-bottom="0"
     showguides="true"
     inkscape:guide-bbox="true" />
  <metadata
     id="metadata7">
    <rdf:RDF>
      <cc:Work
         rdf:about="">
        <dc:format>image/svg+xml</dc:format>
        <dc:type
           rdf:resource="http://purl.org/dc/dcmitype/StillImage" />
      </cc:Work>
    </rdf:RDF>
  </metadata>
  <g
     inkscape:label="Layer 1"
     inkscape:groupmode="layer"
     id="layer1"
     transform="translate(-94.5,-186.875)">
    <rect
       style="fill:#55cd91;fill-opacity:1;fill-rule:evenodd;stroke:#000000;stroke-width:1.47583997px;stroke-linecap:butt;stroke-linejoin:miter;stroke-opacity:1"
       id="rect2985"
       width="665.3067"
       height="470.99014"
       x="95.237923"
       y="188.14694" />
    <rect
       style="fill:#444444;fill-opacity:1;stroke:#000000;stroke-width:0.69244117;stroke-opacity:1"
       id="rect3755"
       width="23.886713"
       height="23.886713"
       x="761.62878"
       y="411.69864" />
    <rect
       style="fill:#cd5555;fill-opacity:1;stroke:#000000;stroke-width:1.6700263;stroke-miterlimit:4;stroke-dasharray:none;stroke-opacity:1"
       id="rect3755-7"
       width="78.891273"
       height="379.30685"
       x="533.38965"
       y="233.30579" />
    <rect
       style="fill:#5591cd;fill-opacity:1;stroke:#000000;stroke-width:1.36550856;stroke-miterlimit:4;stroke-dasharray:none;stroke-opacity:1"
       id="rect3775"
       width="131.08882"
       height="136.55086"
       x="132.05148"
       y="233.15356" />
    <rect
       style="fill:#444444;fill-opacity:1;stroke:#000000;stroke-width:0.69244117;stroke-opacity:1"
       id="rect3755-9"
       width="23.886713"
       height="23.886713"
       x="264.16928"
       y="289.48563" />
    <rect
       style="fill:#5591cd;fill-opacity:1;stroke:#000000;stroke-width:1.36550856;stroke-miterlimit:4;stroke-dasharray:none;stroke-opacity:1"
       id="rect3775-3"
       width="131.08882"
       height="136.55086"
       x="132.05148"
       y="476.21408" />
    <rect
       style="fill:#444444;fill-opacity:1;stroke:#000000;stroke-width:0.69244117;stroke-opacity:1"
       id="rect3755-9-0"
       width="23.886713"
       height="23.886713"
       x="264.16928"
       y="532.54614" />
    <rect
       style="fill:#444444;fill-opacity:1;stroke:#000000;stroke-width:0.69244117;stroke-opacity:1"
       id="rect3755-3"
       width="23.886713"
       height="23.886713"
       x="613.46405"
       y="411.69864" />
    <g
       style="font-style:normal;font-weight:normal;font-size:29.30021477px;line-height:100%;font-family:Sans;letter-spacing:0px;word-spacing:0px;fill:#000000;fill-opacity:1;stroke:none"
       id="text4483-1-4">
      <path
         d="m 623.1565,450.29409 q 0,0.89659 0.0176,1.63495 0.0176,0.72079 0.15822,1.42399 l -0.94932,0 -0.35161,-1.24819 -0.0703,0 q -0.3516,0.61531 -1.01964,1.01965 -0.66805,0.40434 -1.56464,0.40434 -1.75801,0 -2.61943,-1.10755 -0.84385,-1.10754 -0.84385,-3.46328 0,-2.25026 1.05481,-3.41055 1.07238,-1.17786 2.93588,-1.17786 0.65046,0 1.01965,0.0703 0.38676,0.0703 0.82626,0.22854 l 0,-3.65667 1.40641,0 0,9.28231 z m -3.55118,2.00413 q 0.89658,0 1.42399,-0.45708 0.5274,-0.47466 0.72078,-1.42399 l 0,-4.35987 q -0.31644,-0.24612 -0.72078,-0.3516 -0.40435,-0.10548 -1.07239,-0.10548 -1.21303,0 -1.89866,0.80868 -0.68562,0.79111 -0.68562,2.54912 0,0.72078 0.10548,1.33609 0.12306,0.6153 0.38676,1.05481 0.26371,0.4395 0.68563,0.7032 0.4395,0.24612 1.05481,0.24612 z"
         style="font-style:normal;font-variant:normal;font-weight:normal;font-stretch:normal;font-size:17.58012772px;line-height:100%;font-family:'PT Sans';-inkscape-font-specification:'PT Sans'"
         id="path4199" />
      <path
         d="m 625.35594,448.92284 q 0,-2.23268 0.98449,-3.41055 1.00207,-1.19544 2.86556,-1.19544 0.98449,0 1.70527,0.33402 0.73837,0.31644 1.21303,0.93174 0.47466,0.59773 0.70321,1.45916 0.22854,0.84384 0.22854,1.88107 0,2.23268 -1.00207,3.42812 -0.98449,1.17787 -2.84798,1.17787 -0.98449,0 -1.72285,-0.31644 -0.72079,-0.33402 -1.19545,-0.93175 -0.47467,-0.6153 -0.70321,-1.45915 -0.22854,-0.86142 -0.22854,-1.89865 z m 1.45915,0 q 0,0.66804 0.12306,1.28335 0.14064,0.6153 0.42193,1.07239 0.28128,0.45708 0.73836,0.73836 0.45708,0.28128 1.10755,0.28128 2.3909,0.0176 2.3909,-3.37538 0,-0.68563 -0.14064,-1.30093 -0.12307,-0.6153 -0.40435,-1.07239 -0.28128,-0.45708 -0.73836,-0.72078 -0.45709,-0.28129 -1.10755,-0.28129 -2.3909,-0.0176 -2.3909,3.37539 z"
         style="font-style:normal;font-variant:normal;font-weight:normal;font-stretch:normal;font-size:17.58012772px;line-height:100%;font-family:'PT Sans';-inkscape-font-specification:'PT Sans'"
         id="path4201" />
      <path
         d="m 641.25112,452.73773 q -0.5274,0.38676 -1.24819,0.58014 -0.72078,0.21096 -1.51189,0.21096 -1.01964,0 -1.72285,-0.31644 -0.7032,-0.33402 -1.16029,-0.93175 -0.4395,-0.6153 -0.65046,-1.45915 -0.19338,-0.86142 -0.19338,-1.89865 0,-2.23268 0.98448,-3.41055 0.98449,-1.19544 2.8304,-1.19544 0.84385,0 1.42399,0.14064 0.59773,0.12306 1.07239,0.36918 l -0.40434,1.21303 q -0.40434,-0.22854 -0.89659,-0.3516 -0.49224,-0.14065 -1.05481,-0.14065 -2.49637,0 -2.49637,3.37539 0,0.66804 0.12306,1.28335 0.14064,0.59772 0.4395,1.07239 0.31644,0.45708 0.80869,0.73836 0.50982,0.28128 1.24819,0.28128 0.63288,0 1.12512,-0.19338 0.50983,-0.19338 0.82627,-0.4395 l 0.45708,1.07239 z"
         style="font-style:normal;font-variant:normal;font-weight:normal;font-stretch:normal;font-size:17.58012772px;line-height:100%;font-family:'PT Sans';-inkscape-font-specification:'PT Sans'"
         id="path4203" />
      <path
         d="m 645.40306,449.36234 -0.80869,0 0,3.95553 -1.40641,0 0,-12.30609 1.40641,0 0,7.48914 0.72078,-0.24613 2.72492,-3.72698 1.63496,0 -2.68976,3.5336 -0.72079,0.58015 0.87901,0.7032 2.93588,3.97311 -1.74043,0 -2.93588,-3.95553 z"
         style="font-style:normal;font-variant:normal;font-weight:normal;font-stretch:normal;font-size:17.58012772px;line-height:100%;font-family:'PT Sans';-inkscape-font-specification:'PT Sans'"
         id="path4205" />
      <path
         d="m 657.81105,452.61467 q -0.5274,0.42192 -1.33609,0.66804 -0.7911,0.24612 -1.68769,0.24612 -1.00206,0 -1.74043,-0.31644 -0.73837,-0.33402 -1.21303,-0.93175 -0.47466,-0.6153 -0.7032,-1.45915 -0.22855,-0.84384 -0.22855,-1.89865 0,-2.25026 1.00207,-3.42813 1.00207,-1.17786 2.86556,-1.17786 0.59773,0 1.19545,0.14064 0.59773,0.12306 1.07239,0.49224 0.47466,0.36918 0.77352,1.05481 0.29887,0.66804 0.29887,1.77559 0,0.58015 -0.10548,1.28335 l -5.64323,0 q 0,0.77353 0.15823,1.37125 0.15822,0.59772 0.49224,1.01965 0.33402,0.40434 0.86143,0.63288 0.54498,0.21096 1.31851,0.21096 0.59772,0 1.19544,-0.21096 0.59773,-0.21096 0.89659,-0.49224 l 0.5274,1.01965 z m -3.02378,-7.06722 q -1.03723,0 -1.67011,0.54499 -0.6153,0.54498 -0.73837,1.86349 l 4.35988,0 q 0,-1.33609 -0.50983,-1.86349 -0.50982,-0.54499 -1.44157,-0.54499 z"
         style="font-style:normal;font-variant:normal;font-weight:normal;font-stretch:normal;font-size:17.58012772px;line-height:100%;font-family:'PT Sans';-inkscape-font-specification:'PT Sans'"
         id="path4207" />
      <path
         d="m 664.47062,445.88148 q -0.5274,-0.1758 -1.00206,-0.1758 -0.75595,0 -1.19545,0.42192 -0.4395,0.40434 -0.54499,1.03723 l 0,6.15304 -1.40641,0 0,-8.79006 0.98449,0 0.2637,1.07239 0.0703,0 q 0.33403,-0.59773 0.79111,-0.91417 0.47466,-0.33402 1.19545,-0.33402 0.50982,0 1.14271,0.1758 l -0.29887,1.35367 z"
         style="font-style:normal;font-variant:normal;font-weight:normal;font-stretch:normal;font-size:17.58012772px;line-height:100%;font-family:'PT Sans';-inkscape-font-specification:'PT Sans'"
         id="path4209" />
      <path
         d="m 665.69849,447.16483 q 0,-3.16443 1.01965,-4.76422 1.03722,-1.59979 3.0062,-1.59979 2.12719,0 3.07652,1.58221 0.96691,1.56463 0.96691,4.7818 0,3.16442 -1.03723,4.76421 -1.01965,1.59979 -3.0062,1.59979 -2.09204,0 -3.05894,-1.67011 -0.96691,-1.67011 -0.96691,-4.69389 z m 1.45915,0 q 0,1.1427 0.14064,2.09203 0.15822,0.93175 0.47466,1.61737 0.31645,0.66805 0.79111,1.05481 0.49224,0.36918 1.16029,0.36918 1.33609,0 1.95139,-1.23061 0.63289,-1.24818 0.63289,-3.90278 0,-1.12513 -0.14064,-2.07446 -0.12307,-0.94933 -0.43951,-1.63495 -0.29886,-0.68563 -0.7911,-1.05481 -0.49225,-0.36918 -1.21303,-0.36918 -1.31851,0 -1.9514,1.24819 -0.6153,1.24819 -0.6153,3.88521 z"
         style="font-style:normal;font-variant:normal;font-weight:normal;font-stretch:normal;font-size:17.58012772px;line-height:100%;font-family:'PT Sans';-inkscape-font-specification:'PT Sans'"
         id="path4211" />
      <path
         d="m 616.95072,469.59707 2.46121,0 0,-8.50878 0.17581,-1.03723 -0.70321,0.82627 -1.93381,1.38883 -0.66805,-0.89659 3.86763,-2.98862 0.63288,0 0,11.21612 2.40848,0 0,1.30093 -6.24094,0 0,-1.30093 z"
         style="font-style:normal;font-variant:normal;font-weight:normal;font-stretch:normal;font-size:17.58012772px;line-height:100%;font-family:'PT Sans';-inkscape-font-specification:'PT Sans'"
         id="path4213" />
      <path
         d="m 626.56567,470.898 4.41261,-10.30196 0.77353,-0.86142 -1.03723,0.15822 -5.01033,0 0,-1.30093 7.34849,0 0,0.47466 -5.06308,11.83143 -1.42399,0 z"
         style="font-style:normal;font-variant:normal;font-weight:normal;font-stretch:normal;font-size:17.58012772px;line-height:100%;font-family:'PT Sans';-inkscape-font-specification:'PT Sans'"
         id="path4215" />
      <path
         d="m 642.05239,461.38715 q 0,0.93175 -0.3516,1.91623 -0.33402,0.96691 -0.89659,1.9514 -0.54498,0.98448 -1.23061,1.93381 -0.68562,0.93175 -1.37125,1.77559 l -0.86142,0.75595 0,0.0703 1.12513,-0.19338 3.83246,0 0,1.30093 -6.99689,0 0,-0.50982 q 0.38677,-0.40435 0.93175,-1.00207 0.54498,-0.59773 1.12513,-1.31851 0.59772,-0.73837 1.16029,-1.54705 0.58014,-0.82627 1.03722,-1.67012 0.47467,-0.84384 0.75595,-1.67011 0.28128,-0.82626 0.28128,-1.56463 0,-0.86142 -0.49224,-1.42399 -0.49225,-0.58014 -1.49431,-0.58014 -0.66805,0 -1.30093,0.28128 -0.63289,0.2637 -1.08997,0.6153 l -0.58014,-1.00206 q 0.6153,-0.52741 1.45915,-0.82627 0.84384,-0.29886 1.81075,-0.29886 0.75594,0 1.33609,0.22854 0.58014,0.21096 0.98449,0.6153 0.40434,0.40435 0.6153,0.96691 0.21096,0.54498 0.21096,1.19545 z"
         style="font-style:normal;font-variant:normal;font-weight:normal;font-stretch:normal;font-size:17.58012772px;line-height:100%;font-family:'PT Sans';-inkscape-font-specification:'PT Sans'"
         id="path4217" />
      <path
         d="m 644.65288,470.08931 q 0,-0.47466 0.2637,-0.73836 0.28128,-0.28128 0.73836,-0.28128 0.47467,0 0.75595,0.28128 0.28128,0.2637 0.28128,0.73836 0,0.45709 -0.28128,0.73837 -0.28128,0.28128 -0.75595,0.28128 -0.45708,0 -0.73836,-0.28128 -0.2637,-0.28128 -0.2637,-0.73837 z"
         style="font-style:normal;font-variant:normal;font-weight:normal;font-stretch:normal;font-size:17.58012772px;line-height:100%;font-family:'PT Sans';-inkscape-font-specification:'PT Sans'"
         id="path4219" />
      <path
         d="m 649.46709,469.59707 2.46121,0 0,-8.50878 0.1758,-1.03723 -0.7032,0.82627 -1.93381,1.38883 -0.66805,-0.89659 3.86763,-2.98862 0.63288,0 0,11.21612 2.40848,0 0,1.30093 -6.24094,0 0,-1.30093 z"
         style="font-style:normal;font-variant:normal;font-weight:normal;font-stretch:normal;font-size:17.58012772px;line-height:100%;font-family:'PT Sans';-inkscape-font-specification:'PT Sans'"
         id="path4221" />
      <path
         d="m 659.08204,470.898 4.41261,-10.30196 0.77353,-0.86142 -1.03723,0.15822 -5.01033,0 0,-1.30093 7.34849,0 0,0.47466 -5.06308,11.83143 -1.42399,0 z"
         style="font-style:normal;font-variant:normal;font-weight:normal;font-stretch:normal;font-size:17.58012772px;line-height:100%;font-family:'PT Sans';-inkscape-font-specification:'PT Sans'"
         id="path4223" />
      <path
         d="m 665.66662,470.08931 q 0,-0.47466 0.2637,-0.73836 0.28129,-0.28128 0.73837,-0.28128 0.47466,0 0.75594,0.28128 0.28129,0.2637 0.28129,0.73836 0,0.45709 -0.28129,0.73837 -0.28128,0.28128 -0.75594,0.28128 -0.45708,0 -0.73837,-0.28128 -0.2637,-0.28128 -0.2637,-0.73837 z"
         style="font-style:normal;font-variant:normal;font-weight:normal;font-stretch:normal;font-size:17.58012772px;line-height:100%;font-family:'PT Sans';-inkscape-font-specification:'PT Sans'"
         id="path4225" />
      <path
         d="m 669.33812,464.74495 q 0,-3.16442 1.01965,-4.76421 1.03723,-1.59979 3.0062,-1.59979 2.1272,0 3.07652,1.58221 0.96691,1.56463 0.96691,4.78179 0,3.16443 -1.03723,4.76422 -1.01964,1.59979 -3.0062,1.59979 -2.09203,0 -3.05894,-1.67011 -0.96691,-1.67011 -0.96691,-4.6939 z m 1.45915,0 q 0,1.14271 0.14064,2.09204 0.15822,0.93175 0.47467,1.61737 0.31644,0.66805 0.7911,1.05481 0.49225,0.36918 1.16029,0.36918 1.33609,0 1.9514,-1.23061 0.63288,-1.24819 0.63288,-3.90279 0,-1.12512 -0.14064,-2.07445 -0.12306,-0.94933 -0.4395,-1.63495 -0.29887,-0.68563 -0.79111,-1.05481 -0.49224,-0.36918 -1.21303,-0.36918 -1.31851,0 -1.95139,1.24819 -0.61531,1.24818 -0.61531,3.8852 z"
         style="font-style:normal;font-variant:normal;font-weight:normal;font-stretch:normal;font-size:17.58012772px;line-height:100%;font-family:'PT Sans';-inkscape-font-specification:'PT Sans'"
         id="path4227" />
      <path
         d="m 679.0234,470.08931 q 0,-0.47466 0.2637,-0.73836 0.28128,-0.28128 0.73837,-0.28128 0.47466,0 0.75594,0.28128 0.28128,0.2637 0.28128,0.73836 0,0.45709 -0.28128,0.73837 -0.28128,0.28128 -0.75594,0.28128 -0.45709,0 -0.73837,-0.28128 -0.2637,-0.28128 -0.2637,-0.73837 z"
         style="font-style:normal;font-variant:normal;font-weight:normal;font-stretch:normal;font-size:17.58012772px;line-height:100%;font-family:'PT Sans';-inkscape-font-specification:'PT Sans'"
         id="path4229" />
      <path
         d="m 683.83761,469.59707 2.46122,0 0,-8.50878 0.1758,-1.03723 -0.7032,0.82627 -1.93382,1.38883 -0.66804,-0.89659 3.86762,-2.98862 0.63289,0 0,11.21612 2.40848,0 0,1.30093 -6.24095,0 0,-1.30093 z"
         style="font-style:normal;font-variant:normal;font-weight:normal;font-stretch:normal;font-size:17.58012772px;line-height:100%;font-family:'PT Sans';-inkscape-font-specification:'PT Sans'"
         id="path4231" />
      <path
         d="m 697.28503,458.38095 1.10755,0.49224 -6.41674,14.48603 -1.10755,-0.49225 6.41674,-14.48602 z"
         style="font-style:normal;font-variant:normal;font-weight:normal;font-stretch:normal;font-size:17.58012772px;line-height:100%;font-family:'PT Sans';-inkscape-font-specification:'PT Sans'"
         id="path4233" />
      <path
         d="m 699.63225,469.59707 2.46122,0 0,-8.50878 0.1758,-1.03723 -0.70321,0.82627 -1.93381,1.38883 -0.66804,-0.89659 3.86762,-2.98862 0.63289,0 0,11.21612 2.40848,0 0,1.30093 -6.24095,0 0,-1.30093 z"
         style="font-style:normal;font-variant:normal;font-weight:normal;font-stretch:normal;font-size:17.58012772px;line-height:100%;font-family:'PT Sans';-inkscape-font-specification:'PT Sans'"
         id="path4235" />
      <path
         d="m 715.96282,467.18859 q 0,0.80869 -0.24613,1.52947 -0.24612,0.70321 -0.72078,1.24819 -0.47466,0.52741 -1.17787,0.84385 -0.70321,0.29886 -1.59979,0.29886 -0.87901,0 -1.58221,-0.28128 -0.70321,-0.28128 -1.21303,-0.82627 -0.50983,-0.56256 -0.79111,-1.37125 -0.2637,-0.80868 -0.2637,-1.86349 0,-1.74043 0.4395,-3.19958 0.45709,-1.47674 1.24819,-2.5667 0.79111,-1.08997 1.8635,-1.75802 1.08996,-0.68562 2.35573,-0.86142 l 0.29887,1.12513 q -0.98449,0.1758 -1.79318,0.66804 -0.80868,0.49224 -1.42399,1.21303 -0.59772,0.72078 -0.98449,1.61737 -0.38676,0.89659 -0.5274,1.84591 0.28128,-0.47466 0.94933,-0.86142 0.66804,-0.40434 1.63495,-0.40434 1.65253,0 2.58428,0.94932 0.94933,0.94933 0.94933,2.6546 z m -1.45916,0.14064 q 0,-1.24819 -0.58014,-1.88107 -0.58014,-0.63289 -1.79317,-0.63289 -0.86143,0 -1.49431,0.42193 -0.61531,0.42192 -0.86143,0.94932 -0.0352,0.24613 -0.0352,0.40435 0,0.15822 0,0.3516 0,0.54498 0.14064,1.07239 0.15822,0.5274 0.47466,0.94932 0.31645,0.40435 0.77353,0.66805 0.47466,0.24612 1.10755,0.24612 0.50982,0 0.91417,-0.19338 0.42192,-0.19338 0.72078,-0.5274 0.29886,-0.33403 0.45708,-0.80869 0.1758,-0.47466 0.1758,-1.01965 z"
         style="font-style:normal;font-variant:normal;font-weight:normal;font-stretch:normal;font-size:17.58012772px;line-height:100%;font-family:'PT Sans';-inkscape-font-specification:'PT Sans'"
         id="path4237" />
    </g>
    <rect
       style="fill:#444444;fill-opacity:1;stroke:#000000;stroke-width:0.69244117;stroke-opacity:1"
       id="rect3755-9-9"
       width="23.886713"
       height="23.886715"
       x="508.32129"
       y="289.48566" />
    <rect
       style="fill:#444444;fill-opacity:1;stroke:#000000;stroke-width:0.69244117;stroke-opacity:1"
       id="rect3755-9-9-2"
       width="23.886713"
       height="23.886715"
       x="508.32129"
       y="532.54614" />
    <g
       style="font-style:normal;font-weight:normal;font-size:29.30021477px;line-height:125%;font-family:Sans;letter-spacing:0px;word-spacing:0px;fill:#000000;fill-opacity:1;stroke:none"
       id="text4483-3">
      <path
         d="m 464.9449,325.88536 0.49224,1.67011 0.0176,0 0.43951,-1.70527 1.96897,-5.11582 1.51189,0 -3.74456,8.98345 -0.59773,0 -3.81489,-8.98345 1.61738,0 2.10961,5.15098 z"
         style="font-style:normal;font-variant:normal;font-weight:normal;font-stretch:normal;font-size:17.58012772px;font-family:'PT Sans';-inkscape-font-specification:'PT Sans'"
         id="path4292" />
      <path
         d="m 477.10513,328.82124 q -0.5274,0.42192 -1.33609,0.66804 -0.79111,0.24613 -1.68769,0.24613 -1.00207,0 -1.74044,-0.31645 -0.73836,-0.33402 -1.21302,-0.93174 -0.47467,-0.61531 -0.70321,-1.45915 -0.22854,-0.84385 -0.22854,-1.89866 0,-2.25025 1.00207,-3.42812 1.00206,-1.17787 2.86556,-1.17787 0.59772,0 1.19545,0.14064 0.59772,0.12306 1.07238,0.49224 0.47467,0.36919 0.77353,1.05481 0.29886,0.66805 0.29886,1.77559 0,0.58015 -0.10548,1.28335 l -5.64322,0 q 0,0.77353 0.15822,1.37125 0.15822,0.59773 0.49224,1.01965 0.33403,0.40434 0.86143,0.63289 0.54498,0.21096 1.31851,0.21096 0.59772,0 1.19545,-0.21096 0.59772,-0.21097 0.89659,-0.49225 l 0.5274,1.01965 z m -3.02378,-7.06721 q -1.03723,0 -1.67011,0.54498 -0.61531,0.54499 -0.73837,1.8635 l 4.35987,0 q 0,-1.33609 -0.50982,-1.8635 -0.50983,-0.54498 -1.44157,-0.54498 z"
         style="font-style:normal;font-variant:normal;font-weight:normal;font-stretch:normal;font-size:17.58012772px;font-family:'PT Sans';-inkscape-font-specification:'PT Sans'"
         id="path4294" />
      <path
         d="m 478.4555,320.73438 1.37125,0 0,-1.74043 1.40641,-0.40434 0,2.14477 2.3909,0 0,1.23061 -2.3909,0 0,4.8697 q 0,0.91416 0.22854,1.30092 0.22855,0.36919 0.77353,0.36919 0.45708,0 0.77353,-0.0879 0.31644,-0.10548 0.7032,-0.26371 l 0.31644,1.07239 q -0.47466,0.22854 -1.03722,0.36919 -0.56257,0.14064 -1.21303,0.14064 -1.07239,0 -1.51189,-0.59773 -0.43951,-0.6153 -0.43951,-2.03929 l 0,-5.1334 -1.37125,0 0,-1.23061 z"
         style="font-style:normal;font-variant:normal;font-weight:normal;font-stretch:normal;font-size:17.58012772px;font-family:'PT Sans';-inkscape-font-specification:'PT Sans'"
         id="path4296" />
      <path
         d="m 491.23351,329.52444 0,-5.01033 q 0,-0.68563 -0.0879,-1.19545 -0.0703,-0.5274 -0.28128,-0.86143 -0.21097,-0.3516 -0.58015,-0.5274 -0.3516,-0.1758 -0.93174,-0.1758 -0.82627,0 -1.49432,0.54498 -0.66804,0.52741 -0.86142,1.37125 l 0,5.85418 -1.40641,0 0,-12.30608 1.40641,0 0,4.50051 0.0703,0 q 0.45708,-0.54499 1.08997,-0.86143 0.65046,-0.33402 1.59979,-0.33402 0.73836,0 1.28335,0.1758 0.54498,0.15822 0.89658,0.58014 0.36919,0.42193 0.52741,1.14271 0.1758,0.70321 0.1758,1.79318 l 0,5.30919 -1.40641,0 z"
         style="font-style:normal;font-variant:normal;font-weight:normal;font-stretch:normal;font-size:17.58012772px;font-family:'PT Sans';-inkscape-font-specification:'PT Sans'"
         id="path4298" />
      <path
         d="m 497.9645,328.5048 q 0.59772,0 1.10755,-0.1758 0.50982,-0.17581 0.879,-0.50983 0.36919,-0.3516 0.58015,-0.82626 0.21096,-0.47467 0.21096,-1.03723 0,-1.23061 -0.73837,-1.82833 -0.72078,-0.59773 -2.00413,-0.59773 l -1.30093,0 0,-0.50982 2.53154,-3.90279 0.80868,-0.77353 -1.1427,0.1758 -3.48087,0 0,-1.30092 6.27611,0 0,0.50982 -2.79524,4.20165 -0.61531,0.50982 0,0.0352 0.59773,-0.12306 q 0.7032,0.0176 1.30093,0.2637 0.59772,0.22855 1.03722,0.68563 0.43951,0.4395 0.68563,1.07239 0.24612,0.6153 0.24612,1.40641 0,0.94932 -0.33402,1.68769 -0.33402,0.73837 -0.91417,1.24819 -0.56256,0.49224 -1.33609,0.75594 -0.77352,0.26371 -1.63495,0.26371 -0.79111,0 -1.42399,-0.12306 -0.63289,-0.12307 -1.10755,-0.31645 l 0.36918,-1.24819 q 0.40435,0.19339 0.94933,0.33403 0.56256,0.12306 1.24819,0.12306 z"
         style="font-style:normal;font-variant:normal;font-weight:normal;font-stretch:normal;font-size:17.58012772px;font-family:'PT Sans';-inkscape-font-specification:'PT Sans'"
         id="path4300" />
      <path
         d="m 512.64253,325.74472 -2.07445,0 0,3.77972 -1.37125,0 0,-3.77972 -5.41468,0 0,-0.58015 5.8366,-8.1396 0.94933,0 0,7.48914 2.07445,0 0,1.23061 z m -3.4457,-5.06308 0.1758,-1.44157 -0.0527,0 -0.61531,1.19545 -2.47879,3.3578 -0.84385,0.86143 1.23061,-0.14064 2.58428,0 0,-3.83247 z"
         style="font-style:normal;font-variant:normal;font-weight:normal;font-stretch:normal;font-size:17.58012772px;font-family:'PT Sans';-inkscape-font-specification:'PT Sans'"
         id="path4302" />
      <path
         d="m 513.76629,323.3714 q 0,-3.16442 1.01964,-4.76421 1.03723,-1.5998 3.00621,-1.5998 2.12719,0 3.07652,1.58222 0.96691,1.56463 0.96691,4.78179 0,3.16442 -1.03723,4.76421 -1.01965,1.5998 -3.0062,1.5998 -2.09204,0 -3.05895,-1.67012 -0.9669,-1.67011 -0.9669,-4.69389 z m 1.45915,0 q 0,1.14271 0.14064,2.09204 0.15822,0.93174 0.47466,1.61737 0.31644,0.66804 0.79111,1.0548 0.49224,0.36919 1.16029,0.36919 1.33609,0 1.95139,-1.23061 0.63289,-1.24819 0.63289,-3.90279 0,-1.12513 -0.14065,-2.07446 -0.12306,-0.94932 -0.4395,-1.63495 -0.29886,-0.68562 -0.7911,-1.0548 -0.49225,-0.36919 -1.21303,-0.36919 -1.31851,0 -1.9514,1.24819 -0.6153,1.24819 -0.6153,3.88521 z"
         style="font-style:normal;font-variant:normal;font-weight:normal;font-stretch:normal;font-size:17.58012772px;font-family:'PT Sans';-inkscape-font-specification:'PT Sans'"
         id="path4304" />
      <path
         d="m 522.9769,320.73438 1.37125,0 0,-0.49224 q 0,-0.80869 0.12306,-1.40641 0.14064,-0.59773 0.4395,-0.96691 0.29887,-0.38676 0.77353,-0.56256 0.47466,-0.19339 1.17787,-0.19339 0.56256,0 0.98449,0.0703 0.4395,0.0703 0.91416,0.26371 l -0.31644,1.17787 q -0.40434,-0.17581 -0.77353,-0.22855 -0.3516,-0.0527 -0.66804,-0.0527 -0.45708,0 -0.72079,0.14064 -0.24612,0.14065 -0.36918,0.42193 -0.10548,0.2637 -0.14064,0.66804 -0.0176,0.38677 -0.0176,0.91417 l 0,0.24612 2.33816,0 0,1.23061 -2.33816,0 0,7.55945 -1.40641,0 0,-7.55945 -1.37125,0 0,-1.23061 z"
         style="font-style:normal;font-variant:normal;font-weight:normal;font-stretch:normal;font-size:17.58012772px;font-family:'PT Sans';-inkscape-font-specification:'PT Sans'"
         id="path4306" />
    </g>
    <g
       style="font-style:normal;font-weight:normal;font-size:29.30021477px;line-height:125%;font-family:Sans;letter-spacing:0px;word-spacing:0px;fill:#000000;fill-opacity:1;stroke:none"
       id="text4483-3-8">
      <path
         d="m 464.48341,568.63765 0.49225,1.67011 0.0176,0 0.4395,-1.70527 1.96897,-5.11582 1.5119,0 -3.74457,8.98344 -0.59773,0 -3.81488,-8.98344 1.61737,0 2.10961,5.15098 z"
         style="font-style:normal;font-variant:normal;font-weight:normal;font-stretch:normal;font-size:17.58012772px;font-family:'PT Sans';-inkscape-font-specification:'PT Sans'"
         id="path4240" />
      <path
         d="m 476.64364,571.57353 q -0.5274,0.42192 -1.33609,0.66804 -0.7911,0.24612 -1.68769,0.24612 -1.00207,0 -1.74043,-0.31644 -0.73837,-0.33402 -1.21303,-0.93174 -0.47466,-0.61531 -0.70321,-1.45915 -0.22854,-0.84385 -0.22854,-1.89866 0,-2.25025 1.00207,-3.42812 1.00207,-1.17787 2.86556,-1.17787 0.59772,0 1.19545,0.14064 0.59772,0.12306 1.07239,0.49224 0.47466,0.36919 0.77352,1.05481 0.29886,0.66805 0.29886,1.77559 0,0.58015 -0.10548,1.28335 l -5.64322,0 q 0,0.77353 0.15822,1.37125 0.15823,0.59773 0.49225,1.01965 0.33402,0.40434 0.86142,0.63288 0.54499,0.21097 1.31851,0.21097 0.59773,0 1.19545,-0.21097 0.59773,-0.21096 0.89659,-0.49224 l 0.5274,1.01965 z m -3.02378,-7.06721 q -1.03723,0 -1.67011,0.54498 -0.61531,0.54498 -0.73837,1.86349 l 4.35987,0 q 0,-1.33609 -0.50982,-1.86349 -0.50982,-0.54498 -1.44157,-0.54498 z"
         style="font-style:normal;font-variant:normal;font-weight:normal;font-stretch:normal;font-size:17.58012772px;font-family:'PT Sans';-inkscape-font-specification:'PT Sans'"
         id="path4242" />
      <path
         d="m 477.99402,563.48667 1.37125,0 0,-1.74043 1.40641,-0.40435 0,2.14478 2.39089,0 0,1.23061 -2.39089,0 0,4.86969 q 0,0.91417 0.22854,1.30093 0.22854,0.36919 0.77352,0.36919 0.45709,0 0.77353,-0.0879 0.31644,-0.10549 0.7032,-0.26371 l 0.31645,1.07239 q -0.47467,0.22854 -1.03723,0.36918 -0.56257,0.14064 -1.21303,0.14064 -1.07239,0 -1.51189,-0.59772 -0.4395,-0.6153 -0.4395,-2.03929 l 0,-5.1334 -1.37125,0 0,-1.23061 z"
         style="font-style:normal;font-variant:normal;font-weight:normal;font-stretch:normal;font-size:17.58012772px;font-family:'PT Sans';-inkscape-font-specification:'PT Sans'"
         id="path4244" />
      <path
         d="m 490.77202,572.27673 0,-5.01033 q 0,-0.68563 -0.0879,-1.19545 -0.0703,-0.52741 -0.28128,-0.86143 -0.21096,-0.3516 -0.58014,-0.5274 -0.35161,-0.1758 -0.93175,-0.1758 -0.82627,0 -1.49431,0.54498 -0.66805,0.5274 -0.86143,1.37125 l 0,5.85418 -1.40641,0 0,-12.30609 1.40641,0 0,4.50052 0.0703,0 q 0.45709,-0.54499 1.08997,-0.86143 0.65046,-0.33402 1.59979,-0.33402 0.73837,0 1.28335,0.1758 0.54498,0.15822 0.89659,0.58014 0.36918,0.42193 0.5274,1.14271 0.1758,0.70321 0.1758,1.79317 l 0,5.3092 -1.40641,0 z"
         style="font-style:normal;font-variant:normal;font-weight:normal;font-stretch:normal;font-size:17.58012772px;font-family:'PT Sans';-inkscape-font-specification:'PT Sans'"
         id="path4246" />
      <path
         d="m 500.73776,571.69659 q -0.52741,0.38676 -1.24819,0.58014 -0.72079,0.21096 -1.51189,0.21096 -1.01965,0 -1.72286,-0.31644 -0.7032,-0.33402 -1.16028,-0.93174 -0.43951,-0.61531 -0.65047,-1.45915 -0.19338,-0.86143 -0.19338,-1.89866 0,-2.23267 0.98449,-3.41054 0.98448,-1.19545 2.8304,-1.19545 0.84384,0 1.42399,0.14064 0.59772,0.12306 1.07239,0.36918 l -0.40435,1.21303 q -0.40434,-0.22854 -0.89658,-0.3516 -0.49225,-0.14064 -1.05481,-0.14064 -2.49638,0 -2.49638,3.37538 0,0.66805 0.12306,1.28335 0.14064,0.59773 0.4395,1.07239 0.31645,0.45708 0.80869,0.73836 0.50982,0.28129 1.24819,0.28129 0.63288,0 1.12513,-0.19339 0.50982,-0.19338 0.82626,-0.4395 l 0.45709,1.07239 z"
         style="font-style:normal;font-variant:normal;font-weight:normal;font-stretch:normal;font-size:17.58012772px;font-family:'PT Sans';-inkscape-font-specification:'PT Sans'"
         id="path4248" />
      <path
         d="m 505.43467,571.25709 q 0.59773,0 1.10755,-0.17581 0.50982,-0.1758 0.87901,-0.50982 0.36918,-0.3516 0.58014,-0.82626 0.21096,-0.47467 0.21096,-1.03723 0,-1.23061 -0.73836,-1.82834 -0.72079,-0.59772 -2.00414,-0.59772 l -1.30093,0 0,-0.50982 2.53154,-3.90279 0.80869,-0.77353 -1.14271,0.1758 -3.48087,0 0,-1.30093 6.27611,0 0,0.50983 -2.79524,4.20165 -0.6153,0.50982 0,0.0352 0.59772,-0.12306 q 0.7032,0.0176 1.30093,0.2637 0.59772,0.22854 1.03723,0.68563 0.4395,0.4395 0.68562,1.07239 0.24612,0.6153 0.24612,1.40641 0,0.94932 -0.33402,1.68769 -0.33402,0.73836 -0.91417,1.24819 -0.56256,0.49224 -1.33609,0.75594 -0.77352,0.2637 -1.63495,0.2637 -0.7911,0 -1.42399,-0.12306 -0.63288,-0.12306 -1.10755,-0.31644 L 503.23716,570.8 q 0.40434,0.19338 0.94932,0.33403 0.56257,0.12306 1.24819,0.12306 z"
         style="font-style:normal;font-variant:normal;font-weight:normal;font-stretch:normal;font-size:17.58012772px;font-family:'PT Sans';-inkscape-font-specification:'PT Sans'"
         id="path4250" />
      <path
         d="m 514.64529,571.25709 q 1.21302,0 2.00413,-0.70321 0.79111,-0.7032 0.79111,-2.03929 0,-1.28335 -0.79111,-1.91624 -0.77353,-0.63288 -2.14478,-0.63288 l -1.47673,0.0879 0,-6.08273 5.485,0 0,1.30093 -4.16649,0 0,3.49845 0.75595,-0.0352 q 1.74043,0.0176 2.7425,0.96691 1.00207,0.94932 1.00207,2.72492 0,0.98448 -0.33403,1.75801 -0.33402,0.75594 -0.91416,1.26577 -0.56257,0.50982 -1.33609,0.77352 -0.77353,0.2637 -1.65253,0.2637 -0.79111,0 -1.33609,-0.0879 -0.54499,-0.0879 -1.01965,-0.2637 l 0.36918,-1.19545 q 0.40434,0.15822 0.86143,0.24613 0.47466,0.0703 1.16029,0.0703 z"
         style="font-style:normal;font-variant:normal;font-weight:normal;font-stretch:normal;font-size:17.58012772px;font-family:'PT Sans';-inkscape-font-specification:'PT Sans'"
         id="path4252" />
      <path
         d="m 528.58495,569.25295 q 0,0.89659 0.0176,1.63495 0.0176,0.72079 0.15822,1.42399 l -0.94932,0 -0.3516,-1.24819 -0.0703,0 q -0.3516,0.61531 -1.01964,1.01965 -0.66805,0.40434 -1.56463,0.40434 -1.75802,0 -2.61944,-1.10754 -0.84385,-1.10755 -0.84385,-3.46329 0,-2.25025 1.05481,-3.41054 1.07239,-1.17787 2.93588,-1.17787 0.65046,0 1.01965,0.0703 0.38676,0.0703 0.82626,0.22854 l 0,-3.65667 1.40641,0 0,9.28231 z m -3.55118,2.00414 q 0.89658,0 1.42399,-0.45709 0.5274,-0.47466 0.72078,-1.42399 l 0,-4.35987 q -0.31644,-0.24612 -0.72078,-0.3516 -0.40434,-0.10548 -1.07239,-0.10548 -1.21303,0 -1.89865,0.80868 -0.68563,0.79111 -0.68563,2.54912 0,0.72079 0.10548,1.33609 0.12306,0.61531 0.38676,1.05481 0.26371,0.4395 0.68563,0.7032 0.4395,0.24613 1.05481,0.24613 z"
         style="font-style:normal;font-variant:normal;font-weight:normal;font-stretch:normal;font-size:17.58012772px;font-family:'PT Sans';-inkscape-font-specification:'PT Sans'"
         id="path4254" />
    </g>
    <path
       style="fill:none;stroke:#000000;stroke-width:1.5;stroke-linecap:butt;stroke-linejoin:miter;stroke-miterlimit:4;stroke-dasharray:4.5, 4.5;stroke-dashoffset:0;stroke-opacity:1"
       d="m 289.49827,301.4283 214.19053,0"
       id="path4690"
       inkscape:connector-curvature="0" />
    <path
       style="fill:none;stroke:#000000;stroke-width:1.5;stroke-linecap:butt;stroke-linejoin:miter;stroke-miterlimit:4;stroke-dasharray:4.5, 4.5;stroke-dashoffset:0;stroke-opacity:1"
       d="m 289.5084,544.48876 216.17028,0"
       id="path4690-1"
       inkscape:connector-curvature="0" />
    <path
       style="fill:none;stroke:#000000;stroke-width:1.36550856;stroke-linecap:butt;stroke-linejoin:miter;stroke-miterlimit:4;stroke-dasharray:none;stroke-opacity:1"
       d="m 572.836,266.95058 0,312.01734"
       id="path4710"
       inkscape:connector-curvature="0" />
    <path
       style="fill:none;stroke:#000000;stroke-width:1.36550856;stroke-linecap:butt;stroke-linejoin:miter;stroke-miterlimit:4;stroke-dasharray:none;stroke-opacity:1"
       d="m 532.55348,302.19437 c 40.28116,-2e-5 40.28116,-2e-5 40.28116,-2e-5"
       id="path4714"
       inkscape:connector-curvature="0" />
    <path
       style="fill:none;stroke:#000000;stroke-width:1.36550856;stroke-linecap:butt;stroke-linejoin:miter;stroke-miterlimit:4;stroke-dasharray:none;stroke-opacity:1"
       d="m 532.55281,544.5728 c 40.28116,-10e-6 40.28116,-10e-6 40.28116,-10e-6"
       id="path4714-5"
       inkscape:connector-curvature="0" />
    <path
       style="fill:none;stroke:#000000;stroke-width:1.36550856;stroke-linecap:butt;stroke-linejoin:miter;stroke-miterlimit:4;stroke-dasharray:none;stroke-opacity:1"
       d="m 572.83531,422.95926 c 40.28116,-10e-6 40.28116,-10e-6 40.28116,-10e-6"
       id="path4714-5-4"
       inkscape:connector-curvature="0" />
    <path
       style="fill:none;stroke:#000000;stroke-width:1.36550856;stroke-linecap:butt;stroke-linejoin:miter;stroke-miterlimit:4;stroke-dasharray:none;stroke-opacity:1"
       d="m 786.5445,422.95925 c 40.2811,-2e-5 40.2811,-2e-5 40.2811,-2e-5"
       id="path4714-5-4-5"
       inkscape:connector-curvature="0" />
    <path
       style="fill:none;stroke:#000000;stroke-width:1.62768447;stroke-linecap:butt;stroke-linejoin:miter;stroke-miterlimit:4;stroke-dasharray:none;stroke-opacity:1"
       d="m 826.1445,215.70135 0,443.1912"
       id="path4710-1"
       inkscape:connector-curvature="0" />
    <g
       style="font-style:normal;font-weight:normal;font-size:29.30021477px;line-height:125%;font-family:Sans;letter-spacing:0px;word-spacing:0px;fill:#000000;fill-opacity:1;stroke:none"
       id="text4483-1-6">
      <path
         d="m 819.9537,205.28218 -7.27818,0 0,-12.30609 1.45915,0 0,11.00516 5.81903,0 0,1.30093 z"
         style="font-style:normal;font-variant:normal;font-weight:normal;font-stretch:normal;font-size:17.58012772px;font-family:'PT Sans';-inkscape-font-specification:'PT Sans'"
         id="path4177" />
      <path
         d="m 826.32402,201.87164 -4.53567,0 -1.23061,3.41054 -1.44157,0 4.65873,-12.49947 0.66805,0 4.67631,12.49947 -1.52947,0 -1.26577,-3.41054 z m -4.06101,-1.26577 3.62151,0 -1.37125,-3.74457 -0.43951,-1.86349 -0.0176,0 -0.4395,1.89865 -1.35367,3.70941 z"
         style="font-style:normal;font-variant:normal;font-weight:normal;font-stretch:normal;font-size:17.58012772px;font-family:'PT Sans';-inkscape-font-specification:'PT Sans'"
         id="path4179" />
      <path
         d="m 832.98579,197.23048 -0.94933,-1.77559 -0.0703,0 0.1758,1.77559 0,8.0517 -1.37125,0 0,-12.49947 0.77353,0 5.88934,8.20992 0.91417,1.68769 0.0879,0 -0.19338,-1.68769 0,-8.01654 1.37125,0 0,12.49947 -0.77353,0 -5.85418,-8.24508 z"
         style="font-style:normal;font-variant:normal;font-weight:normal;font-stretch:normal;font-size:17.58012772px;font-family:'PT Sans';-inkscape-font-specification:'PT Sans'"
         id="path4181" />
    </g>
    <g
       style="font-style:normal;font-variant:normal;font-weight:normal;font-stretch:normal;font-size:17.58012772px;line-height:125%;font-family:'PT Sans';-inkscape-font-specification:'PT Sans';text-align:center;letter-spacing:0px;word-spacing:0px;text-anchor:middle;fill:#000000;fill-opacity:1;stroke:none"
       id="text3455">
      <path
         d="m 256.34577,251.36907 q -0.5274,0.40434 -1.33609,0.56256 -0.80868,0.15822 -1.72285,0.15822 -1.10755,0 -2.07446,-0.36918 -0.9669,-0.38676 -1.68769,-1.16029 -0.72078,-0.77352 -1.14271,-1.96897 -0.42192,-1.21303 -0.42192,-2.86556 0,-1.72286 0.45708,-2.9183 0.47467,-1.21303 1.23061,-1.96898 0.77353,-0.77352 1.72286,-1.12513 0.94932,-0.3516 1.93381,-0.3516 1.05481,0 1.72285,0.12306 0.66805,0.10548 1.14271,0.29886 l -0.3516,1.28335 q -0.84385,-0.40434 -2.40848,-0.40434 -0.72078,0 -1.42399,0.2637 -0.7032,0.2637 -1.26577,0.86143 -0.54498,0.59772 -0.87901,1.56463 -0.33402,0.96691 -0.33402,2.37332 0,1.26577 0.31644,2.21509 0.31645,0.94933 0.86143,1.58221 0.56257,0.63289 1.30093,0.94933 0.75595,0.31644 1.63495,0.31644 0.79111,0 1.37125,-0.15822 0.59773,-0.15822 1.00207,-0.40434 l 0.3516,1.14271 z"
         style=""
         id="path4344" />
    </g>
    <g
       style="font-style:normal;font-variant:normal;font-weight:normal;font-stretch:normal;font-size:17.58012772px;line-height:125%;font-family:'PT Sans';-inkscape-font-specification:'PT Sans';text-align:center;letter-spacing:0px;word-spacing:0px;text-anchor:middle;fill:#000000;fill-opacity:1;stroke:none"
       id="text3455-7">
      <path
         d="m 256.34577,494.12134 q -0.5274,0.40434 -1.33609,0.56256 -0.80868,0.15823 -1.72285,0.15823 -1.10755,0 -2.07446,-0.36919 -0.9669,-0.38676 -1.68769,-1.16029 -0.72078,-0.77352 -1.14271,-1.96897 -0.42192,-1.21303 -0.42192,-2.86556 0,-1.72285 0.45708,-2.9183 0.47467,-1.21303 1.23061,-1.96898 0.77353,-0.77352 1.72286,-1.12512 0.94932,-0.35161 1.93381,-0.35161 1.05481,0 1.72285,0.12306 0.66805,0.10549 1.14271,0.29887 l -0.3516,1.28335 q -0.84385,-0.40435 -2.40848,-0.40435 -0.72078,0 -1.42399,0.2637 -0.7032,0.26371 -1.26577,0.86143 -0.54498,0.59773 -0.87901,1.56463 -0.33402,0.96691 -0.33402,2.37332 0,1.26577 0.31644,2.2151 0.31645,0.94932 0.86143,1.58221 0.56257,0.63288 1.30093,0.94932 0.75595,0.31645 1.63495,0.31645 0.79111,0 1.37125,-0.15822 0.59773,-0.15823 1.00207,-0.40435 l 0.3516,1.14271 z"
         style=""
         id="path4347" />
    </g>
    <g
       style="font-style:normal;font-variant:normal;font-weight:normal;font-stretch:normal;font-size:17.58012772px;line-height:100%;font-family:'PT Sans';-inkscape-font-specification:'PT Sans';text-align:start;letter-spacing:0px;word-spacing:0px;text-anchor:start;fill:#000000;fill-opacity:1;stroke:none"
       id="text3480">
      <path
         d="m 274.28436,328.82124 q -0.5274,0.42192 -1.33609,0.66804 -0.7911,0.24613 -1.68769,0.24613 -1.00207,0 -1.74043,-0.31645 -0.73837,-0.33402 -1.21303,-0.93174 -0.47466,-0.61531 -0.70321,-1.45915 -0.22854,-0.84385 -0.22854,-1.89866 0,-2.25025 1.00207,-3.42812 1.00207,-1.17787 2.86556,-1.17787 0.59773,0 1.19545,0.14064 0.59772,0.12306 1.07239,0.49224 0.47466,0.36919 0.77352,1.05481 0.29887,0.66805 0.29887,1.77559 0,0.58015 -0.10549,1.28335 l -5.64322,0 q 0,0.77353 0.15822,1.37125 0.15823,0.59773 0.49225,1.01965 0.33402,0.40434 0.86142,0.63289 0.54499,0.21096 1.31851,0.21096 0.59773,0 1.19545,-0.21096 0.59773,-0.21097 0.89659,-0.49225 l 0.5274,1.01965 z m -3.02378,-7.06721 q -1.03723,0 -1.67011,0.54498 -0.61531,0.54499 -0.73837,1.8635 l 4.35988,0 q 0,-1.33609 -0.50983,-1.8635 -0.50982,-0.54498 -1.44157,-0.54498 z"
         style=""
         id="path4309" />
      <path
         d="m 275.63474,320.73438 1.37125,0 0,-1.74043 1.40641,-0.40434 0,2.14477 2.39089,0 0,1.23061 -2.39089,0 0,4.8697 q 0,0.91416 0.22854,1.30092 0.22854,0.36919 0.77352,0.36919 0.45709,0 0.77353,-0.0879 0.31644,-0.10548 0.7032,-0.26371 l 0.31645,1.07239 q -0.47467,0.22854 -1.03723,0.36919 -0.56256,0.14064 -1.21303,0.14064 -1.07239,0 -1.51189,-0.59773 -0.4395,-0.6153 -0.4395,-2.03929 l 0,-5.1334 -1.37125,0 0,-1.23061 z"
         style=""
         id="path4311" />
      <path
         d="m 288.41274,329.52444 0,-5.01033 q 0,-0.68563 -0.0879,-1.19545 -0.0703,-0.5274 -0.28128,-0.86143 -0.21096,-0.3516 -0.58014,-0.5274 -0.35161,-0.1758 -0.93175,-0.1758 -0.82627,0 -1.49431,0.54498 -0.66805,0.52741 -0.86143,1.37125 l 0,5.85418 -1.40641,0 0,-12.30608 1.40641,0 0,4.50051 0.0703,0 q 0.45709,-0.54499 1.08997,-0.86143 0.65046,-0.33402 1.59979,-0.33402 0.73837,0 1.28335,0.1758 0.54498,0.15822 0.89659,0.58014 0.36918,0.42193 0.5274,1.14271 0.1758,0.70321 0.1758,1.79318 l 0,5.30919 -1.40641,0 z"
         style=""
         id="path4313" />
      <path
         d="m 291.78593,323.3714 q 0,-3.16442 1.01965,-4.76421 1.03722,-1.5998 3.0062,-1.5998 2.12719,0 3.07652,1.58222 0.96691,1.56463 0.96691,4.78179 0,3.16442 -1.03723,4.76421 -1.01965,1.5998 -3.0062,1.5998 -2.09204,0 -3.05894,-1.67012 -0.96691,-1.67011 -0.96691,-4.69389 z m 1.45915,0 q 0,1.14271 0.14064,2.09204 0.15822,0.93174 0.47466,1.61737 0.31645,0.66804 0.79111,1.0548 0.49224,0.36919 1.16029,0.36919 1.33609,0 1.95139,-1.23061 0.63289,-1.24819 0.63289,-3.90279 0,-1.12513 -0.14064,-2.07446 -0.12306,-0.94932 -0.43951,-1.63495 -0.29886,-0.68562 -0.7911,-1.0548 -0.49225,-0.36919 -1.21303,-0.36919 -1.31851,0 -1.9514,1.24819 -0.6153,1.24819 -0.6153,3.88521 z"
         style=""
         id="path4315" />
      <path
         d="m 268.4126,345.80364 2.46122,0 0,-8.50878 0.1758,-1.03723 -0.70321,0.82627 -1.93381,1.38883 -0.66804,-0.89659 3.86762,-2.98862 0.63289,0 0,11.21612 2.40848,0 0,1.30093 -6.24095,0 0,-1.30093 z"
         style=""
         id="path4317" />
      <path
         d="m 278.02756,347.10457 4.41261,-10.30195 0.77352,-0.86143 -1.03722,0.15822 -5.01034,0 0,-1.30093 7.34849,0 0,0.47467 -5.06307,11.83142 -1.42399,0 z"
         style=""
         id="path4319" />
      <path
         d="m 293.51428,337.59372 q 0,0.93175 -0.35161,1.91624 -0.33402,0.9669 -0.89658,1.95139 -0.54499,0.98449 -1.23061,1.93382 -0.68563,0.93174 -1.37125,1.77559 l -0.86143,0.75594 0,0.0703 1.12513,-0.19338 3.83247,0 0,1.30093 -6.99689,0 0,-0.50982 q 0.38676,-0.40434 0.93174,-1.00207 0.54499,-0.59772 1.12513,-1.31851 0.59773,-0.73836 1.16029,-1.54705 0.58014,-0.82627 1.03723,-1.67011 0.47466,-0.84385 0.75594,-1.67011 0.28128,-0.82627 0.28128,-1.56464 0,-0.86142 -0.49224,-1.42399 -0.49224,-0.58014 -1.49431,-0.58014 -0.66804,0 -1.30093,0.28128 -0.63288,0.2637 -1.08997,0.61531 l -0.58014,-1.00207 q 0.6153,-0.5274 1.45915,-0.82627 0.84385,-0.29886 1.81075,-0.29886 0.75595,0 1.33609,0.22854 0.58015,0.21096 0.98449,0.61531 0.40434,0.40434 0.6153,0.9669 0.21097,0.54499 0.21097,1.19545 z"
         style=""
         id="path4321" />
      <path
         d="m 296.11476,346.29589 q 0,-0.47467 0.2637,-0.73837 0.28128,-0.28128 0.73837,-0.28128 0.47466,0 0.75594,0.28128 0.28129,0.2637 0.28129,0.73837 0,0.45708 -0.28129,0.73836 -0.28128,0.28128 -0.75594,0.28128 -0.45709,0 -0.73837,-0.28128 -0.2637,-0.28128 -0.2637,-0.73836 z"
         style=""
         id="path4323" />
      <path
         d="m 300.92897,345.80364 2.46122,0 0,-8.50878 0.1758,-1.03723 -0.70321,0.82627 -1.93381,1.38883 -0.66805,-0.89659 3.86763,-2.98862 0.63289,0 0,11.21612 2.40847,0 0,1.30093 -6.24094,0 0,-1.30093 z"
         style=""
         id="path4325" />
      <path
         d="m 310.54393,347.10457 4.41261,-10.30195 0.77352,-0.86143 -1.03722,0.15822 -5.01034,0 0,-1.30093 7.34849,0 0,0.47467 -5.06307,11.83142 -1.42399,0 z"
         style=""
         id="path4327" />
      <path
         d="m 317.1285,346.29589 q 0,-0.47467 0.26371,-0.73837 0.28128,-0.28128 0.73836,-0.28128 0.47467,0 0.75595,0.28128 0.28128,0.2637 0.28128,0.73837 0,0.45708 -0.28128,0.73836 -0.28128,0.28128 -0.75595,0.28128 -0.45708,0 -0.73836,-0.28128 -0.26371,-0.28128 -0.26371,-0.73836 z"
         style=""
         id="path4329" />
      <path
         d="m 320.80001,340.95153 q 0,-3.16443 1.01964,-4.76422 1.03723,-1.59979 3.0062,-1.59979 2.1272,0 3.07653,1.58221 0.9669,1.56463 0.9669,4.7818 0,3.16442 -1.03722,4.76421 -1.01965,1.59979 -3.00621,1.59979 -2.09203,0 -3.05894,-1.67011 -0.9669,-1.67011 -0.9669,-4.69389 z m 1.45915,0 q 0,1.14271 0.14064,2.09203 0.15822,0.93175 0.47466,1.61737 0.31644,0.66805 0.79111,1.05481 0.49224,0.36918 1.16028,0.36918 1.33609,0 1.9514,-1.2306 0.63288,-1.24819 0.63288,-3.90279 0,-1.12513 -0.14064,-2.07446 -0.12306,-0.94932 -0.4395,-1.63495 -0.29886,-0.68562 -0.79111,-1.05481 -0.49224,-0.36918 -1.21303,-0.36918 -1.31851,0 -1.95139,1.24819 -0.6153,1.24819 -0.6153,3.88521 z"
         style=""
         id="path4331" />
      <path
         d="m 330.48528,346.29589 q 0,-0.47467 0.2637,-0.73837 0.28129,-0.28128 0.73837,-0.28128 0.47466,0 0.75594,0.28128 0.28129,0.2637 0.28129,0.73837 0,0.45708 -0.28129,0.73836 -0.28128,0.28128 -0.75594,0.28128 -0.45708,0 -0.73837,-0.28128 -0.2637,-0.28128 -0.2637,-0.73836 z"
         style=""
         id="path4333" />
      <path
         d="m 341.24158,337.59372 q 0,0.93175 -0.3516,1.91624 -0.33403,0.9669 -0.89659,1.95139 -0.54499,0.98449 -1.23061,1.93382 -0.68563,0.93174 -1.37125,1.77559 l -0.86143,0.75594 0,0.0703 1.12513,-0.19338 3.83247,0 0,1.30093 -6.99689,0 0,-0.50982 q 0.38676,-0.40434 0.93175,-1.00207 0.54498,-0.59772 1.12512,-1.31851 0.59773,-0.73836 1.16029,-1.54705 0.58015,-0.82627 1.03723,-1.67011 0.47466,-0.84385 0.75595,-1.67011 0.28128,-0.82627 0.28128,-1.56464 0,-0.86142 -0.49225,-1.42399 -0.49224,-0.58014 -1.49431,-0.58014 -0.66804,0 -1.30093,0.28128 -0.63288,0.2637 -1.08996,0.61531 l -0.58015,-1.00207 q 0.61531,-0.5274 1.45915,-0.82627 0.84385,-0.29886 1.81075,-0.29886 0.75595,0 1.33609,0.22854 0.58015,0.21096 0.98449,0.61531 0.40434,0.40434 0.61531,0.9669 0.21096,0.54499 0.21096,1.19545 z"
         style=""
         id="path4335" />
      <path
         d="m 348.74692,334.58752 1.10755,0.49224 -6.41675,14.48603 -1.10755,-0.49224 6.41675,-14.48603 z"
         style=""
         id="path4337" />
      <path
         d="m 351.09413,345.80364 2.46122,0 0,-8.50878 0.1758,-1.03723 -0.7032,0.82627 -1.93382,1.38883 -0.66804,-0.89659 3.86763,-2.98862 0.63288,0 0,11.21612 2.40848,0 0,1.30093 -6.24095,0 0,-1.30093 z"
         style=""
         id="path4339" />
      <path
         d="m 367.4247,343.39517 q 0,0.80868 -0.24612,1.52947 -0.24612,0.7032 -0.72079,1.24819 -0.47466,0.5274 -1.17787,0.84384 -0.7032,0.29886 -1.59979,0.29886 -0.879,0 -1.58221,-0.28128 -0.7032,-0.28128 -1.21303,-0.82626 -0.50982,-0.56257 -0.7911,-1.37125 -0.26371,-0.80869 -0.26371,-1.8635 0,-1.74043 0.43951,-3.19958 0.45708,-1.47673 1.24819,-2.5667 0.7911,-1.08997 1.86349,-1.75801 1.08997,-0.68563 2.35574,-0.86143 l 0.29886,1.12513 q -0.98449,0.1758 -1.79317,0.66804 -0.80869,0.49225 -1.42399,1.21303 -0.59773,0.72079 -0.98449,1.61737 -0.38676,0.89659 -0.52741,1.84592 0.28129,-0.47467 0.94933,-0.86143 0.66805,-0.40434 1.63495,-0.40434 1.65254,0 2.58428,0.94933 0.94933,0.94932 0.94933,2.6546 z m -1.45915,0.14064 q 0,-1.24819 -0.58015,-1.88108 -0.58014,-0.63288 -1.79317,-0.63288 -0.86143,0 -1.49431,0.42192 -0.6153,0.42192 -0.86143,0.94933 -0.0352,0.24612 -0.0352,0.40434 0,0.15822 0,0.3516 0,0.54499 0.14064,1.07239 0.15823,0.52741 0.47467,0.94933 0.31644,0.40434 0.77352,0.66804 0.47467,0.24612 1.10755,0.24612 0.50983,0 0.91417,-0.19338 0.42192,-0.19338 0.72078,-0.5274 0.29887,-0.33402 0.45709,-0.80869 0.1758,-0.47466 0.1758,-1.01964 z"
         style=""
         id="path4341" />
    </g>
    <g
       style="font-style:normal;font-variant:normal;font-weight:normal;font-stretch:normal;font-size:17.58012772px;line-height:100%;font-family:'PT Sans';-inkscape-font-specification:'PT Sans';text-align:start;letter-spacing:0px;word-spacing:0px;text-anchor:start;fill:#000000;fill-opacity:1;stroke:none"
       id="text3480-7">
      <path
         d="m 274.28436,571.57353 q -0.5274,0.42192 -1.33609,0.66804 -0.7911,0.24612 -1.68769,0.24612 -1.00207,0 -1.74043,-0.31644 -0.73837,-0.33402 -1.21303,-0.93174 -0.47466,-0.61531 -0.70321,-1.45915 -0.22854,-0.84385 -0.22854,-1.89866 0,-2.25025 1.00207,-3.42812 1.00207,-1.17787 2.86556,-1.17787 0.59773,0 1.19545,0.14064 0.59772,0.12306 1.07239,0.49224 0.47466,0.36919 0.77352,1.05481 0.29887,0.66805 0.29887,1.77559 0,0.58015 -0.10549,1.28335 l -5.64322,0 q 0,0.77353 0.15822,1.37125 0.15823,0.59773 0.49225,1.01965 0.33402,0.40434 0.86142,0.63288 0.54499,0.21097 1.31851,0.21097 0.59773,0 1.19545,-0.21097 0.59773,-0.21096 0.89659,-0.49224 l 0.5274,1.01965 z m -3.02378,-7.06721 q -1.03723,0 -1.67011,0.54498 -0.61531,0.54498 -0.73837,1.86349 l 4.35988,0 q 0,-1.33609 -0.50983,-1.86349 -0.50982,-0.54498 -1.44157,-0.54498 z"
         style=""
         id="path4257" />
      <path
         d="m 275.63474,563.48667 1.37125,0 0,-1.74043 1.40641,-0.40435 0,2.14478 2.39089,0 0,1.23061 -2.39089,0 0,4.86969 q 0,0.91417 0.22854,1.30093 0.22854,0.36919 0.77352,0.36919 0.45709,0 0.77353,-0.0879 0.31644,-0.10549 0.7032,-0.26371 l 0.31645,1.07239 q -0.47467,0.22854 -1.03723,0.36918 -0.56256,0.14064 -1.21303,0.14064 -1.07239,0 -1.51189,-0.59772 -0.4395,-0.6153 -0.4395,-2.03929 l 0,-5.1334 -1.37125,0 0,-1.23061 z"
         style=""
         id="path4259" />
      <path
         d="m 288.41274,572.27673 0,-5.01033 q 0,-0.68563 -0.0879,-1.19545 -0.0703,-0.52741 -0.28128,-0.86143 -0.21096,-0.3516 -0.58014,-0.5274 -0.35161,-0.1758 -0.93175,-0.1758 -0.82627,0 -1.49431,0.54498 -0.66805,0.5274 -0.86143,1.37125 l 0,5.85418 -1.40641,0 0,-12.30609 1.40641,0 0,4.50052 0.0703,0 q 0.45709,-0.54499 1.08997,-0.86143 0.65046,-0.33402 1.59979,-0.33402 0.73837,0 1.28335,0.1758 0.54498,0.15822 0.89659,0.58014 0.36918,0.42193 0.5274,1.14271 0.1758,0.70321 0.1758,1.79317 l 0,5.3092 -1.40641,0 z"
         style=""
         id="path4261" />
      <path
         d="m 291.78593,566.12369 q 0,-3.16442 1.01965,-4.76422 1.03722,-1.59979 3.0062,-1.59979 2.12719,0 3.07652,1.58221 0.96691,1.56464 0.96691,4.7818 0,3.16442 -1.03723,4.76421 -1.01965,1.59979 -3.0062,1.59979 -2.09204,0 -3.05894,-1.67011 -0.96691,-1.67011 -0.96691,-4.69389 z m 1.45915,0 q 0,1.14271 0.14064,2.09203 0.15822,0.93175 0.47466,1.61738 0.31645,0.66804 0.79111,1.0548 0.49224,0.36919 1.16029,0.36919 1.33609,0 1.95139,-1.23061 0.63289,-1.24819 0.63289,-3.90279 0,-1.12513 -0.14064,-2.07446 -0.12306,-0.94932 -0.43951,-1.63495 -0.29886,-0.68562 -0.7911,-1.05481 -0.49225,-0.36918 -1.21303,-0.36918 -1.31851,0 -1.9514,1.24819 -0.6153,1.24819 -0.6153,3.88521 z"
         style=""
         id="path4263" />
      <path
         d="m 268.4126,588.55593 2.46122,0 0,-8.50878 0.1758,-1.03723 -0.70321,0.82627 -1.93381,1.38883 -0.66804,-0.89659 3.86762,-2.98862 0.63289,0 0,11.21612 2.40848,0 0,1.30093 -6.24095,0 0,-1.30093 z"
         style=""
         id="path4265" />
      <path
         d="m 278.02756,589.85686 4.41261,-10.30195 0.77352,-0.86143 -1.03722,0.15822 -5.01034,0 0,-1.30093 7.34849,0 0,0.47467 -5.06307,11.83142 -1.42399,0 z"
         style=""
         id="path4267" />
      <path
         d="m 293.51428,580.34601 q 0,0.93175 -0.35161,1.91624 -0.33402,0.9669 -0.89658,1.95139 -0.54499,0.98449 -1.23061,1.93381 -0.68563,0.93175 -1.37125,1.7756 l -0.86143,0.75594 0,0.0703 1.12513,-0.19338 3.83247,0 0,1.30093 -6.99689,0 0,-0.50982 q 0.38676,-0.40435 0.93174,-1.00207 0.54499,-0.59772 1.12513,-1.31851 0.59773,-0.73836 1.16029,-1.54705 0.58014,-0.82627 1.03723,-1.67011 0.47466,-0.84385 0.75594,-1.67011 0.28128,-0.82627 0.28128,-1.56464 0,-0.86142 -0.49224,-1.42399 -0.49224,-0.58014 -1.49431,-0.58014 -0.66804,0 -1.30093,0.28128 -0.63288,0.2637 -1.08997,0.61531 l -0.58014,-1.00207 q 0.6153,-0.52741 1.45915,-0.82627 0.84385,-0.29886 1.81075,-0.29886 0.75595,0 1.33609,0.22854 0.58015,0.21096 0.98449,0.61531 0.40434,0.40434 0.6153,0.9669 0.21097,0.54499 0.21097,1.19545 z"
         style=""
         id="path4269" />
      <path
         d="m 296.11476,589.04818 q 0,-0.47467 0.2637,-0.73837 0.28128,-0.28128 0.73837,-0.28128 0.47466,0 0.75594,0.28128 0.28129,0.2637 0.28129,0.73837 0,0.45708 -0.28129,0.73836 -0.28128,0.28128 -0.75594,0.28128 -0.45709,0 -0.73837,-0.28128 -0.2637,-0.28128 -0.2637,-0.73836 z"
         style=""
         id="path4271" />
      <path
         d="m 300.92897,588.55593 2.46122,0 0,-8.50878 0.1758,-1.03723 -0.70321,0.82627 -1.93381,1.38883 -0.66805,-0.89659 3.86763,-2.98862 0.63289,0 0,11.21612 2.40847,0 0,1.30093 -6.24094,0 0,-1.30093 z"
         style=""
         id="path4273" />
      <path
         d="m 310.54393,589.85686 4.41261,-10.30195 0.77352,-0.86143 -1.03722,0.15822 -5.01034,0 0,-1.30093 7.34849,0 0,0.47467 -5.06307,11.83142 -1.42399,0 z"
         style=""
         id="path4275" />
      <path
         d="m 317.1285,589.04818 q 0,-0.47467 0.26371,-0.73837 0.28128,-0.28128 0.73836,-0.28128 0.47467,0 0.75595,0.28128 0.28128,0.2637 0.28128,0.73837 0,0.45708 -0.28128,0.73836 -0.28128,0.28128 -0.75595,0.28128 -0.45708,0 -0.73836,-0.28128 -0.26371,-0.28128 -0.26371,-0.73836 z"
         style=""
         id="path4277" />
      <path
         d="m 320.80001,583.70382 q 0,-3.16443 1.01964,-4.76422 1.03723,-1.59979 3.0062,-1.59979 2.1272,0 3.07653,1.58221 0.9669,1.56463 0.9669,4.7818 0,3.16442 -1.03722,4.76421 -1.01965,1.59979 -3.00621,1.59979 -2.09203,0 -3.05894,-1.67011 -0.9669,-1.67011 -0.9669,-4.69389 z m 1.45915,0 q 0,1.1427 0.14064,2.09203 0.15822,0.93175 0.47466,1.61737 0.31644,0.66805 0.79111,1.05481 0.49224,0.36918 1.16028,0.36918 1.33609,0 1.9514,-1.23061 0.63288,-1.24818 0.63288,-3.90278 0,-1.12513 -0.14064,-2.07446 -0.12306,-0.94933 -0.4395,-1.63495 -0.29886,-0.68563 -0.79111,-1.05481 -0.49224,-0.36918 -1.21303,-0.36918 -1.31851,0 -1.95139,1.24819 -0.6153,1.24819 -0.6153,3.88521 z"
         style=""
         id="path4279" />
      <path
         d="m 330.48528,589.04818 q 0,-0.47467 0.2637,-0.73837 0.28129,-0.28128 0.73837,-0.28128 0.47466,0 0.75594,0.28128 0.28129,0.2637 0.28129,0.73837 0,0.45708 -0.28129,0.73836 -0.28128,0.28128 -0.75594,0.28128 -0.45708,0 -0.73837,-0.28128 -0.2637,-0.28128 -0.2637,-0.73836 z"
         style=""
         id="path4281" />
      <path
         d="m 337.51459,588.83721 q 0.59772,0 1.10755,-0.1758 0.50982,-0.1758 0.87901,-0.50982 0.36918,-0.3516 0.58014,-0.82627 0.21096,-0.47466 0.21096,-1.03722 0,-1.23061 -0.73836,-1.82834 -0.72079,-0.59772 -2.00414,-0.59772 l -1.30093,0 0,-0.50983 2.53154,-3.90278 0.80869,-0.77353 -1.14271,0.1758 -3.48087,0 0,-1.30093 6.27611,0 0,0.50983 -2.79524,4.20165 -0.61531,0.50982 0,0.0352 0.59773,-0.12306 q 0.7032,0.0176 1.30093,0.2637 0.59772,0.22854 1.03722,0.68563 0.43951,0.4395 0.68563,1.07238 0.24612,0.61531 0.24612,1.40641 0,0.94933 -0.33402,1.6877 -0.33402,0.73836 -0.91417,1.24819 -0.56256,0.49224 -1.33609,0.75594 -0.77352,0.2637 -1.63495,0.2637 -0.79111,0 -1.42399,-0.12306 -0.63288,-0.12306 -1.10755,-0.31644 l 0.36918,-1.24819 q 0.40435,0.19338 0.94933,0.33402 0.56257,0.12306 1.24819,0.12306 z"
         style=""
         id="path4283" />
      <path
         d="m 348.74692,577.33981 1.10755,0.49224 -6.41675,14.48603 -1.10755,-0.49224 6.41675,-14.48603 z"
         style=""
         id="path4285" />
      <path
         d="m 351.09413,588.55593 2.46122,0 0,-8.50878 0.1758,-1.03723 -0.7032,0.82627 -1.93382,1.38883 -0.66804,-0.89659 3.86763,-2.98862 0.63288,0 0,11.21612 2.40848,0 0,1.30093 -6.24095,0 0,-1.30093 z"
         style=""
         id="path4287" />
      <path
         d="m 367.4247,586.14745 q 0,0.80869 -0.24612,1.52948 -0.24612,0.7032 -0.72079,1.24818 -0.47466,0.52741 -1.17787,0.84385 -0.7032,0.29886 -1.59979,0.29886 -0.879,0 -1.58221,-0.28128 -0.7032,-0.28128 -1.21303,-0.82627 -0.50982,-0.56256 -0.7911,-1.37125 -0.26371,-0.80868 -0.26371,-1.86349 0,-1.74043 0.43951,-3.19958 0.45708,-1.47673 1.24819,-2.5667 0.7911,-1.08997 1.86349,-1.75801 1.08997,-0.68563 2.35574,-0.86143 l 0.29886,1.12513 q -0.98449,0.1758 -1.79317,0.66804 -0.80869,0.49225 -1.42399,1.21303 -0.59773,0.72079 -0.98449,1.61737 -0.38676,0.89659 -0.52741,1.84592 0.28129,-0.47467 0.94933,-0.86143 0.66805,-0.40434 1.63495,-0.40434 1.65254,0 2.58428,0.94932 0.94933,0.94933 0.94933,2.6546 z m -1.45915,0.14065 q 0,-1.24819 -0.58015,-1.88108 -0.58014,-0.63288 -1.79317,-0.63288 -0.86143,0 -1.49431,0.42192 -0.6153,0.42192 -0.86143,0.94933 -0.0352,0.24612 -0.0352,0.40434 0,0.15822 0,0.3516 0,0.54499 0.14064,1.07239 0.15823,0.5274 0.47467,0.94933 0.31644,0.40434 0.77352,0.66804 0.47467,0.24612 1.10755,0.24612 0.50983,0 0.91417,-0.19338 0.42192,-0.19338 0.72078,-0.5274 0.29887,-0.33402 0.45709,-0.80869 0.1758,-0.47466 0.1758,-1.01964 z"
         style=""
         id="path4289" />
    </g>
    <g
       style="font-style:normal;font-variant:normal;font-weight:normal;font-stretch:normal;font-size:17.58012772px;line-height:125%;font-family:'PT Sans';-inkscape-font-specification:'PT Sans';text-align:center;letter-spacing:0px;word-spacing:0px;text-anchor:middle;fill:#000000;fill-opacity:1;stroke:none"
       id="text3514">
      <path
         d="m 605.7831,242.31529 q 0,0.43951 -0.14064,0.89659 -0.14064,0.45708 -0.42192,0.86143 -0.28129,0.38676 -0.72079,0.68562 -0.4395,0.29886 -1.03723,0.45709 l 0,0.0703 q 0.52741,0.0879 1.00207,0.29886 0.49224,0.21096 0.86143,0.58014 0.36918,0.36918 0.59772,0.89659 0.22854,0.5274 0.22854,1.24819 0,0.94932 -0.40434,1.65253 -0.38676,0.68562 -1.03723,1.12513 -0.63288,0.4395 -1.45915,0.65046 -0.82626,0.21096 -1.68769,0.21096 -0.29886,0 -0.70321,0 -0.40434,0 -0.84384,-0.0352 -0.43951,-0.0176 -0.87901,-0.0703 -0.4395,-0.0352 -0.77352,-0.12306 l 0,-12.11271 q 0.65046,-0.10548 1.51189,-0.1758 0.86142,-0.0703 1.88107,-0.0703 0.68563,0 1.38883,0.12306 0.72079,0.10548 1.30093,0.43951 0.58014,0.31644 0.94933,0.89658 0.38676,0.58015 0.38676,1.49431 z m -4.07859,8.36815 q 0.56256,0 1.08997,-0.12307 0.5274,-0.14064 0.93174,-0.42192 0.40435,-0.29886 0.63289,-0.72078 0.24612,-0.42193 0.24612,-1.00207 0,-0.72079 -0.29886,-1.16029 -0.28128,-0.4395 -0.75595,-0.68562 -0.45708,-0.24613 -1.03722,-0.33403 -0.58015,-0.0879 -1.16029,-0.0879 l -1.52947,0 0,4.41261 q 0.12306,0.0352 0.3516,0.0527 0.22854,0.0176 0.49224,0.0352 0.2637,0.0176 0.54499,0.0352 0.28128,0 0.49224,0 z m -0.96691,-5.76629 q 0.29887,0 0.72079,-0.0176 0.42192,-0.0176 0.7032,-0.0527 0.42193,-0.14064 0.79111,-0.33402 0.36918,-0.21096 0.65046,-0.47466 0.29887,-0.28129 0.45709,-0.63289 0.1758,-0.36918 0.1758,-0.7911 0,-0.58015 -0.22854,-0.94933 -0.21096,-0.38676 -0.58015,-0.6153 -0.36918,-0.22855 -0.84384,-0.31645 -0.47467,-0.10548 -0.96691,-0.10548 -0.58014,0 -1.07239,0.0352 -0.47466,0.0176 -0.72078,0.0703 l 0,4.18407 0.91416,0 z"
         style=""
         id="path4196" />
    </g>
    <g
       style="font-style:normal;font-variant:normal;font-weight:normal;font-stretch:normal;font-size:17.58012772px;line-height:125%;font-family:'PT Sans';-inkscape-font-specification:'PT Sans';text-align:center;letter-spacing:0px;word-spacing:0px;text-anchor:middle;fill:#000000;fill-opacity:1;stroke:none"
       id="text3518">
      <path
         d="m 771.62179,452.61467 q -0.5274,0.42192 -1.33609,0.66804 -0.7911,0.24612 -1.68769,0.24612 -1.00207,0 -1.74043,-0.31644 -0.73837,-0.33402 -1.21303,-0.93175 -0.47467,-0.6153 -0.70321,-1.45915 -0.22854,-0.84384 -0.22854,-1.89865 0,-2.25026 1.00207,-3.42813 1.00207,-1.17786 2.86556,-1.17786 0.59772,0 1.19545,0.14064 0.59772,0.12306 1.07239,0.49224 0.47466,0.36918 0.77352,1.05481 0.29886,0.66804 0.29886,1.77559 0,0.58015 -0.10548,1.28335 l -5.64322,0 q 0,0.77353 0.15822,1.37125 0.15822,0.59772 0.49225,1.01965 0.33402,0.40434 0.86142,0.63288 0.54499,0.21096 1.31851,0.21096 0.59773,0 1.19545,-0.21096 0.59773,-0.21096 0.89659,-0.49224 l 0.5274,1.01965 z m -3.02378,-7.06722 q -1.03723,0 -1.67011,0.54499 -0.61531,0.54498 -0.73837,1.86349 l 4.35987,0 q 0,-1.33609 -0.50982,-1.86349 -0.50982,-0.54499 -1.44157,-0.54499 z"
         style=""
         id="path4184" />
      <path
         d="m 772.97216,444.52781 1.37125,0 0,-1.74044 1.40641,-0.40434 0,2.14478 2.3909,0 0,1.23061 -2.3909,0 0,4.86969 q 0,0.91417 0.22855,1.30093 0.22854,0.36918 0.77352,0.36918 0.45709,0 0.77353,-0.0879 0.31644,-0.10548 0.7032,-0.2637 l 0.31645,1.07239 q -0.47467,0.22854 -1.03723,0.36918 -0.56257,0.14064 -1.21303,0.14064 -1.07239,0 -1.51189,-0.59772 -0.43951,-0.61531 -0.43951,-2.0393 l 0,-5.13339 -1.37125,0 0,-1.23061 z"
         style=""
         id="path4186" />
      <path
         d="m 785.75017,453.31787 0,-5.01034 q 0,-0.68562 -0.0879,-1.19544 -0.0703,-0.52741 -0.28128,-0.86143 -0.21096,-0.3516 -0.58015,-0.5274 -0.3516,-0.17581 -0.93174,-0.17581 -0.82627,0 -1.49431,0.54499 -0.66805,0.5274 -0.86143,1.37125 l 0,5.85418 -1.40641,0 0,-12.30609 1.40641,0 0,4.50051 0.0703,0 q 0.45708,-0.54498 1.08997,-0.86142 0.65046,-0.33402 1.59979,-0.33402 0.73837,0 1.28335,0.1758 0.54498,0.15822 0.89659,0.58014 0.36918,0.42192 0.5274,1.14271 0.1758,0.7032 0.1758,1.79317 l 0,5.3092 -1.40641,0 z"
         style=""
         id="path4188" />
      <path
         d="m 789.12336,447.16483 q 0,-3.16443 1.01965,-4.76422 1.03722,-1.59979 3.0062,-1.59979 2.12719,0 3.07652,1.58221 0.96691,1.56463 0.96691,4.7818 0,3.16442 -1.03723,4.76421 -1.01965,1.59979 -3.0062,1.59979 -2.09204,0 -3.05895,-1.67011 -0.9669,-1.67011 -0.9669,-4.69389 z m 1.45915,0 q 0,1.1427 0.14064,2.09203 0.15822,0.93175 0.47466,1.61737 0.31645,0.66805 0.79111,1.05481 0.49224,0.36918 1.16029,0.36918 1.33609,0 1.95139,-1.23061 0.63289,-1.24818 0.63289,-3.90278 0,-1.12513 -0.14065,-2.07446 -0.12306,-0.94933 -0.4395,-1.63495 -0.29886,-0.68563 -0.7911,-1.05481 -0.49225,-0.36918 -1.21303,-0.36918 -1.31851,0 -1.9514,1.24819 -0.6153,1.24819 -0.6153,3.88521 z"
         style=""
         id="path4190" />
    </g>
    <g
       style="font-style:normal;font-variant:normal;font-weight:normal;font-stretch:normal;font-size:17.58012772px;line-height:125%;font-family:'PT Sans';-inkscape-font-specification:'PT Sans';text-align:center;letter-spacing:0px;word-spacing:0px;text-anchor:middle;fill:#000000;fill-opacity:1;stroke:none"
       id="text3514-4">
      <path
         d="m 748.69949,203.38482 -5.90692,0 0,5.64323 -1.45915,0 0,-12.30609 1.45915,0 0,5.36194 5.90692,0 0,-5.36194 1.45915,0 0,12.30609 -1.45915,0 0,-5.64323 z"
         style=""
         id="path4193" />
    </g>
  </g>
</svg>
