<?xml version="1.0" encoding="UTF-8" standalone="no"?>
<!-- Created with Inkscape (http://www.inkscape.org/) -->

<svg
   xmlns:dc="http://purl.org/dc/elements/1.1/"
   xmlns:cc="http://creativecommons.org/ns#"
   xmlns:rdf="http://www.w3.org/1999/02/22-rdf-syntax-ns#"
   xmlns:svg="http://www.w3.org/2000/svg"
   xmlns="http://www.w3.org/2000/svg"
   xmlns:sodipodi="http://sodipodi.sourceforge.net/DTD/sodipodi-0.dtd"
   xmlns:inkscape="http://www.inkscape.org/namespaces/inkscape"
   width="672.9176"
   height="425"
   id="svg3031"
   version="1.1"
   inkscape:version="0.91 r"
   sodipodi:docname="Iptables_Proxy.svg">
  <defs
     id="defs3033">
    <marker
       inkscape:stockid="Arrow2Lend"
       orient="auto"
       refY="0"
       refX="0"
       id="Arrow2Lend"
       style="overflow:visible">
      <path
         id="path4085"
         style="fill-rule:evenodd;stroke-width:0.625;stroke-linejoin:round"
         d="M 8.7185878,4.0337352 -2.2072895,0.01601326 8.7185884,-4.0017078 c -1.7454984,2.3720609 -1.7354408,5.6174519 -6e-7,8.035443 z"
         transform="matrix(-1.1,0,0,-1.1,-1.1,0)"
         inkscape:connector-curvature="0" />
    </marker>
    <marker
       inkscape:stockid="Arrow2Lend"
       orient="auto"
       refY="0"
       refX="0"
       id="Arrow2Lend-5"
       style="overflow:visible">
      <path
         inkscape:connector-curvature="0"
         id="path4085-2"
         style="fill-rule:evenodd;stroke-width:0.625;stroke-linejoin:round"
         d="M 8.7185878,4.0337352 -2.2072895,0.01601326 8.7185884,-4.0017078 c -1.7454984,2.3720609 -1.7354408,5.6174519 -6e-7,8.035443 z"
         transform="matrix(-1.1,0,0,-1.1,-1.1,0)" />
    </marker>
    <marker
       inkscape:stockid="Arrow2Lend"
       orient="auto"
       refY="0"
       refX="0"
       id="Arrow2Lend-3"
       style="overflow:visible">
      <path
         inkscape:connector-curvature="0"
         id="path4085-9"
         style="fill-rule:evenodd;stroke-width:0.625;stroke-linejoin:round"
         d="M 8.7185878,4.0337352 -2.2072895,0.01601326 8.7185884,-4.0017078 c -1.7454984,2.3720609 -1.7354408,5.6174519 -6e-7,8.035443 z"
         transform="matrix(-1.1,0,0,-1.1,-1.1,0)" />
    </marker>
    <marker
       inkscape:stockid="Arrow2Lend"
       orient="auto"
       refY="0"
       refX="0"
       id="Arrow2Lend-1"
       style="overflow:visible">
      <path
         inkscape:connector-curvature="0"
         id="path4085-6"
         style="fill-rule:evenodd;stroke-width:0.625;stroke-linejoin:round"
         d="M 8.7185878,4.0337352 -2.2072895,0.01601326 8.7185884,-4.0017078 c -1.7454984,2.3720609 -1.7354408,5.6174519 -6e-7,8.035443 z"
         transform="matrix(-1.1,0,0,-1.1,-1.1,0)" />
    </marker>
    <marker
       inkscape:stockid="Arrow2Lend"
       orient="auto"
       refY="0"
       refX="0"
       id="Arrow2Lend-6"
       style="overflow:visible">
      <path
         inkscape:connector-curvature="0"
         id="path4085-4"
         style="fill-rule:evenodd;stroke-width:0.625;stroke-linejoin:round"
         d="M 8.7185878,4.0337352 -2.2072895,0.01601326 8.7185884,-4.0017078 c -1.7454984,2.3720609 -1.7354408,5.6174519 -6e-7,8.035443 z"
         transform="matrix(-1.1,0,0,-1.1,-1.1,0)" />
    </marker>
    <marker
       inkscape:stockid="Arrow2Lend"
       orient="auto"
       refY="0"
       refX="0"
       id="Arrow2Lend-4"
       style="overflow:visible">
      <path
         inkscape:connector-curvature="0"
         id="path4085-25"
         style="fill-rule:evenodd;stroke-width:0.625;stroke-linejoin:round"
         d="M 8.7185878,4.0337352 -2.2072895,0.01601326 8.7185884,-4.0017078 c -1.7454984,2.3720609 -1.7354408,5.6174519 -6e-7,8.035443 z"
         transform="matrix(-1.1,0,0,-1.1,-1.1,0)" />
    </marker>
    <marker
       inkscape:stockid="Arrow2Lend"
       orient="auto"
       refY="0"
       refX="0"
       id="Arrow2Lend-2"
       style="overflow:visible">
      <path
         inkscape:connector-curvature="0"
         id="path4085-29"
         style="fill-rule:evenodd;stroke-width:0.625;stroke-linejoin:round"
         d="M 8.7185878,4.0337352 -2.2072895,0.01601326 8.7185884,-4.0017078 c -1.7454984,2.3720609 -1.7354408,5.6174519 -6e-7,8.035443 z"
         transform="matrix(-1.1,0,0,-1.1,-1.1,0)" />
    </marker>
  </defs>
  <sodipodi:namedview
     id="base"
     pagecolor="#ffffff"
     bordercolor="#666666"
     borderopacity="1.0"
     inkscape:pageopacity="0.0"
     inkscape:pageshadow="2"
     inkscape:zoom="0.98994949"
     inkscape:cx="302.28039"
     inkscape:cy="201.47201"
     inkscape:document-units="px"
     inkscape:current-layer="layer1"
     showgrid="false"
     inkscape:window-width="1672"
     inkscape:window-height="990"
     inkscape:window-x="0"
     inkscape:window-y="0"
     inkscape:window-maximized="1"
     fit-margin-top="0"
     fit-margin-left="0"
     fit-margin-right="0"
     fit-margin-bottom="0" />
  <metadata
     id="metadata3036">
    <rdf:RDF>
      <cc:Work
         rdf:about="">
        <dc:format>image/svg+xml</dc:format>
        <dc:type
           rdf:resource="http://purl.org/dc/dcmitype/StillImage" />
        <dc:title />
      </cc:Work>
    </rdf:RDF>
  </metadata>
  <g
     inkscape:label="Layer 1"
     inkscape:groupmode="layer"
     id="layer1"
     transform="translate(-0.68168281,-627.36219)">
    <rect
       style="fill:#cd5555;fill-opacity:1;stroke:#cd5555;stroke-width:1.15928853;stroke-miterlimit:4;stroke-dasharray:none;stroke-dashoffset:0;stroke-opacity:1"
       id="rect3039"
       width="99.359276"
       height="57.969276"
       x="211.57912"
       y="993.81329" />
    <path
       style="fill:none;stroke:#000000;stroke-width:1.21918392;stroke-linecap:butt;stroke-linejoin:miter;stroke-miterlimit:4;stroke-dasharray:none;stroke-opacity:1"
       d="m 211.62795,1022.2065 99.26163,0"
       id="path3809"
       inkscape:connector-curvature="0" />
    <g
       style="font-style:normal;font-weight:normal;font-size:47.30285263px;line-height:125%;font-family:Sans;letter-spacing:0px;word-spacing:0px;fill:#000000;fill-opacity:1;stroke:none"
       id="text3811">
      <path
         d="m 217.27957,1030.753 0,3.8873 1.76,0 q 0.97701,0 1.51055,-0.5058 0.53354,-0.5059 0.53354,-1.4413 0,-0.9285 -0.53354,-1.4343 -0.53354,-0.5059 -1.51055,-0.5059 l -1.76,0 z m -1.39968,-1.1502 3.15968,0 q 1.73921,0 2.62614,0.7899 0.89386,0.783 0.89386,2.3005 0,1.5313 -0.89386,2.3143 -0.88693,0.783 -2.62614,0.783 l -1.76,0 0,4.1575 -1.39968,0 0,-10.3452 z"
         style="font-size:14.19085598px;text-align:center;text-anchor:middle"
         id="path4380" />
      <path
         d="m 229.35012,1035.0976 q 0.45039,0.1524 0.87307,0.6513 0.4296,0.4989 0.85921,1.372 l 1.42047,2.8271 -1.50362,0 -1.32347,-2.6539 q -0.51275,-1.0393 -0.99779,-1.3789 -0.47811,-0.3395 -1.3096,-0.3395 l -1.52441,0 0,4.3723 -1.39969,0 0,-10.3452 3.15969,0 q 1.77385,0 2.64692,0.7414 0.87307,0.7414 0.87307,2.2381 0,0.977 -0.45732,1.6215 -0.45039,0.6444 -1.31653,0.8938 z m -3.50614,-4.3446 0,3.6725 1.76,0 q 1.01165,0 1.5244,-0.4643 0.51969,-0.4712 0.51969,-1.3789 0,-0.9077 -0.51969,-1.365 -0.51275,-0.4643 -1.5244,-0.4643 l -1.76,0 z"
         style="font-size:14.19085598px;text-align:center;text-anchor:middle"
         id="path4382" />
      <path
         d="m 234.31137,1029.6028 6.5411,0 0,1.178 -5.14141,0 0,3.0626 4.92661,0 0,1.178 -4.92661,0 0,3.7486 5.26614,0 0,1.178 -6.66583,0 0,-10.3452 z"
         style="font-size:14.19085598px;text-align:center;text-anchor:middle"
         id="path4384" />
      <path
         d="m 248.19735,1035.0976 q 0.45039,0.1524 0.87307,0.6513 0.4296,0.4989 0.85921,1.372 l 1.42047,2.8271 -1.50362,0 -1.32346,-2.6539 q -0.51276,-1.0393 -0.9978,-1.3789 -0.47811,-0.3395 -1.3096,-0.3395 l -1.52441,0 0,4.3723 -1.39969,0 0,-10.3452 3.15969,0 q 1.77385,0 2.64692,0.7414 0.87307,0.7414 0.87307,2.2381 0,0.977 -0.45732,1.6215 -0.45039,0.6444 -1.31653,0.8938 z m -3.50614,-4.3446 0,3.6725 1.76,0 q 1.01165,0 1.5244,-0.4643 0.51969,-0.4712 0.51969,-1.3789 0,-0.9077 -0.51969,-1.365 -0.51275,-0.4643 -1.5244,-0.4643 l -1.76,0 z"
         style="font-size:14.19085598px;text-align:center;text-anchor:middle"
         id="path4386" />
      <path
         d="m 257.35765,1030.5521 q -1.5244,0 -2.42519,1.1364 -0.89386,1.1364 -0.89386,3.0973 0,1.954 0.89386,3.0904 0.90079,1.1364 2.42519,1.1364 1.52441,0 2.41134,-1.1364 0.89386,-1.1364 0.89386,-3.0904 0,-1.9609 -0.89386,-3.0973 -0.88693,-1.1364 -2.41134,-1.1364 z m 0,-1.1364 q 2.17575,0 3.47843,1.4621 1.30267,1.4551 1.30267,3.908 0,2.446 -1.30267,3.908 -1.30268,1.4551 -3.47843,1.4551 -2.18267,0 -3.49228,-1.4551 -1.30267,-1.4551 -1.30267,-3.908 0,-2.4529 1.30267,-3.908 1.30961,-1.4621 3.49228,-1.4621 z"
         style="font-size:14.19085598px;text-align:center;text-anchor:middle"
         id="path4388" />
      <path
         d="m 264.16899,1029.6028 1.40661,0 0,6.2847 q 0,1.663 0.60284,2.3975 0.60283,0.7276 1.95401,0.7276 1.34425,0 1.94709,-0.7276 0.60283,-0.7345 0.60283,-2.3975 l 0,-6.2847 1.40661,0 0,6.458 q 0,2.0233 -1.00472,3.0557 -0.99779,1.0324 -2.95181,1.0324 -1.96094,0 -2.96567,-1.0324 -0.99779,-1.0324 -0.99779,-3.0557 l 0,-6.458 z"
         style="font-size:14.19085598px;text-align:center;text-anchor:middle"
         id="path4390" />
      <path
         d="m 273.28772,1029.6028 8.75149,0 0,1.178 -3.67244,0 0,9.1672 -1.40661,0 0,-9.1672 -3.67244,0 0,-1.178 z"
         style="font-size:14.19085598px;text-align:center;text-anchor:middle"
         id="path4392" />
      <path
         d="m 283.39732,1029.6028 1.39969,0 0,10.3452 -1.39969,0 0,-10.3452 z"
         style="font-size:14.19085598px;text-align:center;text-anchor:middle"
         id="path4394" />
      <path
         d="m 287.58252,1029.6028 1.88472,0 4.58708,8.6545 0,-8.6545 1.35811,0 0,10.3452 -1.88472,0 -4.58708,-8.6545 0,8.6545 -1.35811,0 0,-10.3452 z"
         style="font-size:14.19085598px;text-align:center;text-anchor:middle"
         id="path4396" />
      <path
         d="m 305.2518,1038.4721 0,-2.7786 -2.28662,0 0,-1.1502 3.67244,0 0,4.4415 q -0.81071,0.5752 -1.78771,0.8731 -0.97701,0.291 -2.08567,0.291 -2.4252,0 -3.79716,-1.4135 -1.36504,-1.4205 -1.36504,-3.9496 0,-2.5361 1.36504,-3.9496 1.37196,-1.4205 3.79716,-1.4205 1.01165,0 1.91937,0.2495 0.91464,0.2494 1.68378,0.7345 l 0,1.4897 q -0.77607,-0.6582 -1.64914,-0.9908 -0.87307,-0.3326 -1.83622,-0.3326 -1.89858,0 -2.8548,1.0601 -0.94929,1.0602 -0.94929,3.1597 0,2.0926 0.94929,3.1528 0.95622,1.0601 2.8548,1.0601 0.74142,0 1.32347,-0.1247 0.58204,-0.1317 1.0463,-0.4019 z"
         style="font-size:14.19085598px;text-align:center;text-anchor:middle"
         id="path4398" />
    </g>
    <g
       style="font-style:normal;font-weight:normal;font-size:47.30285263px;line-height:125%;font-family:Sans;letter-spacing:0px;word-spacing:0px;fill:#000000;fill-opacity:1;stroke:none"
       id="text3815">
      <path
         d="m 247.99639,1002.5657 1.88472,0 4.58709,8.6545 0,-8.6545 1.35811,0 0,10.3452 -1.88473,0 -4.58708,-8.6545 0,8.6545 -1.35811,0 0,-10.3452 z"
         style="font-size:14.19085598px;text-align:center;text-anchor:middle"
         id="path4401" />
      <path
         d="m 262.06945,1003.9446 -1.89858,5.1483 3.80409,0 -1.90551,-5.1483 z m -0.78992,-1.3789 1.58677,0 3.94268,10.3452 -1.45512,0 -0.94236,-2.6539 -4.66331,0 -0.94236,2.6539 -1.4759,0 3.9496,-10.3452 z"
         style="font-size:14.19085598px;text-align:center;text-anchor:middle"
         id="path4403" />
      <path
         d="m 265.76961,1002.5657 8.75149,0 0,1.178 -3.67244,0 0,9.1672 -1.40661,0 0,-9.1672 -3.67244,0 0,-1.178 z"
         style="font-size:14.19085598px;text-align:center;text-anchor:middle"
         id="path4405" />
    </g>
    <rect
       style="fill:#cd5555;fill-opacity:1;stroke:#cd5555;stroke-width:1.15928853;stroke-miterlimit:4;stroke-dasharray:none;stroke-dashoffset:0;stroke-opacity:1"
       id="rect3039-2"
       width="99.359276"
       height="57.969276"
       x="515.10577"
       y="992.61871" />
    <path
       style="fill:none;stroke:#000000;stroke-width:1.21918392;stroke-linecap:butt;stroke-linejoin:miter;stroke-miterlimit:4;stroke-dasharray:none;stroke-opacity:1"
       d="m 515.15458,1021.0119 99.26163,0"
       id="path3809-3"
       inkscape:connector-curvature="0" />
    <g
       style="font-style:normal;font-weight:normal;font-size:47.30285263px;line-height:125%;font-family:Sans;letter-spacing:0px;word-spacing:0px;fill:#000000;fill-opacity:1;stroke:none"
       id="text3811-7">
      <path
         d="m 529.7136,1028.4082 5.9452,0 0,1.178 -4.54551,0 0,3.0488 4.10204,0 0,1.1779 -4.10204,0 0,4.9405 -1.39969,0 0,-10.3452 z"
         style="font-size:14.19085598px;text-align:center;text-anchor:middle"
         id="path4440" />
      <path
         d="m 542.08903,1029.3575 q -1.52441,0 -2.4252,1.1364 -0.89385,1.1364 -0.89385,3.0973 0,1.954 0.89385,3.0904 0.90079,1.1364 2.4252,1.1364 1.52441,0 2.41134,-1.1364 0.89385,-1.1364 0.89385,-3.0904 0,-1.9609 -0.89385,-3.0973 -0.88693,-1.1364 -2.41134,-1.1364 z m 0,-1.1364 q 2.17575,0 3.47842,1.4621 1.30268,1.4551 1.30268,3.908 0,2.446 -1.30268,3.908 -1.30267,1.4552 -3.47842,1.4552 -2.18268,0 -3.49228,-1.4552 -1.30268,-1.4551 -1.30268,-3.908 0,-2.4529 1.30268,-3.908 1.3096,-1.4621 3.49228,-1.4621 z"
         style="font-size:14.19085598px;text-align:center;text-anchor:middle"
         id="path4442" />
      <path
         d="m 553.96556,1033.903 q 0.45039,0.1525 0.87307,0.6514 0.4296,0.4989 0.85921,1.3719 l 1.42047,2.8271 -1.50362,0 -1.32346,-2.6538 q -0.51276,-1.0394 -0.9978,-1.3789 -0.47811,-0.3396 -1.3096,-0.3396 l -1.52441,0 0,4.3723 -1.39969,0 0,-10.3452 3.15969,0 q 1.77385,0 2.64692,0.7414 0.87307,0.7415 0.87307,2.2382 0,0.977 -0.45732,1.6214 -0.45039,0.6444 -1.31653,0.8938 z m -3.50614,-4.3445 0,3.6724 1.76,0 q 1.01165,0 1.5244,-0.4642 0.51969,-0.4712 0.51969,-1.3789 0,-0.9078 -0.51969,-1.3651 -0.51275,-0.4642 -1.5244,-0.4642 l -1.76,0 z"
         style="font-size:14.19085598px;text-align:center;text-anchor:middle"
         id="path4444" />
      <path
         d="m 557.42319,1028.4082 1.41354,0 2.17575,8.7446 2.16882,-8.7446 1.57291,0 2.17575,8.7446 2.16881,-8.7446 1.42047,0 -2.59842,10.3452 -1.76,0 -2.18267,-8.9801 -2.20347,8.9801 -1.75999,0 -2.5915,-10.3452 z"
         style="font-size:14.19085598px;text-align:center;text-anchor:middle"
         id="path4446" />
      <path
         d="m 575.05089,1029.7871 -1.89858,5.1484 3.80409,0 -1.90551,-5.1484 z m -0.78992,-1.3789 1.58677,0 3.94268,10.3452 -1.45512,0 -0.94236,-2.6538 -4.6633,0 -0.94237,2.6538 -1.4759,0 3.9496,-10.3452 z"
         style="font-size:14.19085598px;text-align:center;text-anchor:middle"
         id="path4448" />
      <path
         d="m 586.19986,1033.903 q 0.4504,0.1525 0.87307,0.6514 0.42961,0.4989 0.85922,1.3719 l 1.42047,2.8271 -1.50362,0 -1.32347,-2.6538 q -0.51275,-1.0394 -0.99779,-1.3789 -0.47811,-0.3396 -1.30961,-0.3396 l -1.5244,0 0,4.3723 -1.39969,0 0,-10.3452 3.15968,0 q 1.77386,0 2.64693,0.7414 0.87307,0.7415 0.87307,2.2382 0,0.977 -0.45732,1.6214 -0.45039,0.6444 -1.31654,0.8938 z m -3.50613,-4.3445 0,3.6724 1.75999,0 q 1.01166,0 1.52441,-0.4642 0.51969,-0.4712 0.51969,-1.3789 0,-0.9078 -0.51969,-1.3651 -0.51275,-0.4642 -1.52441,-0.4642 l -1.75999,0 z"
         style="font-size:14.19085598px;text-align:center;text-anchor:middle"
         id="path4450" />
      <path
         d="m 592.56081,1029.5585 0,8.0447 1.6907,0 q 2.1411,0 3.13197,-0.9701 0.99779,-0.9701 0.99779,-3.0627 0,-2.0787 -0.99779,-3.0419 -0.99087,-0.97 -3.13197,-0.97 l -1.6907,0 z m -1.39969,-1.1503 2.87559,0 q 3.00724,0 4.41386,1.2542 1.40661,1.2472 1.40661,3.908 0,2.6747 -1.41354,3.9288 -1.41355,1.2542 -4.40693,1.2542 l -2.87559,0 0,-10.3452 z"
         style="font-size:14.19085598px;text-align:center;text-anchor:middle"
         id="path4452" />
    </g>
    <g
       style="font-style:normal;font-weight:normal;font-size:47.30285263px;line-height:125%;font-family:Sans;letter-spacing:0px;word-spacing:0px;fill:#000000;fill-opacity:1;stroke:none"
       id="text3815-9">
      <path
         d="m 542.76813,1001.3712 5.9452,0 0,1.1779 -4.54551,0 0,3.0488 4.10204,0 0,1.178 -4.10204,0 0,4.9405 -1.39969,0 0,-10.3452 z"
         style="font-size:14.19085598px;text-align:center;text-anchor:middle"
         id="path4455" />
      <path
         d="m 550.94451,1001.3712 1.39968,0 0,10.3452 -1.39968,0 0,-10.3452 z"
         style="font-size:14.19085598px;text-align:center;text-anchor:middle"
         id="path4457" />
      <path
         d="m 555.1297,1001.3712 1.39968,0 0,9.1672 5.03748,0 0,1.178 -6.43716,0 0,-10.3452 z"
         style="font-size:14.19085598px;text-align:center;text-anchor:middle"
         id="path4459" />
      <path
         d="m 559.65442,1001.3712 8.75149,0 0,1.1779 -3.67244,0 0,9.1673 -1.40661,0 0,-9.1673 -3.67244,0 0,-1.1779 z"
         style="font-size:14.19085598px;text-align:center;text-anchor:middle"
         id="path4461" />
      <path
         d="m 569.76402,1001.3712 6.5411,0 0,1.1779 -5.14142,0 0,3.0627 4.92661,0 0,1.178 -4.92661,0 0,3.7486 5.26614,0 0,1.178 -6.66582,0 0,-10.3452 z"
         style="font-size:14.19085598px;text-align:center;text-anchor:middle"
         id="path4463" />
      <path
         d="m 583.64999,1006.866 q 0.4504,0.1524 0.87307,0.6513 0.42961,0.4989 0.85921,1.372 l 1.42048,2.8271 -1.50363,0 -1.32346,-2.6539 q -0.51275,-1.0394 -0.99779,-1.3789 -0.47811,-0.3395 -1.30961,-0.3395 l -1.52441,0 0,4.3723 -1.39968,0 0,-10.3452 3.15968,0 q 1.77386,0 2.64693,0.7414 0.87307,0.7414 0.87307,2.2381 0,0.977 -0.45732,1.6214 -0.4504,0.6444 -1.31654,0.8939 z m -3.50614,-4.3446 0,3.6725 1.76,0 q 1.01165,0 1.52441,-0.4643 0.51968,-0.4712 0.51968,-1.3789 0,-0.9077 -0.51968,-1.365 -0.51276,-0.4643 -1.52441,-0.4643 l -1.76,0 z"
         style="font-size:14.19085598px;text-align:center;text-anchor:middle"
         id="path4465" />
    </g>
    <rect
       style="fill:#5591cd;fill-opacity:1;stroke:#cd5555;stroke-width:1.15928853;stroke-miterlimit:4;stroke-dasharray:none;stroke-dashoffset:0;stroke-opacity:1"
       id="rect3039-5"
       width="99.359276"
       height="57.969276"
       x="363.34241"
       y="992.61871" />
    <g
       style="font-style:normal;font-weight:normal;font-size:47.30285263px;line-height:125%;font-family:Sans;letter-spacing:0px;word-spacing:0px;fill:#000000;fill-opacity:1;stroke:none"
       id="text3811-4">
      <path
         d="m 381.21043,1024.8282 0,8.0448 1.69071,0 q 2.1411,0 3.13196,-0.9701 0.9978,-0.9701 0.9978,-3.0627 0,-2.0787 -0.9978,-3.0419 -0.99086,-0.9701 -3.13196,-0.9701 l -1.69071,0 z m -1.39968,-1.1502 2.87558,0 q 3.00725,0 4.41386,1.2542 1.40661,1.2472 1.40661,3.908 0,2.6746 -1.41354,3.9288 -1.41354,1.2542 -4.40693,1.2542 l -2.87558,0 0,-10.3452 z"
         style="font-size:14.19085598px;text-align:center;text-anchor:middle"
         id="path4408" />
      <path
         d="m 390.73105,1023.678 6.5411,0 0,1.178 -5.14141,0 0,3.0626 4.92661,0 0,1.178 -4.92661,0 0,3.7486 5.26613,0 0,1.178 -6.66582,0 0,-10.3452 z"
         style="font-size:14.19085598px;text-align:center;text-anchor:middle"
         id="path4410" />
      <path
         d="m 407.45797,1024.4749 0,1.4759 q -0.70677,-0.6583 -1.51055,-0.984 -0.79685,-0.3256 -1.69764,-0.3256 -1.77385,0 -2.71621,1.0878 -0.94237,1.081 -0.94237,3.132 0,2.0441 0.94237,3.132 0.94236,1.0809 2.71621,1.0809 0.90079,0 1.69764,-0.3257 0.80378,-0.3256 1.51055,-0.9839 l 0,1.462 q -0.73449,0.4989 -1.55905,0.7484 -0.81764,0.2494 -1.73229,0.2494 -2.34897,0 -3.70015,-1.4343 -1.35118,-1.4413 -1.35118,-3.9288 0,-2.4945 1.35118,-3.9288 1.35118,-1.4413 3.70015,-1.4413 0.92851,0 1.74614,0.2495 0.82457,0.2425 1.5452,0.7345 z"
         style="font-size:14.19085598px;text-align:center;text-anchor:middle"
         id="path4412" />
      <path
         d="m 409.63372,1023.678 1.39968,0 0,10.3452 -1.39968,0 0,-10.3452 z"
         style="font-size:14.19085598px;text-align:center;text-anchor:middle"
         id="path4414" />
      <path
         d="m 420.02048,1024.0175 0,1.3651 q -0.79685,-0.3811 -1.50362,-0.5682 -0.70677,-0.1871 -1.36504,-0.1871 -1.14331,0 -1.76693,0.4435 -0.61669,0.4434 -0.61669,1.2611 0,0.6859 0.40882,1.0393 0.41575,0.3465 1.56598,0.5613 l 0.84535,0.1732 q 1.56599,0.298 2.3074,1.0532 0.74835,0.7484 0.74835,2.0095 0,1.5036 -1.01165,2.2797 -1.00473,0.776 -2.95181,0.776 -0.73449,0 -1.56598,-0.1663 -0.82457,-0.1663 -1.7115,-0.4919 l 0,-1.4413 q 0.85228,0.4781 1.66992,0.7206 0.81764,0.2426 1.60756,0.2426 1.19874,0 1.85008,-0.4712 0.65133,-0.4712 0.65133,-1.3443 0,-0.7622 -0.47118,-1.1918 -0.46425,-0.4296 -1.53133,-0.6444 l -0.85229,-0.1663 q -1.56598,-0.3118 -2.26582,-0.977 -0.69984,-0.6652 -0.69984,-1.8501 0,-1.3719 0.96314,-2.1619 0.97008,-0.7899 2.66772,-0.7899 0.72756,0 1.48283,0.1317 0.75528,0.1316 1.5452,0.3949 z"
         style="font-size:14.19085598px;text-align:center;text-anchor:middle"
         id="path4416" />
      <path
         d="m 422.82678,1023.678 1.39968,0 0,10.3452 -1.39968,0 0,-10.3452 z"
         style="font-size:14.19085598px;text-align:center;text-anchor:middle"
         id="path4418" />
      <path
         d="m 431.21102,1024.6273 q -1.52441,0 -2.42519,1.1364 -0.89386,1.1363 -0.89386,3.0973 0,1.954 0.89386,3.0904 0.90078,1.1364 2.42519,1.1364 1.52441,0 2.41134,-1.1364 0.89386,-1.1364 0.89386,-3.0904 0,-1.961 -0.89386,-3.0973 -0.88693,-1.1364 -2.41134,-1.1364 z m 0,-1.1364 q 2.17575,0 3.47843,1.4621 1.30267,1.4551 1.30267,3.908 0,2.446 -1.30267,3.908 -1.30268,1.4551 -3.47843,1.4551 -2.18267,0 -3.49228,-1.4551 -1.30267,-1.4551 -1.30267,-3.908 0,-2.4529 1.30267,-3.908 1.30961,-1.4621 3.49228,-1.4621 z"
         style="font-size:14.19085598px;text-align:center;text-anchor:middle"
         id="path4420" />
      <path
         d="m 438.18173,1023.678 1.88472,0 4.58708,8.6545 0,-8.6545 1.35811,0 0,10.3452 -1.88472,0 -4.58708,-8.6545 0,8.6545 -1.35811,0 0,-10.3452 z"
         style="font-size:14.19085598px;text-align:center;text-anchor:middle"
         id="path4422" />
    </g>
    <g
       style="font-style:normal;font-weight:normal;font-size:47.30285263px;line-height:125%;font-family:Sans;letter-spacing:0px;word-spacing:0px;fill:#000000;fill-opacity:1;stroke:none"
       id="text3815-1">
      <path
         d="m 385.65199,1011.5963 q 0.45039,0.1525 0.87307,0.6514 0.42961,0.4989 0.85921,1.3719 l 1.42047,2.8271 -1.50362,0 -1.32346,-2.6538 q -0.51276,-1.0394 -0.99779,-1.3789 -0.47811,-0.3396 -1.30961,-0.3396 l -1.52441,0 0,4.3723 -1.39968,0 0,-10.3452 3.15968,0 q 1.77386,0 2.64693,0.7414 0.87307,0.7415 0.87307,2.2382 0,0.977 -0.45732,1.6214 -0.4504,0.6444 -1.31654,0.8938 z m -3.50614,-4.3445 0,3.6724 1.76,0 q 1.01165,0 1.52441,-0.4643 0.51968,-0.4711 0.51968,-1.3788 0,-0.9078 -0.51968,-1.3651 -0.51276,-0.4642 -1.52441,-0.4642 l -1.76,0 z"
         style="font-size:14.19085598px;text-align:center;text-anchor:middle"
         id="path4425" />
      <path
         d="m 394.8123,1007.0508 q -1.52441,0 -2.4252,1.1364 -0.89385,1.1364 -0.89385,3.0973 0,1.954 0.89385,3.0904 0.90079,1.1364 2.4252,1.1364 1.52441,0 2.41134,-1.1364 0.89385,-1.1364 0.89385,-3.0904 0,-1.9609 -0.89385,-3.0973 -0.88693,-1.1364 -2.41134,-1.1364 z m 0,-1.1364 q 2.17575,0 3.47842,1.4621 1.30268,1.4551 1.30268,3.908 0,2.446 -1.30268,3.908 -1.30267,1.4552 -3.47842,1.4552 -2.18268,0 -3.49228,-1.4552 -1.30268,-1.4551 -1.30268,-3.908 0,-2.4529 1.30268,-3.908 1.3096,-1.4621 3.49228,-1.4621 z"
         style="font-size:14.19085598px;text-align:center;text-anchor:middle"
         id="path4427" />
      <path
         d="m 401.62363,1006.1015 1.40662,0 0,6.2847 q 0,1.663 0.60283,2.3975 0.60283,0.7276 1.95401,0.7276 1.34425,0 1.94709,-0.7276 0.60283,-0.7345 0.60283,-2.3975 l 0,-6.2847 1.40662,0 0,6.458 q 0,2.0233 -1.00473,3.0557 -0.99779,1.0325 -2.95181,1.0325 -1.96094,0 -2.96566,-1.0325 -0.9978,-1.0324 -0.9978,-3.0557 l 0,-6.458 z"
         style="font-size:14.19085598px;text-align:center;text-anchor:middle"
         id="path4429" />
      <path
         d="m 410.74237,1006.1015 8.75149,0 0,1.178 -3.67244,0 0,9.1672 -1.40662,0 0,-9.1672 -3.67243,0 0,-1.178 z"
         style="font-size:14.19085598px;text-align:center;text-anchor:middle"
         id="path4431" />
      <path
         d="m 420.85196,1006.1015 1.39969,0 0,10.3452 -1.39969,0 0,-10.3452 z"
         style="font-size:14.19085598px;text-align:center;text-anchor:middle"
         id="path4433" />
      <path
         d="m 425.03716,1006.1015 1.88472,0 4.58709,8.6545 0,-8.6545 1.35811,0 0,10.3452 -1.88473,0 -4.58708,-8.6545 0,8.6545 -1.35811,0 0,-10.3452 z"
         style="font-size:14.19085598px;text-align:center;text-anchor:middle"
         id="path4435" />
      <path
         d="m 442.70644,1014.9708 0,-2.7786 -2.28661,0 0,-1.1502 3.67243,0 0,4.4416 q -0.8107,0.5751 -1.78771,0.873 -0.97701,0.2911 -2.08567,0.2911 -2.42519,0 -3.79716,-1.4136 -1.36504,-1.4205 -1.36504,-3.9496 0,-2.536 1.36504,-3.9496 1.37197,-1.4205 3.79716,-1.4205 1.01165,0 1.91937,0.2495 0.91464,0.2494 1.68378,0.7345 l 0,1.4897 q -0.77606,-0.6582 -1.64913,-0.9908 -0.87307,-0.3326 -1.83622,-0.3326 -1.89858,0 -2.8548,1.0601 -0.9493,1.0602 -0.9493,3.1597 0,2.0926 0.9493,3.1528 0.95622,1.0601 2.8548,1.0601 0.74141,0 1.32346,-0.1247 0.58205,-0.1317 1.0463,-0.4019 z"
         style="font-size:14.19085598px;text-align:center;text-anchor:middle"
         id="path4437" />
    </g>
    <rect
       style="fill:#5591cd;fill-opacity:1;stroke:#cd5555;stroke-width:1.15928853;stroke-miterlimit:4;stroke-dasharray:none;stroke-dashoffset:0;stroke-opacity:1"
       id="rect3039-5-2"
       width="99.359276"
       height="57.969276"
       x="59.815811"
       y="993.81329" />
    <g
       style="font-style:normal;font-weight:normal;font-size:47.30285263px;line-height:125%;font-family:Sans;letter-spacing:0px;word-spacing:0px;fill:#000000;fill-opacity:1;stroke:none"
       id="text3811-4-9">
      <path
         d="m 73.606021,1018.4153 0,1.4759 q -0.706771,-0.6583 -1.51055,-0.9839 -0.79685,-0.3257 -1.697637,-0.3257 -1.773857,0 -2.716218,1.0879 -0.942362,1.0809 -0.942362,3.1319 0,2.0441 0.942362,3.132 0.942361,1.0809 2.716218,1.0809 0.900787,0 1.697637,-0.3256 0.803779,-0.3257 1.51055,-0.984 l 0,1.4621 q -0.734488,0.4989 -1.559054,0.7483 -0.817637,0.2495 -1.732282,0.2495 -2.348975,0 -3.700155,-1.4344 -1.35118,-1.4412 -1.35118,-3.9288 0,-2.4945 1.35118,-3.9288 1.35118,-1.4413 3.700155,-1.4413 0.928503,0 1.74614,0.2495 0.824567,0.2425 1.545196,0.7345 z"
         style="font-size:14.19085598px;text-align:center;text-anchor:middle"
         id="path4361" />
      <path
         d="m 79.98082,1018.5677 q -1.524408,0 -2.425195,1.1364 -0.893858,1.1364 -0.893858,3.0973 0,1.954 0.893858,3.0904 0.900787,1.1364 2.425195,1.1364 1.524408,0 2.411337,-1.1364 0.893858,-1.1364 0.893858,-3.0904 0,-1.9609 -0.893858,-3.0973 -0.886929,-1.1364 -2.411337,-1.1364 z m 0,-1.1364 q 2.175747,0 3.478423,1.4621 1.302676,1.4551 1.302676,3.908 0,2.446 -1.302676,3.9081 -1.302676,1.4551 -3.478423,1.4551 -2.182676,0 -3.492281,-1.4551 -1.302676,-1.4552 -1.302676,-3.9081 0,-2.4529 1.302676,-3.908 1.309605,-1.4621 3.492281,-1.4621 z"
         style="font-size:14.19085598px;text-align:center;text-anchor:middle"
         id="path4363" />
      <path
         d="m 86.951525,1017.6184 1.884723,0 4.587083,8.6545 0,-8.6545 1.35811,0 0,10.3452 -1.884724,0 -4.587083,-8.6545 0,8.6545 -1.358109,0 0,-10.3452 z"
         style="font-size:14.19085598px;text-align:center;text-anchor:middle"
         id="path4365" />
      <path
         d="m 97.56695,1017.6184 1.884723,0 4.587087,8.6545 0,-8.6545 1.35811,0 0,10.3452 -1.88473,0 -4.587081,-8.6545 0,8.6545 -1.358109,0 0,-10.3452 z"
         style="font-size:14.19085598px;text-align:center;text-anchor:middle"
         id="path4367" />
      <path
         d="m 106.74805,1017.6184 8.75149,0 0,1.178 -3.67244,0 0,9.1672 -1.40662,0 0,-9.1672 -3.67243,0 0,-1.178 z"
         style="font-size:14.19085598px;text-align:center;text-anchor:middle"
         id="path4369" />
      <path
         d="m 121.76347,1023.1132 q 0.45039,0.1525 0.87307,0.6514 0.4296,0.4989 0.85921,1.3719 l 1.42047,2.8271 -1.50362,0 -1.32346,-2.6538 q -0.51276,-1.0394 -0.9978,-1.3789 -0.47811,-0.3396 -1.3096,-0.3396 l -1.52441,0 0,4.3723 -1.39968,0 0,-10.3452 3.15968,0 q 1.77385,0 2.64693,0.7415 0.87307,0.7414 0.87307,2.2381 0,0.977 -0.45733,1.6214 -0.45039,0.6444 -1.31653,0.8938 z m -3.50614,-4.3445 0,3.6724 1.76,0 q 1.01165,0 1.52441,-0.4642 0.51968,-0.4712 0.51968,-1.3789 0,-0.9078 -0.51968,-1.3651 -0.51276,-0.4642 -1.52441,-0.4642 l -1.76,0 z"
         style="font-size:14.19085598px;text-align:center;text-anchor:middle"
         id="path4371" />
      <path
         d="m 129.60031,1018.9973 -1.89858,5.1484 3.80409,0 -1.90551,-5.1484 z m -0.78992,-1.3789 1.58677,0 3.94268,10.3452 -1.45512,0 -0.94236,-2.6538 -4.66331,0 -0.94236,2.6538 -1.4759,0 3.9496,-10.3452 z"
         style="font-size:14.19085598px;text-align:center;text-anchor:middle"
         id="path4373" />
      <path
         d="m 143.34078,1018.4153 0,1.4759 q -0.70677,-0.6583 -1.51055,-0.9839 -0.79685,-0.3257 -1.69764,-0.3257 -1.77386,0 -2.71622,1.0879 -0.94236,1.0809 -0.94236,3.1319 0,2.0441 0.94236,3.132 0.94236,1.0809 2.71622,1.0809 0.90079,0 1.69764,-0.3256 0.80378,-0.3257 1.51055,-0.984 l 0,1.4621 q -0.73449,0.4989 -1.55906,0.7483 -0.81763,0.2495 -1.73228,0.2495 -2.34897,0 -3.70015,-1.4344 -1.35118,-1.4412 -1.35118,-3.9288 0,-2.4945 1.35118,-3.9288 1.35118,-1.4413 3.70015,-1.4413 0.9285,0 1.74614,0.2495 0.82457,0.2425 1.5452,0.7345 z"
         style="font-size:14.19085598px;text-align:center;text-anchor:middle"
         id="path4375" />
      <path
         d="m 145.51652,1017.6184 1.39968,0 0,4.3723 4.64252,-4.3723 1.80157,0 -5.13448,4.8227 5.50173,5.5225 -1.84315,0 -4.96819,-4.982 0,4.982 -1.39968,0 0,-10.3452 z"
         style="font-size:14.19085598px;text-align:center;text-anchor:middle"
         id="path4377" />
    </g>
    <rect
       style="fill:#cd5555;fill-opacity:1;stroke:#cd5555;stroke-width:1.15928853;stroke-miterlimit:4;stroke-dasharray:none;stroke-dashoffset:0;stroke-opacity:1"
       id="rect3039-2-7"
       width="99.359276"
       height="57.969276"
       x="363.34241"
       y="822.16632" />
    <path
       style="fill:none;stroke:#000000;stroke-width:1.21918392;stroke-linecap:butt;stroke-linejoin:miter;stroke-miterlimit:4;stroke-dasharray:none;stroke-opacity:1"
       d="m 363.39124,850.55954 99.26162,0"
       id="path3809-3-2"
       inkscape:connector-curvature="0" />
    <g
       style="font-style:normal;font-weight:normal;font-size:47.30285263px;line-height:125%;font-family:Sans;letter-spacing:0px;word-spacing:0px;fill:#000000;fill-opacity:1;stroke:none"
       id="text3811-7-1">
      <path
         d="m 392.91722,857.95584 1.39968,0 0,10.34519 -1.39968,0 0,-10.34519 z"
         style="font-size:14.19085598px;text-align:center;text-anchor:middle"
         id="path4468" />
      <path
         d="m 397.10241,857.95584 1.88472,0 4.58709,8.65448 0,-8.65448 1.35811,0 0,10.34519 -1.88473,0 -4.58708,-8.65449 0,8.65449 -1.35811,0 0,-10.34519 z"
         style="font-size:14.19085598px;text-align:center;text-anchor:middle"
         id="path4470" />
      <path
         d="m 409.11752,859.10607 0,3.88724 1.76,0 q 0.97701,0 1.51055,-0.50582 0.53354,-0.50583 0.53354,-1.44126 0,-0.92851 -0.53354,-1.43433 -0.53354,-0.50583 -1.51055,-0.50583 l -1.76,0 z m -1.39968,-1.15023 3.15968,0 q 1.73921,0 2.62614,0.78992 0.89386,0.78299 0.89386,2.30047 0,1.53133 -0.89386,2.31433 -0.88693,0.78299 -2.62614,0.78299 l -1.76,0 0,4.15748 -1.39968,0 0,-10.34519 z"
         style="font-size:14.19085598px;text-align:center;text-anchor:middle"
         id="path4472" />
      <path
         d="m 416.12287,857.95584 1.40661,0 0,6.28472 q 0,1.66299 0.60284,2.39747 0.60283,0.72756 1.95401,0.72756 1.34425,0 1.94709,-0.72756 0.60283,-0.73448 0.60283,-2.39747 l 0,-6.28472 1.40661,0 0,6.45794 q 0,2.02331 -1.00472,3.05575 -0.99779,1.03244 -2.95181,1.03244 -1.96094,0 -2.96567,-1.03244 -0.99779,-1.03244 -0.99779,-3.05575 l 0,-6.45794 z"
         style="font-size:14.19085598px;text-align:center;text-anchor:middle"
         id="path4474" />
      <path
         d="m 425.2416,857.95584 8.75149,0 0,1.17795 -3.67243,0 0,9.16724 -1.40662,0 0,-9.16724 -3.67244,0 0,-1.17795 z"
         style="font-size:14.19085598px;text-align:center;text-anchor:middle"
         id="path4476" />
    </g>
    <g
       style="font-style:normal;font-weight:normal;font-size:47.30285263px;line-height:125%;font-family:Sans;letter-spacing:0px;word-spacing:0px;fill:#000000;fill-opacity:1;stroke:none"
       id="text3815-9-3">
      <path
         d="m 391.00477,830.91885 5.94519,0 0,1.17795 -4.54551,0 0,3.04882 4.10204,0 0,1.17795 -4.10204,0 0,4.94047 -1.39968,0 0,-10.34519 z"
         style="font-size:14.19085598px;text-align:center;text-anchor:middle"
         id="path4479" />
      <path
         d="m 399.18114,830.91885 1.39968,0 0,10.34519 -1.39968,0 0,-10.34519 z"
         style="font-size:14.19085598px;text-align:center;text-anchor:middle"
         id="path4481" />
      <path
         d="m 403.36633,830.91885 1.39969,0 0,9.16724 5.03747,0 0,1.17795 -6.43716,0 0,-10.34519 z"
         style="font-size:14.19085598px;text-align:center;text-anchor:middle"
         id="path4483" />
      <path
         d="m 407.89105,830.91885 8.75149,0 0,1.17795 -3.67243,0 0,9.16724 -1.40662,0 0,-9.16724 -3.67244,0 0,-1.17795 z"
         style="font-size:14.19085598px;text-align:center;text-anchor:middle"
         id="path4485" />
      <path
         d="m 418.00065,830.91885 6.5411,0 0,1.17795 -5.14141,0 0,3.06268 4.92661,0 0,1.17795 -4.92661,0 0,3.74866 5.26613,0 0,1.17795 -6.66582,0 0,-10.34519 z"
         style="font-size:14.19085598px;text-align:center;text-anchor:middle"
         id="path4487" />
      <path
         d="m 431.88663,836.41365 q 0.45039,0.15244 0.87307,0.65134 0.4296,0.49889 0.85921,1.37196 l 1.42047,2.82709 -1.50362,0 -1.32347,-2.65386 q -0.51275,-1.03937 -0.99779,-1.37889 -0.47811,-0.33953 -1.30961,-0.33953 l -1.5244,0 0,4.37228 -1.39969,0 0,-10.34519 3.15968,0 q 1.77386,0 2.64693,0.74142 0.87307,0.74141 0.87307,2.2381 0,0.97701 -0.45732,1.62142 -0.45039,0.64441 -1.31653,0.89386 z m -3.50614,-4.34457 0,3.67244 1.75999,0 q 1.01166,0 1.52441,-0.46425 0.51969,-0.47118 0.51969,-1.3789 0,-0.90771 -0.51969,-1.36503 -0.51275,-0.46426 -1.52441,-0.46426 l -1.75999,0 z"
         style="font-size:14.19085598px;text-align:center;text-anchor:middle"
         id="path4489" />
    </g>
    <rect
       style="fill:#55cd91;fill-opacity:1;stroke:#cd5555;stroke-width:1.15928853;stroke-miterlimit:4;stroke-dasharray:none;stroke-dashoffset:0;stroke-opacity:1"
       id="rect3039-2-7-1"
       width="99.359276"
       height="57.969276"
       x="515.10577"
       y="651.71393" />
    <path
       style="fill:none;stroke:#000000;stroke-width:1.21918392;stroke-linecap:butt;stroke-linejoin:miter;stroke-miterlimit:4;stroke-dasharray:none;stroke-opacity:1"
       d="m 515.15455,680.10709 99.26165,0"
       id="path3809-3-2-8"
       inkscape:connector-curvature="0" />
    <g
       style="font-style:normal;font-weight:normal;font-size:47.30285263px;line-height:125%;font-family:Sans;letter-spacing:0px;word-spacing:0px;fill:#000000;fill-opacity:1;stroke:none"
       id="text3811-7-1-3">
      <path
         d="m 534.03738,688.65368 0,3.88724 1.76,0 q 0.97701,0 1.51055,-0.50583 0.53354,-0.50582 0.53354,-1.44126 0,-0.9285 -0.53354,-1.43432 -0.53354,-0.50583 -1.51055,-0.50583 l -1.76,0 z m -1.39968,-1.15024 3.15968,0 q 1.73921,0 2.62614,0.78992 0.89386,0.783 0.89386,2.30047 0,1.53134 -0.89386,2.31433 -0.88693,0.783 -2.62614,0.783 l -1.76,0 0,4.15747 -1.39968,0 0,-10.34519 z"
         style="font-size:14.19085598px;text-align:center;text-anchor:middle"
         id="path4522" />
      <path
         d="m 546.10792,692.99824 q 0.4504,0.15244 0.87307,0.65134 0.42961,0.4989 0.85922,1.37197 l 1.42047,2.82708 -1.50362,0 -1.32347,-2.65385 q -0.51275,-1.03937 -0.99779,-1.3789 -0.47811,-0.33953 -1.30961,-0.33953 l -1.52441,0 0,4.37228 -1.39968,0 0,-10.34519 3.15968,0 q 1.77386,0 2.64693,0.74142 0.87307,0.74142 0.87307,2.23811 0,0.97701 -0.45732,1.62141 -0.4504,0.64441 -1.31654,0.89386 z m -3.50614,-4.34456 0,3.67244 1.76,0 q 1.01166,0 1.52441,-0.46425 0.51969,-0.47119 0.51969,-1.3789 0,-0.90772 -0.51969,-1.36504 -0.51275,-0.46425 -1.52441,-0.46425 l -1.76,0 z"
         style="font-size:14.19085598px;text-align:center;text-anchor:middle"
         id="path4524" />
      <path
         d="m 555.26823,688.45273 q -1.52441,0 -2.42519,1.13638 -0.89386,1.13638 -0.89386,3.09732 0,1.95402 0.89386,3.09039 0.90078,1.13638 2.42519,1.13638 1.52441,0 2.41134,-1.13638 0.89386,-1.13637 0.89386,-3.09039 0,-1.96094 -0.89386,-3.09732 -0.88693,-1.13638 -2.41134,-1.13638 z m 0,-1.13637 q 2.17575,0 3.47843,1.46204 1.30267,1.45512 1.30267,3.90803 0,2.44598 -1.30267,3.90803 -1.30268,1.45512 -3.47843,1.45512 -2.18267,0 -3.49228,-1.45512 -1.30267,-1.45512 -1.30267,-3.90803 0,-2.45291 1.30267,-3.90803 1.30961,-1.46204 3.49228,-1.46204 z"
         style="font-size:14.19085598px;text-align:center;text-anchor:middle"
         id="path4526" />
      <path
         d="m 569.9857,688.30029 0,1.47591 q -0.70677,-0.65827 -1.51055,-0.98394 -0.79685,-0.32567 -1.69764,-0.32567 -1.77385,0 -2.71621,1.08788 -0.94237,1.08094 -0.94237,3.13196 0,2.04409 0.94237,3.13197 0.94236,1.08094 2.71621,1.08094 0.90079,0 1.69764,-0.32567 0.80378,-0.32567 1.51055,-0.98393 l 0,1.46204 q -0.73449,0.4989 -1.55905,0.74835 -0.81764,0.24945 -1.73228,0.24945 -2.34898,0 -3.70016,-1.43433 -1.35118,-1.44126 -1.35118,-3.92882 0,-2.49448 1.35118,-3.92881 1.35118,-1.44126 3.70016,-1.44126 0.9285,0 1.74614,0.24945 0.82456,0.24252 1.54519,0.73448 z"
         style="font-size:14.19085598px;text-align:center;text-anchor:middle"
         id="path4528" />
      <path
         d="m 572.16145,687.50344 6.54109,0 0,1.17796 -5.14141,0 0,3.06267 4.92661,0 0,1.17795 -4.92661,0 0,3.74866 5.26614,0 0,1.17795 -6.66582,0 0,-10.34519 z"
         style="font-size:14.19085598px;text-align:center;text-anchor:middle"
         id="path4530" />
      <path
         d="m 587.34317,687.84297 0,1.36504 q -0.79685,-0.3811 -1.50362,-0.56819 -0.70677,-0.18709 -1.36504,-0.18709 -1.14331,0 -1.76693,0.44347 -0.61669,0.44346 -0.61669,1.2611 0,0.68598 0.40882,1.03937 0.41575,0.34646 1.56598,0.56126 l 0.84536,0.17323 q 1.56598,0.29795 2.3074,1.05322 0.74834,0.74835 0.74834,2.00945 0,1.50362 -1.01165,2.27969 -1.00473,0.77606 -2.95181,0.77606 -0.73449,0 -1.56598,-0.1663 -0.82457,-0.1663 -1.7115,-0.49197 l 0,-1.44126 q 0.85228,0.47811 1.66992,0.72063 0.81764,0.24252 1.60756,0.24252 1.19874,0 1.85008,-0.47118 0.65134,-0.47118 0.65134,-1.34425 0,-0.76221 -0.47119,-1.19181 -0.46425,-0.42961 -1.53133,-0.64441 l -0.85229,-0.1663 q -1.56598,-0.31181 -2.26582,-0.97701 -0.69984,-0.66519 -0.69984,-1.85007 0,-1.37197 0.96315,-2.16189 0.97007,-0.78992 2.66771,-0.78992 0.72756,0 1.48283,0.13165 0.75528,0.13165 1.5452,0.39496 z"
         style="font-size:14.19085598px;text-align:center;text-anchor:middle"
         id="path4532" />
      <path
         d="m 596.35104,687.84297 0,1.36504 q -0.79685,-0.3811 -1.50362,-0.56819 -0.70677,-0.18709 -1.36504,-0.18709 -1.14331,0 -1.76693,0.44347 -0.61669,0.44346 -0.61669,1.2611 0,0.68598 0.40882,1.03937 0.41575,0.34646 1.56598,0.56126 l 0.84536,0.17323 q 1.56598,0.29795 2.3074,1.05322 0.74834,0.74835 0.74834,2.00945 0,1.50362 -1.01165,2.27969 -1.00473,0.77606 -2.95181,0.77606 -0.73449,0 -1.56598,-0.1663 -0.82457,-0.1663 -1.7115,-0.49197 l 0,-1.44126 q 0.85228,0.47811 1.66992,0.72063 0.81764,0.24252 1.60756,0.24252 1.19874,0 1.85008,-0.47118 0.65133,-0.47118 0.65133,-1.34425 0,-0.76221 -0.47118,-1.19181 -0.46425,-0.42961 -1.53133,-0.64441 l -0.85229,-0.1663 q -1.56598,-0.31181 -2.26582,-0.97701 -0.69984,-0.66519 -0.69984,-1.85007 0,-1.37197 0.96315,-2.16189 0.97007,-0.78992 2.66771,-0.78992 0.72756,0 1.48283,0.13165 0.75528,0.13165 1.5452,0.39496 z"
         style="font-size:14.19085598px;text-align:center;text-anchor:middle"
         id="path4534" />
    </g>
    <g
       style="font-style:normal;font-weight:normal;font-size:47.30285263px;line-height:125%;font-family:Sans;letter-spacing:0px;word-spacing:0px;fill:#000000;fill-opacity:1;stroke:none"
       id="text3815-9-3-0">
      <path
         d="m 542.64335,660.4664 1.39968,0 0,9.16723 5.03748,0 0,1.17795 -6.43716,0 0,-10.34518 z"
         style="font-size:14.19085598px;text-align:center;text-anchor:middle"
         id="path4537" />
      <path
         d="m 554.24271,661.41569 q -1.52441,0 -2.4252,1.13637 -0.89385,1.13638 -0.89385,3.09732 0,1.95402 0.89385,3.09039 0.90079,1.13638 2.4252,1.13638 1.52441,0 2.41134,-1.13638 0.89385,-1.13637 0.89385,-3.09039 0,-1.96094 -0.89385,-3.09732 -0.88693,-1.13637 -2.41134,-1.13637 z m 0,-1.13638 q 2.17575,0 3.47842,1.46204 1.30268,1.45512 1.30268,3.90803 0,2.44599 -1.30268,3.90803 -1.30267,1.45512 -3.47842,1.45512 -2.18268,0 -3.49228,-1.45512 -1.30268,-1.45511 -1.30268,-3.90803 0,-2.45291 1.30268,-3.90803 1.3096,-1.46204 3.49228,-1.46204 z"
         style="font-size:14.19085598px;text-align:center;text-anchor:middle"
         id="path4539" />
      <path
         d="m 568.96018,661.26324 0,1.47591 q -0.70677,-0.65827 -1.51055,-0.98394 -0.79685,-0.32567 -1.69764,-0.32567 -1.77386,0 -2.71622,1.08788 -0.94236,1.08094 -0.94236,3.13196 0,2.0441 0.94236,3.13197 0.94236,1.08094 2.71622,1.08094 0.90079,0 1.69764,-0.32567 0.80378,-0.32566 1.51055,-0.98393 l 0,1.46204 q -0.73449,0.4989 -1.55906,0.74835 -0.81763,0.24945 -1.73228,0.24945 -2.34897,0 -3.70015,-1.43433 -1.35118,-1.44126 -1.35118,-3.92882 0,-2.49448 1.35118,-3.92881 1.35118,-1.44126 3.70015,-1.44126 0.9285,0 1.74614,0.24945 0.82457,0.24252 1.5452,0.73448 z"
         style="font-size:14.19085598px;text-align:center;text-anchor:middle"
         id="path4541" />
      <path
         d="m 574.59356,661.84529 -1.89858,5.14834 3.80409,0 -1.90551,-5.14834 z m -0.78992,-1.37889 1.58677,0 3.94268,10.34518 -1.45512,0 -0.94236,-2.65385 -4.66331,0 -0.94236,2.65385 -1.4759,0 3.9496,-10.34518 z"
         style="font-size:14.19085598px;text-align:center;text-anchor:middle"
         id="path4543" />
      <path
         d="m 580.83671,660.4664 1.39968,0 0,9.16723 5.03748,0 0,1.17795 -6.43716,0 0,-10.34518 z"
         style="font-size:14.19085598px;text-align:center;text-anchor:middle"
         id="path4545" />
    </g>
    <g
       style="font-style:normal;font-weight:normal;font-size:47.30285263px;line-height:125%;font-family:Sans;letter-spacing:0px;word-spacing:0px;fill:#000000;fill-opacity:1;stroke:none"
       id="text3989">
      <path
         d="m 525.2478,631.56125 0,-4.19905 1.27496,0 0,10.78172 -1.27496,0 0,-1.16409 q -0.40189,0.69291 -1.01858,1.03244 -0.60976,0.3326 -1.46898,0.3326 -1.40661,0 -2.29354,-1.12252 -0.88,-1.12252 -0.88,-2.95181 0,-1.82929 0.88,-2.95181 0.88693,-1.12252 2.29354,-1.12252 0.85922,0 1.46898,0.33953 0.61669,0.3326 1.01858,1.02551 z m -4.34456,2.70929 q 0,1.40661 0.57511,2.21039 0.58205,0.79685 1.5937,0.79685 1.01166,0 1.5937,-0.79685 0.58205,-0.80378 0.58205,-2.21039 0,-1.40662 -0.58205,-2.20347 -0.58204,-0.80377 -1.5937,-0.80377 -1.01165,0 -1.5937,0.80377 -0.57511,0.79685 -0.57511,2.20347 z"
         style="font-size:14.19085598px"
         id="path4548" />
      <path
         d="m 532.15614,631.27715 q -1.02551,0 -1.62141,0.80378 -0.59591,0.79685 -0.59591,2.18961 0,1.39275 0.58898,2.19653 0.5959,0.79685 1.62834,0.79685 1.01858,0 1.61449,-0.80378 0.5959,-0.80378 0.5959,-2.1896 0,-1.3789 -0.5959,-2.18268 -0.59591,-0.81071 -1.61449,-0.81071 z m 0,-1.08094 q 1.66299,0 2.61228,1.08094 0.94929,1.08095 0.94929,2.99339 0,1.90551 -0.94929,2.99338 -0.94929,1.08095 -2.61228,1.08095 -1.66992,0 -2.61921,-1.08095 -0.94236,-1.08787 -0.94236,-2.99338 0,-1.91244 0.94236,-2.99339 0.94929,-1.08094 2.61921,-1.08094 z"
         style="font-size:14.19085598px"
         id="path4550" />
      <path
         d="m 543.40905,630.68125 0,1.19181 q -0.54048,-0.29795 -1.08788,-0.44347 -0.54047,-0.15244 -1.0948,-0.15244 -1.24031,0 -1.9263,0.78992 -0.68598,0.783 -0.68598,2.20347 0,1.42047 0.68598,2.21039 0.68599,0.78299 1.9263,0.78299 0.55433,0 1.0948,-0.14551 0.5474,-0.15244 1.08788,-0.45039 l 0,1.17795 q -0.53355,0.24945 -1.10866,0.37417 -0.56819,0.12473 -1.2126,0.12473 -1.75307,0 -2.78551,-1.10174 -1.03244,-1.10173 -1.03244,-2.97259 0,-1.89858 1.03937,-2.98646 1.0463,-1.08787 2.86173,-1.08787 0.58897,0 1.15023,0.12472 0.56126,0.1178 1.08788,0.36032 z"
         style="font-size:14.19085598px"
         id="path4552" />
      <path
         d="m 545.59172,627.3622 1.28189,0 0,6.36787 3.80409,-3.34677 1.62835,0 -4.1159,3.63086 4.28913,4.12976 -1.66299,0 -3.94268,-3.79023 0,3.79023 -1.28189,0 0,-10.78172 z"
         style="font-size:14.19085598px"
         id="path4554" />
      <path
         d="m 560.01124,633.94487 0,0.62362 -5.86204,0 q 0.0832,1.31653 0.78992,2.00945 0.7137,0.68598 1.98173,0.68598 0.73449,0 1.42047,-0.18016 0.69291,-0.18015 1.37197,-0.54047 l 0,1.20567 q -0.68599,0.29102 -1.40662,0.44346 -0.72063,0.15245 -1.46204,0.15245 -1.85701,0 -2.94488,-1.08095 -1.08095,-1.08094 -1.08095,-2.92409 0,-1.90551 1.02552,-3.0211 1.03244,-1.12252 2.77858,-1.12252 1.56598,0 2.47369,1.01165 0.91465,1.00473 0.91465,2.73701 z m -1.27496,-0.37417 q -0.0139,-1.0463 -0.58898,-1.66992 -0.56818,-0.62363 -1.51055,-0.62363 -1.06708,0 -1.71149,0.60284 -0.63748,0.60283 -0.73449,1.69763 l 4.54551,-0.007 z"
         style="font-size:14.19085598px"
         id="path4556" />
      <path
         d="m 566.60084,631.57511 q -0.2148,-0.12473 -0.47118,-0.18016 -0.24945,-0.0624 -0.55433,-0.0624 -1.08094,0 -1.66299,0.70677 -0.57512,0.69984 -0.57512,2.01637 l 0,4.08819 -1.28189,0 0,-7.76062 1.28189,0 0,1.20566 q 0.40189,-0.70677 1.0463,-1.04629 0.64441,-0.34646 1.56598,-0.34646 0.13166,0 0.29103,0.0208 0.15937,0.0139 0.35338,0.0485 l 0.007,1.30961 z"
         style="font-size:14.19085598px"
         id="path4558" />
      <path
         d="m 566.39297,633.68849 3.7348,0 0,1.13638 -3.7348,0 0,-1.13638 z"
         style="font-size:14.19085598px"
         id="path4560" />
      <path
         d="m 573.39832,636.97983 0,4.1159 -1.28189,0 0,-10.71243 1.28189,0 0,1.17795 q 0.40189,-0.69291 1.01165,-1.02551 0.61669,-0.33953 1.46897,-0.33953 1.41355,0 2.29355,1.12252 0.88693,1.12252 0.88693,2.95181 0,1.82929 -0.88693,2.95181 -0.88,1.12252 -2.29355,1.12252 -0.85228,0 -1.46897,-0.3326 -0.60976,-0.33953 -1.01165,-1.03244 z m 4.33763,-2.70929 q 0,-1.40662 -0.58205,-2.20347 -0.57511,-0.80377 -1.58677,-0.80377 -1.01165,0 -1.5937,0.80377 -0.57511,0.79685 -0.57511,2.20347 0,1.40661 0.57511,2.21039 0.58205,0.79685 1.5937,0.79685 1.01166,0 1.58677,-0.79685 0.58205,-0.80378 0.58205,-2.21039 z"
         style="font-size:14.19085598px"
         id="path4562" />
      <path
         d="m 585.66981,631.57511 q -0.21481,-0.12473 -0.47118,-0.18016 -0.24945,-0.0624 -0.55433,-0.0624 -1.08095,0 -1.663,0.70677 -0.57511,0.69984 -0.57511,2.01637 l 0,4.08819 -1.28189,0 0,-7.76062 1.28189,0 0,1.20566 q 0.40189,-0.70677 1.0463,-1.04629 0.6444,-0.34646 1.56598,-0.34646 0.13165,0 0.29102,0.0208 0.15937,0.0139 0.35339,0.0485 l 0.007,1.30961 z"
         style="font-size:14.19085598px"
         id="path4564" />
      <path
         d="m 589.72335,631.27715 q -1.02551,0 -1.62142,0.80378 -0.5959,0.79685 -0.5959,2.18961 0,1.39275 0.58897,2.19653 0.59591,0.79685 1.62835,0.79685 1.01858,0 1.61449,-0.80378 0.5959,-0.80378 0.5959,-2.1896 0,-1.3789 -0.5959,-2.18268 -0.59591,-0.81071 -1.61449,-0.81071 z m 0,-1.08094 q 1.66299,0 2.61228,1.08094 0.94929,1.08095 0.94929,2.99339 0,1.90551 -0.94929,2.99338 -0.94929,1.08095 -2.61228,1.08095 -1.66992,0 -2.61921,-1.08095 -0.94236,-1.08787 -0.94236,-2.99338 0,-1.91244 0.94236,-2.99339 0.94929,-1.08094 2.61921,-1.08094 z"
         style="font-size:14.19085598px"
         id="path4566" />
      <path
         d="m 601.39893,630.3833 -2.8063,3.77637 2.95181,3.98425 -1.50362,0 -2.2589,-3.04882 -2.25889,3.04882 -1.50362,0 3.01417,-4.06047 -2.7578,-3.70015 1.50363,0 2.05795,2.76472 2.05795,-2.76472 1.50362,0 z"
         style="font-size:14.19085598px"
         id="path4568" />
      <path
         d="m 606.57499,638.86455 q -0.54048,1.38583 -1.05323,1.8085 -0.51276,0.42268 -1.37197,0.42268 l -1.01858,0 0,-1.06709 0.74834,0 q 0.52662,0 0.81764,-0.24944 0.29103,-0.24945 0.64441,-1.17796 l 0.22866,-0.58204 -3.13889,-7.6359 1.35118,0 2.42519,6.06991 2.4252,-6.06991 1.35118,0 -3.40913,8.48125 z"
         style="font-size:14.19085598px"
         id="path4570" />
    </g>
    <path
       style="fill:none;stroke:#000000;stroke-width:1.18762589;stroke-linecap:butt;stroke-linejoin:miter;stroke-miterlimit:4;stroke-dasharray:none;stroke-opacity:1;marker-end:url(#Arrow2Lend)"
       d="m 160.34854,1021.2904 c 48.6747,0.4516 48.6747,0.4516 48.6747,0.4516"
       id="path4058"
       inkscape:connector-curvature="0" />
    <path
       style="fill:none;stroke:#000000;stroke-width:1.18762589;stroke-linecap:butt;stroke-linejoin:miter;stroke-miterlimit:4;stroke-dasharray:none;stroke-opacity:1;marker-end:url(#Arrow2Lend)"
       d="m 8.9794131,1021.2904 c 48.6746939,0.4516 48.6746939,0.4516 48.6746939,0.4516"
       id="path4058-0"
       inkscape:connector-curvature="0" />
    <path
       style="fill:none;stroke:#000000;stroke-width:1.18762589;stroke-linecap:butt;stroke-linejoin:miter;stroke-miterlimit:4;stroke-dasharray:none;stroke-opacity:1;marker-end:url(#Arrow2Lend)"
       d="m 312.10792,1021.2904 c 48.67469,0.4516 48.67469,0.4516 48.67469,0.4516"
       id="path4058-9"
       inkscape:connector-curvature="0" />
    <path
       style="fill:none;stroke:#000000;stroke-width:1.18762589;stroke-linecap:butt;stroke-linejoin:miter;stroke-miterlimit:4;stroke-dasharray:none;stroke-opacity:1;marker-end:url(#Arrow2Lend)"
       d="m 463.87557,1021.2904 c 48.67469,0.4516 48.67469,0.4516 48.67469,0.4516"
       id="path4058-9-0"
       inkscape:connector-curvature="0" />
    <path
       style="fill:none;stroke:#000000;stroke-width:1.18762589;stroke-linecap:butt;stroke-linejoin:miter;stroke-miterlimit:4;stroke-dasharray:none;stroke-opacity:1;marker-end:url(#Arrow2Lend)"
       d="m 615.63849,1021.2904 c 48.6747,0.4516 48.6747,0.4516 48.6747,0.4516"
       id="path4058-9-0-3"
       inkscape:connector-curvature="0" />
    <path
       style="fill:none;stroke:#000000;stroke-width:1.19650507;stroke-linecap:butt;stroke-linejoin:miter;stroke-miterlimit:4;stroke-dasharray:none;stroke-opacity:1;marker-end:url(#Arrow2Lend-2)"
       d="m 412.24066,680.4013 c 99.50516,0.42913 99.50516,0.42913 99.50516,0.42913"
       id="path4058-9-0-3-3"
       inkscape:connector-curvature="0" />
    <path
       style="fill:none;stroke:#000000;stroke-width:1.18762589;stroke-linecap:butt;stroke-linejoin:miter;stroke-miterlimit:4;stroke-dasharray:none;stroke-opacity:1;marker-end:url(#Arrow2Lend)"
       d="m 615.63849,680.38565 c 48.6747,0.45163 48.6747,0.45163 48.6747,0.45163"
       id="path4058-9-0-3-3-1"
       inkscape:connector-curvature="0" />
    <path
       style="fill:none;stroke:#000000;stroke-width:1.1832093;stroke-linecap:butt;stroke-linejoin:miter;stroke-miterlimit:4;stroke-dasharray:none;stroke-opacity:1"
       d="m 412.23681,820.83803 c 0,-139.54214 0,-139.54214 0,-139.54214"
       id="path4842-6"
       inkscape:connector-curvature="0" />
    <path
       style="fill:none;stroke:#000000;stroke-width:1.18257129;stroke-linecap:butt;stroke-linejoin:miter;stroke-miterlimit:4;stroke-dasharray:4.7302852, 4.7302852;stroke-dashoffset:0;stroke-opacity:1"
       d="M 0.68171295,751.64609 673.59925,751.68038"
       id="path5056"
       inkscape:connector-curvature="0" />
    <g
       style="font-style:normal;font-weight:normal;font-size:47.30285263px;line-height:125%;font-family:Sans;letter-spacing:0px;word-spacing:0px;fill:#000000;fill-opacity:1;stroke:none"
       id="text5058">
      <path
         d="m 7.5933045,768.75894 1.399684,0 0,4.37228 4.6425165,-4.37228 1.801573,0 -5.134484,4.82267 5.501728,5.52252 -1.843148,0 -4.9681855,-4.98205 0,4.98205 -1.399684,0 0,-10.34519 z"
         style="font-size:14.19085598px"
         id="path4492" />
      <path
         d="m 16.906053,768.75894 6.541098,0 0,1.17795 -5.141414,0 0,3.06267 4.926611,0 0,1.17796 -4.926611,0 0,3.74865 5.266138,0 0,1.17796 -6.665822,0 0,-10.34519 z"
         style="font-size:14.19085598px"
         id="path4494" />
      <path
         d="m 30.792028,774.25374 q 0.450393,0.15244 0.87307,0.65133 0.429606,0.4989 0.859212,1.37197 l 1.420472,2.82709 -1.503621,0 -1.323464,-2.65386 q -0.512756,-1.03937 -0.997795,-1.3789 -0.47811,-0.33952 -1.309605,-0.33952 l -1.524408,0 0,4.37228 -1.399684,0 0,-10.34519 3.159682,0 q 1.773857,0 2.646928,0.74141 0.87307,0.74142 0.87307,2.23811 0,0.97701 -0.457323,1.62142 -0.450393,0.64441 -1.316534,0.89386 z m -3.506139,-4.34457 0,3.67244 1.759998,0 q 1.011653,0 1.524409,-0.46425 0.519684,-0.47118 0.519684,-1.3789 0,-0.90771 -0.519684,-1.36504 -0.512756,-0.46425 -1.524409,-0.46425 l -1.759998,0 z"
         style="font-size:14.19085598px"
         id="path4496" />
      <path
         d="m 35.753285,768.75894 1.884723,0 4.587084,8.65448 0,-8.65448 1.358109,0 0,10.34519 -1.884723,0 -4.587083,-8.65449 0,8.65449 -1.35811,0 0,-10.34519 z"
         style="font-size:14.19085598px"
         id="path4498" />
      <path
         d="m 46.36871,768.75894 6.541098,0 0,1.17795 -5.141414,0 0,3.06267 4.926611,0 0,1.17796 -4.926611,0 0,3.74865 5.266138,0 0,1.17796 -6.665822,0 0,-10.34519 z"
         style="font-size:14.19085598px"
         id="path4500" />
      <path
         d="m 55.348859,768.75894 1.399684,0 0,9.16723 5.037476,0 0,1.17796 -6.43716,0 0,-10.34519 z"
         style="font-size:14.19085598px"
         id="path4502" />
    </g>
    <g
       style="font-style:normal;font-weight:normal;font-size:47.30285263px;line-height:125%;font-family:Sans;letter-spacing:0px;word-spacing:0px;fill:#000000;fill-opacity:1;stroke:none"
       id="text5058-1">
      <path
         d="m 7.5933045,724.21548 1.4066132,0 0,6.28472 q 0,1.66299 0.6028342,2.39748 0.6028341,0.72756 1.9540141,0.72756 1.344251,0 1.947085,-0.72756 0.602835,-0.73449 0.602835,-2.39748 l 0,-6.28472 1.406613,0 0,6.45795 q 0,2.0233 -1.004724,3.05574 -0.997794,1.03244 -2.951809,1.03244 -1.9609433,0 -2.9656669,-1.03244 -0.9977946,-1.03244 -0.9977946,-3.05574 l 0,-6.45795 z"
         style="font-size:14.19085598px"
         id="path4505" />
      <path
         d="m 24.347938,724.55501 0,1.36504 q -0.79685,-0.38111 -1.503621,-0.56819 -0.706771,-0.18709 -1.365039,-0.18709 -1.143306,0 -1.766927,0.44346 -0.616693,0.44347 -0.616693,1.26111 0,0.68598 0.408819,1.03937 0.415747,0.34645 1.565983,0.56125 l 0.845354,0.17323 q 1.565983,0.29796 2.307399,1.05323 0.748346,0.74835 0.748346,2.00945 0,1.50362 -1.011652,2.27968 -1.004724,0.77606 -2.951809,0.77606 -0.734488,0 -1.565983,-0.1663 -0.824567,-0.16629 -1.711495,-0.49196 l 0,-1.44126 q 0.852283,0.47811 1.66992,0.72063 0.817637,0.24252 1.607558,0.24252 1.198739,0 1.850077,-0.47118 0.651338,-0.47118 0.651338,-1.34426 0,-0.7622 -0.471181,-1.19181 -0.464251,-0.4296 -1.531337,-0.6444 l -0.852283,-0.1663 q -1.565983,-0.31181 -2.265825,-0.97701 -0.699842,-0.6652 -0.699842,-1.85008 0,-1.37197 0.963149,-2.16189 0.970078,-0.78992 2.667714,-0.78992 0.727559,0 1.482834,0.13166 0.755275,0.13165 1.545196,0.39496 z"
         style="font-size:14.19085598px"
         id="path4507" />
      <path
         d="m 27.154236,724.21548 6.541098,0 0,1.17795 -5.141414,0 0,3.06268 4.926611,0 0,1.17795 -4.926611,0 0,3.74866 5.266138,0 0,1.17795 -6.665822,0 0,-10.34519 z"
         style="font-size:14.19085598px"
         id="path4509" />
      <path
         d="m 41.04021,729.71028 q 0.450393,0.15244 0.87307,0.65134 0.429606,0.49889 0.859212,1.37196 l 1.420471,2.82709 -1.503621,0 -1.323463,-2.65386 q -0.512756,-1.03937 -0.997795,-1.37889 -0.47811,-0.33953 -1.309605,-0.33953 l -1.524409,0 0,4.37228 -1.399684,0 0,-10.34519 3.159683,0 q 1.773857,0 2.646927,0.74142 0.873071,0.74141 0.873071,2.2381 0,0.97701 -0.457323,1.62142 -0.450393,0.64441 -1.316534,0.89386 z m -3.50614,-4.34457 0,3.67244 1.759999,0 q 1.011653,0 1.524409,-0.46425 0.519684,-0.47118 0.519684,-1.3789 0,-0.90771 -0.519684,-1.36503 -0.512756,-0.46426 -1.524409,-0.46426 l -1.759999,0 z"
         style="font-size:14.19085598px"
         id="path4511" />
      <path
         d="m 46.001465,724.21548 1.399684,0 0,9.16724 5.037477,0 0,1.17795 -6.437161,0 0,-10.34519 z"
         style="font-size:14.19085598px"
         id="path4513" />
      <path
         d="m 57.690908,725.59438 -1.898581,5.14834 3.804092,0 -1.905511,-5.14834 z m -0.78992,-1.3789 1.58677,0 3.942674,10.34519 -1.455117,0 -0.942361,-2.65386 -4.663304,0 -0.942361,2.65386 -1.475905,0 3.949604,-10.34519 z"
         style="font-size:14.19085598px"
         id="path4515" />
      <path
         d="m 63.934052,724.21548 1.884723,0 4.587083,8.65448 0,-8.65448 1.35811,0 0,10.34519 -1.884724,0 -4.587083,-8.65448 0,8.65448 -1.358109,0 0,-10.34519 z"
         style="font-size:14.19085598px"
         id="path4517" />
      <path
         d="m 75.949157,725.36571 0,8.04472 1.690708,0 q 2.1411,0 3.131966,-0.97007 0.997794,-0.97008 0.997794,-3.06268 0,-2.07874 -0.997794,-3.04189 -0.990866,-0.97008 -3.131966,-0.97008 l -1.690708,0 z m -1.399684,-1.15023 2.875589,0 q 3.007242,0 4.413855,1.25417 1.406613,1.24725 1.406613,3.90803 0,2.67464 -1.413542,3.92882 -1.413543,1.25417 -4.406926,1.25417 l -2.875589,0 0,-10.34519 z"
         style="font-size:14.19085598px"
         id="path4519" />
    </g>
    <path
       style="fill:none;fill-rule:evenodd;stroke:#000000;stroke-width:1.2;stroke-linecap:butt;stroke-linejoin:miter;stroke-opacity:1;marker-end:url(#Arrow2Lend);stroke-miterlimit:4;stroke-dasharray:none"
       d="m 413.02205,992.61871 0,-112.48311"
       id="path4322"
       inkscape:connector-type="polyline"
       inkscape:connector-curvature="0"
       inkscape:connection-start="#rect3039-5"
       inkscape:connection-end="#rect3039-2-7" />
  </g>
</svg>
