<?xml version="1.0" encoding="UTF-8" standalone="no"?>
<!-- Created with Inkscape (http://www.inkscape.org/) -->

<svg
   xmlns:dc="http://purl.org/dc/elements/1.1/"
   xmlns:cc="http://creativecommons.org/ns#"
   xmlns:rdf="http://www.w3.org/1999/02/22-rdf-syntax-ns#"
   xmlns:svg="http://www.w3.org/2000/svg"
   xmlns="http://www.w3.org/2000/svg"
   xmlns:sodipodi="http://sodipodi.sourceforge.net/DTD/sodipodi-0.dtd"
   xmlns:inkscape="http://www.inkscape.org/namespaces/inkscape"
   width="527.20001"
   height="361"
   id="svg2"
   version="1.1"
   inkscape:version="0.91 r"
   sodipodi:docname="Links.svg">
  <defs
     id="defs4">
    <marker
       inkscape:stockid="Arrow2Lstart"
       orient="auto"
       refY="0"
       refX="0"
       id="Arrow2Lstart"
       style="overflow:visible">
      <path
         id="path3931"
         style="fill-rule:evenodd;stroke-width:0.625;stroke-linejoin:round"
         d="M 8.7185878,4.0337352 -2.2072895,0.01601326 8.7185884,-4.0017078 c -1.7454984,2.3720609 -1.7354408,5.6174519 -6e-7,8.035443 z"
         transform="matrix(1.1,0,0,1.1,1.1,0)"
         inkscape:connector-curvature="0" />
    </marker>
    <marker
       inkscape:stockid="Arrow2Lend"
       orient="auto"
       refY="0"
       refX="0"
       id="Arrow2Lend"
       style="overflow:visible">
      <path
         id="path3934"
         style="fill-rule:evenodd;stroke-width:0.625;stroke-linejoin:round"
         d="M 8.7185878,4.0337352 -2.2072895,0.01601326 8.7185884,-4.0017078 c -1.7454984,2.3720609 -1.7354408,5.6174519 -6e-7,8.035443 z"
         transform="matrix(-1.1,0,0,-1.1,-1.1,0)"
         inkscape:connector-curvature="0" />
    </marker>
    <marker
       inkscape:stockid="Arrow2Mend"
       orient="auto"
       refY="0"
       refX="0"
       id="Arrow2Mend"
       style="overflow:visible">
      <path
         id="path3940"
         style="fill-rule:evenodd;stroke-width:0.625;stroke-linejoin:round"
         d="M 8.7185878,4.0337352 -2.2072895,0.01601326 8.7185884,-4.0017078 c -1.7454984,2.3720609 -1.7354408,5.6174519 -6e-7,8.035443 z"
         transform="scale(-0.6,-0.6)"
         inkscape:connector-curvature="0" />
    </marker>
  </defs>
  <sodipodi:namedview
     id="base"
     pagecolor="#ffffff"
     bordercolor="#666666"
     borderopacity="1.0"
     inkscape:pageopacity="0.0"
     inkscape:pageshadow="2"
     inkscape:zoom="1.4142136"
     inkscape:cx="408.20105"
     inkscape:cy="158.6997"
     inkscape:document-units="px"
     inkscape:current-layer="layer1"
     showgrid="false"
     inkscape:window-width="1672"
     inkscape:window-height="990"
     inkscape:window-x="0"
     inkscape:window-y="0"
     inkscape:window-maximized="1"
     fit-margin-top="0"
     fit-margin-left="0"
     fit-margin-right="0"
     fit-margin-bottom="0"
     showguides="true"
     inkscape:guide-bbox="true" />
  <metadata
     id="metadata7">
    <rdf:RDF>
      <cc:Work
         rdf:about="">
        <dc:format>image/svg+xml</dc:format>
        <dc:type
           rdf:resource="http://purl.org/dc/dcmitype/StillImage" />
        <dc:title />
      </cc:Work>
    </rdf:RDF>
  </metadata>
  <g
     inkscape:label="Layer 1"
     inkscape:groupmode="layer"
     id="layer1"
     transform="translate(-94.5,-298.875)">
    <circle
       r="20.775724"
       cy="356.49045"
       cx="250.23404"
       style="color:#000000;display:inline;overflow:visible;visibility:visible;fill:#5591cd;fill-opacity:1;stroke:#000000;stroke-width:2.01055408;stroke-linecap:round;stroke-linejoin:miter;stroke-miterlimit:4;stroke-dasharray:none;stroke-dashoffset:0;stroke-opacity:1;marker:none;enable-background:accumulate"
       id="path3053" />
    <circle
       r="20.775724"
       cy="563.57751"
       cx="130.94116"
       style="color:#000000;display:inline;overflow:visible;visibility:visible;fill:#5591cd;fill-opacity:1;stroke:#000000;stroke-width:2.01055408;stroke-linecap:round;stroke-linejoin:miter;stroke-miterlimit:4;stroke-dasharray:none;stroke-dashoffset:0;stroke-opacity:1;marker:none;enable-background:accumulate"
       id="path3053-4" />
    <circle
       r="20.775724"
       cy="542.13159"
       cx="329.31583"
       style="color:#000000;display:inline;overflow:visible;visibility:visible;fill:#5591cd;fill-opacity:1;stroke:#000000;stroke-width:2.01055408;stroke-linecap:round;stroke-linejoin:miter;stroke-miterlimit:4;stroke-dasharray:none;stroke-dashoffset:0;stroke-opacity:1;marker:none;enable-background:accumulate"
       id="path3053-4-1" />
    <circle
       r="20.775724"
       cy="421.49835"
       cx="478.09683"
       style="color:#000000;display:inline;overflow:visible;visibility:visible;fill:#5591cd;fill-opacity:1;stroke:#000000;stroke-width:2.01055408;stroke-linecap:round;stroke-linejoin:miter;stroke-miterlimit:4;stroke-dasharray:none;stroke-dashoffset:0;stroke-opacity:1;marker:none;enable-background:accumulate"
       id="path3053-4-1-1" />
    <circle
       r="20.775724"
       cy="622.55377"
       cx="585.32635"
       style="color:#000000;display:inline;overflow:visible;visibility:visible;fill:#5591cd;fill-opacity:1;stroke:#000000;stroke-width:2.01055408;stroke-linecap:round;stroke-linejoin:miter;stroke-miterlimit:4;stroke-dasharray:none;stroke-dashoffset:0;stroke-opacity:1;marker:none;enable-background:accumulate"
       id="path3053-4-1-1-9" />
    <path
       style="fill:none;stroke:#000000;stroke-width:0.67018467px;stroke-linecap:butt;stroke-linejoin:miter;stroke-opacity:1;marker-start:url(#Arrow2Lstart);marker-end:url(#Arrow2Lend)"
       d="M 141.3113,545.57542 239.8639,374.49254"
       id="path3907"
       inkscape:connector-type="polyline"
       inkscape:connector-curvature="0"
       inkscape:connection-start="#path3053-4"
       inkscape:connection-start-point="d4"
       inkscape:connection-end="#path3053"
       inkscape:connection-end-point="d4" />
    <path
       style="fill:none;stroke:#000000;stroke-width:0.67018467px;stroke-linecap:butt;stroke-linejoin:miter;stroke-opacity:1;marker-start:url(#Arrow2Lstart);marker-end:url(#Arrow2Lend)"
       d="M 258.37625,375.60394 321.17362,523.0181"
       id="path5101"
       inkscape:connector-type="polyline"
       inkscape:connector-curvature="0"
       inkscape:connection-start="#path3053"
       inkscape:connection-start-point="d4"
       inkscape:connection-end="#path3053-4-1"
       inkscape:connection-end-point="d4" />
    <path
       style="fill:none;stroke:#000000;stroke-width:0.67018467px;stroke-linecap:butt;stroke-linejoin:miter;stroke-opacity:1;marker-start:url(#Arrow2Lstart);marker-end:url(#Arrow2Lend)"
       d="M 345.45319,529.04725 461.95947,434.5827"
       id="path5475"
       inkscape:connector-type="polyline"
       inkscape:connector-curvature="0"
       inkscape:connection-start="#path3053-4-1"
       inkscape:connection-start-point="d4"
       inkscape:connection-end="#path3053-4-1-1"
       inkscape:connection-end-point="d4" />
    <path
       style="fill:none;stroke:#000000;stroke-width:0.67018467px;stroke-linecap:butt;stroke-linejoin:miter;stroke-opacity:1;marker-start:url(#Arrow2Lstart);marker-end:url(#Arrow2Lend)"
       d="m 349.13635,548.35794 216.36948,67.96949"
       id="path5849"
       inkscape:connector-type="polyline"
       inkscape:connector-curvature="0"
       inkscape:connection-start="#path3053-4-1"
       inkscape:connection-start-point="d4"
       inkscape:connection-end="#path3053-4-1-1-9"
       inkscape:connection-end-point="d4" />
    <g
       style="font-style:normal;font-variant:normal;font-weight:500;font-stretch:normal;font-size:16.0844326px;line-height:125%;font-family:Inconsolata;-inkscape-font-specification:'Inconsolata Medium';text-align:start;letter-spacing:0px;word-spacing:0px;text-anchor:start;fill:#000000;fill-opacity:1;stroke:none"
       id="text6223">
      <path
         d="m 102.17228,599.97117 q -0.48254,0.36995 -1.22242,0.51471 -0.73988,0.14476 -1.576275,0.14476 -1.013319,0 -1.897963,-0.33778 -0.884644,-0.35386 -1.544106,-1.06157 -0.659461,-0.70772 -1.045488,-1.80146 -0.386026,-1.10982 -0.386026,-2.62176 0,-1.57627 0.418195,-2.67002 0.43428,-1.10982 1.12591,-1.80145 0.707715,-0.70772 1.576275,-1.02941 0.868559,-0.32168 1.769287,-0.32168 0.965071,0 1.576271,0.11259 0.61121,0.0965 1.04549,0.27343 l -0.32169,1.17417 q -0.77205,-0.36995 -2.203564,-0.36995 -0.659462,0 -1.302839,0.24127 -0.643377,0.24127 -1.158079,0.78814 -0.498618,0.54687 -0.804222,1.43151 -0.305604,0.88465 -0.305604,2.1714 0,1.15808 0.28952,2.02664 0.28952,0.86856 0.788137,1.4476 0.514702,0.57904 1.190248,0.86856 0.691631,0.28952 1.495852,0.28952 0.723801,0 1.254581,-0.14476 0.54688,-0.14476 0.91682,-0.36994 l 0.32169,1.04548 z"
         style="font-style:normal;font-variant:normal;font-weight:normal;font-stretch:normal;font-family:'PT Sans';-inkscape-font-specification:'PT Sans'"
         id="path3375" />
      <path
         d="m 102.9951,596.41651 q 0,-2.04272 0.90072,-3.12038 0.91682,-1.09374 2.62177,-1.09374 0.90072,0 1.56019,0.30561 0.67554,0.28952 1.10982,0.85247 0.43428,0.54687 0.64338,1.33501 0.2091,0.77205 0.2091,1.72103 0,2.04273 -0.91682,3.13647 -0.90072,1.07766 -2.60567,1.07766 -0.90073,0 -1.57628,-0.28952 -0.65946,-0.30561 -1.09374,-0.85248 -0.43428,-0.56295 -0.64338,-1.33501 -0.20909,-0.78813 -0.20909,-1.73712 z m 1.335,0 q 0,0.61121 0.11259,1.17417 0.12868,0.56295 0.38603,0.98115 0.25735,0.41819 0.67555,0.67554 0.41819,0.25735 1.01332,0.25735 2.18748,0.0161 2.18748,-3.08821 0,-0.62729 -0.12868,-1.19024 -0.11259,-0.56296 -0.36994,-0.98115 -0.25735,-0.4182 -0.67554,-0.65947 -0.4182,-0.25735 -1.01332,-0.25735 -2.18749,-0.0161 -2.18749,3.08821 z"
         style="font-style:normal;font-variant:normal;font-weight:normal;font-stretch:normal;font-family:'PT Sans';-inkscape-font-specification:'PT Sans'"
         id="path3377" />
      <path
         d="m 117.21625,600.43762 0,-4.58406 q 0,-1.25459 -0.36994,-1.88188 -0.35386,-0.64338 -1.31893,-0.64338 -0.85247,0 -1.41543,0.46645 -0.54687,0.45037 -0.77205,1.142 l 0,5.50087 -1.28675,0 0,-8.04221 0.90072,0 0.24127,0.98115 0.0643,0 q 0.38602,-0.51471 1.0294,-0.83639 0.65946,-0.33778 1.56019,-0.33778 0.65946,0 1.15808,0.16085 0.49862,0.14476 0.82031,0.53078 0.33777,0.38603 0.49861,1.04549 0.17693,0.64338 0.17693,1.64061 l 0,4.8575 -1.28675,0 z"
         style="font-style:normal;font-variant:normal;font-weight:normal;font-stretch:normal;font-family:'PT Sans';-inkscape-font-specification:'PT Sans'"
         id="path3379" />
      <path
         d="m 119.78775,592.39541 1.25458,0 0,-1.59236 1.28676,-0.36995 0,1.96231 2.18748,0 0,1.12591 -2.18748,0 0,4.45538 q 0,0.83639 0.20909,1.19025 0.2091,0.33777 0.70772,0.33777 0.41819,0 0.70771,-0.0804 0.28952,-0.0965 0.64338,-0.24126 l 0.28952,0.98115 q -0.43428,0.20909 -0.94898,0.33777 -0.5147,0.12868 -1.10983,0.12868 -0.98115,0 -1.38326,-0.54688 -0.40211,-0.56295 -0.40211,-1.86579 l 0,-4.69665 -1.25458,0 0,-1.12591 z"
         style="font-style:normal;font-variant:normal;font-weight:normal;font-stretch:normal;font-family:'PT Sans';-inkscape-font-specification:'PT Sans'"
         id="path3381" />
      <path
         d="m 126.18684,592.99053 q 0.61121,-0.36994 1.41543,-0.54687 0.8203,-0.17693 1.70495,-0.17693 0.83639,0 1.335,0.22518 0.51471,0.22518 0.77206,0.59513 0.27343,0.35385 0.35386,0.78813 0.0965,0.43428 0.0965,0.86856 0,0.96507 -0.0482,1.88188 -0.0483,0.91681 -0.0483,1.73712 0,0.59512 0.0483,1.12591 0.0482,0.53079 0.17693,0.98115 l -0.94898,0 -0.33778,-1.12591 -0.0804,0 q -0.14476,0.22518 -0.36994,0.45036 -0.2091,0.2091 -0.5147,0.38603 -0.30561,0.16085 -0.70772,0.27344 -0.40211,0.11259 -0.91681,0.11259 -0.5147,0 -0.96507,-0.16085 -0.43428,-0.16084 -0.75597,-0.45036 -0.32168,-0.30561 -0.5147,-0.7238 -0.17693,-0.4182 -0.17693,-0.94898 0,-0.70772 0.28952,-1.17417 0.28952,-0.48253 0.80423,-0.75596 0.53078,-0.28952 1.25458,-0.40211 0.73989,-0.12868 1.62453,-0.12868 0.22518,0 0.43428,0 0.22518,0 0.45036,0.0322 0.0483,-0.48253 0.0483,-0.86856 0,-0.88464 -0.35386,-1.2385 -0.35386,-0.35386 -1.28676,-0.35386 -0.27343,0 -0.59512,0.0482 -0.3056,0.0322 -0.64338,0.11259 -0.32169,0.0643 -0.62729,0.17693 -0.28952,0.0965 -0.5147,0.22519 l -0.40211,-0.96507 z m 2.28399,6.44986 q 0.45036,0 0.80422,-0.11259 0.35386,-0.12868 0.61121,-0.30561 0.25735,-0.19301 0.41819,-0.41819 0.17693,-0.22519 0.25735,-0.43428 l 0,-1.33501 q -0.22518,-0.0161 -0.46645,-0.0161 -0.22518,-0.0161 -0.45036,-0.0161 -0.49862,0 -0.98115,0.0643 -0.46645,0.0482 -0.83639,0.2091 -0.35386,0.14476 -0.57904,0.41819 -0.2091,0.25735 -0.2091,0.65946 0,0.56296 0.40211,0.9329 0.40211,0.35386 1.02941,0.35386 z"
         style="font-style:normal;font-variant:normal;font-weight:normal;font-stretch:normal;font-family:'PT Sans';-inkscape-font-specification:'PT Sans'"
         id="path3383" />
      <path
         d="m 134.56833,592.39541 1.28676,0 0,8.04221 -1.28676,0 0,-8.04221 z m -0.27343,-2.44484 q 0,-0.36994 0.24126,-0.62729 0.25736,-0.27344 0.64338,-0.27344 0.38603,0 0.65946,0.27344 0.27344,0.25735 0.27344,0.62729 0,0.36994 -0.27344,0.61121 -0.27343,0.24127 -0.65946,0.24127 -0.38602,0 -0.64338,-0.24127 -0.24126,-0.24127 -0.24126,-0.61121 z"
         style="font-style:normal;font-variant:normal;font-weight:normal;font-stretch:normal;font-family:'PT Sans';-inkscape-font-specification:'PT Sans'"
         id="path3385" />
      <path
         d="m 143.76185,600.43762 0,-4.58406 q 0,-1.25459 -0.36995,-1.88188 -0.35385,-0.64338 -1.31892,-0.64338 -0.85248,0 -1.41543,0.46645 -0.54687,0.45037 -0.77205,1.142 l 0,5.50087 -1.28676,0 0,-8.04221 0.90073,0 0.24127,0.98115 0.0643,0 q 0.38603,-0.51471 1.02941,-0.83639 0.65946,-0.33778 1.56019,-0.33778 0.65946,0 1.15808,0.16085 0.49861,0.14476 0.8203,0.53078 0.33778,0.38603 0.49862,1.04549 0.17693,0.64338 0.17693,1.64061 l 0,4.8575 -1.28675,0 z"
         style="font-style:normal;font-variant:normal;font-weight:normal;font-stretch:normal;font-family:'PT Sans';-inkscape-font-specification:'PT Sans'"
         id="path3387" />
      <path
         d="m 153.26573,599.79424 q -0.48253,0.38603 -1.22241,0.61121 -0.7238,0.22519 -1.54411,0.22519 -0.91681,0 -1.59236,-0.28952 -0.67554,-0.30561 -1.10982,-0.85248 -0.43428,-0.56295 -0.64338,-1.33501 -0.2091,-0.77205 -0.2091,-1.73712 0,-2.0588 0.91681,-3.13646 0.91682,-1.07766 2.62177,-1.07766 0.54687,0 1.09374,0.12868 0.54687,0.11259 0.98115,0.45036 0.43428,0.33778 0.70771,0.96507 0.27344,0.61121 0.27344,1.62453 0,0.53078 -0.0965,1.17416 l -5.1631,0 q 0,0.70771 0.14476,1.25459 0.14476,0.54687 0.45036,0.93289 0.30561,0.36994 0.78814,0.57904 0.49862,0.19301 1.20633,0.19301 0.54687,0 1.09374,-0.19301 0.54687,-0.19301 0.82031,-0.45036 l 0.48253,0.93289 z m -2.76652,-6.46594 q -0.94898,0 -1.52802,0.49862 -0.56296,0.49862 -0.67555,1.70495 l 3.98894,0 q 0,-1.22242 -0.46645,-1.70495 -0.46644,-0.49862 -1.31892,-0.49862 z"
         style="font-style:normal;font-variant:normal;font-weight:normal;font-stretch:normal;font-family:'PT Sans';-inkscape-font-specification:'PT Sans'"
         id="path3389" />
      <path
         d="m 159.35872,593.63391 q -0.48253,-0.16085 -0.91681,-0.16085 -0.69163,0 -1.09375,0.38603 -0.40211,0.36994 -0.49861,0.94898 l 0,5.62955 -1.28676,0 0,-8.04221 0.90073,0 0.24127,0.98115 0.0643,0 q 0.30561,-0.54687 0.7238,-0.83639 0.43428,-0.30561 1.09375,-0.30561 0.46644,0 1.04548,0.16085 l -0.27343,1.2385 z"
         style="font-style:normal;font-variant:normal;font-weight:normal;font-stretch:normal;font-family:'PT Sans';-inkscape-font-specification:'PT Sans'"
         id="path3391" />
      <path
         d="m 163.55424,599.50472 q 0.54687,0 1.01332,-0.16084 0.46645,-0.16084 0.80422,-0.46645 0.33777,-0.32169 0.53079,-0.75597 0.19301,-0.43428 0.19301,-0.94898 0,-1.12591 -0.67555,-1.67278 -0.65946,-0.54687 -1.83362,-0.54687 l -1.19025,0 0,-0.46645 2.31616,-3.57074 0.73988,-0.70772 -1.04549,0.16085 -3.18471,0 0,-1.19025 5.74214,0 0,0.46645 -2.55743,3.84418 -0.56295,0.46645 0,0.0322 0.54687,-0.11259 q 0.64338,0.0161 1.19025,0.24127 0.54687,0.2091 0.94898,0.62729 0.40211,0.40211 0.62729,0.98115 0.22518,0.56296 0.22518,1.28676 0,0.86856 -0.3056,1.5441 -0.3056,0.67555 -0.83639,1.142 -0.5147,0.45036 -1.22242,0.69163 -0.70771,0.24127 -1.49585,0.24127 -0.7238,0 -1.30284,-0.1126 -0.57904,-0.11259 -1.01332,-0.28952 l 0.33777,-1.14199 q 0.36995,0.17693 0.86856,0.3056 0.51471,0.11259 1.142,0.11259 z"
         style="font-style:normal;font-variant:normal;font-weight:normal;font-stretch:normal;font-family:'PT Sans';-inkscape-font-specification:'PT Sans'"
         id="path3393" />
    </g>
    <g
       style="font-style:normal;font-variant:normal;font-weight:500;font-stretch:normal;font-size:16.0844326px;line-height:125%;font-family:Inconsolata;-inkscape-font-specification:'Inconsolata Medium';text-align:start;letter-spacing:0px;word-spacing:0px;text-anchor:start;fill:#000000;fill-opacity:1;stroke:none"
       id="text6223-1">
      <path
         d="m 221.53754,329.48469 q -0.48253,0.36994 -1.22242,0.5147 -0.73988,0.14476 -1.57627,0.14476 -1.01332,0 -1.89796,-0.33777 -0.88465,-0.35386 -1.54411,-1.06157 -0.65946,-0.70772 -1.04549,-1.80146 -0.38602,-1.10982 -0.38602,-2.62176 0,-1.57627 0.41819,-2.67002 0.43428,-1.10982 1.12591,-1.80145 0.70772,-0.70772 1.57628,-1.02941 0.86856,-0.32168 1.76928,-0.32168 0.96507,0 1.57628,0.11259 0.61121,0.0965 1.04549,0.27343 l -0.32169,1.17417 q -0.77205,-0.36995 -2.20357,-0.36995 -0.65946,0 -1.30284,0.24127 -0.64338,0.24127 -1.15808,0.78814 -0.49861,0.54687 -0.80422,1.43151 -0.3056,0.88465 -0.3056,2.1714 0,1.15808 0.28952,2.02664 0.28952,0.86856 0.78813,1.4476 0.51471,0.57904 1.19025,0.86856 0.69163,0.28952 1.49585,0.28952 0.7238,0 1.25459,-0.14476 0.54687,-0.14476 0.91681,-0.36995 l 0.32169,1.04549 z"
         style="font-style:normal;font-variant:normal;font-weight:normal;font-stretch:normal;font-family:'PT Sans';-inkscape-font-specification:'PT Sans'"
         id="path3483" />
      <path
         d="m 222.36036,325.93003 q 0,-2.04272 0.90073,-3.12038 0.91681,-1.09374 2.62176,-1.09374 0.90073,0 1.56019,0.30561 0.67555,0.28952 1.10983,0.85247 0.43428,0.54687 0.64337,1.33501 0.2091,0.77205 0.2091,1.72103 0,2.04273 -0.91681,3.13647 -0.90073,1.07765 -2.60568,1.07765 -0.90073,0 -1.57627,-0.28952 -0.65946,-0.3056 -1.09374,-0.85247 -0.43428,-0.56296 -0.64338,-1.33501 -0.2091,-0.78814 -0.2091,-1.73712 z m 1.33501,0 q 0,0.61121 0.11259,1.17417 0.12868,0.56295 0.38603,0.98115 0.25735,0.41819 0.67554,0.67554 0.4182,0.25735 1.01332,0.25735 2.18748,0.0161 2.18748,-3.08821 0,-0.62729 -0.12867,-1.19024 -0.11259,-0.56296 -0.36994,-0.98116 -0.25735,-0.41819 -0.67555,-0.65946 -0.41819,-0.25735 -1.01332,-0.25735 -2.18748,-0.0161 -2.18748,3.08821 z"
         style="font-style:normal;font-variant:normal;font-weight:normal;font-stretch:normal;font-family:'PT Sans';-inkscape-font-specification:'PT Sans'"
         id="path3485" />
      <path
         d="m 236.58151,329.95114 0,-4.58406 q 0,-1.25459 -0.36994,-1.88188 -0.35386,-0.64338 -1.31892,-0.64338 -0.85248,0 -1.41543,0.46645 -0.54687,0.45036 -0.77206,1.142 l 0,5.50087 -1.28675,0 0,-8.04221 0.90073,0 0.24126,0.98115 0.0643,0 q 0.38603,-0.51471 1.02941,-0.8364 0.65946,-0.33777 1.56019,-0.33777 0.65946,0 1.15808,0.16085 0.49861,0.14476 0.8203,0.53078 0.33777,0.38603 0.49862,1.04549 0.17693,0.64338 0.17693,1.64061 l 0,4.8575 -1.28676,0 z"
         style="font-style:normal;font-variant:normal;font-weight:normal;font-stretch:normal;font-family:'PT Sans';-inkscape-font-specification:'PT Sans'"
         id="path3487" />
      <path
         d="m 239.15301,321.90893 1.25459,0 0,-1.59236 1.28675,-0.36995 0,1.96231 2.18748,0 0,1.12591 -2.18748,0 0,4.45538 q 0,0.83639 0.2091,1.19025 0.2091,0.33777 0.70771,0.33777 0.4182,0 0.70772,-0.0804 0.28952,-0.0965 0.64338,-0.24126 l 0.28952,0.98115 q -0.43428,0.20909 -0.94899,0.33777 -0.5147,0.12867 -1.10982,0.12867 -0.98115,0 -1.38326,-0.54687 -0.40211,-0.56295 -0.40211,-1.86579 l 0,-4.69665 -1.25459,0 0,-1.12591 z"
         style="font-style:normal;font-variant:normal;font-weight:normal;font-stretch:normal;font-family:'PT Sans';-inkscape-font-specification:'PT Sans'"
         id="path3489" />
      <path
         d="m 245.5521,322.50405 q 0.61121,-0.36994 1.41543,-0.54687 0.82031,-0.17693 1.70495,-0.17693 0.83639,0 1.33501,0.22518 0.5147,0.22518 0.77205,0.59513 0.27344,0.35385 0.35386,0.78813 0.0965,0.43428 0.0965,0.86856 0,0.96507 -0.0483,1.88188 -0.0482,0.91681 -0.0482,1.73712 0,0.59512 0.0482,1.12591 0.0483,0.53079 0.17693,0.98115 l -0.94898,0 -0.33777,-1.12591 -0.0804,0 q -0.14476,0.22518 -0.36995,0.45036 -0.20909,0.2091 -0.5147,0.38603 -0.3056,0.16084 -0.70771,0.27344 -0.40211,0.11259 -0.91682,0.11259 -0.5147,0 -0.96506,-0.16085 -0.43428,-0.16084 -0.75597,-0.45036 -0.32169,-0.30561 -0.5147,-0.7238 -0.17693,-0.4182 -0.17693,-0.94898 0,-0.70772 0.28952,-1.17417 0.28952,-0.48253 0.80422,-0.75596 0.53079,-0.28952 1.25459,-0.40212 0.73988,-0.12867 1.62452,-0.12867 0.22519,0 0.43428,0 0.22519,0 0.45037,0.0322 0.0483,-0.48253 0.0483,-0.86856 0,-0.88465 -0.35386,-1.2385 -0.35385,-0.35386 -1.28675,-0.35386 -0.27344,0 -0.59513,0.0482 -0.3056,0.0322 -0.64337,0.11259 -0.32169,0.0643 -0.6273,0.17693 -0.28952,0.0965 -0.5147,0.22519 l -0.40211,-0.96507 z m 2.28399,6.44986 q 0.45037,0 0.80422,-0.11259 0.35386,-0.12868 0.61121,-0.30561 0.25735,-0.19301 0.4182,-0.41819 0.17693,-0.22519 0.25735,-0.43428 l 0,-1.33501 q -0.22518,-0.0161 -0.46645,-0.0161 -0.22518,-0.0161 -0.45037,-0.0161 -0.49861,0 -0.98115,0.0643 -0.46644,0.0482 -0.83639,0.20909 -0.35385,0.14476 -0.57904,0.4182 -0.20909,0.25735 -0.20909,0.65946 0,0.56296 0.40211,0.9329 0.40211,0.35386 1.0294,0.35386 z"
         style="font-style:normal;font-variant:normal;font-weight:normal;font-stretch:normal;font-family:'PT Sans';-inkscape-font-specification:'PT Sans'"
         id="path3491" />
      <path
         d="m 253.9336,321.90893 1.28675,0 0,8.04221 -1.28675,0 0,-8.04221 z m -0.27344,-2.44484 q 0,-0.36994 0.24127,-0.62729 0.25735,-0.27344 0.64338,-0.27344 0.38602,0 0.65946,0.27344 0.27343,0.25735 0.27343,0.62729 0,0.36994 -0.27343,0.61121 -0.27344,0.24127 -0.65946,0.24127 -0.38603,0 -0.64338,-0.24127 -0.24127,-0.24127 -0.24127,-0.61121 z"
         style="font-style:normal;font-variant:normal;font-weight:normal;font-stretch:normal;font-family:'PT Sans';-inkscape-font-specification:'PT Sans'"
         id="path3493" />
      <path
         d="m 263.12711,329.95114 0,-4.58406 q 0,-1.25459 -0.36994,-1.88188 -0.35386,-0.64338 -1.31893,-0.64338 -0.85247,0 -1.41543,0.46645 -0.54687,0.45036 -0.77205,1.142 l 0,5.50087 -1.28675,0 0,-8.04221 0.90073,0 0.24126,0.98115 0.0643,0 q 0.38603,-0.51471 1.0294,-0.8364 0.65947,-0.33777 1.56019,-0.33777 0.65946,0 1.15808,0.16085 0.49862,0.14476 0.82031,0.53078 0.33777,0.38603 0.49862,1.04549 0.17692,0.64338 0.17692,1.64061 l 0,4.8575 -1.28675,0 z"
         style="font-style:normal;font-variant:normal;font-weight:normal;font-stretch:normal;font-family:'PT Sans';-inkscape-font-specification:'PT Sans'"
         id="path3495" />
      <path
         d="m 272.631,329.30776 q -0.48253,0.38603 -1.22242,0.61121 -0.7238,0.22518 -1.5441,0.22518 -0.91682,0 -1.59236,-0.28952 -0.67555,-0.3056 -1.10983,-0.85247 -0.43428,-0.56296 -0.64338,-1.33501 -0.20909,-0.77205 -0.20909,-1.73712 0,-2.0588 0.91681,-3.13646 0.91681,-1.07766 2.62176,-1.07766 0.54687,0 1.09374,0.12868 0.54687,0.11259 0.98115,0.45036 0.43428,0.33777 0.70772,0.96507 0.27343,0.61121 0.27343,1.62453 0,0.53078 -0.0965,1.17416 l -5.16311,0 q 0,0.70771 0.14476,1.25458 0.14476,0.54688 0.45037,0.9329 0.3056,0.36994 0.78814,0.57904 0.49861,0.19301 1.20633,0.19301 0.54687,0 1.09374,-0.19301 0.54687,-0.19301 0.82031,-0.45036 l 0.48253,0.93289 z m -2.76652,-6.46594 q -0.94899,0 -1.52803,0.49862 -0.56295,0.49862 -0.67554,1.70495 l 3.98894,0 q 0,-1.22242 -0.46645,-1.70495 -0.46645,-0.49862 -1.31892,-0.49862 z"
         style="font-style:normal;font-variant:normal;font-weight:normal;font-stretch:normal;font-family:'PT Sans';-inkscape-font-specification:'PT Sans'"
         id="path3497" />
      <path
         d="m 278.72398,323.14743 q -0.48253,-0.16085 -0.91681,-0.16085 -0.69163,0 -1.09374,0.38603 -0.40211,0.36994 -0.49862,0.94898 l 0,5.62955 -1.28675,0 0,-8.04221 0.90073,0 0.24126,0.98115 0.0643,0 q 0.3056,-0.54688 0.7238,-0.8364 0.43428,-0.3056 1.09374,-0.3056 0.46645,0 1.04549,0.16085 l -0.27344,1.2385 z"
         style="font-style:normal;font-variant:normal;font-weight:normal;font-stretch:normal;font-family:'PT Sans';-inkscape-font-specification:'PT Sans'"
         id="path3499" />
      <path
         d="m 280.89287,328.76089 2.25182,0 0,-7.78486 0.16084,-0.94898 -0.64338,0.75596 -1.76928,1.27067 -0.61121,-0.8203 3.53857,-2.73435 0.57904,0 0,10.26186 2.20357,0 0,1.19025 -5.70997,0 0,-1.19025 z"
         style="font-style:normal;font-variant:normal;font-weight:normal;font-stretch:normal;font-family:'PT Sans';-inkscape-font-specification:'PT Sans'"
         id="path3501" />
    </g>
    <g
       style="font-style:normal;font-variant:normal;font-weight:500;font-stretch:normal;font-size:16.0844326px;line-height:125%;font-family:Inconsolata;-inkscape-font-specification:'Inconsolata Medium';text-align:start;letter-spacing:0px;word-spacing:0px;text-anchor:start;fill:#000000;fill-opacity:1;stroke:none"
       id="text6223-1-5">
      <path
         d="m 300.12876,580.80394 q -0.48253,0.36994 -1.22242,0.5147 -0.73988,0.14476 -1.57627,0.14476 -1.01332,0 -1.89797,-0.33777 -0.88464,-0.35386 -1.5441,-1.06158 -0.65946,-0.70771 -1.04549,-1.80145 -0.38603,-1.10983 -0.38603,-2.62177 0,-1.57627 0.4182,-2.67001 0.43428,-1.10983 1.12591,-1.80146 0.70771,-0.70771 1.57627,-1.0294 0.86856,-0.32169 1.76929,-0.32169 0.96507,0 1.57628,0.11259 0.6112,0.0965 1.04548,0.27344 l -0.32168,1.17416 q -0.77206,-0.36994 -2.20357,-0.36994 -0.65946,0 -1.30284,0.24126 -0.64338,0.24127 -1.15808,0.78814 -0.49862,0.54687 -0.80422,1.43152 -0.30561,0.88464 -0.30561,2.17139 0,1.15808 0.28952,2.02664 0.28952,0.86856 0.78814,1.4476 0.5147,0.57904 1.19025,0.86856 0.69163,0.28952 1.49585,0.28952 0.7238,0 1.25459,-0.14476 0.54687,-0.14476 0.91681,-0.36994 l 0.32169,1.04549 z"
         style="font-style:normal;font-variant:normal;font-weight:normal;font-stretch:normal;font-family:'PT Sans';-inkscape-font-specification:'PT Sans'"
         id="path3399" />
      <path
         d="m 300.95158,577.24928 q 0,-2.04273 0.90073,-3.12038 0.91681,-1.09374 2.62176,-1.09374 0.90073,0 1.56019,0.3056 0.67554,0.28952 1.10982,0.85248 0.43428,0.54687 0.64338,1.335 0.2091,0.77206 0.2091,1.72104 0,2.04272 -0.91681,3.13646 -0.90073,1.07766 -2.60568,1.07766 -0.90073,0 -1.57628,-0.28952 -0.65946,-0.30561 -1.09374,-0.85248 -0.43428,-0.56295 -0.64337,-1.335 -0.2091,-0.78814 -0.2091,-1.73712 z m 1.33501,0 q 0,0.61121 0.11259,1.17416 0.12867,0.56296 0.38602,0.98115 0.25735,0.4182 0.67555,0.67555 0.41819,0.25735 1.01332,0.25735 2.18748,0.0161 2.18748,-3.08821 0,-0.6273 -0.12867,-1.19025 -0.1126,-0.56296 -0.36995,-0.98115 -0.25735,-0.4182 -0.67554,-0.65946 -0.4182,-0.25735 -1.01332,-0.25735 -2.18748,-0.0161 -2.18748,3.08821 z"
         style="font-style:normal;font-variant:normal;font-weight:normal;font-stretch:normal;font-family:'PT Sans';-inkscape-font-specification:'PT Sans'"
         id="path3401" />
      <path
         d="m 315.17273,581.27039 0,-4.58407 q 0,-1.25458 -0.36994,-1.88188 -0.35386,-0.64337 -1.31893,-0.64337 -0.85247,0 -1.41543,0.46645 -0.54687,0.45036 -0.77205,1.14199 l 0,5.50088 -1.28675,0 0,-8.04222 0.90073,0 0.24126,0.98115 0.0643,0 q 0.38603,-0.5147 1.0294,-0.83639 0.65946,-0.33777 1.56019,-0.33777 0.65946,0 1.15808,0.16084 0.49862,0.14476 0.82031,0.53079 0.33777,0.38602 0.49862,1.04548 0.17692,0.64338 0.17692,1.64062 l 0,4.8575 -1.28675,0 z"
         style="font-style:normal;font-variant:normal;font-weight:normal;font-stretch:normal;font-family:'PT Sans';-inkscape-font-specification:'PT Sans'"
         id="path3403" />
      <path
         d="m 317.74423,573.22817 1.25458,0 0,-1.59236 1.28676,-0.36994 0,1.9623 2.18748,0 0,1.12591 -2.18748,0 0,4.45539 q 0,0.83639 0.2091,1.19025 0.20909,0.33777 0.70771,0.33777 0.4182,0 0.70772,-0.0804 0.28952,-0.0965 0.64337,-0.24127 l 0.28952,0.98115 q -0.43428,0.2091 -0.94898,0.33777 -0.5147,0.12868 -1.10982,0.12868 -0.98115,0 -1.38327,-0.54687 -0.40211,-0.56296 -0.40211,-1.8658 l 0,-4.69665 -1.25458,0 0,-1.12591 z"
         style="font-style:normal;font-variant:normal;font-weight:normal;font-stretch:normal;font-family:'PT Sans';-inkscape-font-specification:'PT Sans'"
         id="path3405" />
      <path
         d="m 324.14332,573.82329 q 0.61121,-0.36994 1.41543,-0.54687 0.82031,-0.17693 1.70495,-0.17693 0.83639,0 1.33501,0.22519 0.5147,0.22518 0.77205,0.59512 0.27343,0.35386 0.35386,0.78814 0.0965,0.43428 0.0965,0.86856 0,0.96506 -0.0482,1.88188 -0.0482,0.91681 -0.0482,1.73711 0,0.59513 0.0482,1.12591 0.0482,0.53079 0.17693,0.98115 l -0.94898,0 -0.33778,-1.12591 -0.0804,0 q -0.14476,0.22519 -0.36994,0.45037 -0.2091,0.2091 -0.5147,0.38602 -0.30561,0.16085 -0.70772,0.27344 -0.40211,0.11259 -0.91681,0.11259 -0.5147,0 -0.96507,-0.16084 -0.43427,-0.16085 -0.75596,-0.45037 -0.32169,-0.3056 -0.51471,-0.7238 -0.17692,-0.41819 -0.17692,-0.94898 0,-0.70771 0.28952,-1.17416 0.28952,-0.48253 0.80422,-0.75597 0.53078,-0.28952 1.25458,-0.40211 0.73989,-0.12868 1.62453,-0.12868 0.22518,0 0.43428,0 0.22518,0 0.45036,0.0322 0.0483,-0.48253 0.0483,-0.86856 0,-0.88464 -0.35386,-1.2385 -0.35386,-0.35386 -1.28675,-0.35386 -0.27344,0 -0.59513,0.0483 -0.3056,0.0322 -0.64338,0.11259 -0.32168,0.0643 -0.62729,0.17693 -0.28952,0.0965 -0.5147,0.22518 l -0.40211,-0.96507 z m 2.28399,6.44986 q 0.45036,0 0.80422,-0.11259 0.35386,-0.12868 0.61121,-0.3056 0.25735,-0.19302 0.41819,-0.4182 0.17693,-0.22518 0.25735,-0.43428 l 0,-1.33501 q -0.22518,-0.0161 -0.46644,-0.0161 -0.22519,-0.0161 -0.45037,-0.0161 -0.49862,0 -0.98115,0.0643 -0.46645,0.0483 -0.83639,0.2091 -0.35386,0.14476 -0.57904,0.41819 -0.2091,0.25736 -0.2091,0.65947 0,0.56295 0.40211,0.93289 0.40212,0.35386 1.02941,0.35386 z"
         style="font-style:normal;font-variant:normal;font-weight:normal;font-stretch:normal;font-family:'PT Sans';-inkscape-font-specification:'PT Sans'"
         id="path3407" />
      <path
         d="m 332.52482,573.22817 1.28675,0 0,8.04222 -1.28675,0 0,-8.04222 z m -0.27344,-2.44483 q 0,-0.36995 0.24127,-0.6273 0.25735,-0.27343 0.64337,-0.27343 0.38603,0 0.65947,0.27343 0.27343,0.25735 0.27343,0.6273 0,0.36994 -0.27343,0.6112 -0.27344,0.24127 -0.65947,0.24127 -0.38602,0 -0.64337,-0.24127 -0.24127,-0.24126 -0.24127,-0.6112 z"
         style="font-style:normal;font-variant:normal;font-weight:normal;font-stretch:normal;font-family:'PT Sans';-inkscape-font-specification:'PT Sans'"
         id="path3409" />
      <path
         d="m 341.71833,581.27039 0,-4.58407 q 0,-1.25458 -0.36994,-1.88188 -0.35386,-0.64337 -1.31893,-0.64337 -0.85247,0 -1.41543,0.46645 -0.54687,0.45036 -0.77205,1.14199 l 0,5.50088 -1.28676,0 0,-8.04222 0.90073,0 0.24127,0.98115 0.0643,0 q 0.38602,-0.5147 1.0294,-0.83639 0.65946,-0.33777 1.56019,-0.33777 0.65946,0 1.15808,0.16084 0.49862,0.14476 0.82031,0.53079 0.33777,0.38602 0.49861,1.04548 0.17693,0.64338 0.17693,1.64062 l 0,4.8575 -1.28675,0 z"
         style="font-style:normal;font-variant:normal;font-weight:normal;font-stretch:normal;font-family:'PT Sans';-inkscape-font-specification:'PT Sans'"
         id="path3411" />
      <path
         d="m 351.22222,580.62701 q -0.48254,0.38602 -1.22242,0.61121 -0.7238,0.22518 -1.54411,0.22518 -0.91681,0 -1.59236,-0.28952 -0.67554,-0.30561 -1.10982,-0.85248 -0.43428,-0.56295 -0.64338,-1.335 -0.2091,-0.77206 -0.2091,-1.73712 0,-2.05881 0.91682,-3.13647 0.91681,-1.07765 2.62176,-1.07765 0.54687,0 1.09374,0.12867 0.54687,0.11259 0.98115,0.45037 0.43428,0.33777 0.70772,0.96506 0.27343,0.61121 0.27343,1.62453 0,0.53079 -0.0965,1.17416 l -5.1631,0 q 0,0.70772 0.14476,1.25459 0.14476,0.54687 0.45037,0.9329 0.3056,0.36994 0.78813,0.57904 0.49862,0.19301 1.20633,0.19301 0.54688,0 1.09375,-0.19301 0.54687,-0.19302 0.8203,-0.45037 l 0.48254,0.9329 z m -2.76653,-6.46594 q -0.94898,0 -1.52802,0.49861 -0.56295,0.49862 -0.67554,1.70495 l 3.98893,0 q 0,-1.22241 -0.46644,-1.70495 -0.46645,-0.49861 -1.31893,-0.49861 z"
         style="font-style:normal;font-variant:normal;font-weight:normal;font-stretch:normal;font-family:'PT Sans';-inkscape-font-specification:'PT Sans'"
         id="path3413" />
      <path
         d="m 357.3152,574.46667 q -0.48253,-0.16084 -0.91681,-0.16084 -0.69163,0 -1.09374,0.38602 -0.40211,0.36994 -0.49862,0.94898 l 0,5.62956 -1.28676,0 0,-8.04222 0.90073,0 0.24127,0.98115 0.0643,0 q 0.3056,-0.54687 0.7238,-0.83639 0.43428,-0.3056 1.09374,-0.3056 0.46645,0 1.04549,0.16084 l -0.27344,1.2385 z"
         style="font-style:normal;font-variant:normal;font-weight:normal;font-stretch:normal;font-family:'PT Sans';-inkscape-font-specification:'PT Sans'"
         id="path3415" />
      <path
         d="m 366.17521,577.81223 -1.89797,0 0,3.45816 -1.25458,0 0,-3.45816 -4.95401,0 0,-0.53078 5.34003,-7.4471 0.86856,0 0,6.85197 1.89797,0 0,1.12591 z m -3.15255,-4.63231 0.16084,-1.31893 -0.0482,0 -0.56296,1.09374 -2.2679,3.07213 -0.77205,0.78814 1.12591,-0.12868 2.36441,0 0,-3.5064 z"
         style="font-style:normal;font-variant:normal;font-weight:normal;font-stretch:normal;font-family:'PT Sans';-inkscape-font-specification:'PT Sans'"
         id="path3417" />
    </g>
    <g
       style="font-style:normal;font-variant:normal;font-weight:500;font-stretch:normal;font-size:16.0844326px;line-height:125%;font-family:Inconsolata;-inkscape-font-specification:'Inconsolata Medium';text-align:start;letter-spacing:0px;word-spacing:0px;text-anchor:start;fill:#000000;fill-opacity:1;stroke:none"
       id="text6223-1-5-2">
      <path
         d="m 449.42444,391.81187 q -0.48253,0.36994 -1.22241,0.5147 -0.73989,0.14476 -1.57628,0.14476 -1.01332,0 -1.89796,-0.33777 -0.88465,-0.35386 -1.54411,-1.06157 -0.65946,-0.70772 -1.04548,-1.80146 -0.38603,-1.10982 -0.38603,-2.62176 0,-1.57628 0.41819,-2.67002 0.43428,-1.10982 1.12591,-1.80145 0.70772,-0.70772 1.57628,-1.02941 0.86856,-0.32169 1.76929,-0.32169 0.96506,0 1.57627,0.1126 0.61121,0.0965 1.04549,0.27343 l -0.32169,1.17416 q -0.77205,-0.36994 -2.20357,-0.36994 -0.65946,0 -1.30284,0.24127 -0.64337,0.24127 -1.15808,0.78814 -0.49861,0.54687 -0.80422,1.43151 -0.3056,0.88464 -0.3056,2.1714 0,1.15808 0.28952,2.02664 0.28952,0.86856 0.78814,1.4476 0.5147,0.57904 1.19024,0.86856 0.69163,0.28952 1.49586,0.28952 0.7238,0 1.25458,-0.14476 0.54687,-0.14476 0.91681,-0.36995 l 0.32169,1.04549 z"
         style="font-style:normal;font-variant:normal;font-weight:normal;font-stretch:normal;font-family:'PT Sans';-inkscape-font-specification:'PT Sans'"
         id="path3456" />
      <path
         d="m 450.24726,388.25721 q 0,-2.04272 0.90073,-3.12038 0.91681,-1.09374 2.62176,-1.09374 0.90073,0 1.56019,0.30561 0.67555,0.28951 1.10983,0.85247 0.43428,0.54687 0.64338,1.33501 0.20909,0.77205 0.20909,1.72103 0,2.04273 -0.91681,3.13647 -0.90073,1.07765 -2.60568,1.07765 -0.90072,0 -1.57627,-0.28952 -0.65946,-0.3056 -1.09374,-0.85247 -0.43428,-0.56296 -0.64338,-1.33501 -0.2091,-0.78814 -0.2091,-1.73712 z m 1.33501,0 q 0,0.61121 0.11259,1.17417 0.12868,0.56295 0.38603,0.98115 0.25735,0.41819 0.67554,0.67554 0.4182,0.25735 1.01332,0.25735 2.18749,0.0161 2.18749,-3.08821 0,-0.62729 -0.12868,-1.19025 -0.11259,-0.56295 -0.36994,-0.98115 -0.25735,-0.41819 -0.67555,-0.65946 -0.41819,-0.25735 -1.01332,-0.25735 -2.18748,-0.0161 -2.18748,3.08821 z"
         style="font-style:normal;font-variant:normal;font-weight:normal;font-stretch:normal;font-family:'PT Sans';-inkscape-font-specification:'PT Sans'"
         id="path3458" />
      <path
         d="m 464.46841,392.27832 0,-4.58406 q 0,-1.25459 -0.36994,-1.88188 -0.35385,-0.64338 -1.31892,-0.64338 -0.85248,0 -1.41543,0.46645 -0.54687,0.45036 -0.77205,1.14199 l 0,5.50088 -1.28676,0 0,-8.04222 0.90073,0 0.24127,0.98115 0.0643,0 q 0.38603,-0.5147 1.02941,-0.83639 0.65946,-0.33777 1.56019,-0.33777 0.65946,0 1.15808,0.16085 0.49861,0.14476 0.8203,0.53078 0.33778,0.38603 0.49862,1.04549 0.17693,0.64338 0.17693,1.64061 l 0,4.8575 -1.28676,0 z"
         style="font-style:normal;font-variant:normal;font-weight:normal;font-stretch:normal;font-family:'PT Sans';-inkscape-font-specification:'PT Sans'"
         id="path3460" />
      <path
         d="m 467.03991,384.2361 1.25459,0 0,-1.59235 1.28675,-0.36995 0,1.9623 2.18749,0 0,1.12591 -2.18749,0 0,4.45539 q 0,0.83639 0.2091,1.19025 0.2091,0.33777 0.70772,0.33777 0.41819,0 0.70771,-0.0804 0.28952,-0.0965 0.64338,-0.24127 l 0.28952,0.98115 q -0.43428,0.2091 -0.94898,0.33778 -0.51471,0.12867 -1.10983,0.12867 -0.98115,0 -1.38326,-0.54687 -0.40211,-0.56295 -0.40211,-1.86579 l 0,-4.69666 -1.25459,0 0,-1.12591 z"
         style="font-style:normal;font-variant:normal;font-weight:normal;font-stretch:normal;font-family:'PT Sans';-inkscape-font-specification:'PT Sans'"
         id="path3462" />
      <path
         d="m 473.439,384.83123 q 0.61121,-0.36994 1.41543,-0.54687 0.82031,-0.17693 1.70495,-0.17693 0.83639,0 1.33501,0.22518 0.5147,0.22518 0.77205,0.59512 0.27344,0.35386 0.35386,0.78814 0.0965,0.43428 0.0965,0.86856 0,0.96507 -0.0482,1.88188 -0.0483,0.91681 -0.0483,1.73712 0,0.59512 0.0483,1.12591 0.0482,0.53079 0.17692,0.98115 l -0.94898,0 -0.33777,-1.12591 -0.0804,0 q -0.14476,0.22518 -0.36994,0.45036 -0.2091,0.2091 -0.51471,0.38603 -0.3056,0.16084 -0.70771,0.27343 -0.40211,0.1126 -0.91681,0.1126 -0.51471,0 -0.96507,-0.16085 -0.43428,-0.16084 -0.75597,-0.45036 -0.32169,-0.30561 -0.5147,-0.7238 -0.17693,-0.4182 -0.17693,-0.94898 0,-0.70772 0.28952,-1.17417 0.28952,-0.48253 0.80422,-0.75597 0.53079,-0.28952 1.25459,-0.40211 0.73988,-0.12867 1.62453,-0.12867 0.22518,0 0.43428,0 0.22518,0 0.45036,0.0322 0.0482,-0.48254 0.0482,-0.86856 0,-0.88465 -0.35385,-1.2385 -0.35386,-0.35386 -1.28676,-0.35386 -0.27343,0 -0.59512,0.0482 -0.30561,0.0322 -0.64338,0.11259 -0.32169,0.0643 -0.62729,0.17693 -0.28952,0.0965 -0.51471,0.22518 l -0.40211,-0.96506 z m 2.28399,6.44986 q 0.45037,0 0.80422,-0.1126 0.35386,-0.12867 0.61121,-0.3056 0.25735,-0.19301 0.4182,-0.4182 0.17693,-0.22518 0.25735,-0.43427 l 0,-1.33501 q -0.22518,-0.0161 -0.46645,-0.0161 -0.22518,-0.0161 -0.45036,-0.0161 -0.49862,0 -0.98115,0.0643 -0.46645,0.0482 -0.83639,0.20909 -0.35386,0.14476 -0.57904,0.4182 -0.2091,0.25735 -0.2091,0.65946 0,0.56296 0.40211,0.9329 0.40211,0.35386 1.0294,0.35386 z"
         style="font-style:normal;font-variant:normal;font-weight:normal;font-stretch:normal;font-family:'PT Sans';-inkscape-font-specification:'PT Sans'"
         id="path3464" />
      <path
         d="m 481.8205,384.2361 1.28675,0 0,8.04222 -1.28675,0 0,-8.04222 z m -0.27344,-2.44483 q 0,-0.36994 0.24127,-0.62729 0.25735,-0.27344 0.64338,-0.27344 0.38602,0 0.65946,0.27344 0.27344,0.25735 0.27344,0.62729 0,0.36994 -0.27344,0.61121 -0.27344,0.24127 -0.65946,0.24127 -0.38603,0 -0.64338,-0.24127 -0.24127,-0.24127 -0.24127,-0.61121 z"
         style="font-style:normal;font-variant:normal;font-weight:normal;font-stretch:normal;font-family:'PT Sans';-inkscape-font-specification:'PT Sans'"
         id="path3466" />
      <path
         d="m 491.01401,392.27832 0,-4.58406 q 0,-1.25459 -0.36994,-1.88188 -0.35386,-0.64338 -1.31892,-0.64338 -0.85248,0 -1.41543,0.46645 -0.54687,0.45036 -0.77206,1.14199 l 0,5.50088 -1.28675,0 0,-8.04222 0.90073,0 0.24126,0.98115 0.0643,0 q 0.38603,-0.5147 1.02941,-0.83639 0.65946,-0.33777 1.56019,-0.33777 0.65946,0 1.15807,0.16085 0.49862,0.14476 0.82031,0.53078 0.33777,0.38603 0.49862,1.04549 0.17693,0.64338 0.17693,1.64061 l 0,4.8575 -1.28676,0 z"
         style="font-style:normal;font-variant:normal;font-weight:normal;font-stretch:normal;font-family:'PT Sans';-inkscape-font-specification:'PT Sans'"
         id="path3468" />
      <path
         d="m 500.5179,391.63494 q -0.48253,0.38603 -1.22242,0.61121 -0.7238,0.22518 -1.5441,0.22518 -0.91682,0 -1.59236,-0.28952 -0.67555,-0.3056 -1.10983,-0.85247 -0.43428,-0.56296 -0.64337,-1.33501 -0.2091,-0.77205 -0.2091,-1.73712 0,-2.05881 0.91681,-3.13646 0.91681,-1.07766 2.62176,-1.07766 0.54687,0 1.09374,0.12868 0.54688,0.11259 0.98115,0.45036 0.43428,0.33777 0.70772,0.96507 0.27344,0.6112 0.27344,1.62452 0,0.53079 -0.0965,1.17417 l -5.1631,0 q 0,0.70771 0.14476,1.25458 0.14476,0.54687 0.45036,0.9329 0.3056,0.36994 0.78814,0.57904 0.49861,0.19301 1.20633,0.19301 0.54687,0 1.09374,-0.19301 0.54687,-0.19301 0.82031,-0.45036 l 0.48253,0.93289 z m -2.76652,-6.46594 q -0.94898,0 -1.52802,0.49862 -0.56296,0.49862 -0.67555,1.70495 l 3.98894,0 q 0,-1.22242 -0.46645,-1.70495 -0.46645,-0.49862 -1.31892,-0.49862 z"
         style="font-style:normal;font-variant:normal;font-weight:normal;font-stretch:normal;font-family:'PT Sans';-inkscape-font-specification:'PT Sans'"
         id="path3470" />
      <path
         d="m 506.61089,385.47461 q -0.48254,-0.16085 -0.91682,-0.16085 -0.69163,0 -1.09374,0.38603 -0.40211,0.36994 -0.49862,0.94898 l 0,5.62955 -1.28675,0 0,-8.04222 0.90073,0 0.24126,0.98115 0.0643,0 q 0.30561,-0.54687 0.7238,-0.83639 0.43428,-0.3056 1.09374,-0.3056 0.46645,0 1.04549,0.16084 l -0.27343,1.23851 z"
         style="font-style:normal;font-variant:normal;font-weight:normal;font-stretch:normal;font-family:'PT Sans';-inkscape-font-specification:'PT Sans'"
         id="path3472" />
      <path
         d="m 514.21631,383.57664 q 0,0.85248 -0.32169,1.75321 -0.30561,0.88464 -0.82031,1.78537 -0.49862,0.90073 -1.12591,1.76929 -0.62729,0.85247 -1.25459,1.62452 l -0.78813,0.69163 0,0.0643 1.0294,-0.17693 3.50641,0 0,1.19025 -6.40161,0 0,-0.46645 q 0.35386,-0.36994 0.85248,-0.91681 0.49862,-0.54687 1.0294,-1.20633 0.54687,-0.67555 1.06157,-1.41543 0.53079,-0.75597 0.94899,-1.52802 0.43428,-0.77206 0.69163,-1.52803 0.25735,-0.75596 0.25735,-1.43151 0,-0.78814 -0.45037,-1.30284 -0.45036,-0.53079 -1.36717,-0.53079 -0.61121,0 -1.19025,0.25736 -0.57904,0.24126 -0.99724,0.56295 l -0.53078,-0.91681 q 0.56295,-0.48253 1.33501,-0.75597 0.77205,-0.27344 1.65669,-0.27344 0.69163,0 1.22242,0.2091 0.53078,0.19302 0.90073,0.56296 0.36994,0.36994 0.56295,0.88464 0.19302,0.49862 0.19302,1.09374 z"
         style="font-style:normal;font-variant:normal;font-weight:normal;font-stretch:normal;font-family:'PT Sans';-inkscape-font-specification:'PT Sans'"
         id="path3474" />
    </g>
    <g
       style="font-style:normal;font-variant:normal;font-weight:500;font-stretch:normal;font-size:16.0844326px;line-height:125%;font-family:Inconsolata;-inkscape-font-specification:'Inconsolata Medium';text-align:start;letter-spacing:0px;word-spacing:0px;text-anchor:start;fill:#000000;fill-opacity:1;stroke:none"
       id="text6223-1-5-2-6">
      <path
         d="m 556.71833,659.21556 q -0.48254,0.36994 -1.22242,0.5147 -0.73988,0.14476 -1.57627,0.14476 -1.01332,0 -1.89797,-0.33777 -0.88464,-0.35386 -1.5441,-1.06158 -0.65946,-0.70771 -1.04549,-1.80145 -0.38603,-1.10983 -0.38603,-2.62176 0,-1.57628 0.4182,-2.67002 0.43428,-1.10983 1.12591,-1.80146 0.70771,-0.70771 1.57627,-1.0294 0.86856,-0.32169 1.76929,-0.32169 0.96507,0 1.57627,0.11259 0.61121,0.0965 1.04549,0.27344 l -0.32169,1.17416 q -0.77205,-0.36994 -2.20356,-0.36994 -0.65946,0 -1.30284,0.24127 -0.64338,0.24126 -1.15808,0.78813 -0.49862,0.54687 -0.80422,1.43152 -0.30561,0.88464 -0.30561,2.1714 0,1.15807 0.28952,2.02663 0.28952,0.86856 0.78814,1.4476 0.5147,0.57904 1.19025,0.86856 0.69163,0.28952 1.49585,0.28952 0.7238,0 1.25459,-0.14476 0.54687,-0.14476 0.91681,-0.36994 l 0.32169,1.04549 z"
         style="font-style:normal;font-variant:normal;font-weight:normal;font-stretch:normal;font-family:'PT Sans';-inkscape-font-specification:'PT Sans'"
         id="path3429" />
      <path
         d="m 557.54115,655.6609 q 0,-2.04272 0.90073,-3.12038 0.91681,-1.09374 2.62176,-1.09374 0.90073,0 1.56019,0.3056 0.67554,0.28952 1.10982,0.85248 0.43428,0.54687 0.64338,1.335 0.2091,0.77206 0.2091,1.72104 0,2.04272 -0.91681,3.13646 -0.90073,1.07766 -2.60568,1.07766 -0.90073,0 -1.57628,-0.28952 -0.65946,-0.3056 -1.09374,-0.85247 -0.43428,-0.56296 -0.64338,-1.33501 -0.20909,-0.78814 -0.20909,-1.73712 z m 1.335,0 q 0,0.61121 0.1126,1.17416 0.12867,0.56296 0.38602,0.98115 0.25735,0.4182 0.67555,0.67555 0.41819,0.25735 1.01332,0.25735 2.18748,0.0161 2.18748,-3.08821 0,-0.62729 -0.12867,-1.19025 -0.1126,-0.56295 -0.36995,-0.98115 -0.25735,-0.41819 -0.67554,-0.65946 -0.4182,-0.25735 -1.01332,-0.25735 -2.18749,-0.0161 -2.18749,3.08821 z"
         style="font-style:normal;font-variant:normal;font-weight:normal;font-stretch:normal;font-family:'PT Sans';-inkscape-font-specification:'PT Sans'"
         id="path3431" />
      <path
         d="m 571.7623,659.68201 0,-4.58407 q 0,-1.25458 -0.36994,-1.88188 -0.35386,-0.64337 -1.31893,-0.64337 -0.85247,0 -1.41543,0.46645 -0.54687,0.45036 -0.77205,1.14199 l 0,5.50088 -1.28675,0 0,-8.04222 0.90072,0 0.24127,0.98115 0.0643,0 q 0.38603,-0.5147 1.0294,-0.83639 0.65946,-0.33777 1.56019,-0.33777 0.65946,0 1.15808,0.16084 0.49862,0.14476 0.82031,0.53079 0.33777,0.38602 0.49861,1.04549 0.17693,0.64337 0.17693,1.64061 l 0,4.8575 -1.28675,0 z"
         style="font-style:normal;font-variant:normal;font-weight:normal;font-stretch:normal;font-family:'PT Sans';-inkscape-font-specification:'PT Sans'"
         id="path3433" />
      <path
         d="m 574.3338,651.63979 1.25458,0 0,-1.59236 1.28676,-0.36994 0,1.9623 2.18748,0 0,1.12591 -2.18748,0 0,4.45539 q 0,0.83639 0.20909,1.19025 0.2091,0.33777 0.70772,0.33777 0.41819,0 0.70771,-0.0804 0.28952,-0.0965 0.64338,-0.24127 l 0.28952,0.98115 q -0.43428,0.2091 -0.94898,0.33777 -0.5147,0.12868 -1.10983,0.12868 -0.98115,0 -1.38326,-0.54687 -0.40211,-0.56296 -0.40211,-1.86579 l 0,-4.69666 -1.25458,0 0,-1.12591 z"
         style="font-style:normal;font-variant:normal;font-weight:normal;font-stretch:normal;font-family:'PT Sans';-inkscape-font-specification:'PT Sans'"
         id="path3435" />
      <path
         d="m 580.73289,652.23491 q 0.61121,-0.36994 1.41543,-0.54687 0.8203,-0.17692 1.70495,-0.17692 0.83639,0 1.33501,0.22518 0.5147,0.22518 0.77205,0.59512 0.27343,0.35386 0.35386,0.78814 0.0965,0.43428 0.0965,0.86856 0,0.96506 -0.0483,1.88188 -0.0482,0.91681 -0.0482,1.73712 0,0.59512 0.0482,1.12591 0.0483,0.53078 0.17693,0.98115 l -0.94898,0 -0.33778,-1.12591 -0.0804,0 q -0.14476,0.22518 -0.36994,0.45036 -0.2091,0.2091 -0.5147,0.38603 -0.30561,0.16084 -0.70772,0.27343 -0.40211,0.11259 -0.91681,0.11259 -0.5147,0 -0.96507,-0.16084 -0.43428,-0.16085 -0.75596,-0.45037 -0.32169,-0.3056 -0.51471,-0.7238 -0.17692,-0.41819 -0.17692,-0.94898 0,-0.70771 0.28951,-1.17416 0.28952,-0.48253 0.80423,-0.75597 0.53078,-0.28952 1.25458,-0.40211 0.73989,-0.12868 1.62453,-0.12868 0.22518,0 0.43428,0 0.22518,0 0.45036,0.0322 0.0483,-0.48253 0.0483,-0.86856 0,-0.88464 -0.35386,-1.2385 -0.35386,-0.35385 -1.28676,-0.35385 -0.27343,0 -0.59512,0.0483 -0.3056,0.0322 -0.64338,0.11259 -0.32169,0.0643 -0.62729,0.17693 -0.28952,0.0965 -0.5147,0.22518 l -0.40211,-0.96507 z m 2.28399,6.44986 q 0.45036,0 0.80422,-0.11259 0.35386,-0.12867 0.61121,-0.3056 0.25735,-0.19302 0.41819,-0.4182 0.17693,-0.22518 0.25735,-0.43428 l 0,-1.33501 q -0.22518,-0.0161 -0.46644,-0.0161 -0.22519,-0.0161 -0.45037,-0.0161 -0.49862,0 -0.98115,0.0643 -0.46645,0.0483 -0.83639,0.2091 -0.35386,0.14476 -0.57904,0.4182 -0.2091,0.25735 -0.2091,0.65946 0,0.56295 0.40211,0.93289 0.40211,0.35386 1.02941,0.35386 z"
         style="font-style:normal;font-variant:normal;font-weight:normal;font-stretch:normal;font-family:'PT Sans';-inkscape-font-specification:'PT Sans'"
         id="path3437" />
      <path
         d="m 589.11438,651.63979 1.28676,0 0,8.04222 -1.28676,0 0,-8.04222 z m -0.27343,-2.44483 q 0,-0.36995 0.24127,-0.6273 0.25735,-0.27343 0.64337,-0.27343 0.38603,0 0.65946,0.27343 0.27344,0.25735 0.27344,0.6273 0,0.36994 -0.27344,0.61121 -0.27343,0.24126 -0.65946,0.24126 -0.38602,0 -0.64337,-0.24126 -0.24127,-0.24127 -0.24127,-0.61121 z"
         style="font-style:normal;font-variant:normal;font-weight:normal;font-stretch:normal;font-family:'PT Sans';-inkscape-font-specification:'PT Sans'"
         id="path3439" />
      <path
         d="m 598.3079,659.68201 0,-4.58407 q 0,-1.25458 -0.36995,-1.88188 -0.35385,-0.64337 -1.31892,-0.64337 -0.85247,0 -1.41543,0.46645 -0.54687,0.45036 -0.77205,1.14199 l 0,5.50088 -1.28676,0 0,-8.04222 0.90073,0 0.24127,0.98115 0.0643,0 q 0.38602,-0.5147 1.0294,-0.83639 0.65946,-0.33777 1.56019,-0.33777 0.65946,0 1.15808,0.16084 0.49862,0.14476 0.8203,0.53079 0.33778,0.38602 0.49862,1.04549 0.17693,0.64337 0.17693,1.64061 l 0,4.8575 -1.28675,0 z"
         style="font-style:normal;font-variant:normal;font-weight:normal;font-stretch:normal;font-family:'PT Sans';-inkscape-font-specification:'PT Sans'"
         id="path3441" />
      <path
         d="m 607.81178,659.03863 q -0.48253,0.38603 -1.22241,0.61121 -0.7238,0.22518 -1.54411,0.22518 -0.91681,0 -1.59236,-0.28952 -0.67554,-0.3056 -1.10982,-0.85247 -0.43428,-0.56296 -0.64338,-1.33501 -0.2091,-0.77206 -0.2091,-1.73712 0,-2.05881 0.91681,-3.13647 0.91682,-1.07765 2.62177,-1.07765 0.54687,0 1.09374,0.12867 0.54687,0.11259 0.98115,0.45037 0.43428,0.33777 0.70771,0.96506 0.27344,0.61121 0.27344,1.62453 0,0.53079 -0.0965,1.17416 l -5.1631,0 q 0,0.70772 0.14476,1.25459 0.14476,0.54687 0.45036,0.9329 0.30561,0.36994 0.78814,0.57904 0.49862,0.19301 1.20633,0.19301 0.54687,0 1.09375,-0.19301 0.54687,-0.19302 0.8203,-0.45037 l 0.48253,0.9329 z m -2.76652,-6.46594 q -0.94898,0 -1.52802,0.49862 -0.56295,0.49861 -0.67555,1.70494 l 3.98894,0 q 0,-1.22241 -0.46644,-1.70494 -0.46645,-0.49862 -1.31893,-0.49862 z"
         style="font-style:normal;font-variant:normal;font-weight:normal;font-stretch:normal;font-family:'PT Sans';-inkscape-font-specification:'PT Sans'"
         id="path3443" />
      <path
         d="m 613.90477,652.87829 q -0.48253,-0.16084 -0.91681,-0.16084 -0.69163,0 -1.09374,0.38602 -0.40212,0.36995 -0.49862,0.94899 l 0,5.62955 -1.28676,0 0,-8.04222 0.90073,0 0.24127,0.98115 0.0643,0 q 0.3056,-0.54687 0.7238,-0.83639 0.43428,-0.3056 1.09374,-0.3056 0.46645,0 1.04549,0.16084 l -0.27344,1.2385 z"
         style="font-style:normal;font-variant:normal;font-weight:normal;font-stretch:normal;font-family:'PT Sans';-inkscape-font-specification:'PT Sans'"
         id="path3445" />
      <path
         d="m 617.76252,658.74911 q 1.10982,0 1.83362,-0.64338 0.7238,-0.64337 0.7238,-1.86579 0,-1.17417 -0.7238,-1.7532 -0.70771,-0.57904 -1.9623,-0.57904 l -1.35109,0.0804 0,-5.56522 5.01834,0 0,1.19025 -3.81201,0 0,3.2008 0.69163,-0.0322 q 1.59236,0.0161 2.50917,0.88464 0.91682,0.86856 0.91682,2.49309 0,0.90072 -0.30561,1.60844 -0.3056,0.69163 -0.83639,1.15808 -0.5147,0.46645 -1.22242,0.70771 -0.70771,0.24127 -1.51193,0.24127 -0.7238,0 -1.22242,-0.0804 -0.49862,-0.0804 -0.9329,-0.24127 l 0.33778,-1.09374 q 0.36994,0.14476 0.78813,0.22518 0.43428,0.0643 1.06158,0.0643 z"
         style="font-style:normal;font-variant:normal;font-weight:normal;font-stretch:normal;font-family:'PT Sans';-inkscape-font-specification:'PT Sans'"
         id="path3447" />
    </g>
    <g
       style="font-style:normal;font-variant:normal;font-weight:500;font-stretch:normal;font-size:16.08500099px;line-height:125%;font-family:Inconsolata;-inkscape-font-specification:'Inconsolata, Medium';text-align:start;letter-spacing:0px;word-spacing:0px;writing-mode:lr-tb;text-anchor:start;fill:#000000;fill-opacity:1;stroke:none"
       id="text6311">
      <path
         d="m 574.36765,615.80328 c -1.56024,0 -3.81214,1.14204 -3.81214,5.16329 0,3.8604 2.15539,5.11503 3.81214,5.11503 1.19029,0 2.30016,-0.62732 2.92747,-1.65676 l -0.82033,-0.5308 c -0.46647,0.75599 -1.27072,1.20637 -2.0428,1.20637 -1.47982,0 -2.7827,-1.52807 -2.7827,-4.24644 0,-2.65402 1.27071,-4.14993 2.68619,-4.14993 0.77208,0 1.51199,0.46647 1.91412,1.17421 0.0322,0.0483 0.0643,0.0965 0.0643,0.16085 0,0.0483 -0.0161,0.0804 -0.0161,0.12868 0,0.0161 0,0.0965 0.0804,0.14476 l 1.06161,-0.51472 c -0.53081,-1.20637 -1.73718,-1.99454 -3.07224,-1.99454 z"
         style=""
         id="path3450" />
    </g>
    <g
       style="font-style:normal;font-variant:normal;font-weight:500;font-stretch:normal;font-size:16.08500099px;line-height:125%;font-family:Inconsolata;-inkscape-font-specification:'Inconsolata, Medium';text-align:start;letter-spacing:0px;word-spacing:0px;writing-mode:lr-tb;text-anchor:start;fill:#000000;fill-opacity:1;stroke:none"
       id="text6311-5">
      <path
         d="m 322.94389,527.33893 c -1.56025,0 -3.81215,1.14203 -3.81215,5.16328 0,3.8604 2.15539,5.11503 3.81215,5.11503 1.19029,0 2.30015,-0.62731 2.92747,-1.65675 l -0.82034,-0.53081 c -0.46646,0.756 -1.27071,1.20638 -2.04279,1.20638 -1.47982,0 -2.78271,-1.52808 -2.78271,-4.24644 0,-2.65403 1.27072,-4.14993 2.6862,-4.14993 0.77208,0 1.51199,0.46646 1.91411,1.1742 0.0322,0.0483 0.0643,0.0965 0.0643,0.16085 0,0.0483 -0.0161,0.0804 -0.0161,0.12868 0,0.0161 0,0.0965 0.0804,0.14477 l 1.06161,-0.51472 c -0.5308,-1.20638 -1.73718,-1.99454 -3.07223,-1.99454 z"
         style=""
         id="path3426" />
    </g>
    <g
       style="font-style:normal;font-variant:normal;font-weight:500;font-stretch:normal;font-size:16.08500099px;line-height:125%;font-family:Inconsolata;-inkscape-font-specification:'Inconsolata, Medium';text-align:start;letter-spacing:0px;word-spacing:0px;writing-mode:lr-tb;text-anchor:start;fill:#000000;fill-opacity:1;stroke:none"
       id="text6311-5-0">
      <path
         d="m 341.03886,528.99829 c -1.56025,0 -3.81215,1.14203 -3.81215,5.16329 0,3.8604 2.15539,5.11503 3.81215,5.11503 1.19029,0 2.30015,-0.62732 2.92747,-1.65676 l -0.82034,-0.5308 c -0.46646,0.75599 -1.27071,1.20637 -2.04279,1.20637 -1.47982,0 -2.78271,-1.52807 -2.78271,-4.24644 0,-2.65403 1.27072,-4.14993 2.6862,-4.14993 0.77208,0 1.51199,0.46646 1.91411,1.1742 0.0322,0.0483 0.0643,0.0965 0.0643,0.16085 0,0.0483 -0.0161,0.0804 -0.0161,0.12868 0,0.0161 0,0.0965 0.0804,0.14477 l 1.06161,-0.51472 c -0.5308,-1.20638 -1.73718,-1.99454 -3.07223,-1.99454 z"
         style=""
         id="path3423" />
    </g>
    <g
       style="font-style:normal;font-variant:normal;font-weight:500;font-stretch:normal;font-size:16.08500099px;line-height:125%;font-family:Inconsolata;-inkscape-font-specification:'Inconsolata, Medium';text-align:start;letter-spacing:0px;word-spacing:0px;writing-mode:lr-tb;text-anchor:start;fill:#000000;fill-opacity:1;stroke:none"
       id="text6311-5-0-1">
      <path
         d="m 339.5268,541.14207 0,10.02095 1.17421,0 0,-4.42337 1.96237,0 c 0.62731,0 1.22246,-0.0161 1.83369,-0.3217 0.93293,-0.46647 1.41548,-1.43157 1.41548,-2.44492 0,-1.01336 -0.48255,-1.99454 -1.43157,-2.47709 -0.62731,-0.33779 -1.25463,-0.35387 -1.89803,-0.35387 l -3.05615,0 z m 1.17421,1.06161 1.88194,0 c 0.41821,0 0.82034,0.0161 1.23855,0.2091 0.61123,0.3217 0.94901,0.9651 0.94901,1.6085 0,0.6434 -0.3217,1.23855 -0.90076,1.52808 -0.38604,0.19302 -0.77208,0.2091 -1.15812,0.2091 l -2.02671,0 0.0161,-3.55478 z"
         style=""
         id="path3420" />
    </g>
    <g
       style="font-style:normal;font-variant:normal;font-weight:500;font-stretch:normal;font-size:16.08500099px;line-height:125%;font-family:Inconsolata;-inkscape-font-specification:'Inconsolata, Medium';text-align:start;letter-spacing:0px;word-spacing:0px;writing-mode:lr-tb;text-anchor:start;fill:#000000;fill-opacity:1;stroke:none"
       id="text6311-5-0-1-8">
      <path
         d="m 464.22135,424.48167 0,10.02095 1.17421,0 0,-4.42337 1.96237,0 c 0.62731,0 1.22246,-0.0161 1.83369,-0.3217 0.93293,-0.46647 1.41548,-1.43157 1.41548,-2.44492 0,-1.01336 -0.48255,-1.99454 -1.43157,-2.47709 -0.62731,-0.33779 -1.25463,-0.35387 -1.89803,-0.35387 l -3.05615,0 z m 1.17421,1.06161 1.88194,0 c 0.41821,0 0.82034,0.0161 1.23855,0.2091 0.61123,0.3217 0.94901,0.9651 0.94901,1.6085 0,0.6434 -0.3217,1.23855 -0.90076,1.52808 -0.38604,0.19302 -0.77208,0.2091 -1.15812,0.2091 l -2.02671,0 0.0161,-3.55478 z"
         style=""
         id="path3453" />
    </g>
    <g
       style="font-style:normal;font-variant:normal;font-weight:500;font-stretch:normal;font-size:16.08500099px;line-height:125%;font-family:Inconsolata;-inkscape-font-specification:'Inconsolata, Medium';text-align:start;letter-spacing:0px;word-spacing:0px;writing-mode:lr-tb;text-anchor:start;fill:#000000;fill-opacity:1;stroke:none"
       id="text6311-5-0-1-8-0">
      <path
         d="m 239.0393,361.48429 0,10.02096 1.1742,0 0,-4.42338 1.96237,0 c 0.62732,0 1.22246,-0.0161 1.83369,-0.3217 0.93293,-0.46646 1.41548,-1.43156 1.41548,-2.44492 0,-1.01335 -0.48255,-1.99454 -1.43156,-2.47709 -0.62732,-0.33778 -1.25463,-0.35387 -1.89803,-0.35387 l -3.05615,0 z m 1.1742,1.06161 1.88195,0 c 0.41821,0 0.82033,0.0161 1.23854,0.20911 0.61123,0.3217 0.94902,0.9651 0.94902,1.6085 0,0.6434 -0.3217,1.23854 -0.90076,1.52807 -0.38604,0.19302 -0.77208,0.20911 -1.15812,0.20911 l -2.02671,0 0.0161,-3.55479 z"
         style=""
         id="path3480" />
    </g>
    <g
       style="font-style:normal;font-variant:normal;font-weight:500;font-stretch:normal;font-size:16.08500099px;line-height:125%;font-family:Inconsolata;-inkscape-font-specification:'Inconsolata, Medium';text-align:start;letter-spacing:0px;word-spacing:0px;writing-mode:lr-tb;text-anchor:start;fill:#000000;fill-opacity:1;stroke:none"
       id="text6311-5-0-1-8-0-1">
      <path
         d="m 252.443,362.15449 0,10.02096 1.17421,0 0,-4.42338 1.96237,0 c 0.62731,0 1.22246,-0.0161 1.83369,-0.3217 0.93293,-0.46646 1.41548,-1.43156 1.41548,-2.44492 0,-1.01335 -0.48255,-1.99454 -1.43157,-2.47709 -0.62731,-0.33779 -1.25463,-0.35387 -1.89803,-0.35387 l -3.05615,0 z m 1.17421,1.06161 1.88194,0 c 0.41821,0 0.82034,0.0161 1.23855,0.20911 0.61123,0.3217 0.94901,0.9651 0.94901,1.6085 0,0.6434 -0.3217,1.23854 -0.90076,1.52807 -0.38604,0.19302 -0.77208,0.20911 -1.15812,0.20911 l -2.02671,0 0.0161,-3.55479 z"
         style=""
         id="path3477" />
    </g>
    <g
       style="font-style:normal;font-variant:normal;font-weight:500;font-stretch:normal;font-size:16.08500099px;line-height:125%;font-family:Inconsolata;-inkscape-font-specification:'Inconsolata, Medium';text-align:start;letter-spacing:0px;word-spacing:0px;writing-mode:lr-tb;text-anchor:start;fill:#000000;fill-opacity:1;stroke:none"
       id="text6311-5-6">
      <path
         d="m 138.64309,548.43365 c -1.56024,0 -3.81214,1.14204 -3.81214,5.16329 0,3.8604 2.15539,5.11503 3.81214,5.11503 1.19029,0 2.30016,-0.62732 2.92747,-1.65676 l -0.82033,-0.5308 c -0.46647,0.75599 -1.27072,1.20637 -2.0428,1.20637 -1.47982,0 -2.7827,-1.52807 -2.7827,-4.24644 0,-2.65402 1.27071,-4.14993 2.68619,-4.14993 0.77208,0 1.51199,0.46647 1.91412,1.17421 0.0322,0.0483 0.0643,0.0965 0.0643,0.16085 0,0.0482 -0.0161,0.0804 -0.0161,0.12868 0,0.0161 0,0.0965 0.0804,0.14476 l 1.06161,-0.51472 c -0.53081,-1.20637 -1.73718,-1.99454 -3.07224,-1.99454 z"
         style=""
         id="path3396" />
    </g>
  </g>
</svg>
