<?xml version="1.0" encoding="UTF-8" standalone="no"?>
<!-- Created with Inkscape (http://www.inkscape.org/) -->

<svg
   xmlns:dc="http://purl.org/dc/elements/1.1/"
   xmlns:cc="http://creativecommons.org/ns#"
   xmlns:rdf="http://www.w3.org/1999/02/22-rdf-syntax-ns#"
   xmlns:svg="http://www.w3.org/2000/svg"
   xmlns="http://www.w3.org/2000/svg"
   xmlns:sodipodi="http://sodipodi.sourceforge.net/DTD/sodipodi-0.dtd"
   xmlns:inkscape="http://www.inkscape.org/namespaces/inkscape"
   width="637.25"
   height="184.43201"
   viewBox="0 0 637.25002 184.43202"
   id="svg2"
   version="1.1"
   inkscape:version="0.91 r"
   sodipodi:docname="Build_Ship_Run.svg">
  <defs
     id="defs4">
    <marker
       inkscape:stockid="TriangleInL"
       orient="auto"
       refY="0"
       refX="0"
       id="TriangleInL"
       style="overflow:visible"
       inkscape:isstock="true">
      <path
         id="path4451"
         d="m 5.77,0 -8.65,5 0,-10 8.65,5 z"
         style="fill:#000000;fill-opacity:1;fill-rule:evenodd;stroke:#000000;stroke-width:1pt;stroke-opacity:1"
         transform="scale(-0.8,-0.8)"
         inkscape:connector-curvature="0" />
    </marker>
    <marker
       inkscape:stockid="TriangleOutL"
       orient="auto"
       refY="0"
       refX="0"
       id="TriangleOutL"
       style="overflow:visible"
       inkscape:isstock="true">
      <path
         id="path4460"
         d="m 5.77,0 -8.65,5 0,-10 8.65,5 z"
         style="fill:#000000;fill-opacity:1;fill-rule:evenodd;stroke:#000000;stroke-width:1pt;stroke-opacity:1"
         transform="scale(0.8,0.8)"
         inkscape:connector-curvature="0" />
    </marker>
    <marker
       inkscape:stockid="Arrow2Lend"
       orient="auto"
       refY="0"
       refX="0"
       id="Arrow2Lend"
       style="overflow:visible"
       inkscape:isstock="true">
      <path
         id="path4600"
         style="fill:#000000;fill-opacity:1;fill-rule:evenodd;stroke:#000000;stroke-width:0.625;stroke-linejoin:round;stroke-opacity:1"
         d="M 8.7185878,4.0337352 -2.2072895,0.01601326 8.7185884,-4.0017078 c -1.7454984,2.3720609 -1.7354408,5.6174519 -6e-7,8.035443 z"
         transform="matrix(-1.1,0,0,-1.1,-1.1,0)"
         inkscape:connector-curvature="0" />
    </marker>
    <marker
       inkscape:stockid="Arrow2Lend"
       orient="auto"
       refY="0"
       refX="0"
       id="Arrow2Lend-0"
       style="overflow:visible"
       inkscape:isstock="true">
      <path
         inkscape:connector-curvature="0"
         id="path4600-3"
         style="fill:#000000;fill-opacity:1;fill-rule:evenodd;stroke:#000000;stroke-width:0.625;stroke-linejoin:round;stroke-opacity:1"
         d="M 8.7185878,4.0337352 -2.2072895,0.01601326 8.7185884,-4.0017078 c -1.7454984,2.3720609 -1.7354408,5.6174519 -6e-7,8.035443 z"
         transform="matrix(-1.1,0,0,-1.1,-1.1,0)" />
    </marker>
    <marker
       inkscape:stockid="TriangleInL"
       orient="auto"
       refY="0"
       refX="0"
       id="TriangleInL-2"
       style="overflow:visible"
       inkscape:isstock="true">
      <path
         inkscape:connector-curvature="0"
         id="path4451-5"
         d="m 5.77,0 -8.65,5 0,-10 8.65,5 z"
         style="fill:#000000;fill-opacity:1;fill-rule:evenodd;stroke:#000000;stroke-width:1pt;stroke-opacity:1"
         transform="scale(-0.8,-0.8)" />
    </marker>
  </defs>
  <sodipodi:namedview
     id="base"
     pagecolor="#ffffff"
     bordercolor="#666666"
     borderopacity="1.0"
     inkscape:pageopacity="0.0"
     inkscape:pageshadow="2"
     inkscape:zoom="0.84508456"
     inkscape:cx="253.12394"
     inkscape:cy="224.53374"
     inkscape:document-units="px"
     inkscape:current-layer="layer1"
     showgrid="false"
     units="px"
     inkscape:window-width="1672"
     inkscape:window-height="990"
     inkscape:window-x="0"
     inkscape:window-y="0"
     inkscape:window-maximized="1" />
  <metadata
     id="metadata7">
    <rdf:RDF>
      <cc:Work
         rdf:about="">
        <dc:format>image/svg+xml</dc:format>
        <dc:type
           rdf:resource="http://purl.org/dc/dcmitype/StillImage" />
        <dc:title></dc:title>
      </cc:Work>
    </rdf:RDF>
  </metadata>
  <g
     inkscape:label="Layer 1"
     inkscape:groupmode="layer"
     id="layer1"
     transform="translate(0,-867.93013)">
    <g
       id="g3428"
       transform="matrix(0.73907213,0,0,0.73907213,128.46043,397.0112)">
      <g
         id="text4439"
         style="font-style:normal;font-variant:normal;font-weight:500;font-stretch:normal;font-size:13.75px;line-height:125%;font-family:Inconsolata;-inkscape-font-specification:'Inconsolata Medium';text-align:start;letter-spacing:0px;word-spacing:0px;text-anchor:start;fill:#000000;fill-opacity:1;stroke:none;stroke-width:1px;stroke-linecap:butt;stroke-linejoin:miter;stroke-opacity:1"
         transform="matrix(1.7308081,0,0,1.7308081,-259.37893,-396.10807)" />
    </g>
    <g
       transform="matrix(0.37368217,0,0,0.37368217,388.21701,959.1983)"
       id="g4410">
      <g
         id="g4402">
        <path
           inkscape:connector-curvature="0"
           id="rect8488"
           sodipodi:nodetypes="cccccc"
           style="fill:#4475a6;fill-opacity:1"
           d="m -1030.3482,-47.78135 45.0334,-69.42709 145.74614,-73.8065 -0.63437,260.20433 -190.14517,93.81856 0,-210.782503 z" />
        <g
           transform="matrix(22.656015,0,0,22.656015,-1072.8803,-216.03398)"
           id="g8450">
          <path
             inkscape:connector-curvature="0"
             id="path7280"
             style="fill:#000000;fill-rule:evenodd"
             d="m 10.5,0.6875 -0.7188,0.375 -6,3 -0.125,0.0625 -0.0624,0.0938 -2,3 -0.0938,0.125 0,0.1562 0,9 0,0.812 0.7188,-0.374 8.0002,-4 0.281,-0.126 0,-0.312 0,-11 0,-0.8125 z m -1,1.625 0,9.8755 -7,3.5 0,-8.063 L 4.3438,4.875 9.5,2.3125 Z" />
          <path
             inkscape:connector-curvature="0"
             id="path8411"
             sodipodi:nodetypes="cccc"
             style="fill:#ffffff"
             d="M 4.1515,4.5288 2.1653,7.3942 4.1049,6.5303 4.1515,4.5288 Z" />
          <path
             inkscape:connector-curvature="0"
             id="path7282"
             style="fill:#000000;fill-rule:evenodd"
             d="m 3.75,4.5 0,1.8438 -1.875,0.9374 0.25,0.4376 2,-1 0.125,-0.0626 0,-0.1562 0,-2 -0.5,0 z" />
        </g>
        <path
           inkscape:connector-curvature="0"
           id="text3518"
           style="fill:#000000"
           d="m -994.22088,-12.866198 c -2.31771,1.33813 -4.05996,3.4768176 -5.22674,6.4387183 -1.16678,2.9619007 -1.74908,6.71912652 -1.74908,11.2956416 0,4.553859 0.5823,7.6614061 1.74908,9.2533641 1.16678,1.614614 2.90903,1.741528 5.22674,0.403398 2.3313,-1.345978 4.08261,-3.489897 5.2494,-6.4517982 1.16452,-2.9379366 1.74904,-6.7191265 1.74904,-11.2729855 0,-4.576515 -0.58452,-7.6600973 -1.74904,-9.2760203 -1.16679,-1.614614 -2.9181,-1.736296 -5.2494,-0.390318 z m 0,-3.556994 c 3.72918,-2.153042 6.57931,-2.325922 8.54585,-0.516023 1.96881,1.808591 2.95434,5.521578 2.95434,11.1402699 0,5.59603569 -0.98553,10.4470221 -2.95434,14.5289951 -1.96654,4.080665 -4.81667,7.221483 -8.54585,9.374525 -3.72918,2.153042 -6.57932,2.303265 -8.54812,0.494675 -1.9688,-1.808591 -2.9521,-5.522887 -2.9521,-11.1189223 0,-5.6186917 0.9833,-10.4683701 2.9521,-14.5503431 1.9688,-4.0819726 4.81894,-7.2001346 8.54812,-9.3531766 z m 20.2137,18.4168103 7.3564,-4.2472221 0,-25.3973932 -8.0021,6.228592 0,-4.100738 7.95679,-6.202431 4.50175,-2.599086 0,29.4981317 7.35641,-4.2472221 0,3.7835545 -19.16925,11.0673687 0,-3.7835545 z m 29.06313,-16.7796013 7.35641,-4.247222 0,-25.397393 -8.00211,6.228592 0,-4.100739 7.9568,-6.202431 4.50175,-2.599085 0,29.498131 7.35641,-4.247222 0,3.783555 -19.16926,11.067369 0,-3.783555 z m 37.91258,-48.419019 c -2.31771,1.33813 -4.05996,3.476818 -5.22675,6.438719 -1.16678,2.9619 -1.74904,6.719126 -1.74904,11.295641 0,4.553859 0.58226,7.661406 1.74904,9.253364 1.16679,1.614614 2.90904,1.741529 5.22675,0.403399 2.33357,-1.347287 4.08261,-3.489898 5.2494,-6.451799 1.16678,-2.939245 1.74904,-6.719126 1.74904,-11.272985 0,-4.576516 -0.58226,-7.661406 -1.74904,-9.276021 -1.16679,-1.614614 -2.91583,-1.737604 -5.2494,-0.390318 z m 0,-3.556994 c 3.72918,-2.153042 6.5793,-2.325922 8.54811,-0.517331 1.96881,1.808591 2.95208,5.522886 2.95208,11.141578 0,5.596036 -0.98327,10.445714 -2.95208,14.527687 -1.96881,4.081973 -4.81893,7.222791 -8.54811,9.375833 -3.72918,2.153042 -6.57931,2.303266 -8.54812,0.494675 -1.96881,-1.808591 -2.95208,-5.522886 -2.95208,-11.118922 0,-5.618692 0.98327,-10.46837 2.95208,-14.550343 1.96881,-4.081973 4.81894,-7.200135 8.54812,-9.353177 z m 20.21596,18.415502 7.35414,-4.245914 0,-25.397392 -8.0021,6.228592 0,-4.100739 7.95679,-6.202431 4.50402,-2.600394 0,29.498132 7.35414,-4.245914 0,3.783554 -19.16699,11.066061 0,-3.783555 z m -116.25479,124.167559 7.35639,-4.247222 0,-25.374737 -8.00209,6.228592 0,-4.100738 7.95678,-6.202431 4.50175,-2.599086 0,29.475476 7.3564,-4.247222 0,3.783554 -19.16923,11.067369 0,-3.783555 z m 37.91255,-48.396362 c -2.31771,1.33813 -4.05995,3.476817 -5.22674,6.438718 -1.16678,2.939245 -1.74904,6.719126 -1.74904,11.295641 0,4.553859 0.58226,7.63875 1.74904,9.253364 1.16679,1.591959 2.90903,1.741529 5.22674,0.403399 2.33357,-1.347286 4.08262,-3.512554 5.2494,-6.451799 1.16452,-2.960592 1.74905,-6.719126 1.74905,-11.272985 0,-4.576515 -0.58453,-7.682754 -1.74905,-9.27602 -1.16678,-1.614615 -2.91583,-1.737605 -5.2494,-0.390318 z m 0,-3.579651 c 3.72918,-2.153042 6.57931,-2.325921 8.54812,-0.51733 1.96881,1.831246 2.95208,5.545542 2.95208,11.164233 0,5.596036 -0.98327,10.445714 -2.95208,14.527688 -1.96881,4.081973 -4.81894,7.200134 -8.54812,9.353176 -3.72918,2.153042 -6.5793,2.325922 -8.54811,0.517331 -1.96881,-1.808591 -2.95208,-5.522886 -2.95208,-11.118922 0,-5.618691 0.98327,-10.46837 2.95208,-14.572999 1.96881,-4.081973 4.81893,-7.200135 8.54811,-9.353177 z m 20.2137,18.416811 7.35641,-4.247222 0,-25.374737 -8.00211,6.228592 0,-4.100739 7.9568,-6.2024309 4.50175,-2.5990854 0,29.4754753 7.35641,-4.247222 0,3.783555 -19.16926,11.067368 0,-3.783554 z m 37.91258,-48.3963628 c -2.31771,1.3381301 -4.05996,3.4768174 -5.22675,6.43871811 -1.16678,2.93924469 -1.74904,6.71912649 -1.74904,11.29564169 0,4.553859 0.58226,7.63875 1.74904,9.253364 1.16679,1.591958 2.90904,1.741528 5.22675,0.403398 2.33357,-1.347286 4.08261,-3.512553 5.2494,-6.451798 1.16678,-2.961901 1.74904,-6.7191267 1.74904,-11.2729857 0,-4.576515 -0.58226,-7.6840617 -1.74904,-9.2760201 -1.16679,-1.6146143 -2.91583,-1.7376043 -5.2494,-0.390318 z m 0,-3.5796503 c 3.72918,-2.1530419 6.5793,-2.3259219 8.54811,-0.5173309 1.96881,1.8312469 2.95208,5.5455422 2.95208,11.16423388 0,5.59603572 -0.98327,10.44571412 -2.95208,14.52768712 -1.96881,4.081973 -4.81893,7.200135 -8.54811,9.353177 -3.72918,2.153042 -6.57931,2.325921 -8.54812,0.517331 -1.96881,-1.808591 -2.95208,-5.522887 -2.95208,-11.118922 0,-5.618692 0.98327,-10.4683704 2.95208,-14.57299943 1.96881,-4.08197307 4.81894,-7.20013467 8.54812,-9.35317667 z m 20.21596,18.4155023 7.35414,-4.245914 0,-25.3747372 -8.0021,6.228592 0,-4.100738 7.95679,-6.202431 4.50402,-2.600394 0,29.4754756 7.35414,-4.2459141 0,3.7835545 -19.16699,11.066061 0,-3.7835548 z" />
      </g>
    </g>
    <g
       transform="matrix(0.38895275,0,0,0.38895275,461.4089,631.01247)"
       id="g4429">
      <path
         inkscape:connector-curvature="0"
         id="path11213"
         style="fill:#5591cd;fill-opacity:1;fill-rule:evenodd"
         d="m -510.13851,904.27266 127.28219,63.64109 0,-127.53078 -127.28219,-63.64109 0,127.53078 z" />
      <path
         inkscape:connector-curvature="0"
         id="path11215"
         style="fill:#4475a6;fill-opacity:1;fill-rule:evenodd"
         d="m -382.85632,967.91375 127.28218,-63.64109 0,-127.53078 -127.28218,63.64109 0,127.53078 z" />
      <path
         inkscape:connector-curvature="0"
         id="path11217"
         style="fill:#000000;fill-rule:evenodd"
         d="m -510.13851,776.74188 127.28219,-63.64109 127.28218,63.64109 -127.28218,63.64109 -127.28219,-63.64109 z" />
      <path
         inkscape:connector-curvature="0"
         id="path11219"
         style="fill:#000000;fill-rule:evenodd"
         d="m -384.09931,706.88584 -1.49159,0.74579 -127.53078,63.64109 3.23177,11.68411 76.07099,0 1.49159,0 0.7458,-0.74579 115.10087,-50.4654 17.89906,-7.70654 -19.39064,-3.97757 -63.88969,-13.17569 -2.23738,0 z m 1.49158,12.4299 42.75886,8.45233 -93.97005,42.75886 -0.74579,0 -49.7196,0 101.67658,-51.21119 z" />
      <path
         inkscape:connector-curvature="0"
         id="path5727"
         style="fill:#365d83;fill-opacity:1;fill-rule:evenodd"
         d="m -383.35352,837.1512 -38.28409,-76.31959 127.28218,-63.64109 38.28409,76.31959 -127.28218,63.64109 z"
         sodipodi:nodetypes="ccccc" />
      <path
         inkscape:connector-curvature="0"
         id="path5729"
         style="fill:#365d83;fill-opacity:1;fill-rule:evenodd"
         d="m -511.87869,774.5045 76.31959,0 114.60368,-50.96259 -63.64109,-12.6785 -127.28218,63.64109 z" />
      <path
         inkscape:connector-curvature="0"
         id="path11221"
         style="fill:#000000;fill-rule:evenodd"
         d="m -290.87506,691.96996 -5.46916,3.23177 -127.28218,63.64109 -5.46915,2.48598 2.23738,5.22056 38.03549,77.06539 3.23178,5.46915 5.46915,-3.23177 127.28219,-63.64109 5.46915,-2.48598 -2.23738,-5.22056 -39.02989,-77.06538 -2.23738,-5.46916 z m -5.46916,17.15326 31.82055,65.38128 -114.85228,57.42614 -32.56634,-65.38128 115.59807,-57.42614 z" />
      <path
         inkscape:connector-curvature="0"
         id="path11223"
         style="fill:#000000;fill-rule:evenodd"
         d="m -288.63768,683.51763 -11.43551,6.21495 -39.77568,22.62242 c -5.46915,-2.73458 -20.63363,-10.44112 -42.75886,-11.68411 -10.93831,-0.74579 -20.63363,3.48037 -34.05792,8.45233 -13.67289,5.22056 -28.58877,11.93271 -43.50466,19.39065 -14.91588,7.45794 -28.83736,15.41307 -39.77568,22.62242 -5.22055,3.48037 -10.19252,6.71214 -13.92149,10.19251 -1.74018,1.49159 -3.72897,3.23178 -5.46915,5.22056 -1.49159,2.23738 -2.98318,4.97196 -2.98318,10.19252 l 0,127.28218 c 0,8.94953 3.97757,12.6785 7.70654,16.40747 3.72897,3.97757 8.45233,7.20934 13.92149,10.93831 10.93831,7.45794 25.60559,15.91028 40.52147,23.36822 14.91589,7.45794 30.57756,14.66728 44.25045,19.39064 13.67289,4.72336 23.61681,8.94953 35.79811,6.21495 7.20935,-1.74018 17.40186,-5.71775 30.32896,-10.93831 12.6785,-5.22056 27.59438,-11.93271 41.76447,-18.64485 14.41868,-6.71215 27.84297,-13.67289 38.78129,-20.13644 5.71775,-3.48037 10.93831,-6.21495 14.91588,-9.44673 3.97757,-3.23177 7.45794,-5.71775 9.94392,-11.6841 2.23738,-4.72336 2.73458,-8.70093 3.23177,-13.92149 0.4972,-4.97196 0.4972,-11.18691 0.7458,-17.89906 0.49719,-12.92709 0.49719,-28.34017 0,-43.50465 -0.9944,-30.08036 -2.98318,-58.17193 -2.98318,-58.17193 l 0,-2.23739 -0.99439,-2.48598 -38.0355,-76.07099 -6.21495,-11.6841 z m -9.94392,34.05792 31.07475,63.1439 c 0,2.73458 1.49159,26.35139 2.23738,54.19437 0.4972,14.91588 0.2486,29.83176 0,42.01306 -0.24859,6.21495 -0.24859,11.43551 -0.74579,15.66167 -0.4972,3.97757 -1.24299,6.96075 -0.74579,6.21495 0.99439,-2.23738 -0.4972,0 -3.23178,2.23739 -2.73458,2.23738 -6.46355,5.46915 -11.6841,8.45233 -9.94392,5.96635 -23.36822,12.92709 -37.28971,19.39064 -13.67289,6.71215 -28.09157,12.4299 -40.27287,17.15327 -12.18131,4.97196 -22.87102,8.70093 -26.35139,9.44672 0.99439,-0.2486 -10.44112,-0.4972 -22.62242,-4.72336 -12.1813,-4.22617 -27.09718,-10.68972 -41.01867,-17.89906 -14.17009,-6.96074 -27.84298,-15.16448 -37.2897,-21.62803 -4.97196,-3.48037 -8.20374,-6.71214 -10.19252,-8.70093 -1.98879,-1.98878 -0.7458,-3.23177 -0.7458,1.49159 l 0,-124.299 c 1.98879,-1.74019 5.96636,-4.47477 10.93832,-7.70654 9.44672,-6.21495 22.87101,-13.92149 37.2897,-20.88223 14.17008,-7.20935 29.33456,-13.92149 41.76446,-18.64485 12.4299,-4.72337 24.11401,-6.96075 24.11401,-6.96075 17.89906,0.99439 38.78129,11.68411 38.78129,11.68411 l 6.21495,2.98317 6.21495,-3.72897 33.56073,-18.89345 z" />
    </g>
    <g
       transform="matrix(0.41780847,0,0,0.41780847,747.92165,768.46888)"
       id="g4419">
      <rect
         id="rect2404"
         ry="0"
         style="fill:#4475a6;fill-opacity:1;stroke:#000000;stroke-width:5.37279987;stroke-linecap:round;stroke-linejoin:round"
         inkscape:export-filename="I:\Documents and Settings\Eric\Bureau\techicons.png"
         rx="0"
         transform="matrix(0.86602655,-0.49999801,0,1,0,0)"
         height="212.60001"
         width="141.73056"
         inkscape:export-xdpi="61.308788"
         inkscape:export-ydpi="61.308788"
         y="142.50183"
         x="-459.14078" />
      <path
         inkscape:connector-curvature="0"
         id="path3178"
         style="fill:#5591cd;fill-opacity:1;stroke:#000000;stroke-width:10;stroke-linecap:round;stroke-linejoin:round;stroke-miterlimit:4;stroke-dasharray:none"
         d="m -489.68574,318.92053 0,212.6 c 15.34,26.57 61.37,53.14997 92.05,53.14997 l 0,-212.59997 c -30.68,0 -76.71,-26.58 -92.05,-53.151 z"
         inkscape:export-ydpi="61.308788"
         sodipodi:nodetypes="ccccc"
         inkscape:export-filename="I:\Documents and Settings\Eric\Bureau\techicons.png"
         inkscape:export-xdpi="61.308788" />
      <ellipse
         ry="9.1749506"
         rx="10.727037"
         cy="-461.26642"
         cx="-479.93188"
         id="path3215"
         style="fill:none;stroke:#000000;stroke-width:7.23985624;stroke-linecap:round;stroke-linejoin:round"
         inkscape:export-ydpi="61.308788"
         inkscape:export-filename="I:\Documents and Settings\Eric\Bureau\techicons.png"
         transform="matrix(0,-1,1,0,0,0)"
         inkscape:export-xdpi="61.308788" />
      <ellipse
         ry="8.8728838"
         rx="10.374149"
         cy="-461.56329"
         cx="-512.78693"
         id="path3217"
         style="fill:none;stroke:#000000;stroke-width:7.00159216;stroke-linecap:round;stroke-linejoin:round"
         inkscape:export-ydpi="61.308788"
         inkscape:export-filename="I:\Documents and Settings\Eric\Bureau\techicons.png"
         transform="matrix(0,-1,1,0,0,0)"
         inkscape:export-xdpi="61.308788" />
      <path
         inkscape:connector-curvature="0"
         id="path3275"
         style="fill:none;stroke:#000000;stroke-width:10;stroke-linecap:round;stroke-linejoin:round;stroke-miterlimit:4;stroke-dasharray:none"
         d="m -413.29317,429.36685 c -22.08314,-4.2023 -43.61139,-14.87187 -58.56134,-29.94315"
         inkscape:export-ydpi="61.308788"
         sodipodi:nodetypes="cc"
         inkscape:export-filename="I:\Documents and Settings\Eric\Bureau\techicons.png"
         inkscape:export-xdpi="61.308788" />
      <path
         inkscape:connector-curvature="0"
         id="path3176"
         style="fill:#365d83;fill-opacity:1;stroke:#000000;stroke-width:10;stroke-linecap:round;stroke-linejoin:round;stroke-miterlimit:4;stroke-dasharray:none"
         d="m -397.63574,372.07153 c -30.68,0 -76.71,-26.58 -92.05,-53.151 l 122.74,-70.866 92.06,53.15 -122.75,70.867 z"
         inkscape:export-ydpi="61.308788"
         sodipodi:nodetypes="ccccc"
         inkscape:export-filename="I:\Documents and Settings\Eric\Bureau\techicons.png"
         inkscape:export-xdpi="61.308788" />
      <path
         inkscape:connector-curvature="0"
         id="path3193"
         style="fill:none;stroke:#000000;stroke-width:20;stroke-linecap:round;stroke-linejoin:round;stroke-miterlimit:4;stroke-dasharray:none"
         d="m -366.94574,248.05453 -122.74,70.866 0,212.6 c 15.34,26.57 61.37,53.14997 92.05,53.14997 l 122.75,-70.86997 0,-212.6 -92.06,-53.147 z"
         inkscape:export-ydpi="61.308788"
         sodipodi:nodetypes="ccccccc"
         inkscape:export-filename="I:\Documents and Settings\Eric\Bureau\techicons.png"
         inkscape:export-xdpi="61.308788" />
      <path
         inkscape:connector-curvature="0"
         id="path3275-2"
         style="fill:none;stroke:#000000;stroke-width:10;stroke-linecap:round;stroke-linejoin:round;stroke-miterlimit:4;stroke-dasharray:none"
         d="m -411.53637,403.26074 c -22.08314,-4.2023 -43.61139,-14.87187 -58.56134,-29.94315"
         inkscape:export-ydpi="61.308788"
         sodipodi:nodetypes="cc"
         inkscape:export-filename="I:\Documents and Settings\Eric\Bureau\techicons.png"
         inkscape:export-xdpi="61.308788" />
    </g>
    <path
       style="fill:none;fill-rule:evenodd;stroke:#000000;stroke-width:3.16770768;stroke-linecap:butt;stroke-linejoin:miter;stroke-miterlimit:4;stroke-dasharray:none;stroke-opacity:1;marker-end:"
       d="m 118.86171,956.74022 c 97.44534,0 95.73576,0 95.73576,0"
       id="path3476"
       inkscape:connector-curvature="0" />
    <path
       style="fill:none;fill-rule:evenodd;stroke:#000000;stroke-width:3.16770768;stroke-linecap:butt;stroke-linejoin:miter;stroke-miterlimit:4;stroke-dasharray:none;stroke-opacity:1;marker-end:"
       d="m 393.9126,956.74022 c 97.44534,0 95.73576,0 95.73576,0"
       id="path3476-5"
       inkscape:connector-curvature="0" />
    <g
       style="font-style:normal;font-variant:normal;font-weight:normal;font-stretch:normal;font-size:25.00000191px;line-height:125%;font-family:'PT Sans';-inkscape-font-specification:'PT Sans';text-align:start;letter-spacing:0px;word-spacing:0px;text-anchor:start;fill:#000000;fill-opacity:1;stroke:none;stroke-width:1px;stroke-linecap:butt;stroke-linejoin:miter;stroke-opacity:1"
       id="text4277">
      <path
         d="m 22.777741,1036.1621 q 0,0.625 -0.2,1.275 -0.2,0.65 -0.6,1.225 -0.4,0.55 -1.025,0.975 -0.625,0.425 -1.475,0.65 l 0,0.1 q 0.75,0.125 1.425,0.425 0.7,0.3 1.225,0.825 0.525,0.525 0.85,1.275 0.325,0.75 0.325,1.775 0,1.35 -0.575,2.35 -0.55,0.975 -1.475,1.6 -0.9,0.625 -2.075,0.925 -1.175,0.3 -2.4,0.3 -0.425,0 -1,0 -0.575,0 -1.2,-0.05 -0.625,-0.025 -1.25,-0.1 -0.625001,-0.05 -1.100001,-0.175 l 0,-17.225 q 0.925001,-0.15 2.150001,-0.25 1.225,-0.1 2.675,-0.1 0.975,0 1.975,0.175 1.025,0.15 1.85,0.625 0.825,0.45 1.35,1.275 0.55,0.825 0.55,2.125 z m -5.8,11.9 q 0.8,0 1.55,-0.175 0.75,-0.2 1.325,-0.6 0.575,-0.425 0.9,-1.025 0.35,-0.6 0.35,-1.425 0,-1.025 -0.425,-1.65 -0.4,-0.625 -1.075,-0.975 -0.65,-0.35 -1.475,-0.475 -0.825,-0.125 -1.65,-0.125 l -2.175,0 0,6.275 q 0.175,0.05 0.5,0.075 0.325,0.025 0.7,0.05 0.375,0.025 0.775,0.05 0.4,0 0.7,0 z m -1.375,-8.2 q 0.425,0 1.025,-0.025 0.6,-0.025 1,-0.075 0.6,-0.2 1.125,-0.475 0.525,-0.3 0.925,-0.675 0.425,-0.4 0.65,-0.9 0.25,-0.525 0.25,-1.125 0,-0.825 -0.325,-1.35 -0.3,-0.55 -0.825,-0.875 -0.525,-0.325 -1.2,-0.45 -0.675,-0.15 -1.375,-0.15 -0.825,0 -1.525,0.05 -0.675,0.025 -1.025,0.1 l 0,5.95 1.3,0 z"
         style=""
         id="path4410" />
      <path
         d="m 28.427351,1037.1621 0,7.125 q 0,0.975 0.1,1.725 0.125,0.725 0.4,1.225 0.275,0.475 0.75,0.725 0.475,0.25 1.2,0.25 0.675,0 1.2,-0.2 0.525,-0.225 0.925,-0.6 0.425,-0.375 0.725,-0.85 0.325,-0.5 0.525,-1.05 l 0,-8.35 2,0 0,8.95 q 0,0.9 0.05,1.875 0.075,0.95 0.225,1.675 l -1.375001,0 -0.5,-1.975 -0.125,0 q -0.575,0.975 -1.55,1.625 -0.975,0.65 -2.475,0.65 -1,0 -1.775,-0.25 -0.75,-0.225 -1.275,-0.825 -0.5,-0.6 -0.775,-1.6 -0.25,-1.025 -0.25,-2.575 l 0,-7.55 2,0 z"
         style=""
         id="path4412" />
      <path
         d="m 40.528914,1037.1621 2,0 0,12.5 -2,0 0,-12.5 z m -0.425,-3.8 q 0,-0.575 0.375,-0.975 0.4,-0.425 1,-0.425 0.6,0 1.025,0.425 0.425,0.4 0.425,0.975 0,0.575 -0.425,0.95 -0.425,0.375 -1.025,0.375 -0.6,0 -1,-0.375 -0.375,-0.375 -0.375,-0.95 z"
         style=""
         id="path4414" />
      <path
         d="m 49.018369,1046.5871 q 0,0.875 0.3,1.25 0.3,0.375 0.850001,0.375 0.325,0 0.7,-0.05 0.375,-0.05 0.85,-0.225 l 0.225,1.575 q -0.4,0.2 -1.125,0.325 -0.7,0.125 -1.225001,0.125 -1.125,0 -1.85,-0.625 -0.725,-0.65 -0.725,-2.175 l 0,-15 2,0 0,14.425 z"
         style=""
         id="path4416" />
      <path
         d="m 63.717589,1045.3621 q 0,1.275 0.025,2.325 0.025,1.025 0.225,2.025 l -1.35,0 -0.5,-1.775 -0.1,0 q -0.5,0.875 -1.450001,1.45 -0.95,0.575 -2.225,0.575 -2.5,0 -3.725,-1.575 -1.2,-1.575 -1.2,-4.925 0,-3.2 1.5,-4.85 1.525,-1.675 4.175,-1.675 0.925,0 1.45,0.1 0.550001,0.1 1.175001,0.325 l 0,-5.2 2,0 0,13.2 z m -5.050001,2.85 q 1.275,0 2.025001,-0.65 0.75,-0.675 1.025,-2.025 l 0,-6.2 q -0.45,-0.35 -1.025,-0.5 -0.575001,-0.15 -1.525001,-0.15 -1.725,0 -2.7,1.15 -0.975,1.125 -0.975,3.625 0,1.025 0.15,1.9 0.175,0.875 0.55,1.5 0.375,0.625 0.975,1 0.625,0.35 1.5,0.35 z"
         style=""
         id="path4418" />
    </g>
    <g
       style="font-style:normal;font-variant:normal;font-weight:normal;font-stretch:normal;font-size:25.00000191px;line-height:125%;font-family:'PT Sans';-inkscape-font-specification:'PT Sans';text-align:start;letter-spacing:0px;word-spacing:0px;text-anchor:start;fill:#000000;fill-opacity:1;stroke:none;stroke-width:1px;stroke-linecap:butt;stroke-linejoin:miter;stroke-opacity:1"
       id="text4277-4">
      <path
         d="m 299.62727,1042.9122 q 0,-1.05 -0.625,-1.7 -0.625,-0.675 -1.575,-1.175 -0.92501,-0.525 -2.02501,-0.975 -1.1,-0.45 -2.05,-1.075 -0.925,-0.65 -1.55,-1.575 -0.625,-0.95 -0.625,-2.4 0,-2.05 1.425,-3.25 1.425,-1.2 4.05,-1.2 1.52501,0 2.77501,0.225 1.25,0.225 1.95,0.575 l -0.625,1.825 q -0.575,-0.275 -1.7,-0.525 -1.1,-0.25 -2.50001,-0.25 -1.65,0 -2.475,0.75 -0.825,0.725 -0.825,1.725 0,0.975 0.625,1.625 0.625,0.65 1.55,1.175 0.95,0.5 2.05001,1 1.1,0.5 2.025,1.175 0.95,0.65 1.575,1.575 0.625,0.925 0.625,2.3 0,1.125 -0.4,2.025 -0.4,0.9 -1.175,1.55 -0.775,0.65 -1.875,1 -1.10001,0.35 -2.50001,0.35 -1.875,0 -3.1,-0.3 -1.225,-0.275 -1.9,-0.625 l 0.7,-1.875 q 0.575,0.325 1.7,0.65 1.125,0.3 2.525,0.3 0.825,0 1.55,-0.15 0.72501,-0.175 1.25001,-0.525 0.525,-0.375 0.825,-0.925 0.325,-0.55 0.325,-1.3 z"
         style=""
         id="path4401" />
      <path
         d="m 312.83352,1047.3622 0,-7.125 q 0,-0.975 -0.125,-1.7 -0.1,-0.75 -0.4,-1.225 -0.3,-0.5 -0.825,-0.75 -0.5,-0.25 -1.325,-0.25 -1.175,0 -2.125,0.775 -0.95,0.75 -1.225,1.95 l 0,8.325 -2,0 0,-17.5 2,0 0,6.4 0.1,0 q 0.65,-0.775 1.55,-1.225 0.925,-0.475 2.275,-0.475 1.05,0 1.825,0.25 0.775,0.225 1.275,0.825 0.525,0.6 0.75,1.625 0.25,1 0.25,2.55 l 0,7.55 -2,0 z"
         style=""
         id="path4403" />
      <path
         d="m 318.90539,1034.8622 2,0 0,12.5 -2,0 0,-12.5 z m -0.425,-3.8 q 0,-0.575 0.375,-0.975 0.4,-0.425 1,-0.425 0.6,0 1.025,0.425 0.425,0.4 0.425,0.975 0,0.575 -0.425,0.95 -0.425,0.375 -1.025,0.375 -0.6,0 -1,-0.375 -0.375,-0.375 -0.375,-0.95 z"
         style=""
         id="path4405" />
      <path
         d="m 325.16985,1034.8622 1.375,0 0.375,1.5 0.1,0 q 0.575,-0.875 1.475,-1.325 0.925,-0.475 2.1,-0.475 2.5,0 3.725,1.475 1.225,1.475 1.225,4.825 0,1.575 -0.425,2.85 -0.4,1.25 -1.15,2.125 -0.75,0.875 -1.825,1.35 -1.05,0.475 -2.35,0.475 -0.925,0 -1.475,-0.125 -0.525,-0.1 -1.15,-0.375 l 0,5.2 -2,0 0,-17.5 z m 5.05,1.45 q -1.275,0 -2.025,0.675 -0.725,0.65 -1.025,2 l 0,6.2 q 0.45,0.35 1.025,0.55 0.575,0.175 1.525,0.175 1.725,0 2.725,-1.275 1.025,-1.3 1.025,-3.8 0,-1.025 -0.175,-1.85 -0.175,-0.85 -0.575,-1.425 -0.375,-0.6 -1,-0.925 -0.6,-0.325 -1.5,-0.325 z"
         style=""
         id="path4407" />
    </g>
    <g
       inkscape:transform-center-x="13.01645"
       inkscape:transform-center-y="-7.0998816"
       style="font-style:normal;font-variant:normal;font-weight:normal;font-stretch:normal;font-size:25.00000191px;line-height:125%;font-family:'PT Sans';-inkscape-font-specification:'PT Sans';text-align:start;letter-spacing:0px;word-spacing:0px;text-anchor:start;fill:#000000;fill-opacity:1;stroke:none;stroke-width:1px;stroke-linecap:butt;stroke-linejoin:miter;stroke-opacity:1"
       id="text4277-4-9">
      <path
         d="m 569.22443,1032.3371 q 0.95,-0.175 2.175,-0.275 1.25,-0.1 2.275,-0.1 1.15,0 2.175,0.25 1.05,0.25 1.825,0.825 0.8,0.575 1.275,1.5 0.475,0.925 0.475,2.25 0,2.05 -1.125,3.325 -1.125,1.275 -2.85,1.7 l 1.2,0.925 4.35,6.925 -2.425,0 -4.825,-7.55 -2.45,-0.375 0,7.925 -2.075,0 0,-17.325 z m 4.5,1.425 q -0.325,0 -0.675,0 -0.35,0 -0.675,0.025 -0.325,0.025 -0.625,0.05 -0.275,0.025 -0.45,0.075 l 0,6.45 1.95,0 q 1.725,0 2.85,-0.85 1.125,-0.85 1.125,-2.65 0,-1.35 -0.925,-2.225 -0.925,-0.875 -2.575,-0.875 z"
         style=""
         id="path4394" />
      <path
         d="m 585.47287,1037.1621 0,7.125 q 0,0.975 0.1,1.725 0.125,0.725 0.4,1.225 0.275,0.475 0.75,0.725 0.475,0.25 1.2,0.25 0.675,0 1.2,-0.2 0.525,-0.225 0.925,-0.6 0.425,-0.375 0.725,-0.85 0.325,-0.5 0.525,-1.05 l 0,-8.35 2,0 0,8.95 q 0,0.9 0.05,1.875 0.075,0.95 0.225,1.675 l -1.375,0 -0.5,-1.975 -0.125,0 q -0.575,0.975 -1.55,1.625 -0.975,0.65 -2.475,0.65 -1,0 -1.775,-0.25 -0.75001,-0.225 -1.27501,-0.825 -0.5,-0.6 -0.775,-1.6 -0.25,-1.025 -0.25,-2.575 l 0,-7.55 2.00001,0 z"
         style=""
         id="path4396" />
      <path
         d="m 605.17443,1049.6621 0,-7.125 q 0,-1.95 -0.575,-2.925 -0.55,-1 -2.05,-1 -1.325,0 -2.2,0.725 -0.85,0.7 -1.2,1.775 l 0,8.55 -2,0 0,-12.5 1.4,0 0.375,1.525 0.1,0 q 0.6,-0.8 1.6,-1.3 1.025,-0.525 2.425,-0.525 1.025,0 1.8,0.25 0.775,0.225 1.275,0.825 0.525,0.6 0.775,1.625 0.275,1 0.275,2.55 l 0,7.55 -2,0 z"
         style=""
         id="path4398" />
    </g>
  </g>
</svg>
