<?xml version="1.0" encoding="UTF-8" standalone="no"?>
<!-- Created with Inkscape (http://www.inkscape.org/) -->

<svg
   xmlns:dc="http://purl.org/dc/elements/1.1/"
   xmlns:cc="http://creativecommons.org/ns#"
   xmlns:rdf="http://www.w3.org/1999/02/22-rdf-syntax-ns#"
   xmlns:svg="http://www.w3.org/2000/svg"
   xmlns="http://www.w3.org/2000/svg"
   xmlns:sodipodi="http://sodipodi.sourceforge.net/DTD/sodipodi-0.dtd"
   xmlns:inkscape="http://www.inkscape.org/namespaces/inkscape"
   width="429.91"
   height="506.23001"
   id="svg2"
   version="1.1"
   inkscape:version="0.91 r"
   sodipodi:docname="Cgroup_Hierarchy.svg">
  <defs
     id="defs4" />
  <sodipodi:namedview
     id="base"
     pagecolor="#ffffff"
     bordercolor="#666666"
     borderopacity="1.0"
     inkscape:pageopacity="0.0"
     inkscape:pageshadow="2"
     inkscape:zoom="1.4"
     inkscape:cx="239.12647"
     inkscape:cy="239.36654"
     inkscape:document-units="px"
     inkscape:current-layer="layer1"
     showgrid="false"
     inkscape:window-width="1672"
     inkscape:window-height="990"
     inkscape:window-x="0"
     inkscape:window-y="0"
     inkscape:window-maximized="1" />
  <metadata
     id="metadata7">
    <rdf:RDF>
      <cc:Work
         rdf:about="">
        <dc:format>image/svg+xml</dc:format>
        <dc:type
           rdf:resource="http://purl.org/dc/dcmitype/StillImage" />
        <dc:title />
      </cc:Work>
    </rdf:RDF>
  </metadata>
  <g
     inkscape:label="Layer 1"
     inkscape:groupmode="layer"
     id="layer1"
     transform="translate(0,-546.13219)">
    <rect
       style="color:#000000;display:inline;overflow:visible;visibility:visible;fill:#55cd91;fill-opacity:1;fill-rule:nonzero;stroke:#000000;stroke-width:1;stroke-linejoin:round;stroke-miterlimit:4;stroke-dasharray:none;stroke-dashoffset:0;stroke-opacity:1;marker:none;enable-background:accumulate"
       id="rect3755"
       width="106.87078"
       height="32.585064"
       x="0.50000292"
       y="571.64111" />
    <g
       style="font-style:normal;font-variant:normal;font-weight:normal;font-stretch:normal;font-size:24px;line-height:125%;font-family:'PT Sans';-inkscape-font-specification:'PT Sans';text-align:start;letter-spacing:0px;word-spacing:0px;text-anchor:start;fill:#000000;fill-opacity:1;stroke:none"
       id="text3757">
      <path
         d="m 45.797141,590.88567 q -0.72,0.528 -1.704,0.792 -0.984,0.288 -2.064,0.288 -1.392,0 -2.352,-0.432 -0.96,-0.456 -1.584,-1.272 -0.6,-0.84 -0.888,-1.992 -0.264,-1.176 -0.264,-2.592 0,-3.048 1.344,-4.656 1.344,-1.632 3.864,-1.632 1.152,0 1.944,0.192 0.816,0.168 1.464,0.504 l -0.552,1.656 q -0.552,-0.312 -1.224,-0.48 -0.672,-0.192 -1.44,-0.192 -3.408,0 -3.408,4.608 0,0.912 0.168,1.752 0.192,0.816 0.6,1.464 0.432,0.624 1.104,1.008 0.696,0.384 1.704,0.384 0.864,0 1.536,-0.264 0.696,-0.264 1.128,-0.6 l 0.624,1.464 z"
         style="text-align:center;text-anchor:middle"
         id="path3702" />
      <path
         d="m 48.441266,579.67767 1.32,0 0.36,1.44 0.096,0 q 0.552,-0.84 1.416,-1.272 0.888,-0.456 2.016,-0.456 2.4,0 3.576,1.416 1.176,1.416 1.176,4.632 0,1.512 -0.408,2.736 -0.384,1.2 -1.104,2.04 -0.72,0.84 -1.752,1.296 -1.008,0.456 -2.256,0.456 -0.888,0 -1.416,-0.12 -0.504,-0.096 -1.104,-0.36 l 0,4.992 -1.92,0 0,-16.8 z m 4.848,1.392 q -1.224,0 -1.944,0.648 -0.696,0.624 -0.984,1.92 l 0,5.952 q 0.432,0.336 0.984,0.528 0.552,0.168 1.464,0.168 1.656,0 2.616,-1.224 0.984,-1.248 0.984,-3.648 0,-0.984 -0.168,-1.776 -0.168,-0.816 -0.552,-1.368 -0.36,-0.576 -0.96,-0.888 -0.576,-0.312 -1.44,-0.312 z"
         style="text-align:center;text-anchor:middle"
         id="path3704" />
      <path
         d="m 63.153641,579.67767 0,6.84 q 0,0.936 0.096,1.656 0.12,0.696 0.384,1.176 0.264,0.456 0.72,0.696 0.456,0.24 1.152,0.24 0.648,0 1.152,-0.192 0.504,-0.216 0.888,-0.576 0.408,-0.36 0.696,-0.816 0.312,-0.48 0.504,-1.008 l 0,-8.016 1.92,0 0,8.592 q 0,0.864 0.048,1.8 0.072,0.912 0.216,1.608 l -1.32,0 -0.48,-1.896 -0.12,0 q -0.552,0.936 -1.488,1.56 -0.936,0.624 -2.376,0.624 -0.96,0 -1.704,-0.24 -0.72,-0.216 -1.224,-0.792 -0.48,-0.576 -0.744,-1.536 -0.24,-0.984 -0.24,-2.472 l 0,-7.248 1.92,0 z"
         style="text-align:center;text-anchor:middle"
         id="path3706" />
    </g>
    <g
       style="font-style:normal;font-variant:normal;font-weight:normal;font-stretch:normal;font-size:24px;line-height:100%;font-family:'PT Sans';-inkscape-font-specification:'PT Sans';text-align:start;letter-spacing:0px;word-spacing:0px;text-anchor:start;fill:#000000;fill-opacity:1;stroke:none"
       id="text3766">
      <path
         d="m 86.807394,621.84279 1.512,0.672 -8.76,19.776 -1.512,-0.672 8.76,-19.776 z"
         style="line-height:100%"
         id="path3631" />
      <path
         d="m 88.967394,662.13879 q -0.72,0.528 -1.704,0.792 -0.984,0.288 -2.064,0.288 -1.392,0 -2.352,-0.432 -0.96,-0.456 -1.584,-1.272 -0.6,-0.84 -0.888,-1.992 -0.264,-1.176 -0.264,-2.592 0,-3.048 1.344,-4.656 1.344,-1.632 3.864,-1.632 1.152,0 1.944,0.192 0.816,0.168 1.464,0.504 l -0.552,1.656 q -0.552,-0.312 -1.224,-0.48 -0.672,-0.192 -1.44,-0.192 -3.408,0 -3.408,4.608 0,0.912 0.168,1.752 0.192,0.816 0.6,1.464 0.432,0.624 1.104,1.008 0.696,0.384 1.704,0.384 0.864,0 1.536,-0.264 0.696,-0.264 1.128,-0.6 l 0.624,1.464 z"
         style="line-height:100%"
         id="path3633" />
      <path
         d="m 91.611519,650.93079 1.32,0 0.36,1.44 0.096,0 q 0.552,-0.84 1.416,-1.272 0.888,-0.456 2.016,-0.456 2.4,0 3.576001,1.416 1.176,1.416 1.176,4.632 0,1.512 -0.408,2.736 -0.384,1.2 -1.104,2.04 -0.720001,0.84 -1.752001,1.296 -1.008,0.456 -2.256,0.456 -0.888,0 -1.416,-0.12 -0.504,-0.096 -1.104,-0.36 l 0,4.992 -1.92,0 0,-16.8 z m 4.848,1.392 q -1.224,0 -1.944,0.648 -0.696,0.624 -0.984,1.92 l 0,5.952 q 0.432,0.336 0.984,0.528 0.552,0.168 1.464,0.168 1.656,0 2.616,-1.224 0.984,-1.248 0.984,-3.648 0,-0.984 -0.168,-1.776 -0.168,-0.816 -0.552,-1.368 -0.36,-0.576 -0.96,-0.888 -0.576,-0.312 -1.44,-0.312 z"
         style="line-height:100%"
         id="path3635" />
      <path
         d="m 106.32389,650.93079 0,6.84 q 0,0.936 0.096,1.656 0.12,0.696 0.384,1.176 0.264,0.456 0.72,0.696 0.456,0.24 1.152,0.24 0.648,0 1.152,-0.192 0.504,-0.216 0.888,-0.576 0.408,-0.36 0.696,-0.816 0.312,-0.48 0.504,-1.008 l 0,-8.016 1.92,0 0,8.592 q 0,0.864 0.048,1.8 0.072,0.912 0.216,1.608 l -1.32,0 -0.48,-1.896 -0.12,0 q -0.552,0.936 -1.488,1.56 -0.936,0.624 -2.376,0.624 -0.96,0 -1.704,-0.24 -0.72,-0.216 -1.224,-0.792 -0.48,-0.576 -0.744,-1.536 -0.24,-0.984 -0.24,-2.472 l 0,-7.248 1.92,0 z"
         style="line-height:100%"
         id="path3637" />
      <path
         d="m 116.86139,661.82679 q 0,-0.648 0.36,-1.008 0.384,-0.384 1.008,-0.384 0.648,0 1.032,0.384 0.384,0.36 0.384,1.008 0,0.624 -0.384,1.008 -0.384,0.384 -1.032,0.384 -0.624,0 -1.008,-0.384 -0.36,-0.384 -0.36,-1.008 z"
         style="line-height:100%"
         id="path3639" />
      <path
         d="m 127.96964,659.66679 q 0,-0.72 -0.432,-1.128 -0.432,-0.408 -1.08,-0.672 -0.624,-0.288 -1.392,-0.528 -0.744,-0.264 -1.392,-0.648 -0.624,-0.408 -1.056,-1.032 -0.432,-0.624 -0.432,-1.68 0,-1.728 0.984,-2.52 0.984,-0.816 2.736,-0.816 1.296,0 2.16,0.24 0.888,0.216 1.536,0.528 l -0.456,1.584 q -0.552,-0.264 -1.344,-0.456 -0.768,-0.216 -1.656,-0.216 -1.056,0 -1.56,0.36 -0.48,0.36 -0.48,1.248 0,0.624 0.432,0.984 0.432,0.336 1.056,0.624 0.648,0.264 1.392,0.528 0.768,0.264 1.392,0.696 0.648,0.432 1.08,1.104 0.432,0.648 0.432,1.728 0,0.768 -0.264,1.44 -0.24,0.672 -0.768,1.152 -0.528,0.48 -1.32,0.744 -0.768,0.288 -1.824,0.288 -1.368,0 -2.328,-0.264 -0.96,-0.264 -1.608,-0.624 l 0.576,-1.632 q 0.552,0.312 1.44,0.576 0.888,0.264 1.8,0.264 1.032,0 1.704,-0.408 0.672,-0.408 0.672,-1.464 z"
         style="line-height:100%"
         id="path3641" />
      <path
         d="m 140.51864,662.93079 0,-6.84 q 0,-0.936 -0.12,-1.632 -0.096,-0.72 -0.384,-1.176 -0.288,-0.48 -0.792,-0.72 -0.48,-0.24 -1.272,-0.24 -1.128,0 -2.04,0.744 -0.912,0.72 -1.176,1.872 l 0,7.992 -1.92,0 0,-16.8 1.92,0 0,6.144 0.096,0 q 0.624,-0.744 1.488,-1.176 0.888,-0.456 2.184,-0.456 1.008,0 1.752,0.24 0.744,0.216 1.224,0.792 0.504,0.576 0.72,1.56 0.24,0.96 0.24,2.448 l 0,7.248 -1.92,0 z"
         style="line-height:100%"
         id="path3643" />
      <path
         d="m 145.74764,651.81879 q 0.912,-0.552 2.112,-0.816 1.224,-0.264 2.544,-0.264 1.248,0 1.992,0.336 0.768,0.336 1.152,0.888 0.408,0.528 0.528,1.176 0.144,0.648 0.144,1.296 0,1.44 -0.072,2.808 -0.072,1.368 -0.072,2.592 0,0.888 0.072,1.68 0.072,0.792 0.264,1.464 l -1.416,0 -0.504,-1.68 -0.12,0 q -0.216,0.336 -0.552,0.672 -0.312,0.312 -0.768,0.576 -0.456,0.24 -1.056,0.408 -0.6,0.168 -1.368,0.168 -0.768,0 -1.44,-0.24 -0.648,-0.24 -1.128,-0.672 -0.48,-0.456 -0.768,-1.08 -0.264,-0.624 -0.264,-1.416 0,-1.056 0.432,-1.752 0.432,-0.72 1.2,-1.128 0.792,-0.432 1.872,-0.6 1.104,-0.192 2.424,-0.192 0.336,0 0.648,0 0.336,0 0.672,0.048 0.072,-0.72 0.072,-1.296 0,-1.32 -0.528,-1.848 -0.528,-0.528 -1.92,-0.528 -0.408,0 -0.888,0.072 -0.456,0.048 -0.96,0.168 -0.48,0.096 -0.936,0.264 -0.432,0.144 -0.768,0.336 l -0.6,-1.44 z m 3.408,9.624 q 0.672,0 1.2,-0.168 0.528,-0.192 0.912,-0.456 0.384,-0.288 0.624,-0.624 0.264,-0.336 0.384,-0.648 l 0,-1.992 q -0.336,-0.024 -0.696,-0.024 -0.336,-0.024 -0.672,-0.024 -0.744,0 -1.464,0.096 -0.696,0.072 -1.248,0.312 -0.528,0.216 -0.864,0.624 -0.312,0.384 -0.312,0.984 0,0.84 0.6,1.392 0.6,0.528 1.536,0.528 z"
         style="line-height:100%"
         id="path3645" />
      <path
         d="m 163.50989,652.77879 q -0.72,-0.24 -1.368,-0.24 -1.032,0 -1.632,0.576 -0.6,0.552 -0.744,1.416 l 0,8.4 -1.92,0 0,-12 1.344,0 0.36,1.464 0.096,0 q 0.456,-0.816 1.08,-1.248 0.648,-0.456 1.632,-0.456 0.696,0 1.56,0.24 l -0.408,1.848 z"
         style="line-height:100%"
         id="path3647" />
      <path
         d="m 174.76214,661.97079 q -0.72,0.576 -1.824,0.912 -1.08,0.336 -2.304,0.336 -1.368,0 -2.376,-0.432 -1.008,-0.456 -1.656,-1.272 -0.648,-0.84 -0.96,-1.992 -0.312,-1.152 -0.312,-2.592 0,-3.072 1.368,-4.68 1.368,-1.608 3.912,-1.608 0.816,0 1.632,0.192 0.816,0.168 1.464,0.672 0.648,0.504 1.056,1.44 0.408,0.912 0.408,2.424 0,0.792 -0.144,1.752 l -7.704,0 q 0,1.056 0.216,1.872 0.216,0.816 0.672,1.392 0.456,0.552 1.176,0.864 0.744,0.288 1.8,0.288 0.816,0 1.632,-0.288 0.816,-0.288 1.224,-0.672 l 0.72,1.392 z m -4.128,-9.648 q -1.416,0 -2.28,0.744 -0.84,0.744 -1.008,2.544 l 5.952,0 q 0,-1.824 -0.696,-2.544 -0.696,-0.744 -1.968,-0.744 z"
         style="line-height:100%"
         id="path3649" />
      <path
         d="m 183.46964,659.66679 q 0,-0.72 -0.432,-1.128 -0.432,-0.408 -1.08,-0.672 -0.624,-0.288 -1.392,-0.528 -0.744,-0.264 -1.392,-0.648 -0.624,-0.408 -1.056,-1.032 -0.432,-0.624 -0.432,-1.68 0,-1.728 0.984,-2.52 0.984,-0.816 2.736,-0.816 1.296,0 2.16,0.24 0.888,0.216 1.536,0.528 l -0.456,1.584 q -0.552,-0.264 -1.344,-0.456 -0.768,-0.216 -1.656,-0.216 -1.056,0 -1.56,0.36 -0.48,0.36 -0.48,1.248 0,0.624 0.432,0.984 0.432,0.336 1.056,0.624 0.648,0.264 1.392,0.528 0.768,0.264 1.392,0.696 0.648,0.432 1.08,1.104 0.432,0.648 0.432,1.728 0,0.768 -0.264,1.44 -0.24,0.672 -0.768,1.152 -0.528,0.48 -1.32,0.744 -0.768,0.288 -1.824,0.288 -1.368,0 -2.328,-0.264 -0.96,-0.264 -1.608,-0.624 l 0.576,-1.632 q 0.552,0.312 1.44,0.576 0.888,0.264 1.8,0.264 1.032,0 1.704,-0.408 0.672,-0.408 0.672,-1.464 z"
         style="line-height:100%"
         id="path3651" />
      <path
         d="m 187.42664,651.96279 10.176,0 0,1.728 -10.176,0 0,-1.728 z m 0,3.984 10.176,0 0,1.728 -10.176,0 0,-1.728 z"
         style="line-height:100%"
         id="path3653" />
      <path
         d="m 201.19927,661.15479 3.36,0 0,-11.616 0.24,-1.416 -0.96,1.128 -2.64,1.896 -0.912,-1.224 5.28,-4.08 0.864,0 0,15.312 3.288,0 0,1.776 -8.52,0 0,-1.776 z"
         style="line-height:100%"
         id="path3655" />
      <path
         d="m 212.71739,654.53079 q 0,-4.32 1.392,-6.504 1.416,-2.184 4.104,-2.184 2.904,0 4.2,2.16 1.32,2.136 1.32,6.528 0,4.32 -1.416,6.504 -1.392,2.184 -4.104,2.184 -2.856,0 -4.176,-2.28 -1.32,-2.28 -1.32,-6.408 z m 1.992,0 q 0,1.56 0.192,2.856 0.216,1.272 0.648,2.208 0.432,0.912 1.08,1.44 0.672,0.504 1.584,0.504 1.824,0 2.664,-1.68 0.864,-1.704 0.864,-5.328 0,-1.536 -0.192,-2.832 -0.168,-1.296 -0.6,-2.232 -0.408,-0.936 -1.08,-1.44 -0.672,-0.504 -1.656,-0.504 -1.8,0 -2.664,1.704 -0.84,1.704 -0.84,5.304 z"
         style="line-height:100%"
         id="path3657" />
      <path
         d="m 235.46752,649.94679 q 0,1.272 -0.48,2.616 -0.456,1.32 -1.224,2.664 -0.744,1.344 -1.68,2.64 -0.936,1.272 -1.872,2.424 l -1.176,1.032 0,0.096 1.536,-0.264 5.232,0 0,1.776 -9.552,0 0,-0.696 q 0.528,-0.552 1.272,-1.368 0.744,-0.816 1.536,-1.8 0.816,-1.008 1.584,-2.112 0.792,-1.128 1.416,-2.28 0.648,-1.152 1.032,-2.28 0.384,-1.128 0.384,-2.136 0,-1.176 -0.672,-1.944 -0.672,-0.792 -2.04,-0.792 -0.912,0 -1.776,0.384 -0.864,0.36 -1.488,0.84 l -0.792,-1.368 q 0.84,-0.72 1.992,-1.128 1.152,-0.408 2.472,-0.408 1.032,0 1.824,0.312 0.792,0.288 1.344,0.84 0.552,0.552 0.84,1.32 0.288,0.744 0.288,1.632 z"
         style="line-height:100%"
         id="path3659" />
      <path
         d="m 250.41764,657.77079 -2.832,0 0,5.16 -1.872,0 0,-5.16 -7.392,0 0,-0.792 7.968,-11.112 1.296,0 0,10.224 2.832,0 0,1.68 z m -4.704,-6.912 0.24,-1.968 -0.072,0 -0.84,1.632 -3.384,4.584 -1.152,1.176 1.68,-0.192 3.528,0 0,-5.232 z"
         style="line-height:100%"
         id="path3661" />
      <path
         d="m 79.199394,674.93079 1.872,0 0,-2.376 1.92,-0.552 0,2.928 3.264,0 0,1.68 -3.264,0 0,6.648 q 0,1.248 0.312,1.776 0.312,0.504 1.056,0.504 0.624,0 1.056,-0.12 0.432,-0.144 0.96,-0.36 l 0.432,1.464 q -0.648,0.312 -1.416,0.504 -0.768,0.192 -1.656,0.192 -1.464,0 -2.064,-0.816 -0.6,-0.84 -0.6,-2.784 l 0,-7.008 -1.872,0 0,-1.68 z"
         style="line-height:100%"
         id="path3663" />
      <path
         d="m 88.747644,675.81879 q 0.912,-0.552 2.112,-0.816 1.224,-0.264 2.544,-0.264 1.248,0 1.992,0.336 0.768,0.336 1.152,0.888 0.408,0.528 0.528,1.176 0.144,0.648 0.144,1.296 0,1.44 -0.072,2.808 -0.072,1.368 -0.072,2.592 0,0.888 0.072,1.68 0.072,0.792 0.264,1.464 l -1.416,0 -0.504,-1.68 -0.12,0 q -0.216,0.336 -0.552,0.672 -0.312,0.312 -0.768,0.576 -0.456,0.24 -1.056,0.408 -0.6,0.168 -1.368,0.168 -0.768,0 -1.44,-0.24 -0.648,-0.24 -1.128,-0.672 -0.48,-0.456 -0.768,-1.08 -0.264,-0.624 -0.264,-1.416 0,-1.056 0.432,-1.752 0.432,-0.72 1.2,-1.128 0.792,-0.432 1.872,-0.6 1.104,-0.192 2.424,-0.192 0.336,0 0.648,0 0.336,0 0.672,0.048 0.072,-0.72 0.072,-1.296 0,-1.32 -0.528,-1.848 -0.528,-0.528 -1.92,-0.528 -0.408,0 -0.888,0.072 -0.456,0.048 -0.96,0.168 -0.48,0.096 -0.936,0.264 -0.432,0.144 -0.768,0.336 l -0.6,-1.44 z m 3.408,9.624 q 0.672,0 1.2,-0.168 0.528,-0.192 0.912,-0.456 0.384,-0.288 0.624,-0.624 0.264,-0.336 0.384,-0.648 l 0,-1.992 q -0.336,-0.024 -0.696,-0.024 -0.336,-0.024 -0.672,-0.024 -0.744,0 -1.464,0.096 -0.696,0.072 -1.248,0.312 -0.528,0.216 -0.864,0.624 -0.312,0.384 -0.312,0.984 0,0.84 0.6,1.392 0.6,0.528 1.536,0.528 z"
         style="line-height:100%"
         id="path3665" />
      <path
         d="m 106.12589,683.66679 q 0,-0.72 -0.432,-1.128 -0.432,-0.408 -1.08,-0.672 -0.624,-0.288 -1.392,-0.528 -0.744,-0.264 -1.392,-0.648 -0.624,-0.408 -1.056,-1.032 -0.432,-0.624 -0.432,-1.68 0,-1.728 0.984,-2.52 0.984,-0.816 2.736,-0.816 1.296,0 2.16,0.24 0.888,0.216 1.536,0.528 l -0.456,1.584 q -0.552,-0.264 -1.344,-0.456 -0.768,-0.216 -1.656,-0.216 -1.056,0 -1.56,0.36 -0.48,0.36 -0.48,1.248 0,0.624 0.432,0.984 0.432,0.336 1.056,0.624 0.648,0.264 1.392,0.528 0.768,0.264 1.392,0.696 0.648,0.432 1.08,1.104 0.432,0.648 0.432,1.728 0,0.768 -0.264,1.44 -0.24,0.672 -0.768,1.152 -0.528,0.48 -1.32,0.744 -0.768,0.288 -1.824,0.288 -1.368,0 -2.328,-0.264 -0.96,-0.264 -1.607996,-0.624 l 0.575996,-1.632 q 0.552,0.312 1.44,0.576 0.888,0.264 1.8,0.264 1.032,0 1.704,-0.408 0.672,-0.408 0.672,-1.464 z"
         style="line-height:100%"
         id="path3667" />
      <path
         d="m 113.99489,681.53079 -1.104,0 0,5.4 -1.92,0 0,-16.8 1.92,0 0,10.224 0.984,-0.336 3.72,-5.088 2.232,0 -3.672,4.824 -0.984,0.792 1.2,0.96 4.008,5.424 -2.376,0 -4.008,-5.4 z"
         style="line-height:100%"
         id="path3669" />
      <path
         d="m 127.73527,683.66679 q 0,-0.72 -0.432,-1.128 -0.432,-0.408 -1.08,-0.672 -0.624,-0.288 -1.392,-0.528 -0.744,-0.264 -1.392,-0.648 -0.624,-0.408 -1.056,-1.032 -0.432,-0.624 -0.432,-1.68 0,-1.728 0.984,-2.52 0.984,-0.816 2.736,-0.816 1.296,0 2.16,0.24 0.888,0.216 1.536,0.528 l -0.456,1.584 q -0.552,-0.264 -1.344,-0.456 -0.768,-0.216 -1.656,-0.216 -1.056,0 -1.56,0.36 -0.48,0.36 -0.48,1.248 0,0.624 0.432,0.984 0.432,0.336 1.056,0.624 0.648,0.264 1.392,0.528 0.768,0.264 1.392,0.696 0.648,0.432 1.08,1.104 0.432,0.648 0.432,1.728 0,0.768 -0.264,1.44 -0.24,0.672 -0.768,1.152 -0.528,0.48 -1.32,0.744 -0.768,0.288 -1.824,0.288 -1.368,0 -2.328,-0.264 -0.96,-0.264 -1.608,-0.624 l 0.576,-1.632 q 0.552,0.312 1.44,0.576 0.888,0.264 1.8,0.264 1.032,0 1.704,-0.408 0.672,-0.408 0.672,-1.464 z"
         style="line-height:100%"
         id="path3671" />
      <path
         d="m 131.69227,675.96279 10.176,0 0,1.728 -10.176,0 0,-1.728 z m 0,3.984 10.176,0 0,1.728 -10.176,0 0,-1.728 z"
         style="line-height:100%"
         id="path3673" />
      <path
         d="m 145.46489,685.15479 3.36,0 0,-11.616 0.24,-1.416 -0.96,1.128 -2.64,1.896 -0.912,-1.224 5.28,-4.08 0.864,0 0,15.312 3.288,0 0,1.776 -8.52,0 0,-1.776 z"
         style="line-height:100%"
         id="path3675" />
      <path
         d="m 157.12702,685.89879 q 0,-0.576 0.384,-0.936 0.384,-0.36 0.984,-0.36 0.744,0 1.2,0.528 0.48,0.528 0.48,1.536 0,0.864 -0.24,1.512 -0.24,0.648 -0.624,1.104 -0.384,0.48 -0.84,0.768 -0.456,0.312 -0.912,0.456 l -0.6,-0.936 q 0.864,-0.336 1.272,-1.056 0.432,-0.696 0.432,-1.416 -0.216,0.072 -0.408,0.072 -0.48,0 -0.816,-0.312 -0.312,-0.336 -0.312,-0.96 z"
         style="line-height:100%"
         id="path3677" />
      <path
         d="m 175.88939,673.94679 q 0,1.272 -0.48,2.616 -0.456,1.32 -1.224,2.664 -0.744,1.344 -1.68,2.64 -0.936,1.272 -1.872,2.424 l -1.176,1.032 0,0.096 1.536,-0.264 5.232,0 0,1.776 -9.552,0 0,-0.696 q 0.528,-0.552 1.272,-1.368 0.744,-0.816 1.536,-1.8 0.816,-1.008 1.584,-2.112 0.792,-1.128 1.416,-2.28 0.648,-1.152 1.032,-2.28 0.384,-1.128 0.384,-2.136 0,-1.176 -0.672,-1.944 -0.672,-0.792 -2.04,-0.792 -0.912,0 -1.776,0.384 -0.864,0.36 -1.488,0.84 l -0.792,-1.368 q 0.84,-0.72 1.992,-1.128 1.152,-0.408 2.472,-0.408 1.032,0 1.824,0.312 0.792,0.288 1.344,0.84 0.552,0.552 0.84,1.32 0.288,0.744 0.288,1.632 z"
         style="line-height:100%"
         id="path3679" />
      <path
         d="m 179.43952,685.89879 q 0,-0.576 0.384,-0.936 0.384,-0.36 0.984,-0.36 0.744,0 1.2,0.528 0.48,0.528 0.48,1.536 0,0.864 -0.24,1.512 -0.24,0.648 -0.624,1.104 -0.384,0.48 -0.84,0.768 -0.456,0.312 -0.912,0.456 l -0.6,-0.936 q 0.864,-0.336 1.272,-1.056 0.432,-0.696 0.432,-1.416 -0.216,0.072 -0.408,0.072 -0.48,0 -0.816,-0.312 -0.312,-0.336 -0.312,-0.96 z"
         style="line-height:100%"
         id="path3681" />
      <path
         d="m 193.11389,685.53879 q 0.816,0 1.512,-0.24 0.696,-0.24 1.2,-0.696 0.504,-0.48 0.792,-1.128 0.288,-0.648 0.288,-1.416 0,-1.68 -1.008,-2.496 -0.984,-0.816 -2.736,-0.816 l -1.776,0 0,-0.696 3.456,-5.328 1.104,-1.056 -1.56,0.24 -4.752,0 0,-1.776 8.568,0 0,0.696 -3.816,5.736 -0.84,0.696 0,0.048 0.816,-0.168 q 0.96,0.024 1.776,0.36 0.816,0.312 1.416,0.936 0.6,0.6 0.936,1.464 0.336,0.84 0.336,1.92 0,1.296 -0.456,2.304 -0.456,1.008 -1.248,1.704 -0.768,0.672 -1.824,1.032 -1.056,0.36 -2.232,0.36 -1.08,0 -1.944,-0.168 -0.864,-0.168 -1.512,-0.432 l 0.504,-1.704 q 0.552,0.264 1.296,0.456 0.768,0.168 1.704,0.168 z"
         style="line-height:100%"
         id="path3683" />
      <path
         d="m 201.75202,685.89879 q 0,-0.576 0.384,-0.936 0.384,-0.36 0.984,-0.36 0.744,0 1.2,0.528 0.48,0.528 0.48,1.536 0,0.864 -0.24,1.512 -0.24,0.648 -0.624,1.104 -0.384,0.48 -0.84,0.768 -0.456,0.312 -0.912,0.456 l -0.6,-0.936 q 0.864,-0.336 1.272,-1.056 0.432,-0.696 0.432,-1.416 -0.216,0.072 -0.408,0.072 -0.48,0 -0.816,-0.312 -0.312,-0.336 -0.312,-0.96 z"
         style="line-height:100%"
         id="path3685" />
      <path
         d="m 214.92239,685.53879 q 1.656,0 2.736,-0.96 1.08,-0.96 1.08,-2.784 0,-1.752 -1.08,-2.616 -1.056,-0.864 -2.928,-0.864 l -2.016,0.12 0,-8.304 7.488,0 0,1.776 -5.688,0 0,4.776 1.032,-0.048 q 2.376,0.024 3.744,1.32 1.368,1.296 1.368,3.72 0,1.344 -0.456,2.4 -0.456,1.032 -1.248,1.728 -0.768,0.696 -1.824,1.056 -1.056,0.36 -2.256,0.36 -1.08,0 -1.824,-0.12 -0.744,-0.12 -1.392,-0.36 l 0.504,-1.632 q 0.552,0.216 1.176,0.336 0.648,0.096 1.584,0.096 z"
         style="line-height:100%"
         id="path3687" />
      <path
         d="m 224.06452,685.89879 q 0,-0.576 0.384,-0.936 0.384,-0.36 0.984,-0.36 0.744,0 1.2,0.528 0.48,0.528 0.48,1.536 0,0.864 -0.24,1.512 -0.24,0.648 -0.624,1.104 -0.384,0.48 -0.84,0.768 -0.456,0.312 -0.912,0.456 l -0.6,-0.936 q 0.864,-0.336 1.272,-1.056 0.432,-0.696 0.432,-1.416 -0.216,0.072 -0.408,0.072 -0.48,0 -0.816,-0.312 -0.312,-0.336 -0.312,-0.96 z"
         style="line-height:100%"
         id="path3689" />
      <path
         d="m 234.76289,686.93079 6.024,-14.064 1.056,-1.176 -1.416,0.216 -6.84,0 0,-1.776 10.032,0 0,0.648 -6.912,16.152 -1.944,0 z"
         style="line-height:100%"
         id="path3691" />
      <path
         d="m 251.15827,685.82679 q 0,-0.648 0.36,-1.008 0.384,-0.384 1.008,-0.384 0.648,0 1.032,0.384 0.384,0.36 0.384,1.008 0,0.624 -0.384,1.008 -0.384,0.384 -1.032,0.384 -0.624,0 -1.008,-0.384 -0.36,-0.384 -0.36,-1.008 z"
         style="line-height:100%"
         id="path3693" />
      <path
         d="m 257.86139,685.82679 q 0,-0.648 0.36,-1.008 0.384,-0.384 1.008,-0.384 0.648,0 1.032,0.384 0.384,0.36 0.384,1.008 0,0.624 -0.384,1.008 -0.384,0.384 -1.032,0.384 -0.624,0 -1.008,-0.384 -0.36,-0.384 -0.36,-1.008 z"
         style="line-height:100%"
         id="path3695" />
      <path
         d="m 264.56452,685.82679 q 0,-0.648 0.36,-1.008 0.384,-0.384 1.008,-0.384 0.648,0 1.032,0.384 0.384,0.36 0.384,1.008 0,0.624 -0.384,1.008 -0.384,0.384 -1.032,0.384 -0.624,0 -1.008,-0.384 -0.36,-0.384 -0.36,-1.008 z"
         style="line-height:100%"
         id="path3697" />
      <path
         d="m 271.26764,685.82679 q 0,-0.648 0.36,-1.008 0.384,-0.384 1.008,-0.384 0.648,0 1.032,0.384 0.384,0.36 0.384,1.008 0,0.624 -0.384,1.008 -0.384,0.384 -1.032,0.384 -0.624,0 -1.008,-0.384 -0.36,-0.384 -0.36,-1.008 z"
         style="line-height:100%"
         id="path3699" />
    </g>
    <path
       style="fill:none;stroke:#000000;stroke-width:4;stroke-linecap:butt;stroke-linejoin:miter;stroke-miterlimit:4;stroke-dasharray:none;stroke-opacity:1"
       d="m 54.649674,641.20899 0,335.72422"
       id="path3787"
       inkscape:connector-curvature="0" />
    <circle
       r="11.071428"
       cy="630.7193"
       cx="53.93539"
       style="color:#000000;display:inline;overflow:visible;visibility:visible;fill:#cd5555;fill-opacity:1;fill-rule:nonzero;stroke:#000000;stroke-width:1;stroke-linejoin:round;stroke-miterlimit:4;stroke-dasharray:none;stroke-dashoffset:0;stroke-opacity:1;marker:none;enable-background:accumulate"
       id="path2985" />
    <path
       style="fill:none;stroke:#000000;stroke-width:4;stroke-linecap:butt;stroke-linejoin:miter;stroke-miterlimit:4;stroke-dasharray:none;stroke-opacity:1"
       d="m 54.649674,736.07647 73.571436,0"
       id="path3789"
       inkscape:connector-curvature="0" />
    <g
       style="font-style:normal;font-variant:normal;font-weight:normal;font-stretch:normal;font-size:24px;line-height:100%;font-family:'PT Sans';-inkscape-font-specification:'PT Sans';text-align:start;letter-spacing:0px;word-spacing:0px;text-anchor:start;fill:#000000;fill-opacity:1;stroke:none"
       id="text3809">
      <path
         d="m 174.71367,740.20446 q 0,1.224 0.024,2.232 0.024,0.984 0.216,1.944 l -1.296,0 -0.48,-1.704 -0.096,0 q -0.48,0.84 -1.392,1.392 -0.912,0.552 -2.136,0.552 -2.4,0 -3.576,-1.512 -1.152,-1.512 -1.152,-4.728 0,-3.072 1.44,-4.656 1.464,-1.608 4.008,-1.608 0.888,0 1.392,0.096 0.528,0.096 1.128,0.312 l 0,-4.992 1.92,0 0,12.672 z m -4.848,2.736 q 1.224,0 1.944,-0.624 0.72,-0.648 0.984,-1.944 l 0,-5.952 q -0.432,-0.336 -0.984,-0.48 -0.552,-0.144 -1.464,-0.144 -1.656,0 -2.592,1.104 -0.936,1.08 -0.936,3.48 0,0.984 0.144,1.824 0.168,0.84 0.528,1.44 0.36,0.6 0.936,0.96 0.6,0.336 1.44,0.336 z"
         style="line-height:100%"
         id="path3576" />
      <path
         d="m 177.7163,738.33246 q 0,-3.048 1.344,-4.656 1.368,-1.632 3.912,-1.632 1.344,0 2.328,0.456 1.008,0.432 1.656,1.272 0.648,0.816 0.96,1.992 0.312,1.152 0.312,2.568 0,3.048 -1.368,4.68 -1.344,1.608 -3.888,1.608 -1.344,0 -2.352,-0.432 -0.984,-0.456 -1.632,-1.272 -0.648,-0.84 -0.96,-1.992 -0.312,-1.176 -0.312,-2.592 z m 1.992,0 q 0,0.912 0.168,1.752 0.192,0.84 0.576,1.464 0.384,0.624 1.008,1.008 0.624,0.384 1.512,0.384 3.264,0.024 3.264,-4.608 0,-0.936 -0.192,-1.776 -0.168,-0.84 -0.552,-1.464 -0.384,-0.624 -1.008,-0.984 -0.624,-0.384 -1.512,-0.384 -3.264,-0.024 -3.264,4.608 z"
         style="line-height:100%"
         id="path3578" />
      <path
         d="m 199.41605,743.54046 q -0.72,0.528 -1.704,0.792 -0.984,0.288 -2.064,0.288 -1.392,0 -2.352,-0.432 -0.96,-0.456 -1.584,-1.272 -0.6,-0.84 -0.888,-1.992 -0.264,-1.176 -0.264,-2.592 0,-3.048 1.344,-4.656 1.344,-1.632 3.864,-1.632 1.152,0 1.944,0.192 0.816,0.168 1.464,0.504 l -0.552,1.656 q -0.552,-0.312 -1.224,-0.48 -0.672,-0.192 -1.44,-0.192 -3.408,0 -3.408,4.608 0,0.912 0.168,1.752 0.192,0.816 0.6,1.464 0.432,0.624 1.104,1.008 0.696,0.384 1.704,0.384 0.864,0 1.536,-0.264 0.696,-0.264 1.128,-0.6 l 0.624,1.464 z"
         style="line-height:100%"
         id="path3580" />
      <path
         d="m 205.08417,738.93246 -1.104,0 0,5.4 -1.92,0 0,-16.8 1.92,0 0,10.224 0.984,-0.336 3.72,-5.088 2.232,0 -3.672,4.824 -0.984,0.792 1.2,0.96 4.008,5.424 -2.376,0 -4.008,-5.4 z"
         style="line-height:100%"
         id="path3582" />
      <path
         d="m 222.0233,743.37246 q -0.72,0.576 -1.824,0.912 -1.08,0.336 -2.304,0.336 -1.368,0 -2.376,-0.432 -1.008,-0.456 -1.656,-1.272 -0.648,-0.84 -0.96,-1.992 -0.312,-1.152 -0.312,-2.592 0,-3.072 1.368,-4.68 1.368,-1.608 3.912,-1.608 0.816,0 1.632,0.192 0.816,0.168 1.464,0.672 0.648,0.504 1.056,1.44 0.408,0.912 0.408,2.424 0,0.792 -0.144,1.752 l -7.704,0 q 0,1.056 0.216,1.872 0.216,0.816 0.672,1.392 0.456,0.552 1.176,0.864 0.744,0.288 1.8,0.288 0.816,0 1.632,-0.288 0.816,-0.288 1.224,-0.672 l 0.72,1.392 z m -4.128,-9.648 q -1.416,0 -2.28,0.744 -0.84,0.744 -1.008,2.544 l 5.952,0 q 0,-1.824 -0.696,-2.544 -0.696,-0.744 -1.968,-0.744 z"
         style="line-height:100%"
         id="path3584" />
      <path
         d="m 231.1148,734.18046 q -0.72,-0.24 -1.368,-0.24 -1.032,0 -1.632,0.576 -0.6,0.552 -0.744,1.416 l 0,8.4 -1.92,0 0,-12 1.344,0 0.36,1.464 0.096,0 q 0.456,-0.816 1.08,-1.248 0.648,-0.456 1.632,-0.456 0.696,0 1.56,0.24 l -0.408,1.848 z"
         style="line-height:100%"
         id="path3586" />
      <path
         d="m 173.68167,767.54046 q -0.72,0.528 -1.704,0.792 -0.984,0.288 -2.064,0.288 -1.392,0 -2.352,-0.432 -0.96,-0.456 -1.584,-1.272 -0.6,-0.84 -0.888,-1.992 -0.264,-1.176 -0.264,-2.592 0,-3.048 1.344,-4.656 1.344,-1.632 3.864,-1.632 1.152,0 1.944,0.192 0.816,0.168 1.464,0.504 l -0.552,1.656 q -0.552,-0.312 -1.224,-0.48 -0.672,-0.192 -1.44,-0.192 -3.408,0 -3.408,4.608 0,0.912 0.168,1.752 0.192,0.816 0.6,1.464 0.432,0.624 1.104,1.008 0.696,0.384 1.704,0.384 0.864,0 1.536,-0.264 0.696,-0.264 1.128,-0.6 l 0.624,1.464 z"
         style="line-height:100%"
         id="path3588" />
      <path
         d="m 176.3258,756.33246 1.32,0 0.36,1.44 0.096,0 q 0.552,-0.84 1.416,-1.272 0.888,-0.456 2.016,-0.456 2.4,0 3.576,1.416 1.176,1.416 1.176,4.632 0,1.512 -0.408,2.736 -0.384,1.2 -1.104,2.04 -0.72,0.84 -1.752,1.296 -1.008,0.456 -2.256,0.456 -0.888,0 -1.416,-0.12 -0.504,-0.096 -1.104,-0.36 l 0,4.992 -1.92,0 0,-16.8 z m 4.848,1.392 q -1.224,0 -1.944,0.648 -0.696,0.624 -0.984,1.92 l 0,5.952 q 0.432,0.336 0.984,0.528 0.552,0.168 1.464,0.168 1.656,0 2.616,-1.224 0.984,-1.248 0.984,-3.648 0,-0.984 -0.168,-1.776 -0.168,-0.816 -0.552,-1.368 -0.36,-0.576 -0.96,-0.888 -0.576,-0.312 -1.44,-0.312 z"
         style="line-height:100%"
         id="path3590" />
      <path
         d="m 191.03817,756.33246 0,6.84 q 0,0.936 0.096,1.656 0.12,0.696 0.384,1.176 0.264,0.456 0.72,0.696 0.456,0.24 1.152,0.24 0.648,0 1.152,-0.192 0.504,-0.216 0.888,-0.576 0.408,-0.36 0.696,-0.816 0.312,-0.48 0.504,-1.008 l 0,-8.016 1.92,0 0,8.592 q 0,0.864 0.048,1.8 0.072,0.912 0.216,1.608 l -1.32,0 -0.48,-1.896 -0.12,0 q -0.552,0.936 -1.488,1.56 -0.936,0.624 -2.376,0.624 -0.96,0 -1.704,-0.24 -0.72,-0.216 -1.224,-0.792 -0.48,-0.576 -0.744,-1.536 -0.24,-0.984 -0.24,-2.472 l 0,-7.248 1.92,0 z"
         style="line-height:100%"
         id="path3592" />
      <path
         d="m 201.57567,767.22846 q 0,-0.648 0.36,-1.008 0.384,-0.384 1.008,-0.384 0.648,0 1.032,0.384 0.384,0.36 0.384,1.008 0,0.624 -0.384,1.008 -0.384,0.384 -1.032,0.384 -0.624,0 -1.008,-0.384 -0.36,-0.384 -0.36,-1.008 z"
         style="line-height:100%"
         id="path3594" />
      <path
         d="m 212.68392,765.06846 q 0,-0.72 -0.432,-1.128 -0.432,-0.408 -1.08,-0.672 -0.624,-0.288 -1.392,-0.528 -0.744,-0.264 -1.392,-0.648 -0.624,-0.408 -1.056,-1.032 -0.432,-0.624 -0.432,-1.68 0,-1.728 0.984,-2.52 0.984,-0.816 2.736,-0.816 1.296,0 2.16,0.24 0.888,0.216 1.536,0.528 l -0.456,1.584 q -0.552,-0.264 -1.344,-0.456 -0.768,-0.216 -1.656,-0.216 -1.056,0 -1.56,0.36 -0.48,0.36 -0.48,1.248 0,0.624 0.432,0.984 0.432,0.336 1.056,0.624 0.648,0.264 1.392,0.528 0.768,0.264 1.392,0.696 0.648,0.432 1.08,1.104 0.432,0.648 0.432,1.728 0,0.768 -0.264,1.44 -0.24,0.672 -0.768,1.152 -0.528,0.48 -1.32,0.744 -0.768,0.288 -1.824,0.288 -1.368,0 -2.328,-0.264 -0.96,-0.264 -1.608,-0.624 l 0.576,-1.632 q 0.552,0.312 1.44,0.576 0.888,0.264 1.8,0.264 1.032,0 1.704,-0.408 0.672,-0.408 0.672,-1.464 z"
         style="line-height:100%"
         id="path3596" />
      <path
         d="m 225.23292,768.33246 0,-6.84 q 0,-0.936 -0.12,-1.632 -0.096,-0.72 -0.384,-1.176 -0.288,-0.48 -0.792,-0.72 -0.48,-0.24 -1.272,-0.24 -1.128,0 -2.04,0.744 -0.912,0.72 -1.176,1.872 l 0,7.992 -1.92,0 0,-16.8 1.92,0 0,6.144 0.096,0 q 0.624,-0.744 1.488,-1.176 0.888,-0.456 2.184,-0.456 1.008,0 1.752,0.24 0.744,0.216 1.224,0.792 0.504,0.576 0.72,1.56 0.24,0.96 0.24,2.448 l 0,7.248 -1.92,0 z"
         style="line-height:100%"
         id="path3598" />
      <path
         d="m 230.46192,757.22046 q 0.912,-0.552 2.112,-0.816 1.224,-0.264 2.544,-0.264 1.248,0 1.992,0.336 0.768,0.336 1.152,0.888 0.408,0.528 0.528,1.176 0.144,0.648 0.144,1.296 0,1.44 -0.072,2.808 -0.072,1.368 -0.072,2.592 0,0.888 0.072,1.68 0.072,0.792 0.264,1.464 l -1.416,0 -0.504,-1.68 -0.12,0 q -0.216,0.336 -0.552,0.672 -0.312,0.312 -0.768,0.576 -0.456,0.24 -1.056,0.408 -0.6,0.168 -1.368,0.168 -0.768,0 -1.44,-0.24 -0.648,-0.24 -1.128,-0.672 -0.48,-0.456 -0.768,-1.08 -0.264,-0.624 -0.264,-1.416 0,-1.056 0.432,-1.752 0.432,-0.72 1.2,-1.128 0.792,-0.432 1.872,-0.6 1.104,-0.192 2.424,-0.192 0.336,0 0.648,0 0.336,0 0.672,0.048 0.072,-0.72 0.072,-1.296 0,-1.32 -0.528,-1.848 -0.528,-0.528 -1.92,-0.528 -0.408,0 -0.888,0.072 -0.456,0.048 -0.96,0.168 -0.48,0.096 -0.936,0.264 -0.432,0.144 -0.768,0.336 l -0.6,-1.44 z m 3.408,9.624 q 0.672,0 1.2,-0.168 0.528,-0.192 0.912,-0.456 0.384,-0.288 0.624,-0.624 0.264,-0.336 0.384,-0.648 l 0,-1.992 q -0.336,-0.024 -0.696,-0.024 -0.336,-0.024 -0.672,-0.024 -0.744,0 -1.464,0.096 -0.696,0.072 -1.248,0.312 -0.528,0.216 -0.864,0.624 -0.312,0.384 -0.312,0.984 0,0.84 0.6,1.392 0.6,0.528 1.536,0.528 z"
         style="line-height:100%"
         id="path3600" />
      <path
         d="m 248.22417,758.18046 q -0.72,-0.24 -1.368,-0.24 -1.032,0 -1.632,0.576 -0.6,0.552 -0.744,1.416 l 0,8.4 -1.92,0 0,-12 1.344,0 0.36,1.464 0.096,0 q 0.456,-0.816 1.08,-1.248 0.648,-0.456 1.632,-0.456 0.696,0 1.56,0.24 l -0.408,1.848 z"
         style="line-height:100%"
         id="path3602" />
      <path
         d="m 259.47642,767.37246 q -0.72,0.576 -1.824,0.912 -1.08,0.336 -2.304,0.336 -1.368,0 -2.376,-0.432 -1.008,-0.456 -1.656,-1.272 -0.648,-0.84 -0.96,-1.992 -0.312,-1.152 -0.312,-2.592 0,-3.072 1.368,-4.68 1.368,-1.608 3.912,-1.608 0.816,0 1.632,0.192 0.816,0.168 1.464,0.672 0.648,0.504 1.056,1.44 0.408,0.912 0.408,2.424 0,0.792 -0.144,1.752 l -7.704,0 q 0,1.056 0.216,1.872 0.216,0.816 0.672,1.392 0.456,0.552 1.176,0.864 0.744,0.288 1.8,0.288 0.816,0 1.632,-0.288 0.816,-0.288 1.224,-0.672 l 0.72,1.392 z m -4.128,-9.648 q -1.416,0 -2.28,0.744 -0.84,0.744 -1.008,2.544 l 5.952,0 q 0,-1.824 -0.696,-2.544 -0.696,-0.744 -1.968,-0.744 z"
         style="line-height:100%"
         id="path3604" />
      <path
         d="m 268.18392,765.06846 q 0,-0.72 -0.432,-1.128 -0.432,-0.408 -1.08,-0.672 -0.624,-0.288 -1.392,-0.528 -0.744,-0.264 -1.392,-0.648 -0.624,-0.408 -1.056,-1.032 -0.432,-0.624 -0.432,-1.68 0,-1.728 0.984,-2.52 0.984,-0.816 2.736,-0.816 1.296,0 2.16,0.24 0.888,0.216 1.536,0.528 l -0.456,1.584 q -0.552,-0.264 -1.344,-0.456 -0.768,-0.216 -1.656,-0.216 -1.056,0 -1.56,0.36 -0.48,0.36 -0.48,1.248 0,0.624 0.432,0.984 0.432,0.336 1.056,0.624 0.648,0.264 1.392,0.528 0.768,0.264 1.392,0.696 0.648,0.432 1.08,1.104 0.432,0.648 0.432,1.728 0,0.768 -0.264,1.44 -0.24,0.672 -0.768,1.152 -0.528,0.48 -1.32,0.744 -0.768,0.288 -1.824,0.288 -1.368,0 -2.328,-0.264 -0.96,-0.264 -1.608,-0.624 l 0.576,-1.632 q 0.552,0.312 1.44,0.576 0.888,0.264 1.8,0.264 1.032,0 1.704,-0.408 0.672,-0.408 0.672,-1.464 z"
         style="line-height:100%"
         id="path3606" />
      <path
         d="m 272.14092,757.36446 10.176,0 0,1.728 -10.176,0 0,-1.728 z m 0,3.984 10.176,0 0,1.728 -10.176,0 0,-1.728 z"
         style="line-height:100%"
         id="path3608" />
      <path
         d="m 285.91355,766.55646 3.36,0 0,-11.616 0.24,-1.416 -0.96,1.128 -2.64,1.896 -0.912,-1.224 5.28,-4.08 0.864,0 0,15.312 3.288,0 0,1.776 -8.52,0 0,-1.776 z"
         style="line-height:100%"
         id="path3610" />
      <path
         d="m 297.43167,759.93246 q 0,-4.32 1.392,-6.504 1.416,-2.184 4.104,-2.184 2.904,0 4.2,2.16 1.32,2.136 1.32,6.528 0,4.32 -1.416,6.504 -1.392,2.184 -4.104,2.184 -2.856,0 -4.176,-2.28 -1.32,-2.28 -1.32,-6.408 z m 1.992,0 q 0,1.56 0.192,2.856 0.216,1.272 0.648,2.208 0.432,0.912 1.08,1.44 0.672,0.504 1.584,0.504 1.824,0 2.664,-1.68 0.864,-1.704 0.864,-5.328 0,-1.536 -0.192,-2.832 -0.168,-1.296 -0.6,-2.232 -0.408,-0.936 -1.08,-1.44 -0.672,-0.504 -1.656,-0.504 -1.8,0 -2.664,1.704 -0.84,1.704 -0.84,5.304 z"
         style="line-height:100%"
         id="path3612" />
      <path
         d="m 320.1818,755.34846 q 0,1.272 -0.48,2.616 -0.456,1.32 -1.224,2.664 -0.744,1.344 -1.68,2.64 -0.936,1.272 -1.872,2.424 l -1.176,1.032 0,0.096 1.536,-0.264 5.232,0 0,1.776 -9.552,0 0,-0.696 q 0.528,-0.552 1.272,-1.368 0.744,-0.816 1.536,-1.8 0.816,-1.008 1.584,-2.112 0.792,-1.128 1.416,-2.28 0.648,-1.152 1.032,-2.28 0.384,-1.128 0.384,-2.136 0,-1.176 -0.672,-1.944 -0.672,-0.792 -2.04,-0.792 -0.912,0 -1.776,0.384 -0.864,0.36 -1.488,0.84 l -0.792,-1.368 q 0.84,-0.72 1.992,-1.128 1.152,-0.408 2.472,-0.408 1.032,0 1.824,0.312 0.792,0.288 1.344,0.84 0.552,0.552 0.84,1.32 0.288,0.744 0.288,1.632 z"
         style="line-height:100%"
         id="path3614" />
      <path
         d="m 335.13192,763.17246 -2.832,0 0,5.16 -1.872,0 0,-5.16 -7.392,0 0,-0.792 7.968,-11.112 1.296,0 0,10.224 2.832,0 0,1.68 z m -4.704,-6.912 0.24,-1.968 -0.072,0 -0.84,1.632 -3.384,4.584 -1.152,1.176 1.68,-0.192 3.528,0 0,-5.232 z"
         style="line-height:100%"
         id="path3616" />
      <path
         d="m 163.91367,780.33246 1.872,0 0,-2.376 1.92,-0.552 0,2.928 3.264,0 0,1.68 -3.264,0 0,6.648 q 0,1.248 0.312,1.776 0.312,0.504 1.056,0.504 0.624,0 1.056,-0.12 0.432,-0.144 0.96,-0.36 l 0.432,1.464 q -0.648,0.312 -1.416,0.504 -0.768,0.192 -1.656,0.192 -1.464,0 -2.064,-0.816 -0.6,-0.84 -0.6,-2.784 l 0,-7.008 -1.872,0 0,-1.68 z"
         style="line-height:100%"
         id="path3618" />
      <path
         d="m 173.46192,781.22046 q 0.912,-0.552 2.112,-0.816 1.224,-0.264 2.544,-0.264 1.248,0 1.992,0.336 0.768,0.336 1.152,0.888 0.408,0.528 0.528,1.176 0.144,0.648 0.144,1.296 0,1.44 -0.072,2.808 -0.072,1.368 -0.072,2.592 0,0.888 0.072,1.68 0.072,0.792 0.264,1.464 l -1.416,0 -0.504,-1.68 -0.12,0 q -0.216,0.336 -0.552,0.672 -0.312,0.312 -0.768,0.576 -0.456,0.24 -1.056,0.408 -0.6,0.168 -1.368,0.168 -0.768,0 -1.44,-0.24 -0.648,-0.24 -1.128,-0.672 -0.48,-0.456 -0.768,-1.08 -0.264,-0.624 -0.264,-1.416 0,-1.056 0.432,-1.752 0.432,-0.72 1.2,-1.128 0.792,-0.432 1.872,-0.6 1.104,-0.192 2.424,-0.192 0.336,0 0.648,0 0.336,0 0.672,0.048 0.072,-0.72 0.072,-1.296 0,-1.32 -0.528,-1.848 -0.528,-0.528 -1.92,-0.528 -0.408,0 -0.888,0.072 -0.456,0.048 -0.96,0.168 -0.48,0.096 -0.936,0.264 -0.432,0.144 -0.768,0.336 l -0.6,-1.44 z m 3.408,9.624 q 0.672,0 1.2,-0.168 0.528,-0.192 0.912,-0.456 0.384,-0.288 0.624,-0.624 0.264,-0.336 0.384,-0.648 l 0,-1.992 q -0.336,-0.024 -0.696,-0.024 -0.336,-0.024 -0.672,-0.024 -0.744,0 -1.464,0.096 -0.696,0.072 -1.248,0.312 -0.528,0.216 -0.864,0.624 -0.312,0.384 -0.312,0.984 0,0.84 0.6,1.392 0.6,0.528 1.536,0.528 z"
         style="line-height:100%"
         id="path3620" />
      <path
         d="m 190.84017,789.06846 q 0,-0.72 -0.432,-1.128 -0.432,-0.408 -1.08,-0.672 -0.624,-0.288 -1.392,-0.528 -0.744,-0.264 -1.392,-0.648 -0.624,-0.408 -1.056,-1.032 -0.432,-0.624 -0.432,-1.68 0,-1.728 0.984,-2.52 0.984,-0.816 2.736,-0.816 1.296,0 2.16,0.24 0.888,0.216 1.536,0.528 l -0.456,1.584 q -0.552,-0.264 -1.344,-0.456 -0.768,-0.216 -1.656,-0.216 -1.056,0 -1.56,0.36 -0.48,0.36 -0.48,1.248 0,0.624 0.432,0.984 0.432,0.336 1.056,0.624 0.648,0.264 1.392,0.528 0.768,0.264 1.392,0.696 0.648,0.432 1.08,1.104 0.432,0.648 0.432,1.728 0,0.768 -0.264,1.44 -0.24,0.672 -0.768,1.152 -0.528,0.48 -1.32,0.744 -0.768,0.288 -1.824,0.288 -1.368,0 -2.328,-0.264 -0.96,-0.264 -1.608,-0.624 l 0.576,-1.632 q 0.552,0.312 1.44,0.576 0.888,0.264 1.8,0.264 1.032,0 1.704,-0.408 0.672,-0.408 0.672,-1.464 z"
         style="line-height:100%"
         id="path3622" />
      <path
         d="m 198.70917,786.93246 -1.104,0 0,5.4 -1.92,0 0,-16.8 1.92,0 0,10.224 0.984,-0.336 3.72,-5.088 2.232,0 -3.672,4.824 -0.984,0.792 1.2,0.96 4.008,5.424 -2.376,0 -4.008,-5.4 z"
         style="line-height:100%"
         id="path3624" />
      <path
         d="m 212.44955,789.06846 q 0,-0.72 -0.432,-1.128 -0.432,-0.408 -1.08,-0.672 -0.624,-0.288 -1.392,-0.528 -0.744,-0.264 -1.392,-0.648 -0.624,-0.408 -1.056,-1.032 -0.432,-0.624 -0.432,-1.68 0,-1.728 0.984,-2.52 0.984,-0.816 2.736,-0.816 1.296,0 2.16,0.24 0.888,0.216 1.536,0.528 l -0.456,1.584 q -0.552,-0.264 -1.344,-0.456 -0.768,-0.216 -1.656,-0.216 -1.056,0 -1.56,0.36 -0.48,0.36 -0.48,1.248 0,0.624 0.432,0.984 0.432,0.336 1.056,0.624 0.648,0.264 1.392,0.528 0.768,0.264 1.392,0.696 0.648,0.432 1.08,1.104 0.432,0.648 0.432,1.728 0,0.768 -0.264,1.44 -0.24,0.672 -0.768,1.152 -0.528,0.48 -1.32,0.744 -0.768,0.288 -1.824,0.288 -1.368,0 -2.328,-0.264 -0.96,-0.264 -1.608,-0.624 l 0.576,-1.632 q 0.552,0.312 1.44,0.576 0.888,0.264 1.8,0.264 1.032,0 1.704,-0.408 0.672,-0.408 0.672,-1.464 z"
         style="line-height:100%"
         id="path3626" />
      <path
         d="m 216.40655,781.36446 10.176,0 0,1.728 -10.176,0 0,-1.728 z m 0,3.984 10.176,0 0,1.728 -10.176,0 0,-1.728 z"
         style="line-height:100%"
         id="path3628" />
    </g>
    <path
       style="fill:none;stroke:#000000;stroke-width:4;stroke-linecap:butt;stroke-linejoin:miter;stroke-miterlimit:4;stroke-dasharray:none;stroke-opacity:1"
       d="m 138.3639,746.19849 0,230.73472"
       id="path3821"
       inkscape:connector-curvature="0" />
    <circle
       r="11.071428"
       cy="736.07648"
       cx="138.36397"
       style="color:#000000;display:inline;overflow:visible;visibility:visible;fill:#cd5555;fill-opacity:1;fill-rule:nonzero;stroke:#000000;stroke-width:1;stroke-linejoin:round;stroke-miterlimit:4;stroke-dasharray:none;stroke-dashoffset:0;stroke-opacity:1;marker:none;enable-background:accumulate"
       id="path2985-5" />
    <g
       style="font-style:normal;font-variant:normal;font-weight:normal;font-stretch:normal;font-size:24px;line-height:100%;font-family:'PT Sans';-inkscape-font-specification:'PT Sans';text-align:start;letter-spacing:0px;word-spacing:0px;text-anchor:start;fill:#000000;fill-opacity:1;stroke:none"
       id="text3817">
      <path
         d="m 257.06797,840.34962 q 0,1.272 -0.48,2.616 -0.456,1.32 -1.224,2.664 -0.744,1.344 -1.68,2.64 -0.936,1.272 -1.872,2.424 l -1.176,1.032 0,0.096 1.536,-0.264 5.232,0 0,1.776 -9.552,0 0,-0.696 q 0.528,-0.552 1.272,-1.368 0.744,-0.816 1.536,-1.8 0.816,-1.008 1.584,-2.112 0.792,-1.128 1.416,-2.28 0.648,-1.152 1.032,-2.28 0.384,-1.128 0.384,-2.136 0,-1.176 -0.672,-1.944 -0.672,-0.792 -2.04,-0.792 -0.912,0 -1.776,0.384 -0.864,0.36 -1.488,0.84 l -0.792,-1.368 q 0.84,-0.72 1.992,-1.128 1.152,-0.408 2.472,-0.408 1.032,0 1.824,0.312 0.792,0.288 1.344,0.84 0.552,0.552 0.84,1.32 0.288,0.744 0.288,1.632 z"
         style="line-height:100%"
         id="path3491" />
      <path
         d="m 270.05009,852.37362 q -0.72,0.576 -1.824,0.912 -1.08,0.336 -2.304,0.336 -1.368,0 -2.376,-0.432 -1.008,-0.456 -1.656,-1.272 -0.648,-0.84 -0.96,-1.992 -0.312,-1.152 -0.312,-2.592 0,-3.072 1.368,-4.68 1.368,-1.608 3.912,-1.608 0.816,0 1.632,0.192 0.816,0.168 1.464,0.672 0.648,0.504 1.056,1.44 0.408,0.912 0.408,2.424 0,0.792 -0.144,1.752 l -7.704,0 q 0,1.056 0.216,1.872 0.216,0.816 0.672,1.392 0.456,0.552 1.176,0.864 0.744,0.288 1.8,0.288 0.816,0 1.632,-0.288 0.816,-0.288 1.224,-0.672 l 0.72,1.392 z m -4.128,-9.648 q -1.416,0 -2.28,0.744 -0.84,0.744 -1.008,2.544 l 5.952,0 q 0,-1.824 -0.696,-2.544 -0.696,-0.744 -1.968,-0.744 z"
         style="line-height:100%"
         id="path3493" />
      <path
         d="m 273.28559,842.22162 q 0.912,-0.552 2.112,-0.816 1.224,-0.264 2.544,-0.264 1.248,0 1.992,0.336 0.768,0.336 1.152,0.888 0.408,0.528 0.528,1.176 0.144,0.648 0.144,1.296 0,1.44 -0.072,2.808 -0.072,1.368 -0.072,2.592 0,0.888 0.072,1.68 0.072,0.792 0.264,1.464 l -1.416,0 -0.504,-1.68 -0.12,0 q -0.216,0.336 -0.552,0.672 -0.312,0.312 -0.768,0.576 -0.456,0.24 -1.056,0.408 -0.6,0.168 -1.368,0.168 -0.768,0 -1.44,-0.24 -0.648,-0.24 -1.128,-0.672 -0.48,-0.456 -0.768,-1.08 -0.264,-0.624 -0.264,-1.416 0,-1.056 0.432,-1.752 0.432,-0.72 1.2,-1.128 0.792,-0.432 1.872,-0.6 1.104,-0.192 2.424,-0.192 0.336,0 0.648,0 0.336,0 0.672,0.048 0.072,-0.72 0.072,-1.296 0,-1.32 -0.528,-1.848 -0.528,-0.528 -1.92,-0.528 -0.408,0 -0.888,0.072 -0.456,0.048 -0.96,0.168 -0.48,0.096 -0.936,0.264 -0.432,0.144 -0.768,0.336 l -0.6,-1.44 z m 3.408,9.624 q 0.672,0 1.2,-0.168 0.528,-0.192 0.912,-0.456 0.384,-0.288 0.624,-0.624 0.264,-0.336 0.384,-0.648 l 0,-1.992 q -0.336,-0.024 -0.696,-0.024 -0.336,-0.024 -0.672,-0.024 -0.744,0 -1.464,0.096 -0.696,0.072 -1.248,0.312 -0.528,0.216 -0.864,0.624 -0.312,0.384 -0.312,0.984 0,0.84 0.6,1.392 0.6,0.528 1.536,0.528 z"
         style="line-height:100%"
         id="path3495" />
      <path
         d="m 285.16784,849.32562 q 0,-1.512 0.792,-2.616 0.792,-1.128 2.472,-2.04 -0.6,-0.36 -1.128,-0.744 -0.504,-0.408 -0.912,-0.912 -0.384,-0.504 -0.624,-1.128 -0.216,-0.624 -0.216,-1.44 0,-0.936 0.312,-1.704 0.336,-0.768 0.936,-1.32 0.624,-0.552 1.464,-0.864 0.864,-0.312 1.944,-0.312 1.008,0 1.824,0.288 0.816,0.288 1.368,0.792 0.576,0.504 0.888,1.2 0.312,0.696 0.312,1.536 0,1.368 -0.624,2.424 -0.624,1.032 -2.064,2.04 0.624,0.36 1.176,0.792 0.576,0.432 0.984,0.96 0.432,0.528 0.672,1.2 0.24,0.648 0.24,1.488 0,1.032 -0.336,1.896 -0.336,0.84 -0.984,1.464 -0.648,0.6 -1.584,0.96 -0.936,0.336 -2.136,0.336 -1.152,0 -2.04,-0.336 -0.888,-0.336 -1.512,-0.912 -0.6,-0.576 -0.912,-1.344 -0.312,-0.792 -0.312,-1.704 z m 7.944,-0.24 q 0,-0.72 -0.288,-1.248 -0.288,-0.552 -0.768,-0.984 -0.456,-0.456 -1.056,-0.816 -0.6,-0.36 -1.248,-0.696 -1.464,0.816 -2.088,1.824 -0.624,1.008 -0.624,1.92 0,0.576 0.192,1.104 0.192,0.528 0.576,0.912 0.384,0.384 0.936,0.624 0.576,0.216 1.32,0.216 0.6,0 1.152,-0.168 0.552,-0.192 0.96,-0.528 0.432,-0.36 0.672,-0.888 0.264,-0.552 0.264,-1.272 z m -5.688,-8.688 q 0,0.672 0.264,1.2 0.264,0.504 0.696,0.912 0.456,0.408 1.032,0.768 0.576,0.336 1.2,0.648 1.08,-0.84 1.584,-1.656 0.528,-0.816 0.528,-1.8 0,-1.224 -0.768,-1.872 -0.744,-0.672 -1.8,-0.672 -0.648,0 -1.152,0.216 -0.504,0.216 -0.864,0.552 -0.36,0.336 -0.552,0.792 -0.168,0.432 -0.168,0.912 z"
         style="line-height:100%"
         id="path3497" />
      <path
         d="m 308.42197,848.26962 q 0,1.104 -0.336,2.088 -0.336,0.96 -0.984,1.704 -0.648,0.72 -1.608,1.152 -0.96,0.408 -2.184,0.408 -1.2,0 -2.16,-0.384 -0.96,-0.384 -1.656,-1.128 -0.696,-0.768 -1.08,-1.872 -0.36,-1.104 -0.36,-2.544 0,-2.376 0.6,-4.368 0.624,-2.016 1.704,-3.504 1.08,-1.488 2.544,-2.4 1.488,-0.936 3.216,-1.176 l 0.408,1.536 q -1.344,0.24 -2.448,0.912 -1.104,0.672 -1.944,1.656 -0.816,0.984 -1.344,2.208 -0.528,1.224 -0.72,2.52 0.384,-0.648 1.296,-1.176 0.912,-0.552 2.232,-0.552 2.256,0 3.528,1.296 1.296,1.296 1.296,3.624 z m -1.992,0.192 q 0,-1.704 -0.792,-2.568 -0.792,-0.864 -2.448,-0.864 -1.176,0 -2.04,0.576 -0.84,0.576 -1.176,1.296 -0.048,0.336 -0.048,0.552 0,0.216 0,0.48 0,0.744 0.192,1.464 0.216,0.72 0.648,1.296 0.432,0.552 1.056,0.912 0.648,0.336 1.512,0.336 0.696,0 1.248,-0.264 0.576,-0.264 0.984,-0.72 0.408,-0.456 0.624,-1.104 0.24,-0.648 0.24,-1.392 z"
         style="line-height:100%"
         id="path3499" />
      <path
         d="m 321.50009,848.26962 q 0,1.104 -0.336,2.088 -0.336,0.96 -0.984,1.704 -0.648,0.72 -1.608,1.152 -0.96,0.408 -2.184,0.408 -1.2,0 -2.16,-0.384 -0.96,-0.384 -1.656,-1.128 -0.696,-0.768 -1.08,-1.872 -0.36,-1.104 -0.36,-2.544 0,-2.376 0.6,-4.368 0.624,-2.016 1.704,-3.504 1.08,-1.488 2.544,-2.4 1.488,-0.936 3.216,-1.176 l 0.408,1.536 q -1.344,0.24 -2.448,0.912 -1.104,0.672 -1.944,1.656 -0.816,0.984 -1.344,2.208 -0.528,1.224 -0.72,2.52 0.384,-0.648 1.296,-1.176 0.912,-0.552 2.232,-0.552 2.256,0 3.528,1.296 1.296,1.296 1.296,3.624 z m -1.992,0.192 q 0,-1.704 -0.792,-2.568 -0.792,-0.864 -2.448,-0.864 -1.176,0 -2.04,0.576 -0.84,0.576 -1.176,1.296 -0.048,0.336 -0.048,0.552 0,0.216 0,0.48 0,0.744 0.192,1.464 0.216,0.72 0.648,1.296 0.432,0.552 1.056,0.912 0.648,0.336 1.512,0.336 0.696,0 1.248,-0.264 0.576,-0.264 0.984,-0.72 0.408,-0.456 0.624,-1.104 0.24,-0.648 0.24,-1.392 z"
         style="line-height:100%"
         id="path3501" />
      <path
         d="m 325.36222,851.55762 3.36,0 0,-11.616 0.24,-1.416 -0.96,1.128 -2.64,1.896 -0.912,-1.224 5.28,-4.08 0.864,0 0,15.312 3.288,0 0,1.776 -8.52,0 0,-1.776 z"
         style="line-height:100%"
         id="path3503" />
      <path
         d="m 337.69634,836.53362 1.92,0 0,5.976 0.096,0 q 0.552,-0.696 1.392,-1.08 0.864,-0.384 1.872,-0.384 2.328,0 3.48,1.488 1.176,1.488 1.176,4.608 0,3.144 -1.536,4.776 -1.536,1.632 -4.32,1.632 -1.344,0 -2.448,-0.288 -1.08,-0.288 -1.632,-0.624 l 0,-16.104 z m 4.944,6.192 q -1.2,0 -1.944,0.672 -0.744,0.672 -1.08,1.896 l 0,6.048 q 0.456,0.264 1.104,0.408 0.648,0.12 1.344,0.12 1.632,0 2.592,-1.152 0.984,-1.152 0.984,-3.6 0,-0.936 -0.168,-1.752 -0.168,-0.816 -0.528,-1.392 -0.36,-0.576 -0.936,-0.912 -0.552,-0.336 -1.368,-0.336 z"
         style="line-height:100%"
         id="path3505" />
      <path
         d="m 350.44184,842.22162 q 0.912,-0.552 2.112,-0.816 1.224,-0.264 2.544,-0.264 1.248,0 1.992,0.336 0.768,0.336 1.152,0.888 0.408,0.528 0.528,1.176 0.144,0.648 0.144,1.296 0,1.44 -0.072,2.808 -0.072,1.368 -0.072,2.592 0,0.888 0.072,1.68 0.072,0.792 0.264,1.464 l -1.416,0 -0.504,-1.68 -0.12,0 q -0.216,0.336 -0.552,0.672 -0.312,0.312 -0.768,0.576 -0.456,0.24 -1.056,0.408 -0.6,0.168 -1.368,0.168 -0.768,0 -1.44,-0.24 -0.648,-0.24 -1.128,-0.672 -0.48,-0.456 -0.768,-1.08 -0.264,-0.624 -0.264,-1.416 0,-1.056 0.432,-1.752 0.432,-0.72 1.2,-1.128 0.792,-0.432 1.872,-0.6 1.104,-0.192 2.424,-0.192 0.336,0 0.648,0 0.336,0 0.672,0.048 0.072,-0.72 0.072,-1.296 0,-1.32 -0.528,-1.848 -0.528,-0.528 -1.92,-0.528 -0.408,0 -0.888,0.072 -0.456,0.048 -0.96,0.168 -0.48,0.096 -0.936,0.264 -0.432,0.144 -0.768,0.336 l -0.6,-1.44 z m 3.408,9.624 q 0.672,0 1.2,-0.168 0.528,-0.192 0.912,-0.456 0.384,-0.288 0.624,-0.624 0.264,-0.336 0.384,-0.648 l 0,-1.992 q -0.336,-0.024 -0.696,-0.024 -0.336,-0.024 -0.672,-0.024 -0.744,0 -1.464,0.096 -0.696,0.072 -1.248,0.312 -0.528,0.216 -0.864,0.624 -0.312,0.384 -0.312,0.984 0,0.84 0.6,1.392 0.6,0.528 1.536,0.528 z"
         style="line-height:100%"
         id="path3507" />
      <path
         d="m 363.33209,853.33362 6.024,-14.064 1.056,-1.176 -1.416,0.216 -6.84,0 0,-1.776 10.032,0 0,0.648 -6.912,16.152 -1.944,0 z"
         style="line-height:100%"
         id="path3509" />
      <path
         d="m 374.80222,844.93362 q 0,-4.32 1.392,-6.504 1.416,-2.184 4.104,-2.184 2.904,0 4.2,2.16 1.32,2.136 1.32,6.528 0,4.32 -1.416,6.504 -1.392,2.184 -4.104,2.184 -2.856,0 -4.176,-2.28 -1.32,-2.28 -1.32,-6.408 z m 1.992,0 q 0,1.56 0.192,2.856 0.216,1.272 0.648,2.208 0.432,0.912 1.08,1.44 0.672,0.504 1.584,0.504 1.824,0 2.664,-1.68 0.864,-1.704 0.864,-5.328 0,-1.536 -0.192,-2.832 -0.168,-1.296 -0.6,-2.232 -0.408,-0.936 -1.08,-1.44 -0.672,-0.504 -1.656,-0.504 -1.8,0 -2.664,1.704 -0.84,1.704 -0.84,5.304 z"
         style="line-height:100%"
         id="path3511" />
      <path
         d="m 397.91234,849.20562 q 0,1.224 0.024,2.232 0.024,0.984 0.216,1.944 l -1.296,0 -0.48,-1.704 -0.096,0 q -0.48,0.84 -1.392,1.392 -0.912,0.552 -2.136,0.552 -2.4,0 -3.576,-1.512 -1.152,-1.512 -1.152,-4.728 0,-3.072 1.44,-4.656 1.464,-1.608 4.008,-1.608 0.888,0 1.392,0.096 0.528,0.096 1.128,0.312 l 0,-4.992 1.92,0 0,12.672 z m -4.848,2.736 q 1.224,0 1.944,-0.624 0.72,-0.648 0.984,-1.944 l 0,-5.952 q -0.432,-0.336 -0.984,-0.48 -0.552,-0.144 -1.464,-0.144 -1.656,0 -2.592,1.104 -0.936,1.08 -0.936,3.48 0,0.984 0.144,1.824 0.168,0.84 0.528,1.44 0.36,0.6 0.936,0.96 0.6,0.336 1.44,0.336 z"
         style="line-height:100%"
         id="path3513" />
      <path
         d="m 407.00872,852.22962 q 0,-0.648 0.36,-1.008 0.384,-0.384 1.008,-0.384 0.648,0 1.032,0.384 0.384,0.36 0.384,1.008 0,0.624 -0.384,1.008 -0.384,0.384 -1.032,0.384 -0.624,0 -1.008,-0.384 -0.36,-0.384 -0.36,-1.008 z"
         style="line-height:100%"
         id="path3515" />
      <path
         d="m 413.71184,852.22962 q 0,-0.648 0.36,-1.008 0.384,-0.384 1.008,-0.384 0.648,0 1.032,0.384 0.384,0.36 0.384,1.008 0,0.624 -0.384,1.008 -0.384,0.384 -1.032,0.384 -0.624,0 -1.008,-0.384 -0.36,-0.384 -0.36,-1.008 z"
         style="line-height:100%"
         id="path3517" />
      <path
         d="m 420.41497,852.22962 q 0,-0.648 0.36,-1.008 0.384,-0.384 1.008,-0.384 0.648,0 1.032,0.384 0.384,0.36 0.384,1.008 0,0.624 -0.384,1.008 -0.384,0.384 -1.032,0.384 -0.624,0 -1.008,-0.384 -0.36,-0.384 -0.36,-1.008 z"
         style="line-height:100%"
         id="path3519" />
      <path
         d="m 427.11809,852.22962 q 0,-0.648 0.36,-1.008 0.384,-0.384 1.008,-0.384 0.648,0 1.032,0.384 0.384,0.36 0.384,1.008 0,0.624 -0.384,1.008 -0.384,0.384 -1.032,0.384 -0.624,0 -1.008,-0.384 -0.36,-0.384 -0.36,-1.008 z"
         style="line-height:100%"
         id="path3521" />
      <path
         d="m 256.39597,876.54162 q -0.72,0.528 -1.704,0.792 -0.984,0.288 -2.064,0.288 -1.392,0 -2.352,-0.432 -0.96,-0.456 -1.584,-1.272 -0.6,-0.84 -0.888,-1.992 -0.264,-1.176 -0.264,-2.592 0,-3.048 1.344,-4.656 1.344,-1.632 3.864,-1.632 1.152,0 1.944,0.192 0.816,0.168 1.464,0.504 l -0.552,1.656 q -0.552,-0.312 -1.224,-0.48 -0.672,-0.192 -1.44,-0.192 -3.408,0 -3.408,4.608 0,0.912 0.168,1.752 0.192,0.816 0.6,1.464 0.432,0.624 1.104,1.008 0.696,0.384 1.704,0.384 0.864,0 1.536,-0.264 0.696,-0.264 1.128,-0.6 l 0.624,1.464 z"
         style="line-height:100%"
         id="path3523" />
      <path
         d="m 259.04009,865.33362 1.32,0 0.36,1.44 0.096,0 q 0.552,-0.84 1.416,-1.272 0.888,-0.456 2.016,-0.456 2.4,0 3.576,1.416 1.176,1.416 1.176,4.632 0,1.512 -0.408,2.736 -0.384,1.2 -1.104,2.04 -0.72,0.84 -1.752,1.296 -1.008,0.456 -2.256,0.456 -0.888,0 -1.416,-0.12 -0.504,-0.096 -1.104,-0.36 l 0,4.992 -1.92,0 0,-16.8 z m 4.848,1.392 q -1.224,0 -1.944,0.648 -0.696,0.624 -0.984,1.92 l 0,5.952 q 0.432,0.336 0.984,0.528 0.552,0.168 1.464,0.168 1.656,0 2.616,-1.224 0.984,-1.248 0.984,-3.648 0,-0.984 -0.168,-1.776 -0.168,-0.816 -0.552,-1.368 -0.36,-0.576 -0.96,-0.888 -0.576,-0.312 -1.44,-0.312 z"
         style="line-height:100%"
         id="path3525" />
      <path
         d="m 273.75247,865.33362 0,6.84 q 0,0.936 0.096,1.656 0.12,0.696 0.384,1.176 0.264,0.456 0.72,0.696 0.456,0.24 1.152,0.24 0.648,0 1.152,-0.192 0.504,-0.216 0.888,-0.576 0.408,-0.36 0.696,-0.816 0.312,-0.48 0.504,-1.008 l 0,-8.016 1.92,0 0,8.592 q 0,0.864 0.048,1.8 0.072,0.912 0.216,1.608 l -1.32,0 -0.48,-1.896 -0.12,0 q -0.552,0.936 -1.488,1.56 -0.936,0.624 -2.376,0.624 -0.96,0 -1.704,-0.24 -0.72,-0.216 -1.224,-0.792 -0.48,-0.576 -0.744,-1.536 -0.24,-0.984 -0.24,-2.472 l 0,-7.248 1.92,0 z"
         style="line-height:100%"
         id="path3527" />
      <path
         d="m 284.28997,876.22962 q 0,-0.648 0.36,-1.008 0.384,-0.384 1.008,-0.384 0.648,0 1.032,0.384 0.384,0.36 0.384,1.008 0,0.624 -0.384,1.008 -0.384,0.384 -1.032,0.384 -0.624,0 -1.008,-0.384 -0.36,-0.384 -0.36,-1.008 z"
         style="line-height:100%"
         id="path3529" />
      <path
         d="m 295.39822,874.06962 q 0,-0.72 -0.432,-1.128 -0.432,-0.408 -1.08,-0.672 -0.624,-0.288 -1.392,-0.528 -0.744,-0.264 -1.392,-0.648 -0.624,-0.408 -1.056,-1.032 -0.432,-0.624 -0.432,-1.68 0,-1.728 0.984,-2.52 0.984,-0.816 2.736,-0.816 1.296,0 2.16,0.24 0.888,0.216 1.536,0.528 l -0.456,1.584 q -0.552,-0.264 -1.344,-0.456 -0.768,-0.216 -1.656,-0.216 -1.056,0 -1.56,0.36 -0.48,0.36 -0.48,1.248 0,0.624 0.432,0.984 0.432,0.336 1.056,0.624 0.648,0.264 1.392,0.528 0.768,0.264 1.392,0.696 0.648,0.432 1.08,1.104 0.432,0.648 0.432,1.728 0,0.768 -0.264,1.44 -0.24,0.672 -0.768,1.152 -0.528,0.48 -1.32,0.744 -0.768,0.288 -1.824,0.288 -1.368,0 -2.328,-0.264 -0.96,-0.264 -1.608,-0.624 l 0.576,-1.632 q 0.552,0.312 1.44,0.576 0.888,0.264 1.8,0.264 1.032,0 1.704,-0.408 0.672,-0.408 0.672,-1.464 z"
         style="line-height:100%"
         id="path3531" />
      <path
         d="m 307.94722,877.33362 0,-6.84 q 0,-0.936 -0.12,-1.632 -0.096,-0.72 -0.384,-1.176 -0.288,-0.48 -0.792,-0.72 -0.48,-0.24 -1.272,-0.24 -1.128,0 -2.04,0.744 -0.912,0.72 -1.176,1.872 l 0,7.992 -1.92,0 0,-16.8 1.92,0 0,6.144 0.096,0 q 0.624,-0.744 1.488,-1.176 0.888,-0.456 2.184,-0.456 1.008,0 1.752,0.24 0.744,0.216 1.224,0.792 0.504,0.576 0.72,1.56 0.24,0.96 0.24,2.448 l 0,7.248 -1.92,0 z"
         style="line-height:100%"
         id="path3533" />
      <path
         d="m 313.17622,866.22162 q 0.912,-0.552 2.112,-0.816 1.224,-0.264 2.544,-0.264 1.248,0 1.992,0.336 0.768,0.336 1.152,0.888 0.408,0.528 0.528,1.176 0.144,0.648 0.144,1.296 0,1.44 -0.072,2.808 -0.072,1.368 -0.072,2.592 0,0.888 0.072,1.68 0.072,0.792 0.264,1.464 l -1.416,0 -0.504,-1.68 -0.12,0 q -0.216,0.336 -0.552,0.672 -0.312,0.312 -0.768,0.576 -0.456,0.24 -1.056,0.408 -0.6,0.168 -1.368,0.168 -0.768,0 -1.44,-0.24 -0.648,-0.24 -1.128,-0.672 -0.48,-0.456 -0.768,-1.08 -0.264,-0.624 -0.264,-1.416 0,-1.056 0.432,-1.752 0.432,-0.72 1.2,-1.128 0.792,-0.432 1.872,-0.6 1.104,-0.192 2.424,-0.192 0.336,0 0.648,0 0.336,0 0.672,0.048 0.072,-0.72 0.072,-1.296 0,-1.32 -0.528,-1.848 -0.528,-0.528 -1.92,-0.528 -0.408,0 -0.888,0.072 -0.456,0.048 -0.96,0.168 -0.48,0.096 -0.936,0.264 -0.432,0.144 -0.768,0.336 l -0.6,-1.44 z m 3.408,9.624 q 0.672,0 1.2,-0.168 0.528,-0.192 0.912,-0.456 0.384,-0.288 0.624,-0.624 0.264,-0.336 0.384,-0.648 l 0,-1.992 q -0.336,-0.024 -0.696,-0.024 -0.336,-0.024 -0.672,-0.024 -0.744,0 -1.464,0.096 -0.696,0.072 -1.248,0.312 -0.528,0.216 -0.864,0.624 -0.312,0.384 -0.312,0.984 0,0.84 0.6,1.392 0.6,0.528 1.536,0.528 z"
         style="line-height:100%"
         id="path3535" />
      <path
         d="m 330.93847,867.18162 q -0.72,-0.24 -1.368,-0.24 -1.032,0 -1.632,0.576 -0.6,0.552 -0.744,1.416 l 0,8.4 -1.92,0 0,-12 1.344,0 0.36,1.464 0.096,0 q 0.456,-0.816 1.08,-1.248 0.648,-0.456 1.632,-0.456 0.696,0 1.56,0.24 l -0.408,1.848 z"
         style="line-height:100%"
         id="path3537" />
      <path
         d="m 342.19072,876.37362 q -0.72,0.576 -1.824,0.912 -1.08,0.336 -2.304,0.336 -1.368,0 -2.376,-0.432 -1.008,-0.456 -1.656,-1.272 -0.648,-0.84 -0.96,-1.992 -0.312,-1.152 -0.312,-2.592 0,-3.072 1.368,-4.68 1.368,-1.608 3.912,-1.608 0.816,0 1.632,0.192 0.816,0.168 1.464,0.672 0.648,0.504 1.056,1.44 0.408,0.912 0.408,2.424 0,0.792 -0.144,1.752 l -7.704,0 q 0,1.056 0.216,1.872 0.216,0.816 0.672,1.392 0.456,0.552 1.176,0.864 0.744,0.288 1.8,0.288 0.816,0 1.632,-0.288 0.816,-0.288 1.224,-0.672 l 0.72,1.392 z m -4.128,-9.648 q -1.416,0 -2.28,0.744 -0.84,0.744 -1.008,2.544 l 5.952,0 q 0,-1.824 -0.696,-2.544 -0.696,-0.744 -1.968,-0.744 z"
         style="line-height:100%"
         id="path3539" />
      <path
         d="m 350.89822,874.06962 q 0,-0.72 -0.432,-1.128 -0.432,-0.408 -1.08,-0.672 -0.624,-0.288 -1.392,-0.528 -0.744,-0.264 -1.392,-0.648 -0.624,-0.408 -1.056,-1.032 -0.432,-0.624 -0.432,-1.68 0,-1.728 0.984,-2.52 0.984,-0.816 2.736,-0.816 1.296,0 2.16,0.24 0.888,0.216 1.536,0.528 l -0.456,1.584 q -0.552,-0.264 -1.344,-0.456 -0.768,-0.216 -1.656,-0.216 -1.056,0 -1.56,0.36 -0.48,0.36 -0.48,1.248 0,0.624 0.432,0.984 0.432,0.336 1.056,0.624 0.648,0.264 1.392,0.528 0.768,0.264 1.392,0.696 0.648,0.432 1.08,1.104 0.432,0.648 0.432,1.728 0,0.768 -0.264,1.44 -0.24,0.672 -0.768,1.152 -0.528,0.48 -1.32,0.744 -0.768,0.288 -1.824,0.288 -1.368,0 -2.328,-0.264 -0.96,-0.264 -1.608,-0.624 l 0.576,-1.632 q 0.552,0.312 1.44,0.576 0.888,0.264 1.8,0.264 1.032,0 1.704,-0.408 0.672,-0.408 0.672,-1.464 z"
         style="line-height:100%"
         id="path3541" />
      <path
         d="m 354.85522,866.36562 10.176,0 0,1.728 -10.176,0 0,-1.728 z m 0,3.984 10.176,0 0,1.728 -10.176,0 0,-1.728 z"
         style="line-height:100%"
         id="path3543" />
      <path
         d="m 368.62784,875.55762 3.36,0 0,-11.616 0.24,-1.416 -0.96,1.128 -2.64,1.896 -0.912,-1.224 5.28,-4.08 0.864,0 0,15.312 3.288,0 0,1.776 -8.52,0 0,-1.776 z"
         style="line-height:100%"
         id="path3545" />
      <path
         d="m 380.14597,868.93362 q 0,-4.32 1.392,-6.504 1.416,-2.184 4.104,-2.184 2.904,0 4.2,2.16 1.32,2.136 1.32,6.528 0,4.32 -1.416,6.504 -1.392,2.184 -4.104,2.184 -2.856,0 -4.176,-2.28 -1.32,-2.28 -1.32,-6.408 z m 1.992,0 q 0,1.56 0.192,2.856 0.216,1.272 0.648,2.208 0.432,0.912 1.08,1.44 0.672,0.504 1.584,0.504 1.824,0 2.664,-1.68 0.864,-1.704 0.864,-5.328 0,-1.536 -0.192,-2.832 -0.168,-1.296 -0.6,-2.232 -0.408,-0.936 -1.08,-1.44 -0.672,-0.504 -1.656,-0.504 -1.8,0 -2.664,1.704 -0.84,1.704 -0.84,5.304 z"
         style="line-height:100%"
         id="path3547" />
      <path
         d="m 402.89609,864.34962 q 0,1.272 -0.48,2.616 -0.456,1.32 -1.224,2.664 -0.744,1.344 -1.68,2.64 -0.936,1.272 -1.872,2.424 l -1.176,1.032 0,0.096 1.536,-0.264 5.232,0 0,1.776 -9.552,0 0,-0.696 q 0.528,-0.552 1.272,-1.368 0.744,-0.816 1.536,-1.8 0.816,-1.008 1.584,-2.112 0.792,-1.128 1.416,-2.28 0.648,-1.152 1.032,-2.28 0.384,-1.128 0.384,-2.136 0,-1.176 -0.672,-1.944 -0.672,-0.792 -2.04,-0.792 -0.912,0 -1.776,0.384 -0.864,0.36 -1.488,0.84 l -0.792,-1.368 q 0.84,-0.72 1.992,-1.128 1.152,-0.408 2.472,-0.408 1.032,0 1.824,0.312 0.792,0.288 1.344,0.84 0.552,0.552 0.84,1.32 0.288,0.744 0.288,1.632 z"
         style="line-height:100%"
         id="path3549" />
      <path
         d="m 417.84622,872.17362 -2.832,0 0,5.16 -1.872,0 0,-5.16 -7.392,0 0,-0.792 7.968,-11.112 1.296,0 0,10.224 2.832,0 0,1.68 z m -4.704,-6.912 0.24,-1.968 -0.072,0 -0.84,1.632 -3.384,4.584 -1.152,1.176 1.68,-0.192 3.528,0 0,-5.232 z"
         style="line-height:100%"
         id="path3551" />
      <path
         d="m 246.62797,889.33362 1.872,0 0,-2.376 1.92,-0.552 0,2.928 3.264,0 0,1.68 -3.264,0 0,6.648 q 0,1.248 0.312,1.776 0.312,0.504 1.056,0.504 0.624,0 1.056,-0.12 0.432,-0.144 0.96,-0.36 l 0.432,1.464 q -0.648,0.312 -1.416,0.504 -0.768,0.192 -1.656,0.192 -1.464,0 -2.064,-0.816 -0.6,-0.84 -0.6,-2.784 l 0,-7.008 -1.872,0 0,-1.68 z"
         style="line-height:100%"
         id="path3553" />
      <path
         d="m 256.17622,890.22162 q 0.912,-0.552 2.112,-0.816 1.224,-0.264 2.544,-0.264 1.248,0 1.992,0.336 0.768,0.336 1.152,0.888 0.408,0.528 0.528,1.176 0.144,0.648 0.144,1.296 0,1.44 -0.072,2.808 -0.072,1.368 -0.072,2.592 0,0.888 0.072,1.68 0.072,0.792 0.264,1.464 l -1.416,0 -0.504,-1.68 -0.12,0 q -0.216,0.336 -0.552,0.672 -0.312,0.312 -0.768,0.576 -0.456,0.24 -1.056,0.408 -0.6,0.168 -1.368,0.168 -0.768,0 -1.44,-0.24 -0.648,-0.24 -1.128,-0.672 -0.48,-0.456 -0.768,-1.08 -0.264,-0.624 -0.264,-1.416 0,-1.056 0.432,-1.752 0.432,-0.72 1.2,-1.128 0.792,-0.432 1.872,-0.6 1.104,-0.192 2.424,-0.192 0.336,0 0.648,0 0.336,0 0.672,0.048 0.072,-0.72 0.072,-1.296 0,-1.32 -0.528,-1.848 -0.528,-0.528 -1.92,-0.528 -0.408,0 -0.888,0.072 -0.456,0.048 -0.96,0.168 -0.48,0.096 -0.936,0.264 -0.432,0.144 -0.768,0.336 l -0.6,-1.44 z m 3.408,9.624 q 0.672,0 1.2,-0.168 0.528,-0.192 0.912,-0.456 0.384,-0.288 0.624,-0.624 0.264,-0.336 0.384,-0.648 l 0,-1.992 q -0.336,-0.024 -0.696,-0.024 -0.336,-0.024 -0.672,-0.024 -0.744,0 -1.464,0.096 -0.696,0.072 -1.248,0.312 -0.528,0.216 -0.864,0.624 -0.312,0.384 -0.312,0.984 0,0.84 0.6,1.392 0.6,0.528 1.536,0.528 z"
         style="line-height:100%"
         id="path3555" />
      <path
         d="m 273.55447,898.06962 q 0,-0.72 -0.432,-1.128 -0.432,-0.408 -1.08,-0.672 -0.624,-0.288 -1.392,-0.528 -0.744,-0.264 -1.392,-0.648 -0.624,-0.408 -1.056,-1.032 -0.432,-0.624 -0.432,-1.68 0,-1.728 0.984,-2.52 0.984,-0.816 2.736,-0.816 1.296,0 2.16,0.24 0.888,0.216 1.536,0.528 l -0.456,1.584 q -0.552,-0.264 -1.344,-0.456 -0.768,-0.216 -1.656,-0.216 -1.056,0 -1.56,0.36 -0.48,0.36 -0.48,1.248 0,0.624 0.432,0.984 0.432,0.336 1.056,0.624 0.648,0.264 1.392,0.528 0.768,0.264 1.392,0.696 0.648,0.432 1.08,1.104 0.432,0.648 0.432,1.728 0,0.768 -0.264,1.44 -0.24,0.672 -0.768,1.152 -0.528,0.48 -1.32,0.744 -0.768,0.288 -1.824,0.288 -1.368,0 -2.328,-0.264 -0.96,-0.264 -1.608,-0.624 l 0.576,-1.632 q 0.552,0.312 1.44,0.576 0.888,0.264 1.8,0.264 1.032,0 1.704,-0.408 0.672,-0.408 0.672,-1.464 z"
         style="line-height:100%"
         id="path3557" />
      <path
         d="m 281.42347,895.93362 -1.104,0 0,5.4 -1.92,0 0,-16.8 1.92,0 0,10.224 0.984,-0.336 3.72,-5.088 2.232,0 -3.672,4.824 -0.984,0.792 1.2,0.96 4.008,5.424 -2.376,0 -4.008,-5.4 z"
         style="line-height:100%"
         id="path3559" />
      <path
         d="m 295.16384,898.06962 q 0,-0.72 -0.432,-1.128 -0.432,-0.408 -1.08,-0.672 -0.624,-0.288 -1.392,-0.528 -0.744,-0.264 -1.392,-0.648 -0.624,-0.408 -1.056,-1.032 -0.432,-0.624 -0.432,-1.68 0,-1.728 0.984,-2.52 0.984,-0.816 2.736,-0.816 1.296,0 2.16,0.24 0.888,0.216 1.536,0.528 l -0.456,1.584 q -0.552,-0.264 -1.344,-0.456 -0.768,-0.216 -1.656,-0.216 -1.056,0 -1.56,0.36 -0.48,0.36 -0.48,1.248 0,0.624 0.432,0.984 0.432,0.336 1.056,0.624 0.648,0.264 1.392,0.528 0.768,0.264 1.392,0.696 0.648,0.432 1.08,1.104 0.432,0.648 0.432,1.728 0,0.768 -0.264,1.44 -0.24,0.672 -0.768,1.152 -0.528,0.48 -1.32,0.744 -0.768,0.288 -1.824,0.288 -1.368,0 -2.328,-0.264 -0.96,-0.264 -1.608,-0.624 l 0.576,-1.632 q 0.552,0.312 1.44,0.576 0.888,0.264 1.8,0.264 1.032,0 1.704,-0.408 0.672,-0.408 0.672,-1.464 z"
         style="line-height:100%"
         id="path3561" />
      <path
         d="m 299.12084,890.36562 10.176,0 0,1.728 -10.176,0 0,-1.728 z m 0,3.984 10.176,0 0,1.728 -10.176,0 0,-1.728 z"
         style="line-height:100%"
         id="path3563" />
      <path
         d="m 312.89347,899.55762 3.36,0 0,-11.616 0.24,-1.416 -0.96,1.128 -2.64,1.896 -0.912,-1.224 5.28,-4.08 0.864,0 0,15.312 3.288,0 0,1.776 -8.52,0 0,-1.776 z"
         style="line-height:100%"
         id="path3565" />
      <path
         d="m 328.49159,899.94162 q 1.656,0 2.736,-0.96 1.08,-0.96 1.08,-2.784 0,-1.752 -1.08,-2.616 -1.056,-0.864 -2.928,-0.864 l -2.016,0.12 0,-8.304 7.488,0 0,1.776 -5.688,0 0,4.776 1.032,-0.048 q 2.376,0.024 3.744,1.32 1.368,1.296 1.368,3.72 0,1.344 -0.456,2.4 -0.456,1.032 -1.248,1.728 -0.768,0.696 -1.824,1.056 -1.056,0.36 -2.256,0.36 -1.08,0 -1.824,-0.12 -0.744,-0.12 -1.392,-0.36 l 0.504,-1.632 q 0.552,0.216 1.176,0.336 0.648,0.096 1.584,0.096 z"
         style="line-height:100%"
         id="path3567" />
      <path
         d="m 338.08972,897.32562 q 0,-1.512 0.792,-2.616 0.792,-1.128 2.472,-2.04 -0.6,-0.36 -1.128,-0.744 -0.504,-0.408 -0.912,-0.912 -0.384,-0.504 -0.624,-1.128 -0.216,-0.624 -0.216,-1.44 0,-0.936 0.312,-1.704 0.336,-0.768 0.936,-1.32 0.624,-0.552 1.464,-0.864 0.864,-0.312 1.944,-0.312 1.008,0 1.824,0.288 0.816,0.288 1.368,0.792 0.576,0.504 0.888,1.2 0.312,0.696 0.312,1.536 0,1.368 -0.624,2.424 -0.624,1.032 -2.064,2.04 0.624,0.36 1.176,0.792 0.576,0.432 0.984,0.96 0.432,0.528 0.672,1.2 0.24,0.648 0.24,1.488 0,1.032 -0.336,1.896 -0.336,0.84 -0.984,1.464 -0.648,0.6 -1.584,0.96 -0.936,0.336 -2.136,0.336 -1.152,0 -2.04,-0.336 -0.888,-0.336 -1.512,-0.912 -0.6,-0.576 -0.912,-1.344 -0.312,-0.792 -0.312,-1.704 z m 7.944,-0.24 q 0,-0.72 -0.288,-1.248 -0.288,-0.552 -0.768,-0.984 -0.456,-0.456 -1.056,-0.816 -0.6,-0.36 -1.248,-0.696 -1.464,0.816 -2.088,1.824 -0.624,1.008 -0.624,1.92 0,0.576 0.192,1.104 0.192,0.528 0.576,0.912 0.384,0.384 0.936,0.624 0.576,0.216 1.32,0.216 0.6,0 1.152,-0.168 0.552,-0.192 0.96,-0.528 0.432,-0.36 0.672,-0.888 0.264,-0.552 0.264,-1.272 z m -5.688,-8.688 q 0,0.672 0.264,1.2 0.264,0.504 0.696,0.912 0.456,0.408 1.032,0.768 0.576,0.336 1.2,0.648 1.08,-0.84 1.584,-1.656 0.528,-0.816 0.528,-1.8 0,-1.224 -0.768,-1.872 -0.744,-0.672 -1.8,-0.672 -0.648,0 -1.152,0.216 -0.504,0.216 -0.864,0.552 -0.36,0.336 -0.552,0.792 -0.168,0.432 -0.168,0.912 z"
         style="line-height:100%"
         id="path3569" />
      <path
         d="m 360.23984,888.34962 q 0,1.272 -0.48,2.616 -0.456,1.32 -1.224,2.664 -0.744,1.344 -1.68,2.64 -0.936,1.272 -1.872,2.424 l -1.176,1.032 0,0.096 1.536,-0.264 5.232,0 0,1.776 -9.552,0 0,-0.696 q 0.528,-0.552 1.272,-1.368 0.744,-0.816 1.536,-1.8 0.816,-1.008 1.584,-2.112 0.792,-1.128 1.416,-2.28 0.648,-1.152 1.032,-2.28 0.384,-1.128 0.384,-2.136 0,-1.176 -0.672,-1.944 -0.672,-0.792 -2.04,-0.792 -0.912,0 -1.776,0.384 -0.864,0.36 -1.488,0.84 l -0.792,-1.368 q 0.84,-0.72 1.992,-1.128 1.152,-0.408 2.472,-0.408 1.032,0 1.824,0.312 0.792,0.288 1.344,0.84 0.552,0.552 0.84,1.32 0.288,0.744 0.288,1.632 z"
         style="line-height:100%"
         id="path3571" />
      <path
         d="m 375.18997,896.17362 -2.832,0 0,5.16 -1.872,0 0,-5.16 -7.392,0 0,-0.792 7.968,-11.112 1.296,0 0,10.224 2.832,0 0,1.68 z m -4.704,-6.912 0.24,-1.968 -0.072,0 -0.84,1.632 -3.384,4.584 -1.152,1.176 1.68,-0.192 3.528,0 0,-5.232 z"
         style="line-height:100%"
         id="path3573" />
    </g>
    <path
       style="fill:none;stroke:#000000;stroke-width:4;stroke-linecap:butt;stroke-linejoin:miter;stroke-miterlimit:4;stroke-dasharray:none;stroke-opacity:1"
       d="m 137.29253,844.93362 73.57144,0"
       id="path3789-6"
       inkscape:connector-curvature="0" />
    <circle
       style="color:#000000;display:inline;overflow:visible;visibility:visible;fill:#cd5555;fill-opacity:1;fill-rule:nonzero;stroke:#000000;stroke-width:1;stroke-linejoin:round;stroke-miterlimit:4;stroke-dasharray:none;stroke-dashoffset:0;stroke-opacity:1;marker:none;enable-background:accumulate"
       id="path2985-5-5"
       cx="221.00682"
       cy="844.93359"
       r="11.071428" />
    <g
       style="font-style:normal;font-variant:normal;font-weight:normal;font-stretch:normal;font-size:24px;line-height:100%;font-family:'PT Sans';-inkscape-font-specification:'PT Sans';text-align:start;letter-spacing:0px;word-spacing:0px;text-anchor:start;fill:#000000;fill-opacity:1;stroke:none"
       id="text3817-9">
      <path
         d="m 248.21197,950.40392 1.92,0 0,5.976 0.096,0 q 0.552,-0.696 1.392,-1.08 0.864,-0.384 1.872,-0.384 2.328,0 3.48,1.488 1.176,1.488 1.176,4.608 0,3.144 -1.536,4.776 -1.536,1.632 -4.32,1.632 -1.344,0 -2.448,-0.288 -1.08,-0.288 -1.632,-0.624 l 0,-16.104 z m 4.944,6.192 q -1.2,0 -1.944,0.672 -0.744,0.672 -1.08,1.896 l 0,6.048 q 0.456,0.264 1.104,0.408 0.648,0.12 1.344,0.12 1.632,0 2.592,-1.152 0.984,-1.152 0.984,-3.6 0,-0.936 -0.168,-1.752 -0.168,-0.816 -0.528,-1.392 -0.36,-0.576 -0.936,-0.912 -0.552,-0.336 -1.368,-0.336 z"
         style="line-height:100%"
         id="path3408" />
      <path
         d="m 264.41347,965.81192 q 1.656,0 2.736,-0.96 1.08,-0.96 1.08,-2.784 0,-1.752 -1.08,-2.616 -1.056,-0.864 -2.928,-0.864 l -2.016,0.12 0,-8.304 7.488,0 0,1.776 -5.688,0 0,4.776 1.032,-0.048 q 2.376,0.024 3.744,1.32 1.368,1.296 1.368,3.72 0,1.344 -0.456,2.4 -0.456,1.032 -1.248,1.728 -0.768,0.696 -1.824,1.056 -1.056,0.36 -2.256,0.36 -1.08,0 -1.824,-0.12 -0.744,-0.12 -1.392,-0.36 l 0.504,-1.632 q 0.552,0.216 1.176,0.336 0.648,0.096 1.584,0.096 z"
         style="line-height:100%"
         id="path3410" />
      <path
         d="m 274.03559,956.09192 q 0.912,-0.552 2.112,-0.816 1.224,-0.264 2.544,-0.264 1.248,0 1.992,0.336 0.768,0.336 1.152,0.888 0.408,0.528 0.528,1.176 0.144,0.648 0.144,1.296 0,1.44 -0.072,2.808 -0.072,1.368 -0.072,2.592 0,0.888 0.072,1.68 0.072,0.792 0.264,1.464 l -1.416,0 -0.504,-1.68 -0.12,0 q -0.216,0.336 -0.552,0.672 -0.312,0.312 -0.768,0.576 -0.456,0.24 -1.056,0.408 -0.6,0.168 -1.368,0.168 -0.768,0 -1.44,-0.24 -0.648,-0.24 -1.128,-0.672 -0.48,-0.456 -0.768,-1.08 -0.264,-0.624 -0.264,-1.416 0,-1.056 0.432,-1.752 0.432,-0.72 1.2,-1.128 0.792,-0.432 1.872,-0.6 1.104,-0.192 2.424,-0.192 0.336,0 0.648,0 0.336,0 0.672,0.048 0.072,-0.72 0.072,-1.296 0,-1.32 -0.528,-1.848 -0.528,-0.528 -1.92,-0.528 -0.408,0 -0.888,0.072 -0.456,0.048 -0.96,0.168 -0.48,0.096 -0.936,0.264 -0.432,0.144 -0.768,0.336 l -0.6,-1.44 z m 3.408,9.624 q 0.672,0 1.2,-0.168 0.528,-0.192 0.912,-0.456 0.384,-0.288 0.624,-0.624 0.264,-0.336 0.384,-0.648 l 0,-1.992 q -0.336,-0.024 -0.696,-0.024 -0.336,-0.024 -0.672,-0.024 -0.744,0 -1.464,0.096 -0.696,0.072 -1.248,0.312 -0.528,0.216 -0.864,0.624 -0.312,0.384 -0.312,0.984 0,0.84 0.6,1.392 0.6,0.528 1.536,0.528 z"
         style="line-height:100%"
         id="path3412" />
      <path
         d="m 286.92584,967.20392 6.024,-14.064 1.056,-1.176 -1.416,0.216 -6.84,0 0,-1.776 10.032,0 0,0.648 -6.912,16.152 -1.944,0 z"
         style="line-height:100%"
         id="path3414" />
      <path
         d="m 308.06797,954.21992 q 0,1.272 -0.48,2.616 -0.456,1.32 -1.224,2.664 -0.744,1.344 -1.68,2.64 -0.936,1.272 -1.872,2.424 l -1.176,1.032 0,0.096 1.536,-0.264 5.232,0 0,1.776 -9.552,0 0,-0.696 q 0.528,-0.552 1.272,-1.368 0.744,-0.816 1.536,-1.8 0.816,-1.008 1.584,-2.112 0.792,-1.128 1.416,-2.28 0.648,-1.152 1.032,-2.28 0.384,-1.128 0.384,-2.136 0,-1.176 -0.672,-1.944 -0.672,-0.792 -2.04,-0.792 -0.912,0 -1.776,0.384 -0.864,0.36 -1.488,0.84 l -0.792,-1.368 q 0.84,-0.72 1.992,-1.128 1.152,-0.408 2.472,-0.408 1.032,0 1.824,0.312 0.792,0.288 1.344,0.84 0.552,0.552 0.84,1.32 0.288,0.744 0.288,1.632 z"
         style="line-height:100%"
         id="path3416" />
      <path
         d="m 321.50609,963.07592 q 0,1.224 0.024,2.232 0.024,0.984 0.216,1.944 l -1.296,0 -0.48,-1.704 -0.096,0 q -0.48,0.84 -1.392,1.392 -0.912,0.552 -2.136,0.552 -2.4,0 -3.576,-1.512 -1.152,-1.512 -1.152,-4.728 0,-3.072 1.44,-4.656 1.464,-1.608 4.008,-1.608 0.888,0 1.392,0.096 0.528,0.096 1.128,0.312 l 0,-4.992 1.92,0 0,12.672 z m -4.848,2.736 q 1.224,0 1.944,-0.624 0.72,-0.648 0.984,-1.944 l 0,-5.952 q -0.432,-0.336 -0.984,-0.48 -0.552,-0.144 -1.464,-0.144 -1.656,0 -2.592,1.104 -0.936,1.08 -0.936,3.48 0,0.984 0.144,1.824 0.168,0.84 0.528,1.44 0.36,0.6 0.936,0.96 0.6,0.336 1.44,0.336 z"
         style="line-height:100%"
         id="path3418" />
      <path
         d="m 325.18072,950.40392 1.92,0 0,5.976 0.096,0 q 0.552,-0.696 1.392,-1.08 0.864,-0.384 1.872,-0.384 2.328,0 3.48,1.488 1.176,1.488 1.176,4.608 0,3.144 -1.536,4.776 -1.536,1.632 -4.32,1.632 -1.344,0 -2.448,-0.288 -1.08,-0.288 -1.632,-0.624 l 0,-16.104 z m 4.944,6.192 q -1.2,0 -1.944,0.672 -0.744,0.672 -1.08,1.896 l 0,6.048 q 0.456,0.264 1.104,0.408 0.648,0.12 1.344,0.12 1.632,0 2.592,-1.152 0.984,-1.152 0.984,-3.6 0,-0.936 -0.168,-1.752 -0.168,-0.816 -0.528,-1.392 -0.36,-0.576 -0.936,-0.912 -0.552,-0.336 -1.368,-0.336 z"
         style="line-height:100%"
         id="path3420" />
      <path
         d="m 338.11822,950.40392 1.92,0 0,5.976 0.096,0 q 0.552,-0.696 1.392,-1.08 0.864,-0.384 1.872,-0.384 2.328,0 3.48,1.488 1.176,1.488 1.176,4.608 0,3.144 -1.536,4.776 -1.536,1.632 -4.32,1.632 -1.344,0 -2.448,-0.288 -1.08,-0.288 -1.632,-0.624 l 0,-16.104 z m 4.944,6.192 q -1.2,0 -1.944,0.672 -0.744,0.672 -1.08,1.896 l 0,6.048 q 0.456,0.264 1.104,0.408 0.648,0.12 1.344,0.12 1.632,0 2.592,-1.152 0.984,-1.152 0.984,-3.6 0,-0.936 -0.168,-1.752 -0.168,-0.816 -0.528,-1.392 -0.36,-0.576 -0.936,-0.912 -0.552,-0.336 -1.368,-0.336 z"
         style="line-height:100%"
         id="path3422" />
      <path
         d="m 359.91172,954.21992 q 0,1.272 -0.48,2.616 -0.456,1.32 -1.224,2.664 -0.744,1.344 -1.68,2.64 -0.936,1.272 -1.872,2.424 l -1.176,1.032 0,0.096 1.536,-0.264 5.232,0 0,1.776 -9.552,0 0,-0.696 q 0.528,-0.552 1.272,-1.368 0.744,-0.816 1.536,-1.8 0.816,-1.008 1.584,-2.112 0.792,-1.128 1.416,-2.28 0.648,-1.152 1.032,-2.28 0.384,-1.128 0.384,-2.136 0,-1.176 -0.672,-1.944 -0.672,-0.792 -2.04,-0.792 -0.912,0 -1.776,0.384 -0.864,0.36 -1.488,0.84 l -0.792,-1.368 q 0.84,-0.72 1.992,-1.128 1.152,-0.408 2.472,-0.408 1.032,0 1.824,0.312 0.792,0.288 1.344,0.84 0.552,0.552 0.84,1.32 0.288,0.744 0.288,1.632 z"
         style="line-height:100%"
         id="path3424" />
      <path
         d="m 372.98984,954.21992 q 0,1.272 -0.48,2.616 -0.456,1.32 -1.224,2.664 -0.744,1.344 -1.68,2.64 -0.936,1.272 -1.872,2.424 l -1.176,1.032 0,0.096 1.536,-0.264 5.232,0 0,1.776 -9.552,0 0,-0.696 q 0.528,-0.552 1.272,-1.368 0.744,-0.816 1.536,-1.8 0.816,-1.008 1.584,-2.112 0.792,-1.128 1.416,-2.28 0.648,-1.152 1.032,-2.28 0.384,-1.128 0.384,-2.136 0,-1.176 -0.672,-1.944 -0.672,-0.792 -2.04,-0.792 -0.912,0 -1.776,0.384 -0.864,0.36 -1.488,0.84 l -0.792,-1.368 q 0.84,-0.72 1.992,-1.128 1.152,-0.408 2.472,-0.408 1.032,0 1.824,0.312 0.792,0.288 1.344,0.84 0.552,0.552 0.84,1.32 0.288,0.744 0.288,1.632 z"
         style="line-height:100%"
         id="path3426" />
      <path
         d="m 387.93997,962.04392 -2.832,0 0,5.16 -1.872,0 0,-5.16 -7.392,0 0,-0.792 7.968,-11.112 1.296,0 0,10.224 2.832,0 0,1.68 z m -4.704,-6.912 0.24,-1.968 -0.072,0 -0.84,1.632 -3.384,4.584 -1.152,1.176 1.68,-0.192 3.528,0 0,-5.232 z"
         style="line-height:100%"
         id="path3428" />
      <path
         d="m 388.97009,955.20392 1.872,0 0,-0.672 q 0,-1.104 0.168,-1.92 0.192,-0.816 0.6,-1.32 0.408,-0.528 1.056,-0.768 0.648,-0.264 1.608,-0.264 0.768,0 1.344,0.096 0.6,0.096 1.248,0.36 l -0.432,1.608 q -0.552,-0.24 -1.056,-0.312 -0.48,-0.072 -0.912,-0.072 -0.624,0 -0.984,0.192 -0.336,0.192 -0.504,0.576 -0.144,0.36 -0.192,0.912 -0.024,0.528 -0.024,1.248 l 0,0.336 3.192,0 0,1.68 -3.192,0 0,10.32 -1.92,0 0,-10.32 -1.872,0 0,-1.68 z"
         style="line-height:100%"
         id="path3430" />
      <path
         d="m 403.35247,966.09992 q 0,-0.648 0.36,-1.008 0.384,-0.384 1.008,-0.384 0.648,0 1.032,0.384 0.384,0.36 0.384,1.008 0,0.624 -0.384,1.008 -0.384,0.384 -1.032,0.384 -0.624,0 -1.008,-0.384 -0.36,-0.384 -0.36,-1.008 z"
         style="line-height:100%"
         id="path3432" />
      <path
         d="m 410.05559,966.09992 q 0,-0.648 0.36,-1.008 0.384,-0.384 1.008,-0.384 0.648,0 1.032,0.384 0.384,0.36 0.384,1.008 0,0.624 -0.384,1.008 -0.384,0.384 -1.032,0.384 -0.624,0 -1.008,-0.384 -0.36,-0.384 -0.36,-1.008 z"
         style="line-height:100%"
         id="path3434" />
      <path
         d="m 416.75872,966.09992 q 0,-0.648 0.36,-1.008 0.384,-0.384 1.008,-0.384 0.648,0 1.032,0.384 0.384,0.36 0.384,1.008 0,0.624 -0.384,1.008 -0.384,0.384 -1.032,0.384 -0.624,0 -1.008,-0.384 -0.36,-0.384 -0.36,-1.008 z"
         style="line-height:100%"
         id="path3436" />
      <path
         d="m 423.46184,966.09992 q 0,-0.648 0.36,-1.008 0.384,-0.384 1.008,-0.384 0.648,0 1.032,0.384 0.384,0.36 0.384,1.008 0,0.624 -0.384,1.008 -0.384,0.384 -1.032,0.384 -0.624,0 -1.008,-0.384 -0.36,-0.384 -0.36,-1.008 z"
         style="line-height:100%"
         id="path3438" />
      <path
         d="m 256.39597,990.41192 q -0.72,0.528 -1.704,0.792 -0.984,0.288 -2.064,0.288 -1.392,0 -2.352,-0.432 -0.96,-0.456 -1.584,-1.272 -0.6,-0.84 -0.888,-1.992 -0.264,-1.176 -0.264,-2.592 0,-3.048 1.344,-4.656 1.344,-1.632 3.864,-1.632 1.152,0 1.944,0.192 0.816,0.168 1.464,0.504 l -0.552,1.656 q -0.552,-0.312 -1.224,-0.48 -0.672,-0.192 -1.44,-0.192 -3.408,0 -3.408,4.608 0,0.912 0.168,1.752 0.192,0.816 0.6,1.464 0.432,0.624 1.104,1.008 0.696,0.384 1.704,0.384 0.864,0 1.536,-0.264 0.696,-0.264 1.128,-0.6 l 0.624,1.464 z"
         style="line-height:100%"
         id="path3440" />
      <path
         d="m 259.04009,979.20392 1.32,0 0.36,1.44 0.096,0 q 0.552,-0.84 1.416,-1.272 0.888,-0.456 2.016,-0.456 2.4,0 3.576,1.416 1.176,1.416 1.176,4.632 0,1.512 -0.408,2.736 -0.384,1.2 -1.104,2.04 -0.72,0.84 -1.752,1.296 -1.008,0.456 -2.256,0.456 -0.888,0 -1.416,-0.12 -0.504,-0.096 -1.104,-0.36 l 0,4.992 -1.92,0 0,-16.8 z m 4.848,1.392 q -1.224,0 -1.944,0.648 -0.696,0.624 -0.984,1.92 l 0,5.952 q 0.432,0.336 0.984,0.528 0.552,0.168 1.464,0.168 1.656,0 2.616,-1.224 0.984,-1.248 0.984,-3.648 0,-0.984 -0.168,-1.776 -0.168,-0.816 -0.552,-1.368 -0.36,-0.576 -0.96,-0.888 -0.576,-0.312 -1.44,-0.312 z"
         style="line-height:100%"
         id="path3442" />
      <path
         d="m 273.75247,979.20392 0,6.84 q 0,0.936 0.096,1.656 0.12,0.696 0.384,1.176 0.264,0.456 0.72,0.696 0.456,0.24 1.152,0.24 0.648,0 1.152,-0.192 0.504,-0.216 0.888,-0.576 0.408,-0.36 0.696,-0.816 0.312,-0.48 0.504,-1.008 l 0,-8.016 1.92,0 0,8.592 q 0,0.864 0.048,1.8 0.072,0.912 0.216,1.608 l -1.32,0 -0.48,-1.896 -0.12,0 q -0.552,0.936 -1.488,1.56 -0.936,0.624 -2.376,0.624 -0.96,0 -1.704,-0.24 -0.72,-0.216 -1.224,-0.792 -0.48,-0.576 -0.744,-1.536 -0.24,-0.984 -0.24,-2.472 l 0,-7.248 1.92,0 z"
         style="line-height:100%"
         id="path3444" />
      <path
         d="m 284.28997,990.09992 q 0,-0.648 0.36,-1.008 0.384,-0.384 1.008,-0.384 0.648,0 1.032,0.384 0.384,0.36 0.384,1.008 0,0.624 -0.384,1.008 -0.384,0.384 -1.032,0.384 -0.624,0 -1.008,-0.384 -0.36,-0.384 -0.36,-1.008 z"
         style="line-height:100%"
         id="path3446" />
      <path
         d="m 295.39822,987.93992 q 0,-0.72 -0.432,-1.128 -0.432,-0.408 -1.08,-0.672 -0.624,-0.288 -1.392,-0.528 -0.744,-0.264 -1.392,-0.648 -0.624,-0.408 -1.056,-1.032 -0.432,-0.624 -0.432,-1.68 0,-1.728 0.984,-2.52 0.984,-0.816 2.736,-0.816 1.296,0 2.16,0.24 0.888,0.216 1.536,0.528 l -0.456,1.584 q -0.552,-0.264 -1.344,-0.456 -0.768,-0.216 -1.656,-0.216 -1.056,0 -1.56,0.36 -0.48,0.36 -0.48,1.248 0,0.624 0.432,0.984 0.432,0.336 1.056,0.624 0.648,0.264 1.392,0.528 0.768,0.264 1.392,0.696 0.648,0.432 1.08,1.104 0.432,0.648 0.432,1.728 0,0.768 -0.264,1.44 -0.24,0.672 -0.768,1.152 -0.528,0.48 -1.32,0.744 -0.768,0.288 -1.824,0.288 -1.368,0 -2.328,-0.264 -0.96,-0.264 -1.608,-0.624 l 0.576,-1.632 q 0.552,0.312 1.44,0.576 0.888,0.264 1.8,0.264 1.032,0 1.704,-0.408 0.672,-0.408 0.672,-1.464 z"
         style="line-height:100%"
         id="path3448" />
      <path
         d="m 307.94722,991.20392 0,-6.84 q 0,-0.936 -0.12,-1.632 -0.096,-0.72 -0.384,-1.176 -0.288,-0.48 -0.792,-0.72 -0.48,-0.24 -1.272,-0.24 -1.128,0 -2.04,0.744 -0.912,0.72 -1.176,1.872 l 0,7.992 -1.92,0 0,-16.8 1.92,0 0,6.144 0.096,0 q 0.624,-0.744 1.488,-1.176 0.888,-0.456 2.184,-0.456 1.008,0 1.752,0.24 0.744,0.216 1.224,0.792 0.504,0.576 0.72,1.56 0.24,0.96 0.24,2.448 l 0,7.248 -1.92,0 z"
         style="line-height:100%"
         id="path3450" />
      <path
         d="m 313.17622,980.09192 q 0.912,-0.552 2.112,-0.816 1.224,-0.264 2.544,-0.264 1.248,0 1.992,0.336 0.768,0.336 1.152,0.888 0.408,0.528 0.528,1.176 0.144,0.648 0.144,1.296 0,1.44 -0.072,2.808 -0.072,1.368 -0.072,2.592 0,0.888 0.072,1.68 0.072,0.792 0.264,1.464 l -1.416,0 -0.504,-1.68 -0.12,0 q -0.216,0.336 -0.552,0.672 -0.312,0.312 -0.768,0.576 -0.456,0.24 -1.056,0.408 -0.6,0.168 -1.368,0.168 -0.768,0 -1.44,-0.24 -0.648,-0.24 -1.128,-0.672 -0.48,-0.456 -0.768,-1.08 -0.264,-0.624 -0.264,-1.416 0,-1.056 0.432,-1.752 0.432,-0.72 1.2,-1.128 0.792,-0.432 1.872,-0.6 1.104,-0.192 2.424,-0.192 0.336,0 0.648,0 0.336,0 0.672,0.048 0.072,-0.72 0.072,-1.296 0,-1.32 -0.528,-1.848 -0.528,-0.528 -1.92,-0.528 -0.408,0 -0.888,0.072 -0.456,0.048 -0.96,0.168 -0.48,0.096 -0.936,0.264 -0.432,0.144 -0.768,0.336 l -0.6,-1.44 z m 3.408,9.624 q 0.672,0 1.2,-0.168 0.528,-0.192 0.912,-0.456 0.384,-0.288 0.624,-0.624 0.264,-0.336 0.384,-0.648 l 0,-1.992 q -0.336,-0.024 -0.696,-0.024 -0.336,-0.024 -0.672,-0.024 -0.744,0 -1.464,0.096 -0.696,0.072 -1.248,0.312 -0.528,0.216 -0.864,0.624 -0.312,0.384 -0.312,0.984 0,0.84 0.6,1.392 0.6,0.528 1.536,0.528 z"
         style="line-height:100%"
         id="path3452" />
      <path
         d="m 330.93847,981.05192 q -0.72,-0.24 -1.368,-0.24 -1.032,0 -1.632,0.576 -0.6,0.552 -0.744,1.416 l 0,8.4 -1.92,0 0,-12 1.344,0 0.36,1.464 0.096,0 q 0.456,-0.816 1.08,-1.248 0.648,-0.456 1.632,-0.456 0.696,0 1.56,0.24 l -0.408,1.848 z"
         style="line-height:100%"
         id="path3454" />
      <path
         d="m 342.19072,990.24392 q -0.72,0.576 -1.824,0.912 -1.08,0.336 -2.304,0.336 -1.368,0 -2.376,-0.432 -1.008,-0.456 -1.656,-1.272 -0.648,-0.84 -0.96,-1.992 -0.312,-1.152 -0.312,-2.592 0,-3.072 1.368,-4.68 1.368,-1.608 3.912,-1.608 0.816,0 1.632,0.192 0.816,0.168 1.464,0.672 0.648,0.504 1.056,1.44 0.408,0.912 0.408,2.424 0,0.792 -0.144,1.752 l -7.704,0 q 0,1.056 0.216,1.872 0.216,0.816 0.672,1.392 0.456,0.552 1.176,0.864 0.744,0.288 1.8,0.288 0.816,0 1.632,-0.288 0.816,-0.288 1.224,-0.672 l 0.72,1.392 z m -4.128,-9.648 q -1.416,0 -2.28,0.744 -0.84,0.744 -1.008,2.544 l 5.952,0 q 0,-1.824 -0.696,-2.544 -0.696,-0.744 -1.968,-0.744 z"
         style="line-height:100%"
         id="path3456" />
      <path
         d="m 350.89822,987.93992 q 0,-0.72 -0.432,-1.128 -0.432,-0.408 -1.08,-0.672 -0.624,-0.288 -1.392,-0.528 -0.744,-0.264 -1.392,-0.648 -0.624,-0.408 -1.056,-1.032 -0.432,-0.624 -0.432,-1.68 0,-1.728 0.984,-2.52 0.984,-0.816 2.736,-0.816 1.296,0 2.16,0.24 0.888,0.216 1.536,0.528 l -0.456,1.584 q -0.552,-0.264 -1.344,-0.456 -0.768,-0.216 -1.656,-0.216 -1.056,0 -1.56,0.36 -0.48,0.36 -0.48,1.248 0,0.624 0.432,0.984 0.432,0.336 1.056,0.624 0.648,0.264 1.392,0.528 0.768,0.264 1.392,0.696 0.648,0.432 1.08,1.104 0.432,0.648 0.432,1.728 0,0.768 -0.264,1.44 -0.24,0.672 -0.768,1.152 -0.528,0.48 -1.32,0.744 -0.768,0.288 -1.824,0.288 -1.368,0 -2.328,-0.264 -0.96,-0.264 -1.608,-0.624 l 0.576,-1.632 q 0.552,0.312 1.44,0.576 0.888,0.264 1.8,0.264 1.032,0 1.704,-0.408 0.672,-0.408 0.672,-1.464 z"
         style="line-height:100%"
         id="path3458" />
      <path
         d="m 354.85522,980.23592 10.176,0 0,1.728 -10.176,0 0,-1.728 z m 0,3.984 10.176,0 0,1.728 -10.176,0 0,-1.728 z"
         style="line-height:100%"
         id="path3460" />
      <path
         d="m 371.14784,989.81192 q 1.656,0 2.736,-0.96 1.08,-0.96 1.08,-2.784 0,-1.752 -1.08,-2.616 -1.056,-0.864 -2.928,-0.864 l -2.016,0.12 0,-8.304 7.488,0 0,1.776 -5.688,0 0,4.776 1.032,-0.048 q 2.376,0.024 3.744,1.32 1.368,1.296 1.368,3.72 0,1.344 -0.456,2.4 -0.456,1.032 -1.248,1.728 -0.768,0.696 -1.824,1.056 -1.056,0.36 -2.256,0.36 -1.08,0 -1.824,-0.12 -0.744,-0.12 -1.392,-0.36 l 0.504,-1.632 q 0.552,0.216 1.176,0.336 0.648,0.096 1.584,0.096 z"
         style="line-height:100%"
         id="path3462" />
      <path
         d="m 381.70597,989.42792 3.36,0 0,-11.616 0.24,-1.416 -0.96,1.128 -2.64,1.896 -0.912,-1.224 5.28,-4.08 0.864,0 0,15.312 3.288,0 0,1.776 -8.52,0 0,-1.776 z"
         style="line-height:100%"
         id="path3464" />
      <path
         d="m 402.89609,978.21992 q 0,1.272 -0.48,2.616 -0.456,1.32 -1.224,2.664 -0.744,1.344 -1.68,2.64 -0.936,1.272 -1.872,2.424 l -1.176,1.032 0,0.096 1.536,-0.264 5.232,0 0,1.776 -9.552,0 0,-0.696 q 0.528,-0.552 1.272,-1.368 0.744,-0.816 1.536,-1.8 0.816,-1.008 1.584,-2.112 0.792,-1.128 1.416,-2.28 0.648,-1.152 1.032,-2.28 0.384,-1.128 0.384,-2.136 0,-1.176 -0.672,-1.944 -0.672,-0.792 -2.04,-0.792 -0.912,0 -1.776,0.384 -0.864,0.36 -1.488,0.84 l -0.792,-1.368 q 0.84,-0.72 1.992,-1.128 1.152,-0.408 2.472,-0.408 1.032,0 1.824,0.312 0.792,0.288 1.344,0.84 0.552,0.552 0.84,1.32 0.288,0.744 0.288,1.632 z"
         style="line-height:100%"
         id="path3466" />
      <path
         d="m 246.62797,1003.2039 1.872,0 0,-2.376 1.92,-0.552 0,2.928 3.264,0 0,1.68 -3.264,0 0,6.648 q 0,1.248 0.312,1.776 0.312,0.504 1.056,0.504 0.624,0 1.056,-0.12 0.432,-0.144 0.96,-0.36 l 0.432,1.464 q -0.648,0.312 -1.416,0.504 -0.768,0.192 -1.656,0.192 -1.464,0 -2.064,-0.816 -0.6,-0.84 -0.6,-2.784 l 0,-7.008 -1.872,0 0,-1.68 z"
         style="line-height:100%"
         id="path3468" />
      <path
         d="m 256.17622,1004.0919 q 0.912,-0.552 2.112,-0.816 1.224,-0.264 2.544,-0.264 1.248,0 1.992,0.336 0.768,0.336 1.152,0.888 0.408,0.528 0.528,1.176 0.144,0.648 0.144,1.296 0,1.44 -0.072,2.808 -0.072,1.368 -0.072,2.592 0,0.888 0.072,1.68 0.072,0.792 0.264,1.464 l -1.416,0 -0.504,-1.68 -0.12,0 q -0.216,0.336 -0.552,0.672 -0.312,0.312 -0.768,0.576 -0.456,0.24 -1.056,0.408 -0.6,0.168 -1.368,0.168 -0.768,0 -1.44,-0.24 -0.648,-0.24 -1.128,-0.672 -0.48,-0.456 -0.768,-1.08 -0.264,-0.624 -0.264,-1.416 0,-1.056 0.432,-1.752 0.432,-0.72 1.2,-1.128 0.792,-0.432 1.872,-0.6 1.104,-0.192 2.424,-0.192 0.336,0 0.648,0 0.336,0 0.672,0.048 0.072,-0.72 0.072,-1.296 0,-1.32 -0.528,-1.848 -0.528,-0.528 -1.92,-0.528 -0.408,0 -0.888,0.072 -0.456,0.048 -0.96,0.168 -0.48,0.096 -0.936,0.264 -0.432,0.144 -0.768,0.336 l -0.6,-1.44 z m 3.408,9.624 q 0.672,0 1.2,-0.168 0.528,-0.192 0.912,-0.456 0.384,-0.288 0.624,-0.624 0.264,-0.336 0.384,-0.648 l 0,-1.992 q -0.336,-0.024 -0.696,-0.024 -0.336,-0.024 -0.672,-0.024 -0.744,0 -1.464,0.096 -0.696,0.072 -1.248,0.312 -0.528,0.216 -0.864,0.624 -0.312,0.384 -0.312,0.984 0,0.84 0.6,1.392 0.6,0.528 1.536,0.528 z"
         style="line-height:100%"
         id="path3470" />
      <path
         d="m 273.55447,1011.9399 q 0,-0.72 -0.432,-1.128 -0.432,-0.408 -1.08,-0.672 -0.624,-0.288 -1.392,-0.528 -0.744,-0.264 -1.392,-0.648 -0.624,-0.408 -1.056,-1.032 -0.432,-0.624 -0.432,-1.68 0,-1.728 0.984,-2.52 0.984,-0.816 2.736,-0.816 1.296,0 2.16,0.24 0.888,0.216 1.536,0.528 l -0.456,1.584 q -0.552,-0.264 -1.344,-0.456 -0.768,-0.216 -1.656,-0.216 -1.056,0 -1.56,0.36 -0.48,0.36 -0.48,1.248 0,0.624 0.432,0.984 0.432,0.336 1.056,0.624 0.648,0.264 1.392,0.528 0.768,0.264 1.392,0.696 0.648,0.432 1.08,1.104 0.432,0.648 0.432,1.728 0,0.768 -0.264,1.44 -0.24,0.672 -0.768,1.152 -0.528,0.48 -1.32,0.744 -0.768,0.288 -1.824,0.288 -1.368,0 -2.328,-0.264 -0.96,-0.264 -1.608,-0.624 l 0.576,-1.632 q 0.552,0.312 1.44,0.576 0.888,0.264 1.8,0.264 1.032,0 1.704,-0.408 0.672,-0.408 0.672,-1.464 z"
         style="line-height:100%"
         id="path3472" />
      <path
         d="m 281.42347,1009.8039 -1.104,0 0,5.4 -1.92,0 0,-16.79998 1.92,0 0,10.22398 0.984,-0.336 3.72,-5.088 2.232,0 -3.672,4.824 -0.984,0.792 1.2,0.96 4.008,5.424 -2.376,0 -4.008,-5.4 z"
         style="line-height:100%"
         id="path3474" />
      <path
         d="m 295.16384,1011.9399 q 0,-0.72 -0.432,-1.128 -0.432,-0.408 -1.08,-0.672 -0.624,-0.288 -1.392,-0.528 -0.744,-0.264 -1.392,-0.648 -0.624,-0.408 -1.056,-1.032 -0.432,-0.624 -0.432,-1.68 0,-1.728 0.984,-2.52 0.984,-0.816 2.736,-0.816 1.296,0 2.16,0.24 0.888,0.216 1.536,0.528 l -0.456,1.584 q -0.552,-0.264 -1.344,-0.456 -0.768,-0.216 -1.656,-0.216 -1.056,0 -1.56,0.36 -0.48,0.36 -0.48,1.248 0,0.624 0.432,0.984 0.432,0.336 1.056,0.624 0.648,0.264 1.392,0.528 0.768,0.264 1.392,0.696 0.648,0.432 1.08,1.104 0.432,0.648 0.432,1.728 0,0.768 -0.264,1.44 -0.24,0.672 -0.768,1.152 -0.528,0.48 -1.32,0.744 -0.768,0.288 -1.824,0.288 -1.368,0 -2.328,-0.264 -0.96,-0.264 -1.608,-0.624 l 0.576,-1.632 q 0.552,0.312 1.44,0.576 0.888,0.264 1.8,0.264 1.032,0 1.704,-0.408 0.672,-0.408 0.672,-1.464 z"
         style="line-height:100%"
         id="path3476" />
      <path
         d="m 299.12084,1004.2359 10.176,0 0,1.728 -10.176,0 0,-1.728 z m 0,3.984 10.176,0 0,1.728 -10.176,0 0,-1.728 z"
         style="line-height:100%"
         id="path3478" />
      <path
         d="m 312.89347,1013.4279 3.36,0 0,-11.616 0.24,-1.416 -0.96,1.128 -2.64,1.896 -0.912,-1.224 5.28,-4.07998 0.864,0 0,15.31198 3.288,0 0,1.776 -8.52,0 0,-1.776 z"
         style="line-height:100%"
         id="path3480" />
      <path
         d="m 328.49159,1013.8119 q 1.656,0 2.736,-0.96 1.08,-0.96 1.08,-2.784 0,-1.752 -1.08,-2.616 -1.056,-0.864 -2.928,-0.864 l -2.016,0.12 0,-8.30398 7.488,0 0,1.77598 -5.688,0 0,4.776 1.032,-0.048 q 2.376,0.024 3.744,1.32 1.368,1.296 1.368,3.72 0,1.344 -0.456,2.4 -0.456,1.032 -1.248,1.728 -0.768,0.696 -1.824,1.056 -1.056,0.36 -2.256,0.36 -1.08,0 -1.824,-0.12 -0.744,-0.12 -1.392,-0.36 l 0.504,-1.632 q 0.552,0.216 1.176,0.336 0.648,0.096 1.584,0.096 z"
         style="line-height:100%"
         id="path3482" />
      <path
         d="m 339.09772,1015.2039 6.024,-14.064 1.056,-1.17598 -1.416,0.21598 -6.84,0 0,-1.77598 10.032,0 0,0.648 -6.912,16.15198 -1.944,0 z"
         style="line-height:100%"
         id="path3484" />
      <path
         d="m 361.34384,1010.1399 q 0,1.104 -0.336,2.088 -0.336,0.96 -0.984,1.704 -0.648,0.72 -1.608,1.152 -0.96,0.408 -2.184,0.408 -1.2,0 -2.16,-0.384 -0.96,-0.384 -1.656,-1.128 -0.696,-0.768 -1.08,-1.872 -0.36,-1.104 -0.36,-2.544 0,-2.376 0.6,-4.368 0.624,-2.016 1.704,-3.504 1.08,-1.488 2.544,-2.39998 1.488,-0.936 3.216,-1.176 l 0.408,1.536 q -1.344,0.24 -2.448,0.91198 -1.104,0.672 -1.944,1.656 -0.816,0.984 -1.344,2.208 -0.528,1.224 -0.72,2.52 0.384,-0.648 1.296,-1.176 0.912,-0.552 2.232,-0.552 2.256,0 3.528,1.296 1.296,1.296 1.296,3.624 z m -1.992,0.192 q 0,-1.704 -0.792,-2.568 -0.792,-0.864 -2.448,-0.864 -1.176,0 -2.04,0.576 -0.84,0.576 -1.176,1.296 -0.048,0.336 -0.048,0.552 0,0.216 0,0.48 0,0.744 0.192,1.464 0.216,0.72 0.648,1.296 0.432,0.552 1.056,0.912 0.648,0.336 1.512,0.336 0.696,0 1.248,-0.264 0.576,-0.264 0.984,-0.72 0.408,-0.456 0.624,-1.104 0.24,-0.648 0.24,-1.392 z"
         style="line-height:100%"
         id="path3486" />
      <path
         d="m 368.22997,1013.8119 q 0.816,0 1.512,-0.24 0.696,-0.24 1.2,-0.696 0.504,-0.48 0.792,-1.128 0.288,-0.648 0.288,-1.416 0,-1.68 -1.008,-2.496 -0.984,-0.816 -2.736,-0.816 l -1.776,0 0,-0.696 3.456,-5.328 1.104,-1.05598 -1.56,0.23998 -4.752,0 0,-1.77598 8.568,0 0,0.696 -3.816,5.73598 -0.84,0.696 0,0.048 0.816,-0.168 q 0.96,0.024 1.776,0.36 0.816,0.312 1.416,0.936 0.6,0.6 0.936,1.464 0.336,0.84 0.336,1.92 0,1.296 -0.456,2.304 -0.456,1.008 -1.248,1.704 -0.768,0.672 -1.824,1.032 -1.056,0.36 -2.232,0.36 -1.08,0 -1.944,-0.168 -0.864,-0.168 -1.512,-0.432 l 0.504,-1.704 q 0.552,0.264 1.296,0.456 0.768,0.168 1.704,0.168 z"
         style="line-height:100%"
         id="path3488" />
    </g>
    <path
       style="fill:none;stroke:#000000;stroke-width:4;stroke-linecap:butt;stroke-linejoin:miter;stroke-miterlimit:4;stroke-dasharray:none;stroke-opacity:1"
       d="m 137.29253,958.8039 73.57144,0"
       id="path3789-6-9"
       inkscape:connector-curvature="0" />
    <circle
       r="11.071428"
       cy="958.80389"
       cx="221.00682"
       style="color:#000000;display:inline;overflow:visible;visibility:visible;fill:#cd5555;fill-opacity:1;fill-rule:nonzero;stroke:#000000;stroke-width:1;stroke-linejoin:round;stroke-miterlimit:4;stroke-dasharray:none;stroke-dashoffset:0;stroke-opacity:1;marker:none;enable-background:accumulate"
       id="path2985-5-5-6" />
    <path
       inkscape:connector-curvature="0"
       id="path3897"
       d="m 54.649674,983.21929 0,42.14291"
       style="fill:none;stroke:#000000;stroke-width:4;stroke-linecap:butt;stroke-linejoin:miter;stroke-miterlimit:4;stroke-dasharray:4, 8;stroke-dashoffset:0;stroke-opacity:1" />
    <path
       inkscape:connector-curvature="0"
       id="path3897-9"
       d="m 138.3639,983.21929 0,42.14291"
       style="fill:none;stroke:#000000;stroke-width:4;stroke-linecap:butt;stroke-linejoin:miter;stroke-miterlimit:4;stroke-dasharray:4, 8;stroke-dashoffset:0;stroke-opacity:1" />
  </g>
</svg>
