<?xml version="1.0" encoding="UTF-8" standalone="no"?>
<!-- Created with Inkscape (http://www.inkscape.org/) -->

<svg
   xmlns:osb="http://www.openswatchbook.org/uri/2009/osb"
   xmlns:dc="http://purl.org/dc/elements/1.1/"
   xmlns:cc="http://creativecommons.org/ns#"
   xmlns:rdf="http://www.w3.org/1999/02/22-rdf-syntax-ns#"
   xmlns:svg="http://www.w3.org/2000/svg"
   xmlns="http://www.w3.org/2000/svg"
   xmlns:sodipodi="http://sodipodi.sourceforge.net/DTD/sodipodi-0.dtd"
   xmlns:inkscape="http://www.inkscape.org/namespaces/inkscape"
   width="505.112"
   height="440"
   id="svg2"
   version="1.1"
   inkscape:version="0.91 r"
   sodipodi:docname="Container_History_Part1.svg">
  <defs
     id="defs4">
    <linearGradient
       id="linearGradient5221">
      <stop
         style="stop-color:#444444;stop-opacity:1;"
         offset="0"
         id="stop5223" />
      <stop
         style="stop-color:#55cd91;stop-opacity:0;"
         offset="1"
         id="stop5225" />
    </linearGradient>
    <linearGradient
       id="linearGradient5205"
       osb:paint="solid">
      <stop
         style="stop-color:#5591cd;stop-opacity:1;"
         offset="0"
         id="stop5207" />
    </linearGradient>
    <linearGradient
       id="linearGradient3761">
      <stop
         style="stop-color:#5591cd;stop-opacity:1;"
         offset="0"
         id="stop3763" />
      <stop
         style="stop-color:#cd5555;stop-opacity:0;"
         offset="1"
         id="stop3765" />
    </linearGradient>
  </defs>
  <sodipodi:namedview
     id="base"
     pagecolor="#ffffff"
     bordercolor="#666666"
     borderopacity="1.0"
     inkscape:pageopacity="0.0"
     inkscape:pageshadow="2"
     inkscape:zoom="1.4"
     inkscape:cx="170.66908"
     inkscape:cy="246.5852"
     inkscape:document-units="px"
     inkscape:current-layer="layer1"
     showgrid="false"
     inkscape:window-width="1672"
     inkscape:window-height="990"
     inkscape:window-x="0"
     inkscape:window-y="0"
     inkscape:window-maximized="1" />
  <metadata
     id="metadata7">
    <rdf:RDF>
      <cc:Work
         rdf:about="">
        <dc:format>image/svg+xml</dc:format>
        <dc:type
           rdf:resource="http://purl.org/dc/dcmitype/StillImage" />
        <dc:title />
      </cc:Work>
    </rdf:RDF>
  </metadata>
  <g
     inkscape:label="Layer 1"
     inkscape:groupmode="layer"
     id="layer1"
     transform="translate(0,-612.36218)">
    <rect
       style="color:#000000;display:inline;overflow:visible;visibility:visible;fill:#55cd91;fill-opacity:1;stroke:#55cd91;stroke-width:0.73500001;stroke-linejoin:round;stroke-miterlimit:0;stroke-dasharray:none;stroke-dashoffset:0;stroke-opacity:1;marker:none;enable-background:accumulate"
       id="rect5219"
       width="4.2649364"
       height="314.26495"
       x="75.90181"
       y="675.22974" />
    <path
       style="fill:none;stroke:#55cd91;stroke-width:5;stroke-linecap:butt;stroke-linejoin:miter;stroke-miterlimit:4;stroke-dasharray:5, 5;stroke-dashoffset:0;stroke-opacity:1"
       d="m 78.034275,612.36222 0,59.99999"
       id="path5271"
       inkscape:connector-curvature="0" />
    <path
       style="fill:none;stroke:#55cd91;stroke-width:5;stroke-linecap:butt;stroke-linejoin:miter;stroke-miterlimit:4;stroke-dasharray:5, 5;stroke-dashoffset:0;stroke-opacity:1"
       d="m 78.034275,1052.3622 0,-60.00003"
       id="path5271-8"
       inkscape:connector-curvature="0" />
    <circle
       r="7.246377"
       cy="970.93359"
       cx="78.034279"
       style="color:#000000;display:inline;overflow:visible;visibility:visible;fill:#55cd91;fill-opacity:1;fill-rule:nonzero;stroke:#55cd91;stroke-width:0.50724638;stroke-linejoin:round;stroke-miterlimit:4;stroke-dasharray:none;stroke-dashoffset:0;stroke-opacity:1;marker:none;enable-background:accumulate"
       id="path5302" />
    <circle
       r="7.246377"
       cy="932.93359"
       cx="78.034279"
       style="color:#000000;display:inline;overflow:visible;visibility:visible;fill:#55cd91;fill-opacity:1;fill-rule:nonzero;stroke:#55cd91;stroke-width:0.50724638;stroke-linejoin:round;stroke-miterlimit:4;stroke-dasharray:none;stroke-dashoffset:0;stroke-opacity:1;marker:none;enable-background:accumulate"
       id="path5302-5" />
    <circle
       r="7.246377"
       cy="752.93359"
       cx="78.034279"
       style="color:#000000;display:inline;overflow:visible;visibility:visible;fill:#55cd91;fill-opacity:1;fill-rule:nonzero;stroke:#55cd91;stroke-width:0.50724638;stroke-linejoin:round;stroke-miterlimit:4;stroke-dasharray:none;stroke-dashoffset:0;stroke-opacity:1;marker:none;enable-background:accumulate"
       id="path5302-5-7" />
    <circle
       r="7.246377"
       cy="690.79071"
       cx="78.034279"
       style="color:#000000;display:inline;overflow:visible;visibility:visible;fill:#55cd91;fill-opacity:1;fill-rule:nonzero;stroke:#55cd91;stroke-width:0.50724638;stroke-linejoin:round;stroke-miterlimit:4;stroke-dasharray:none;stroke-dashoffset:0;stroke-opacity:1;marker:none;enable-background:accumulate"
       id="path5302-5-7-7" />
    <g
       style="font-style:normal;font-variant:normal;font-weight:normal;font-stretch:normal;font-size:24px;line-height:125%;font-family:'PT Sans';-inkscape-font-specification:'PT Sans';text-align:start;letter-spacing:0px;word-spacing:0px;text-anchor:start;fill:#000000;fill-opacity:1;stroke:none"
       id="text5358">
      <path
         d="m 123.82628,976.99358 q -0.72,0.552 -1.824,0.768 -1.104,0.216 -2.352,0.216 -1.512,0 -2.832,-0.504 -1.32,-0.528 -2.304,-1.584 -0.984,-1.056 -1.56,-2.688 -0.576,-1.656 -0.576,-3.912 0,-2.352 0.624,-3.984 0.648,-1.656 1.68,-2.688 1.056,-1.056 2.352,-1.536 1.296,-0.48 2.64,-0.48 1.44,0 2.352,0.168 0.912,0.144 1.56,0.408 l -0.48,1.752 q -1.152,-0.552 -3.288,-0.552 -0.984,0 -1.944,0.36 -0.96,0.36 -1.728,1.176 -0.744,0.816 -1.2,2.136 -0.456,1.32 -0.456,3.24 0,1.728 0.432,3.024 0.432,1.296 1.176,2.16 0.768,0.864 1.776,1.296 1.032,0.432 2.232,0.432 1.08,0 1.872,-0.216 0.816,-0.216 1.368,-0.552 l 0.48,1.56 z"
         style=""
         id="path3583" />
      <path
         d="m 134.27378,977.68958 0,-6.84 q 0,-0.936 -0.12,-1.632 -0.096,-0.72 -0.384,-1.176 -0.288,-0.48 -0.792,-0.72 -0.48,-0.24 -1.272,-0.24 -1.128,0 -2.04,0.744 -0.912,0.72 -1.176,1.872 l 0,7.992 -1.92,0 0,-16.8 1.92,0 0,6.144 0.096,0 q 0.624,-0.744 1.488,-1.176 0.888,-0.456 2.184,-0.456 1.008,0 1.752,0.24 0.744,0.216 1.224,0.792 0.504,0.576 0.72,1.56 0.24,0.96 0.24,2.448 l 0,7.248 -1.92,0 z"
         style=""
         id="path3585" />
      <path
         d="m 145.35878,967.53758 q -0.72,-0.24 -1.368,-0.24 -1.032,0 -1.632,0.576 -0.6,0.552 -0.744,1.416 l 0,8.4 -1.92,0 0,-12 1.344,0 0.36,1.464 0.096,0 q 0.456,-0.816 1.08,-1.248 0.648,-0.456 1.632,-0.456 0.696,0 1.56,0.24 l -0.408,1.848 z"
         style=""
         id="path3587" />
      <path
         d="m 147.17903,971.68958 q 0,-3.048 1.344,-4.656 1.368,-1.632 3.912,-1.632 1.344,0 2.328,0.456 1.008,0.432 1.656,1.272 0.648,0.816 0.96,1.992 0.312,1.152 0.312,2.568 0,3.048 -1.368,4.68 -1.344,1.608 -3.888,1.608 -1.344,0 -2.352,-0.432 -0.984,-0.456 -1.632,-1.272 -0.648,-0.84 -0.96,-1.992 -0.312,-1.176 -0.312,-2.592 z m 1.992,0 q 0,0.912 0.168,1.752 0.192,0.84 0.576,1.464 0.384,0.624 1.008,1.008 0.624,0.384 1.512,0.384 3.264,0.024 3.264,-4.608 0,-0.936 -0.192,-1.776 -0.168,-0.84 -0.552,-1.464 -0.384,-0.624 -1.008,-0.984 -0.624,-0.384 -1.512,-0.384 -3.264,-0.024 -3.264,4.608 z"
         style=""
         id="path3589" />
      <path
         d="m 160.02278,971.68958 q 0,-3.048 1.344,-4.656 1.368,-1.632 3.912,-1.632 1.344,0 2.328,0.456 1.008,0.432 1.656,1.272 0.648,0.816 0.96,1.992 0.312,1.152 0.312,2.568 0,3.048 -1.368,4.68 -1.344,1.608 -3.888,1.608 -1.344,0 -2.352,-0.432 -0.984,-0.456 -1.632,-1.272 -0.648,-0.84 -0.96,-1.992 -0.312,-1.176 -0.312,-2.592 z m 1.992,0 q 0,0.912 0.168,1.752 0.192,0.84 0.576,1.464 0.384,0.624 1.008,1.008 0.624,0.384 1.512,0.384 3.264,0.024 3.264,-4.608 0,-0.936 -0.192,-1.776 -0.168,-0.84 -0.552,-1.464 -0.384,-0.624 -1.008,-0.984 -0.624,-0.384 -1.512,-0.384 -3.264,-0.024 -3.264,4.608 z"
         style=""
         id="path3591" />
      <path
         d="m 171.95453,965.68958 1.872,0 0,-2.376 1.92,-0.552 0,2.928 3.264,0 0,1.68 -3.264,0 0,6.648 q 0,1.248 0.312,1.776 0.312,0.504 1.056,0.504 0.624,0 1.056,-0.12 0.432,-0.144 0.96,-0.36 l 0.432,1.464 q -0.648,0.312 -1.416,0.504 -0.768,0.192 -1.656,0.192 -1.464,0 -2.064,-0.816 -0.6,-0.84 -0.6,-2.784 l 0,-7.008 -1.872,0 0,-1.68 z"
         style=""
         id="path3593" />
      <path
         d="m 188.52465,965.68958 1.92,0 0,12 -1.92,0 0,-12 z m -0.408,-3.648 q 0,-0.552 0.36,-0.936 0.384,-0.408 0.96,-0.408 0.576,0 0.984,0.408 0.408,0.384 0.408,0.936 0,0.552 -0.408,0.912 -0.408,0.36 -0.984,0.36 -0.576,0 -0.96,-0.36 -0.36,-0.36 -0.36,-0.912 z"
         style=""
         id="path3595" />
      <path
         d="m 202.24253,977.68958 0,-6.84 q 0,-1.872 -0.552,-2.808 -0.528,-0.96 -1.968,-0.96 -1.272,0 -2.112,0.696 -0.816,0.672 -1.152,1.704 l 0,8.208 -1.92,0 0,-12 1.344,0 0.36,1.464 0.096,0 q 0.576,-0.768 1.536,-1.248 0.984,-0.504 2.328,-0.504 0.984,0 1.728,0.24 0.744,0.216 1.224,0.792 0.504,0.576 0.744,1.56 0.264,0.96 0.264,2.448 l 0,7.248 -1.92,0 z"
         style=""
         id="path3597" />
      <path
         d="m 217.94228,972.43358 0.576,2.544 0.024,0 0.624,-2.592 4.056,-11.496 1.992,0 -6.36,17.064 -0.888,0 -6.48,-17.064 2.184,0 4.272,11.544 z"
         style=""
         id="path3599" />
      <path
         d="m 234.37665,976.72958 q -0.72,0.576 -1.824,0.912 -1.08,0.336 -2.304,0.336 -1.368,0 -2.376,-0.432 -1.008,-0.456 -1.656,-1.272 -0.648,-0.84 -0.96,-1.992 -0.312,-1.152 -0.312,-2.592 0,-3.072 1.368,-4.68 1.368,-1.608 3.912,-1.608 0.816,0 1.632,0.192 0.816,0.168 1.464,0.672 0.648,0.504 1.056,1.44 0.408,0.912 0.408,2.424 0,0.792 -0.144,1.752 l -7.704,0 q 0,1.056 0.216,1.872 0.216,0.816 0.672,1.392 0.456,0.552 1.176,0.864 0.744,0.288 1.8,0.288 0.816,0 1.632,-0.288 0.816,-0.288 1.224,-0.672 l 0.72,1.392 z m -4.128,-9.648 q -1.416,0 -2.28,0.744 -0.84,0.744 -1.008,2.544 l 5.952,0 q 0,-1.824 -0.696,-2.544 -0.696,-0.744 -1.968,-0.744 z"
         style=""
         id="path3601" />
      <path
         d="m 243.46815,967.53758 q -0.72,-0.24 -1.368,-0.24 -1.032,0 -1.632,0.576 -0.6,0.552 -0.744,1.416 l 0,8.4 -1.92,0 0,-12 1.344,0 0.36,1.464 0.096,0 q 0.456,-0.816 1.08,-1.248 0.648,-0.456 1.632,-0.456 0.696,0 1.56,0.24 l -0.408,1.848 z"
         style=""
         id="path3603" />
      <path
         d="m 251.2404,974.42558 q 0,-0.72 -0.432,-1.128 -0.432,-0.408 -1.08,-0.672 -0.624,-0.288 -1.392,-0.528 -0.744,-0.264 -1.392,-0.648 -0.624,-0.408 -1.056,-1.032 -0.432,-0.624 -0.432,-1.68 0,-1.728 0.984,-2.52 0.984,-0.816 2.736,-0.816 1.296,0 2.16,0.24 0.888,0.216 1.536,0.528 l -0.456,1.584 q -0.552,-0.264 -1.344,-0.456 -0.768,-0.216 -1.656,-0.216 -1.056,0 -1.56,0.36 -0.48,0.36 -0.48,1.248 0,0.624 0.432,0.984 0.432,0.336 1.056,0.624 0.648,0.264 1.392,0.528 0.768,0.264 1.392,0.696 0.648,0.432 1.08,1.104 0.432,0.648 0.432,1.728 0,0.768 -0.264,1.44 -0.24,0.672 -0.768,1.152 -0.528,0.48 -1.32,0.744 -0.768,0.288 -1.824,0.288 -1.368,0 -2.328,-0.264 -0.96,-0.264 -1.608,-0.624 l 0.576,-1.632 q 0.552,0.312 1.44,0.576 0.888,0.264 1.8,0.264 1.032,0 1.704,-0.408 0.672,-0.408 0.672,-1.464 z"
         style=""
         id="path3605" />
      <path
         d="m 256.4934,965.68958 1.92,0 0,12 -1.92,0 0,-12 z m -0.408,-3.648 q 0,-0.552 0.36,-0.936 0.384,-0.408 0.96,-0.408 0.576,0 0.984,0.408 0.408,0.384 0.408,0.936 0,0.552 -0.408,0.912 -0.408,0.36 -0.984,0.36 -0.576,0 -0.96,-0.36 -0.36,-0.36 -0.36,-0.912 z"
         style=""
         id="path3607" />
      <path
         d="m 261.83528,971.68958 q 0,-3.048 1.344,-4.656 1.368,-1.632 3.912,-1.632 1.344,0 2.328,0.456 1.008,0.432 1.656,1.272 0.648,0.816 0.96,1.992 0.312,1.152 0.312,2.568 0,3.048 -1.368,4.68 -1.344,1.608 -3.888,1.608 -1.344,0 -2.352,-0.432 -0.984,-0.456 -1.632,-1.272 -0.648,-0.84 -0.96,-1.992 -0.312,-1.176 -0.312,-2.592 z m 1.992,0 q 0,0.912 0.168,1.752 0.192,0.84 0.576,1.464 0.384,0.624 1.008,1.008 0.624,0.384 1.512,0.384 3.264,0.024 3.264,-4.608 0,-0.936 -0.192,-1.776 -0.168,-0.84 -0.552,-1.464 -0.384,-0.624 -1.008,-0.984 -0.624,-0.384 -1.512,-0.384 -3.264,-0.024 -3.264,4.608 z"
         style=""
         id="path3609" />
      <path
         d="m 283.05503,977.68958 0,-6.84 q 0,-1.872 -0.552,-2.808 -0.528,-0.96 -1.968,-0.96 -1.272,0 -2.112,0.696 -0.816,0.672 -1.152,1.704 l 0,8.208 -1.92,0 0,-12 1.344,0 0.36,1.464 0.096,0 q 0.576,-0.768 1.536,-1.248 0.984,-0.504 2.328,-0.504 0.984,0 1.728,0.24 0.744,0.216 1.224,0.792 0.504,0.576 0.744,1.56 0.264,0.96 0.264,2.448 l 0,7.248 -1.92,0 z"
         style=""
         id="path3611" />
      <path
         d="m 295.6899,977.68958 6.024,-14.064 1.056,-1.176 -1.416,0.216 -6.84,0 0,-1.776 10.032,0 0,0.648 -6.912,16.152 -1.944,0 z"
         style=""
         id="path3613" />
      <path
         d="m 322.9254,960.88958 1.92,0 0,11.208 q 0,1.512 -0.408,2.616 -0.384,1.104 -1.128,1.824 -0.72,0.696 -1.752,1.032 -1.032,0.336 -2.28,0.336 -2.976,0 -4.488,-1.344 -1.512,-1.344 -1.512,-4.08 l 0,-11.592 1.992,0 0,10.656 q 0,1.272 0.24,2.16 0.264,0.864 0.768,1.416 0.504,0.528 1.248,0.768 0.768,0.24 1.776,0.24 1.944,0 2.784,-1.056 0.84,-1.08 0.84,-3.528 l 0,-10.656 z"
         style=""
         id="path3615" />
      <path
         d="m 336.44565,977.68958 0,-6.84 q 0,-1.872 -0.552,-2.808 -0.528,-0.96 -1.968,-0.96 -1.272,0 -2.112,0.696 -0.816,0.672 -1.152,1.704 l 0,8.208 -1.92,0 0,-12 1.344,0 0.36,1.464 0.096,0 q 0.576,-0.768 1.536,-1.248 0.984,-0.504 2.328,-0.504 0.984,0 1.728,0.24 0.744,0.216 1.224,0.792 0.504,0.576 0.744,1.56 0.264,0.96 0.264,2.448 l 0,7.248 -1.92,0 z"
         style=""
         id="path3617" />
      <path
         d="m 342.27465,965.68958 1.92,0 0,12 -1.92,0 0,-12 z m -0.408,-3.648 q 0,-0.552 0.36,-0.936 0.384,-0.408 0.96,-0.408 0.576,0 0.984,0.408 0.408,0.384 0.408,0.936 0,0.552 -0.408,0.912 -0.408,0.36 -0.984,0.36 -0.576,0 -0.96,-0.36 -0.36,-0.36 -0.36,-0.912 z"
         style=""
         id="path3619" />
      <path
         d="m 351.43253,971.54558 -4.032,-5.856 2.352,0 2.28,3.312 0.672,1.368 0.696,-1.368 2.328,-3.312 2.16,0 -4.056,5.76 4.296,6.24 -2.28,0 -2.544,-3.648 -0.72,-1.44 -0.744,1.44 -2.592,3.648 -2.136,0 4.32,-6.144 z"
         style=""
         id="path3621" />
      <path
         d="m 359.99153,976.65758 q 0,-0.576 0.384,-0.936 0.384,-0.36 0.984,-0.36 0.744,0 1.2,0.528 0.48,0.528 0.48,1.536 0,0.864 -0.24,1.512 -0.24,0.648 -0.624,1.104 -0.384,0.48 -0.84,0.768 -0.456,0.312 -0.912,0.456 l -0.6,-0.936 q 0.864,-0.336 1.272,-1.056 0.432,-0.696 0.432,-1.416 -0.216,0.072 -0.408,0.072 -0.48,0 -0.816,-0.312 -0.312,-0.336 -0.312,-0.96 z"
         style=""
         id="path3623" />
      <path
         d="m 380.2179,964.72958 q 0,0.6 -0.192,1.224 -0.192,0.624 -0.576,1.176 -0.384,0.528 -0.984,0.936 -0.6,0.408 -1.416,0.624 l 0,0.096 q 0.72,0.12 1.368,0.408 0.672,0.288 1.176,0.792 0.504,0.504 0.816,1.224 0.312,0.72 0.312,1.704 0,1.296 -0.552,2.256 -0.528,0.936 -1.416,1.536 -0.864,0.6 -1.992,0.888 -1.128,0.288 -2.304,0.288 -0.408,0 -0.96,0 -0.552,0 -1.152,-0.048 -0.6,-0.024 -1.2,-0.096 -0.6,-0.048 -1.056,-0.168 l 0,-16.536 q 0.888,-0.144 2.064,-0.24 1.176,-0.096 2.568,-0.096 0.936,0 1.896,0.168 0.984,0.144 1.776,0.6 0.792,0.432 1.296,1.224 0.528,0.792 0.528,2.04 z m -5.568,11.424 q 0.768,0 1.488,-0.168 0.72,-0.192 1.272,-0.576 0.552,-0.408 0.864,-0.984 0.336,-0.576 0.336,-1.368 0,-0.984 -0.408,-1.584 -0.384,-0.6 -1.032,-0.936 -0.624,-0.336 -1.416,-0.456 -0.792,-0.12 -1.584,-0.12 l -2.088,0 0,6.024 q 0.168,0.048 0.48,0.072 0.312,0.024 0.672,0.048 0.36,0.024 0.744,0.048 0.384,0 0.672,0 z m -1.32,-7.872 q 0.408,0 0.984,-0.024 0.576,-0.024 0.96,-0.072 0.576,-0.192 1.08,-0.456 0.504,-0.288 0.888,-0.648 0.408,-0.384 0.624,-0.864 0.24,-0.504 0.24,-1.08 0,-0.792 -0.312,-1.296 -0.288,-0.528 -0.792,-0.84 -0.504,-0.312 -1.152,-0.432 -0.648,-0.144 -1.32,-0.144 -0.792,0 -1.464,0.048 -0.648,0.024 -0.984,0.096 l 0,5.712 1.248,0 z"
         style=""
         id="path3625" />
      <path
         d="m 392.67353,976.72958 q -0.72,0.576 -1.824,0.912 -1.08,0.336 -2.304,0.336 -1.368,0 -2.376,-0.432 -1.008,-0.456 -1.656,-1.272 -0.648,-0.84 -0.96,-1.992 -0.312,-1.152 -0.312,-2.592 0,-3.072 1.368,-4.68 1.368,-1.608 3.912,-1.608 0.816,0 1.632,0.192 0.816,0.168 1.464,0.672 0.648,0.504 1.056,1.44 0.408,0.912 0.408,2.424 0,0.792 -0.144,1.752 l -7.704,0 q 0,1.056 0.216,1.872 0.216,0.816 0.672,1.392 0.456,0.552 1.176,0.864 0.744,0.288 1.8,0.288 0.816,0 1.632,-0.288 0.816,-0.288 1.224,-0.672 l 0.72,1.392 z m -4.128,-9.648 q -1.416,0 -2.28,0.744 -0.84,0.744 -1.008,2.544 l 5.952,0 q 0,-1.824 -0.696,-2.544 -0.696,-0.744 -1.968,-0.744 z"
         style=""
         id="path3627" />
      <path
         d="m 398.23703,974.73758 q 0,0.84 0.288,1.2 0.288,0.36 0.816,0.36 0.312,0 0.672,-0.048 0.36,-0.048 0.816,-0.216 l 0.216,1.512 q -0.384,0.192 -1.08,0.312 -0.672,0.12 -1.176,0.12 -1.08,0 -1.776,-0.6 -0.696,-0.624 -0.696,-2.088 l 0,-14.4 1.92,0 0,13.848 z"
         style=""
         id="path3629" />
      <path
         d="m 405.26828,974.73758 q 0,0.84 0.288,1.2 0.288,0.36 0.816,0.36 0.312,0 0.672,-0.048 0.36,-0.048 0.816,-0.216 l 0.216,1.512 q -0.384,0.192 -1.08,0.312 -0.672,0.12 -1.176,0.12 -1.08,0 -1.776,-0.6 -0.696,-0.624 -0.696,-2.088 l 0,-14.4 1.92,0 0,13.848 z"
         style=""
         id="path3631" />
      <path
         d="m 426.7134,977.68958 -9.936,0 0,-16.8 1.992,0 0,15.024 7.944,0 0,1.776 z"
         style=""
         id="path3633" />
      <path
         d="m 428.34653,966.57758 q 0.912,-0.552 2.112,-0.816 1.224,-0.264 2.544,-0.264 1.248,0 1.992,0.336 0.768,0.336 1.152,0.888 0.408,0.528 0.528,1.176 0.144,0.648 0.144,1.296 0,1.44 -0.072,2.808 -0.072,1.368 -0.072,2.592 0,0.888 0.072,1.68 0.072,0.792 0.264,1.464 l -1.416,0 -0.504,-1.68 -0.12,0 q -0.216,0.336 -0.552,0.672 -0.312,0.312 -0.768,0.576 -0.456,0.24 -1.056,0.408 -0.6,0.168 -1.368,0.168 -0.768,0 -1.44,-0.24 -0.648,-0.24 -1.128,-0.672 -0.48,-0.456 -0.768,-1.08 -0.264,-0.624 -0.264,-1.416 0,-1.056 0.432,-1.752 0.432,-0.72 1.2,-1.128 0.792,-0.432 1.872,-0.6 1.104,-0.192 2.424,-0.192 0.336,0 0.648,0 0.336,0 0.672,0.048 0.072,-0.72 0.072,-1.296 0,-1.32 -0.528,-1.848 -0.528,-0.528 -1.92,-0.528 -0.408,0 -0.888,0.072 -0.456,0.048 -0.96,0.168 -0.48,0.096 -0.936,0.264 -0.432,0.144 -0.768,0.336 l -0.6,-1.44 z m 3.408,9.624 q 0.672,0 1.2,-0.168 0.528,-0.192 0.912,-0.456 0.384,-0.288 0.624,-0.624 0.264,-0.336 0.384,-0.648 l 0,-1.992 q -0.336,-0.024 -0.696,-0.024 -0.336,-0.024 -0.672,-0.024 -0.744,0 -1.464,0.096 -0.696,0.072 -1.248,0.312 -0.528,0.216 -0.864,0.624 -0.312,0.384 -0.312,0.984 0,0.84 0.6,1.392 0.6,0.528 1.536,0.528 z"
         style=""
         id="path3635" />
      <path
         d="m 440.44478,960.88958 1.92,0 0,5.976 0.096,0 q 0.552,-0.696 1.392,-1.08 0.864,-0.384 1.872,-0.384 2.328,0 3.48,1.488 1.176,1.488 1.176,4.608 0,3.144 -1.536,4.776 -1.536,1.632 -4.32,1.632 -1.344,0 -2.448,-0.288 -1.08,-0.288 -1.632,-0.624 l 0,-16.104 z m 4.944,6.192 q -1.2,0 -1.944,0.672 -0.744,0.672 -1.08,1.896 l 0,6.048 q 0.456,0.264 1.104,0.408 0.648,0.12 1.344,0.12 1.632,0 2.592,-1.152 0.984,-1.152 0.984,-3.6 0,-0.936 -0.168,-1.752 -0.168,-0.816 -0.528,-1.392 -0.36,-0.576 -0.936,-0.912 -0.552,-0.336 -1.368,-0.336 z"
         style=""
         id="path3637" />
      <path
         d="m 458.66228,974.42558 q 0,-0.72 -0.432,-1.128 -0.432,-0.408 -1.08,-0.672 -0.624,-0.288 -1.392,-0.528 -0.744,-0.264 -1.392,-0.648 -0.624,-0.408 -1.056,-1.032 -0.432,-0.624 -0.432,-1.68 0,-1.728 0.984,-2.52 0.984,-0.816 2.736,-0.816 1.296,0 2.16,0.24 0.888,0.216 1.536,0.528 l -0.456,1.584 q -0.552,-0.264 -1.344,-0.456 -0.768,-0.216 -1.656,-0.216 -1.056,0 -1.56,0.36 -0.48,0.36 -0.48,1.248 0,0.624 0.432,0.984 0.432,0.336 1.056,0.624 0.648,0.264 1.392,0.528 0.768,0.264 1.392,0.696 0.648,0.432 1.08,1.104 0.432,0.648 0.432,1.728 0,0.768 -0.264,1.44 -0.24,0.672 -0.768,1.152 -0.528,0.48 -1.32,0.744 -0.768,0.288 -1.824,0.288 -1.368,0 -2.328,-0.264 -0.96,-0.264 -1.608,-0.624 l 0.576,-1.632 q 0.552,0.312 1.44,0.576 0.888,0.264 1.8,0.264 1.032,0 1.704,-0.408 0.672,-0.408 0.672,-1.464 z"
         style=""
         id="path3639" />
    </g>
    <g
       style="font-style:normal;font-variant:normal;font-weight:normal;font-stretch:normal;font-size:24px;line-height:125%;font-family:'PT Sans';-inkscape-font-specification:'PT Sans';text-align:center;letter-spacing:0px;word-spacing:0px;text-anchor:middle;fill:#000000;fill-opacity:1;stroke:none"
       id="text5362">
      <path
         d="m 123.82628,938.99358 q -0.72,0.552 -1.824,0.768 -1.104,0.216 -2.352,0.216 -1.512,0 -2.832,-0.504 -1.32,-0.528 -2.304,-1.584 -0.984,-1.056 -1.56,-2.688 -0.576,-1.656 -0.576,-3.912 0,-2.352 0.624,-3.984 0.648,-1.656 1.68,-2.688 1.056,-1.056 2.352,-1.536 1.296,-0.48 2.64,-0.48 1.44,0 2.352,0.168 0.912,0.144 1.56,0.408 l -0.48,1.752 q -1.152,-0.552 -3.288,-0.552 -0.984,0 -1.944,0.36 -0.96,0.36 -1.728,1.176 -0.744,0.816 -1.2,2.136 -0.456,1.32 -0.456,3.24 0,1.728 0.432,3.024 0.432,1.296 1.176,2.16 0.768,0.864 1.776,1.296 1.032,0.432 2.232,0.432 1.08,0 1.872,-0.216 0.816,-0.216 1.368,-0.552 l 0.48,1.56 z"
         style="text-align:start;text-anchor:start"
         id="path3520" />
      <path
         d="m 134.27378,939.68958 0,-6.84 q 0,-0.936 -0.12,-1.632 -0.096,-0.72 -0.384,-1.176 -0.288,-0.48 -0.792,-0.72 -0.48,-0.24 -1.272,-0.24 -1.128,0 -2.04,0.744 -0.912,0.72 -1.176,1.872 l 0,7.992 -1.92,0 0,-16.8 1.92,0 0,6.144 0.096,0 q 0.624,-0.744 1.488,-1.176 0.888,-0.456 2.184,-0.456 1.008,0 1.752,0.24 0.744,0.216 1.224,0.792 0.504,0.576 0.72,1.56 0.24,0.96 0.24,2.448 l 0,7.248 -1.92,0 z"
         style="text-align:start;text-anchor:start"
         id="path3522" />
      <path
         d="m 145.35878,929.53758 q -0.72,-0.24 -1.368,-0.24 -1.032,0 -1.632,0.576 -0.6,0.552 -0.744,1.416 l 0,8.4 -1.92,0 0,-12 1.344,0 0.36,1.464 0.096,0 q 0.456,-0.816 1.08,-1.248 0.648,-0.456 1.632,-0.456 0.696,0 1.56,0.24 l -0.408,1.848 z"
         style="text-align:start;text-anchor:start"
         id="path3524" />
      <path
         d="m 147.17903,933.68958 q 0,-3.048 1.344,-4.656 1.368,-1.632 3.912,-1.632 1.344,0 2.328,0.456 1.008,0.432 1.656,1.272 0.648,0.816 0.96,1.992 0.312,1.152 0.312,2.568 0,3.048 -1.368,4.68 -1.344,1.608 -3.888,1.608 -1.344,0 -2.352,-0.432 -0.984,-0.456 -1.632,-1.272 -0.648,-0.84 -0.96,-1.992 -0.312,-1.176 -0.312,-2.592 z m 1.992,0 q 0,0.912 0.168,1.752 0.192,0.84 0.576,1.464 0.384,0.624 1.008,1.008 0.624,0.384 1.512,0.384 3.264,0.024 3.264,-4.608 0,-0.936 -0.192,-1.776 -0.168,-0.84 -0.552,-1.464 -0.384,-0.624 -1.008,-0.984 -0.624,-0.384 -1.512,-0.384 -3.264,-0.024 -3.264,4.608 z"
         style="text-align:start;text-anchor:start"
         id="path3526" />
      <path
         d="m 160.02278,933.68958 q 0,-3.048 1.344,-4.656 1.368,-1.632 3.912,-1.632 1.344,0 2.328,0.456 1.008,0.432 1.656,1.272 0.648,0.816 0.96,1.992 0.312,1.152 0.312,2.568 0,3.048 -1.368,4.68 -1.344,1.608 -3.888,1.608 -1.344,0 -2.352,-0.432 -0.984,-0.456 -1.632,-1.272 -0.648,-0.84 -0.96,-1.992 -0.312,-1.176 -0.312,-2.592 z m 1.992,0 q 0,0.912 0.168,1.752 0.192,0.84 0.576,1.464 0.384,0.624 1.008,1.008 0.624,0.384 1.512,0.384 3.264,0.024 3.264,-4.608 0,-0.936 -0.192,-1.776 -0.168,-0.84 -0.552,-1.464 -0.384,-0.624 -1.008,-0.984 -0.624,-0.384 -1.512,-0.384 -3.264,-0.024 -3.264,4.608 z"
         style="text-align:start;text-anchor:start"
         id="path3528" />
      <path
         d="m 171.95453,927.68958 1.872,0 0,-2.376 1.92,-0.552 0,2.928 3.264,0 0,1.68 -3.264,0 0,6.648 q 0,1.248 0.312,1.776 0.312,0.504 1.056,0.504 0.624,0 1.056,-0.12 0.432,-0.144 0.96,-0.36 l 0.432,1.464 q -0.648,0.312 -1.416,0.504 -0.768,0.192 -1.656,0.192 -1.464,0 -2.064,-0.816 -0.6,-0.84 -0.6,-2.784 l 0,-7.008 -1.872,0 0,-1.68 z"
         style="text-align:start;text-anchor:start"
         id="path3530" />
      <path
         d="m 196.87665,938.72958 q -0.72,0.576 -1.824,0.912 -1.08,0.336 -2.304,0.336 -1.368,0 -2.376,-0.432 -1.008,-0.456 -1.656,-1.272 -0.648,-0.84 -0.96,-1.992 -0.312,-1.152 -0.312,-2.592 0,-3.072 1.368,-4.68 1.368,-1.608 3.912,-1.608 0.816,0 1.632,0.192 0.816,0.168 1.464,0.672 0.648,0.504 1.056,1.44 0.408,0.912 0.408,2.424 0,0.792 -0.144,1.752 l -7.704,0 q 0,1.056 0.216,1.872 0.216,0.816 0.672,1.392 0.456,0.552 1.176,0.864 0.744,0.288 1.8,0.288 0.816,0 1.632,-0.288 0.816,-0.288 1.224,-0.672 l 0.72,1.392 z m -4.128,-9.648 q -1.416,0 -2.28,0.744 -0.84,0.744 -1.008,2.544 l 5.952,0 q 0,-1.824 -0.696,-2.544 -0.696,-0.744 -1.968,-0.744 z"
         style="text-align:start;text-anchor:start"
         id="path3532" />
      <path
         d="m 202.88565,933.54558 -4.032,-5.856 2.352,0 2.28,3.312 0.672,1.368 0.696,-1.368 2.328,-3.312 2.16,0 -4.056,5.76 4.296,6.24 -2.28,0 -2.544,-3.648 -0.72,-1.44 -0.744,1.44 -2.592,3.648 -2.136,0 4.32,-6.144 z"
         style="text-align:start;text-anchor:start"
         id="path3534" />
      <path
         d="m 210.53265,927.68958 1.872,0 0,-2.376 1.92,-0.552 0,2.928 3.264,0 0,1.68 -3.264,0 0,6.648 q 0,1.248 0.312,1.776 0.312,0.504 1.056,0.504 0.624,0 1.056,-0.12 0.432,-0.144 0.96,-0.36 l 0.432,1.464 q -0.648,0.312 -1.416,0.504 -0.768,0.192 -1.656,0.192 -1.464,0 -2.064,-0.816 -0.6,-0.84 -0.6,-2.784 l 0,-7.008 -1.872,0 0,-1.68 z"
         style="text-align:start;text-anchor:start"
         id="path3536" />
      <path
         d="m 228.75165,938.72958 q -0.72,0.576 -1.824,0.912 -1.08,0.336 -2.304,0.336 -1.368,0 -2.376,-0.432 -1.008,-0.456 -1.656,-1.272 -0.648,-0.84 -0.96,-1.992 -0.312,-1.152 -0.312,-2.592 0,-3.072 1.368,-4.68 1.368,-1.608 3.912,-1.608 0.816,0 1.632,0.192 0.816,0.168 1.464,0.672 0.648,0.504 1.056,1.44 0.408,0.912 0.408,2.424 0,0.792 -0.144,1.752 l -7.704,0 q 0,1.056 0.216,1.872 0.216,0.816 0.672,1.392 0.456,0.552 1.176,0.864 0.744,0.288 1.8,0.288 0.816,0 1.632,-0.288 0.816,-0.288 1.224,-0.672 l 0.72,1.392 z m -4.128,-9.648 q -1.416,0 -2.28,0.744 -0.84,0.744 -1.008,2.544 l 5.952,0 q 0,-1.824 -0.696,-2.544 -0.696,-0.744 -1.968,-0.744 z"
         style="text-align:start;text-anchor:start"
         id="path3538" />
      <path
         d="m 239.88315,939.68958 0,-6.84 q 0,-1.872 -0.552,-2.808 -0.528,-0.96 -1.968,-0.96 -1.272,0 -2.112,0.696 -0.816,0.672 -1.152,1.704 l 0,8.208 -1.92,0 0,-12 1.344,0 0.36,1.464 0.096,0 q 0.576,-0.768 1.536,-1.248 0.984,-0.504 2.328,-0.504 0.984,0 1.728,0.24 0.744,0.216 1.224,0.792 0.504,0.576 0.744,1.56 0.264,0.96 0.264,2.448 l 0,7.248 -1.92,0 z"
         style="text-align:start;text-anchor:start"
         id="path3540" />
      <path
         d="m 254.52015,935.56158 q 0,1.224 0.024,2.232 0.024,0.984 0.216,1.944 l -1.296,0 -0.48,-1.704 -0.096,0 q -0.48,0.84 -1.392,1.392 -0.912,0.552 -2.136,0.552 -2.4,0 -3.576,-1.512 -1.152,-1.512 -1.152,-4.728 0,-3.072 1.44,-4.656 1.464,-1.608 4.008,-1.608 0.888,0 1.392,0.096 0.528,0.096 1.128,0.312 l 0,-4.992 1.92,0 0,12.672 z m -4.848,2.736 q 1.224,0 1.944,-0.624 0.72,-0.648 0.984,-1.944 l 0,-5.952 q -0.432,-0.336 -0.984,-0.48 -0.552,-0.144 -1.464,-0.144 -1.656,0 -2.592,1.104 -0.936,1.08 -0.936,3.48 0,0.984 0.144,1.824 0.168,0.84 0.528,1.44 0.36,0.6 0.936,0.96 0.6,0.336 1.44,0.336 z"
         style="text-align:start;text-anchor:start"
         id="path3542" />
      <path
         d="m 266.95478,938.72958 q -0.72,0.576 -1.824,0.912 -1.08,0.336 -2.304,0.336 -1.368,0 -2.376,-0.432 -1.008,-0.456 -1.656,-1.272 -0.648,-0.84 -0.96,-1.992 -0.312,-1.152 -0.312,-2.592 0,-3.072 1.368,-4.68 1.368,-1.608 3.912,-1.608 0.816,0 1.632,0.192 0.816,0.168 1.464,0.672 0.648,0.504 1.056,1.44 0.408,0.912 0.408,2.424 0,0.792 -0.144,1.752 l -7.704,0 q 0,1.056 0.216,1.872 0.216,0.816 0.672,1.392 0.456,0.552 1.176,0.864 0.744,0.288 1.8,0.288 0.816,0 1.632,-0.288 0.816,-0.288 1.224,-0.672 l 0.72,1.392 z m -4.128,-9.648 q -1.416,0 -2.28,0.744 -0.84,0.744 -1.008,2.544 l 5.952,0 q 0,-1.824 -0.696,-2.544 -0.696,-0.744 -1.968,-0.744 z"
         style="text-align:start;text-anchor:start"
         id="path3544" />
      <path
         d="m 279.59828,935.56158 q 0,1.224 0.024,2.232 0.024,0.984 0.216,1.944 l -1.296,0 -0.48,-1.704 -0.096,0 q -0.48,0.84 -1.392,1.392 -0.912,0.552 -2.136,0.552 -2.4,0 -3.576,-1.512 -1.152,-1.512 -1.152,-4.728 0,-3.072 1.44,-4.656 1.464,-1.608 4.008,-1.608 0.888,0 1.392,0.096 0.528,0.096 1.128,0.312 l 0,-4.992 1.92,0 0,12.672 z m -4.848,2.736 q 1.224,0 1.944,-0.624 0.72,-0.648 0.984,-1.944 l 0,-5.952 q -0.432,-0.336 -0.984,-0.48 -0.552,-0.144 -1.464,-0.144 -1.656,0 -2.592,1.104 -0.936,1.08 -0.936,3.48 0,0.984 0.144,1.824 0.168,0.84 0.528,1.44 0.36,0.6 0.936,0.96 0.6,0.336 1.44,0.336 z"
         style="text-align:start;text-anchor:start"
         id="path3546" />
      <path
         d="m 282.6009,938.65758 q 0,-0.576 0.384,-0.936 0.384,-0.36 0.984,-0.36 0.744,0 1.2,0.528 0.48,0.528 0.48,1.536 0,0.864 -0.24,1.512 -0.24,0.648 -0.624,1.104 -0.384,0.48 -0.84,0.768 -0.456,0.312 -0.912,0.456 l -0.6,-0.936 q 0.864,-0.336 1.272,-1.056 0.432,-0.696 0.432,-1.416 -0.216,0.072 -0.408,0.072 -0.48,0 -0.816,-0.312 -0.312,-0.336 -0.312,-0.96 z"
         style="text-align:start;text-anchor:start"
         id="path3548" />
      <path
         d="m 292.31528,928.57758 q 0.912,-0.552 2.112,-0.816 1.224,-0.264 2.544,-0.264 1.248,0 1.992,0.336 0.768,0.336 1.152,0.888 0.408,0.528 0.528,1.176 0.144,0.648 0.144,1.296 0,1.44 -0.072,2.808 -0.072,1.368 -0.072,2.592 0,0.888 0.072,1.68 0.072,0.792 0.264,1.464 l -1.416,0 -0.504,-1.68 -0.12,0 q -0.216,0.336 -0.552,0.672 -0.312,0.312 -0.768,0.576 -0.456,0.24 -1.056,0.408 -0.6,0.168 -1.368,0.168 -0.768,0 -1.44,-0.24 -0.648,-0.24 -1.128,-0.672 -0.48,-0.456 -0.768,-1.08 -0.264,-0.624 -0.264,-1.416 0,-1.056 0.432,-1.752 0.432,-0.72 1.2,-1.128 0.792,-0.432 1.872,-0.6 1.104,-0.192 2.424,-0.192 0.336,0 0.648,0 0.336,0 0.672,0.048 0.072,-0.72 0.072,-1.296 0,-1.32 -0.528,-1.848 -0.528,-0.528 -1.92,-0.528 -0.408,0 -0.888,0.072 -0.456,0.048 -0.96,0.168 -0.48,0.096 -0.936,0.264 -0.432,0.144 -0.768,0.336 l -0.6,-1.44 z m 3.408,9.624 q 0.672,0 1.2,-0.168 0.528,-0.192 0.912,-0.456 0.384,-0.288 0.624,-0.624 0.264,-0.336 0.384,-0.648 l 0,-1.992 q -0.336,-0.024 -0.696,-0.024 -0.336,-0.024 -0.672,-0.024 -0.744,0 -1.464,0.096 -0.696,0.072 -1.248,0.312 -0.528,0.216 -0.864,0.624 -0.312,0.384 -0.312,0.984 0,0.84 0.6,1.392 0.6,0.528 1.536,0.528 z"
         style="text-align:start;text-anchor:start"
         id="path3550" />
      <path
         d="m 312.11753,939.68958 0,-6.84 q 0,-1.872 -0.552,-2.808 -0.528,-0.96 -1.968,-0.96 -1.272,0 -2.112,0.696 -0.816,0.672 -1.152,1.704 l 0,8.208 -1.92,0 0,-12 1.344,0 0.36,1.464 0.096,0 q 0.576,-0.768 1.536,-1.248 0.984,-0.504 2.328,-0.504 0.984,0 1.728,0.24 0.744,0.216 1.224,0.792 0.504,0.576 0.744,1.56 0.264,0.96 0.264,2.448 l 0,7.248 -1.92,0 z"
         style="text-align:start;text-anchor:start"
         id="path3552" />
      <path
         d="m 326.75453,935.56158 q 0,1.224 0.024,2.232 0.024,0.984 0.216,1.944 l -1.296,0 -0.48,-1.704 -0.096,0 q -0.48,0.84 -1.392,1.392 -0.912,0.552 -2.136,0.552 -2.4,0 -3.576,-1.512 -1.152,-1.512 -1.152,-4.728 0,-3.072 1.44,-4.656 1.464,-1.608 4.008,-1.608 0.888,0 1.392,0.096 0.528,0.096 1.128,0.312 l 0,-4.992 1.92,0 0,12.672 z m -4.848,2.736 q 1.224,0 1.944,-0.624 0.72,-0.648 0.984,-1.944 l 0,-5.952 q -0.432,-0.336 -0.984,-0.48 -0.552,-0.144 -1.464,-0.144 -1.656,0 -2.592,1.104 -0.936,1.08 -0.936,3.48 0,0.984 0.144,1.824 0.168,0.84 0.528,1.44 0.36,0.6 0.936,0.96 0.6,0.336 1.44,0.336 z"
         style="text-align:start;text-anchor:start"
         id="path3554" />
      <path
         d="m 336.65903,928.57758 q 0.912,-0.552 2.112,-0.816 1.224,-0.264 2.544,-0.264 1.248,0 1.992,0.336 0.768,0.336 1.152,0.888 0.408,0.528 0.528,1.176 0.144,0.648 0.144,1.296 0,1.44 -0.072,2.808 -0.072,1.368 -0.072,2.592 0,0.888 0.072,1.68 0.072,0.792 0.264,1.464 l -1.416,0 -0.504,-1.68 -0.12,0 q -0.216,0.336 -0.552,0.672 -0.312,0.312 -0.768,0.576 -0.456,0.24 -1.056,0.408 -0.6,0.168 -1.368,0.168 -0.768,0 -1.44,-0.24 -0.648,-0.24 -1.128,-0.672 -0.48,-0.456 -0.768,-1.08 -0.264,-0.624 -0.264,-1.416 0,-1.056 0.432,-1.752 0.432,-0.72 1.2,-1.128 0.792,-0.432 1.872,-0.6 1.104,-0.192 2.424,-0.192 0.336,0 0.648,0 0.336,0 0.672,0.048 0.072,-0.72 0.072,-1.296 0,-1.32 -0.528,-1.848 -0.528,-0.528 -1.92,-0.528 -0.408,0 -0.888,0.072 -0.456,0.048 -0.96,0.168 -0.48,0.096 -0.936,0.264 -0.432,0.144 -0.768,0.336 l -0.6,-1.44 z m 3.408,9.624 q 0.672,0 1.2,-0.168 0.528,-0.192 0.912,-0.456 0.384,-0.288 0.624,-0.624 0.264,-0.336 0.384,-0.648 l 0,-1.992 q -0.336,-0.024 -0.696,-0.024 -0.336,-0.024 -0.672,-0.024 -0.744,0 -1.464,0.096 -0.696,0.072 -1.248,0.312 -0.528,0.216 -0.864,0.624 -0.312,0.384 -0.312,0.984 0,0.84 0.6,1.392 0.6,0.528 1.536,0.528 z"
         style="text-align:start;text-anchor:start"
         id="path3556" />
      <path
         d="m 357.97328,935.56158 q 0,1.224 0.024,2.232 0.024,0.984 0.216,1.944 l -1.296,0 -0.48,-1.704 -0.096,0 q -0.48,0.84 -1.392,1.392 -0.912,0.552 -2.136,0.552 -2.4,0 -3.576,-1.512 -1.152,-1.512 -1.152,-4.728 0,-3.072 1.44,-4.656 1.464,-1.608 4.008,-1.608 0.888,0 1.392,0.096 0.528,0.096 1.128,0.312 l 0,-4.992 1.92,0 0,12.672 z m -4.848,2.736 q 1.224,0 1.944,-0.624 0.72,-0.648 0.984,-1.944 l 0,-5.952 q -0.432,-0.336 -0.984,-0.48 -0.552,-0.144 -1.464,-0.144 -1.656,0 -2.592,1.104 -0.936,1.08 -0.936,3.48 0,0.984 0.144,1.824 0.168,0.84 0.528,1.44 0.36,0.6 0.936,0.96 0.6,0.336 1.44,0.336 z"
         style="text-align:start;text-anchor:start"
         id="path3558" />
      <path
         d="m 370.8639,935.56158 q 0,1.224 0.024,2.232 0.024,0.984 0.216,1.944 l -1.296,0 -0.48,-1.704 -0.096,0 q -0.48,0.84 -1.392,1.392 -0.912,0.552 -2.136,0.552 -2.4,0 -3.576,-1.512 -1.152,-1.512 -1.152,-4.728 0,-3.072 1.44,-4.656 1.464,-1.608 4.008,-1.608 0.888,0 1.392,0.096 0.528,0.096 1.128,0.312 l 0,-4.992 1.92,0 0,12.672 z m -4.848,2.736 q 1.224,0 1.944,-0.624 0.72,-0.648 0.984,-1.944 l 0,-5.952 q -0.432,-0.336 -0.984,-0.48 -0.552,-0.144 -1.464,-0.144 -1.656,0 -2.592,1.104 -0.936,1.08 -0.936,3.48 0,0.984 0.144,1.824 0.168,0.84 0.528,1.44 0.36,0.6 0.936,0.96 0.6,0.336 1.44,0.336 z"
         style="text-align:start;text-anchor:start"
         id="path3560" />
      <path
         d="m 383.29853,938.72958 q -0.72,0.576 -1.824,0.912 -1.08,0.336 -2.304,0.336 -1.368,0 -2.376,-0.432 -1.008,-0.456 -1.656,-1.272 -0.648,-0.84 -0.96,-1.992 -0.312,-1.152 -0.312,-2.592 0,-3.072 1.368,-4.68 1.368,-1.608 3.912,-1.608 0.816,0 1.632,0.192 0.816,0.168 1.464,0.672 0.648,0.504 1.056,1.44 0.408,0.912 0.408,2.424 0,0.792 -0.144,1.752 l -7.704,0 q 0,1.056 0.216,1.872 0.216,0.816 0.672,1.392 0.456,0.552 1.176,0.864 0.744,0.288 1.8,0.288 0.816,0 1.632,-0.288 0.816,-0.288 1.224,-0.672 l 0.72,1.392 z m -4.128,-9.648 q -1.416,0 -2.28,0.744 -0.84,0.744 -1.008,2.544 l 5.952,0 q 0,-1.824 -0.696,-2.544 -0.696,-0.744 -1.968,-0.744 z"
         style="text-align:start;text-anchor:start"
         id="path3562" />
      <path
         d="m 395.94203,935.56158 q 0,1.224 0.024,2.232 0.024,0.984 0.216,1.944 l -1.296,0 -0.48,-1.704 -0.096,0 q -0.48,0.84 -1.392,1.392 -0.912,0.552 -2.136,0.552 -2.4,0 -3.576,-1.512 -1.152,-1.512 -1.152,-4.728 0,-3.072 1.44,-4.656 1.464,-1.608 4.008,-1.608 0.888,0 1.392,0.096 0.528,0.096 1.128,0.312 l 0,-4.992 1.92,0 0,12.672 z m -4.848,2.736 q 1.224,0 1.944,-0.624 0.72,-0.648 0.984,-1.944 l 0,-5.952 q -0.432,-0.336 -0.984,-0.48 -0.552,-0.144 -1.464,-0.144 -1.656,0 -2.592,1.104 -0.936,1.08 -0.936,3.48 0,0.984 0.144,1.824 0.168,0.84 0.528,1.44 0.36,0.6 0.936,0.96 0.6,0.336 1.44,0.336 z"
         style="text-align:start;text-anchor:start"
         id="path3564" />
      <path
         d="m 404.45453,927.68958 1.872,0 0,-2.376 1.92,-0.552 0,2.928 3.264,0 0,1.68 -3.264,0 0,6.648 q 0,1.248 0.312,1.776 0.312,0.504 1.056,0.504 0.624,0 1.056,-0.12 0.432,-0.144 0.96,-0.36 l 0.432,1.464 q -0.648,0.312 -1.416,0.504 -0.768,0.192 -1.656,0.192 -1.464,0 -2.064,-0.816 -0.6,-0.84 -0.6,-2.784 l 0,-7.008 -1.872,0 0,-1.68 z"
         style="text-align:start;text-anchor:start"
         id="path3566" />
      <path
         d="m 413.24153,933.68958 q 0,-3.048 1.344,-4.656 1.368,-1.632 3.912,-1.632 1.344,0 2.328,0.456 1.008,0.432 1.656,1.272 0.648,0.816 0.96,1.992 0.312,1.152 0.312,2.568 0,3.048 -1.368,4.68 -1.344,1.608 -3.888,1.608 -1.344,0 -2.352,-0.432 -0.984,-0.456 -1.632,-1.272 -0.648,-0.84 -0.96,-1.992 -0.312,-1.176 -0.312,-2.592 z m 1.992,0 q 0,0.912 0.168,1.752 0.192,0.84 0.576,1.464 0.384,0.624 1.008,1.008 0.624,0.384 1.512,0.384 3.264,0.024 3.264,-4.608 0,-0.936 -0.192,-1.776 -0.168,-0.84 -0.552,-1.464 -0.384,-0.624 -1.008,-0.984 -0.624,-0.384 -1.512,-0.384 -3.264,-0.024 -3.264,4.608 z"
         style="text-align:start;text-anchor:start"
         id="path3568" />
      <path
         d="m 443.90715,934.52958 -2.832,0 0,5.16 -1.872,0 0,-5.16 -7.392,0 0,-0.792 7.968,-11.112 1.296,0 0,10.224 2.832,0 0,1.68 z m -4.704,-6.912 0.24,-1.968 -0.072,0 -0.84,1.632 -3.384,4.584 -1.152,1.176 1.68,-0.192 3.528,0 0,-5.232 z"
         style="text-align:start;text-anchor:start"
         id="path3570" />
      <path
         d="m 445.58528,938.58558 q 0,-0.648 0.36,-1.008 0.384,-0.384 1.008,-0.384 0.648,0 1.032,0.384 0.384,0.36 0.384,1.008 0,0.624 -0.384,1.008 -0.384,0.384 -1.032,0.384 -0.624,0 -1.008,-0.384 -0.36,-0.384 -0.36,-1.008 z"
         style="text-align:start;text-anchor:start"
         id="path3572" />
      <path
         d="m 460.26953,926.70558 q 0,1.272 -0.48,2.616 -0.456,1.32 -1.224,2.664 -0.744,1.344 -1.68,2.64 -0.936,1.272 -1.872,2.424 l -1.176,1.032 0,0.096 1.536,-0.264 5.232,0 0,1.776 -9.552,0 0,-0.696 q 0.528,-0.552 1.272,-1.368 0.744,-0.816 1.536,-1.8 0.816,-1.008 1.584,-2.112 0.792,-1.128 1.416,-2.28 0.648,-1.152 1.032,-2.28 0.384,-1.128 0.384,-2.136 0,-1.176 -0.672,-1.944 -0.672,-0.792 -2.04,-0.792 -0.912,0 -1.776,0.384 -0.864,0.36 -1.488,0.84 l -0.792,-1.368 q 0.84,-0.72 1.992,-1.128 1.152,-0.408 2.472,-0.408 1.032,0 1.824,0.312 0.792,0.288 1.344,0.84 0.552,0.552 0.84,1.32 0.288,0.744 0.288,1.632 z"
         style="text-align:start;text-anchor:start"
         id="path3574" />
      <path
         d="m 474.81165,926.72958 q 0,0.6 -0.192,1.224 -0.192,0.624 -0.576,1.176 -0.384,0.528 -0.984,0.936 -0.6,0.408 -1.416,0.624 l 0,0.096 q 0.72,0.12 1.368,0.408 0.672,0.288 1.176,0.792 0.504,0.504 0.816,1.224 0.312,0.72 0.312,1.704 0,1.296 -0.552,2.256 -0.528,0.936 -1.416,1.536 -0.864,0.6 -1.992,0.888 -1.128,0.288 -2.304,0.288 -0.408,0 -0.96,0 -0.552,0 -1.152,-0.048 -0.6,-0.024 -1.2,-0.096 -0.6,-0.048 -1.056,-0.168 l 0,-16.536 q 0.888,-0.144 2.064,-0.24 1.176,-0.096 2.568,-0.096 0.936,0 1.896,0.168 0.984,0.144 1.776,0.6 0.792,0.432 1.296,1.224 0.528,0.792 0.528,2.04 z m -5.568,11.424 q 0.768,0 1.488,-0.168 0.72,-0.192 1.272,-0.576 0.552,-0.408 0.864,-0.984 0.336,-0.576 0.336,-1.368 0,-0.984 -0.408,-1.584 -0.384,-0.6 -1.032,-0.936 -0.624,-0.336 -1.416,-0.456 -0.792,-0.12 -1.584,-0.12 l -2.088,0 0,6.024 q 0.168,0.048 0.48,0.072 0.312,0.024 0.672,0.048 0.36,0.024 0.744,0.048 0.384,0 0.672,0 z m -1.32,-7.872 q 0.408,0 0.984,-0.024 0.576,-0.024 0.96,-0.072 0.576,-0.192 1.08,-0.456 0.504,-0.288 0.888,-0.648 0.408,-0.384 0.624,-0.864 0.24,-0.504 0.24,-1.08 0,-0.792 -0.312,-1.296 -0.288,-0.528 -0.792,-0.84 -0.504,-0.312 -1.152,-0.432 -0.648,-0.144 -1.32,-0.144 -0.792,0 -1.464,0.048 -0.648,0.024 -0.984,0.096 l 0,5.712 1.248,0 z"
         style="text-align:start;text-anchor:start"
         id="path3576" />
      <path
         d="m 486.28328,935.41758 q 0,-1.008 -0.6,-1.632 -0.6,-0.648 -1.512,-1.128 -0.888,-0.504 -1.944,-0.936 -1.056,-0.432 -1.968,-1.032 -0.888,-0.624 -1.488,-1.512 -0.6,-0.912 -0.6,-2.304 0,-1.968 1.368,-3.12 1.368,-1.152 3.888,-1.152 1.464,0 2.664,0.216 1.2,0.216 1.872,0.552 l -0.6,1.752 q -0.552,-0.264 -1.632,-0.504 -1.056,-0.24 -2.4,-0.24 -1.584,0 -2.376,0.72 -0.792,0.696 -0.792,1.656 0,0.936 0.6,1.56 0.6,0.624 1.488,1.128 0.912,0.48 1.968,0.96 1.056,0.48 1.944,1.128 0.912,0.624 1.512,1.512 0.6,0.888 0.6,2.208 0,1.08 -0.384,1.944 -0.384,0.864 -1.128,1.488 -0.744,0.624 -1.8,0.96 -1.056,0.336 -2.4,0.336 -1.8,0 -2.976,-0.288 -1.176,-0.264 -1.824,-0.6 l 0.672,-1.8 q 0.552,0.312 1.632,0.624 1.08,0.288 2.424,0.288 0.792,0 1.488,-0.144 0.696,-0.168 1.2,-0.504 0.504,-0.36 0.792,-0.888 0.312,-0.528 0.312,-1.248 z"
         style="text-align:start;text-anchor:start"
         id="path3578" />
      <path
         d="m 491.44928,922.88958 q 0.456,-0.072 1.008,-0.096 0.576,-0.048 1.176,-0.048 0.624,-0.024 1.2,-0.024 0.6,-0.024 1.104,-0.024 2.016,0 3.48,0.624 1.488,0.624 2.448,1.752 0.96,1.104 1.416,2.664 0.48,1.56 0.48,3.432 0,1.704 -0.456,3.288 -0.432,1.56 -1.392,2.784 -0.96,1.2 -2.496,1.944 -1.536,0.72 -3.72,0.72 -0.384,0 -1.008,-0.024 -0.6,0 -1.248,-0.048 -0.648,-0.024 -1.2,-0.048 -0.552,-0.024 -0.792,-0.072 l 0,-16.824 z m 4.536,1.584 q -0.312,0 -0.696,0 -0.36,0 -0.72,0.024 -0.36,0.024 -0.672,0.048 -0.288,0.024 -0.456,0.048 l 0,13.44 q 0.12,0.024 0.456,0.048 0.336,0 0.696,0.024 0.36,0 0.696,0.024 0.336,0 0.456,0 1.68,0 2.808,-0.576 1.152,-0.576 1.824,-1.536 0.696,-0.984 0.984,-2.232 0.288,-1.272 0.288,-2.616 0,-1.176 -0.264,-2.352 -0.264,-1.2 -0.912,-2.16 -0.648,-0.96 -1.752,-1.56 -1.08,-0.624 -2.736,-0.624 z"
         style="text-align:start;text-anchor:start"
         id="path3580" />
    </g>
    <g
       style="font-style:normal;font-variant:normal;font-weight:normal;font-stretch:normal;font-size:24px;line-height:125%;font-family:'PT Sans';-inkscape-font-specification:'PT Sans';text-align:start;letter-spacing:0px;word-spacing:0px;text-anchor:start;fill:#000000;fill-opacity:1;stroke:none"
       id="text5366">
      <path
         d="m 115.88228,744.53362 1.992,0 0,13.104 q 0,1.92 -0.864,2.928 -0.84,1.008 -2.568,1.008 -0.192,0 -0.48,-0.024 -0.288,-0.024 -0.576,-0.072 -0.288,-0.048 -0.552,-0.12 -0.288,-0.072 -0.456,-0.168 l 0.384,-1.704 q 0.672,0.312 1.464,0.312 1.008,0 1.32,-0.696 0.336,-0.72 0.336,-1.944 l 0,-12.624 z"
         style=""
         id="path3461" />
      <path
         d="m 121.83466,750.22162 q 0.912,-0.552 2.112,-0.816 1.224,-0.264 2.544,-0.264 1.248,0 1.992,0.336 0.768,0.336 1.152,0.888 0.408,0.528 0.528,1.176 0.144,0.648 0.144,1.296 0,1.44 -0.072,2.808 -0.072,1.368 -0.072,2.592 0,0.888 0.072,1.68 0.072,0.792 0.264,1.464 l -1.416,0 -0.504,-1.68 -0.12,0 q -0.216,0.336 -0.552,0.672 -0.312,0.312 -0.768,0.576 -0.456,0.24 -1.056,0.408 -0.6,0.168 -1.368,0.168 -0.768,0 -1.44,-0.24 -0.648,-0.24 -1.128,-0.672 -0.48,-0.456 -0.768,-1.08 -0.264,-0.624 -0.264,-1.416 0,-1.056 0.432,-1.752 0.432,-0.72 1.2,-1.128 0.792,-0.432 1.872,-0.6 1.104,-0.192 2.424,-0.192 0.336,0 0.648,0 0.336,0 0.672,0.048 0.072,-0.72 0.072,-1.296 0,-1.32 -0.528,-1.848 -0.528,-0.528 -1.92,-0.528 -0.408,0 -0.888,0.072 -0.456,0.048 -0.96,0.168 -0.48,0.096 -0.936,0.264 -0.432,0.144 -0.768,0.336 l -0.6,-1.44 z m 3.408,9.624 q 0.672,0 1.2,-0.168 0.528,-0.192 0.912,-0.456 0.384,-0.288 0.624,-0.624 0.264,-0.336 0.384,-0.648 l 0,-1.992 q -0.336,-0.024 -0.696,-0.024 -0.336,-0.024 -0.672,-0.024 -0.744,0 -1.464,0.096 -0.696,0.072 -1.248,0.312 -0.528,0.216 -0.864,0.624 -0.312,0.384 -0.312,0.984 0,0.84 0.6,1.392 0.6,0.528 1.536,0.528 z"
         style=""
         id="path3463" />
      <path
         d="m 134.34091,749.33362 1.92,0 0,12 -1.92,0 0,-12 z m -0.408,-3.648 q 0,-0.552 0.36,-0.936 0.384,-0.408 0.96,-0.408 0.576,0 0.984,0.408 0.408,0.384 0.408,0.936 0,0.552 -0.408,0.912 -0.408,0.36 -0.984,0.36 -0.576,0 -0.96,-0.36 -0.36,-0.36 -0.36,-0.912 z"
         style=""
         id="path3465" />
      <path
         d="m 142.49078,758.38162 q 0,0.84 0.288,1.2 0.288,0.36 0.816,0.36 0.312,0 0.672,-0.048 0.36,-0.048 0.816,-0.216 l 0.216,1.512 q -0.384,0.192 -1.08,0.312 -0.672,0.12 -1.176,0.12 -1.08,0 -1.776,-0.6 -0.696,-0.624 -0.696,-2.088 l 0,-14.4 1.92,0 0,13.848 z"
         style=""
         id="path3467" />
      <path
         d="m 152.66603,758.06962 q 0,-0.72 -0.432,-1.128 -0.432,-0.408 -1.08,-0.672 -0.624,-0.288 -1.392,-0.528 -0.744,-0.264 -1.392,-0.648 -0.624,-0.408 -1.056,-1.032 -0.432,-0.624 -0.432,-1.68 0,-1.728 0.984,-2.52 0.984,-0.816 2.736,-0.816 1.296,0 2.16,0.24 0.888,0.216 1.536,0.528 l -0.456,1.584 q -0.552,-0.264 -1.344,-0.456 -0.768,-0.216 -1.656,-0.216 -1.056,0 -1.56,0.36 -0.48,0.36 -0.48,1.248 0,0.624 0.432,0.984 0.432,0.336 1.056,0.624 0.648,0.264 1.392,0.528 0.768,0.264 1.392,0.696 0.648,0.432 1.08,1.104 0.432,0.648 0.432,1.728 0,0.768 -0.264,1.44 -0.24,0.672 -0.768,1.152 -0.528,0.48 -1.32,0.744 -0.768,0.288 -1.824,0.288 -1.368,0 -2.328,-0.264 -0.96,-0.264 -1.608,-0.624 l 0.576,-1.632 q 0.552,0.312 1.44,0.576 0.888,0.264 1.8,0.264 1.032,0 1.704,-0.408 0.672,-0.408 0.672,-1.464 z"
         style=""
         id="path3469" />
      <path
         d="m 164.34091,749.33362 1.92,0 0,12 -1.92,0 0,-12 z m -0.408,-3.648 q 0,-0.552 0.36,-0.936 0.384,-0.408 0.96,-0.408 0.576,0 0.984,0.408 0.408,0.384 0.408,0.936 0,0.552 -0.408,0.912 -0.408,0.36 -0.984,0.36 -0.576,0 -0.96,-0.36 -0.36,-0.36 -0.36,-0.912 z"
         style=""
         id="path3471" />
      <path
         d="m 178.05878,761.33362 0,-6.84 q 0,-1.872 -0.552,-2.808 -0.528,-0.96 -1.968,-0.96 -1.272,0 -2.112,0.696 -0.816,0.672 -1.152,1.704 l 0,8.208 -1.92,0 0,-12 1.344,0 0.36,1.464 0.096,0 q 0.576,-0.768 1.536,-1.248 0.984,-0.504 2.328,-0.504 0.984,0 1.728,0.24 0.744,0.216 1.224,0.792 0.504,0.576 0.744,1.56 0.264,0.96 0.264,2.448 l 0,7.248 -1.92,0 z"
         style=""
         id="path3473" />
      <path
         d="m 181.89578,749.33362 1.872,0 0,-2.376 1.92,-0.552 0,2.928 3.264,0 0,1.68 -3.264,0 0,6.648 q 0,1.248 0.312,1.776 0.312,0.504 1.056,0.504 0.624,0 1.056,-0.12 0.432,-0.144 0.96,-0.36 l 0.432,1.464 q -0.648,0.312 -1.416,0.504 -0.768,0.192 -1.656,0.192 -1.464,0 -2.064,-0.816 -0.6,-0.84 -0.6,-2.784 l 0,-7.008 -1.872,0 0,-1.68 z"
         style=""
         id="path3475" />
      <path
         d="m 197.30003,751.18162 q -0.72,-0.24 -1.368,-0.24 -1.032,0 -1.632,0.576 -0.6,0.552 -0.744,1.416 l 0,8.4 -1.92,0 0,-12 1.344,0 0.36,1.464 0.096,0 q 0.456,-0.816 1.08,-1.248 0.648,-0.456 1.632,-0.456 0.696,0 1.56,0.24 l -0.408,1.848 z"
         style=""
         id="path3477" />
      <path
         d="m 199.12028,755.33362 q 0,-3.048 1.344,-4.656 1.368,-1.632 3.912,-1.632 1.344,0 2.328,0.456 1.008,0.432 1.656,1.272 0.648,0.816 0.96,1.992 0.312,1.152 0.312,2.568 0,3.048 -1.368,4.68 -1.344,1.608 -3.888,1.608 -1.344,0 -2.352,-0.432 -0.984,-0.456 -1.632,-1.272 -0.648,-0.84 -0.96,-1.992 -0.312,-1.176 -0.312,-2.592 z m 1.992,0 q 0,0.912 0.168,1.752 0.192,0.84 0.576,1.464 0.384,0.624 1.008,1.008 0.624,0.384 1.512,0.384 3.264,0.024 3.264,-4.608 0,-0.936 -0.192,-1.776 -0.168,-0.84 -0.552,-1.464 -0.384,-0.624 -1.008,-0.984 -0.624,-0.384 -1.512,-0.384 -3.264,-0.024 -3.264,4.608 z"
         style=""
         id="path3479" />
      <path
         d="m 221.85203,757.20562 q 0,1.224 0.024,2.232 0.024,0.984 0.216,1.944 l -1.296,0 -0.48,-1.704 -0.096,0 q -0.48,0.84 -1.392,1.392 -0.912,0.552 -2.136,0.552 -2.4,0 -3.576,-1.512 -1.152,-1.512 -1.152,-4.728 0,-3.072 1.44,-4.656 1.464,-1.608 4.008,-1.608 0.888,0 1.392,0.096 0.528,0.096 1.128,0.312 l 0,-4.992 1.92,0 0,12.672 z m -4.848,2.736 q 1.224,0 1.944,-0.624 0.72,-0.648 0.984,-1.944 l 0,-5.952 q -0.432,-0.336 -0.984,-0.48 -0.552,-0.144 -1.464,-0.144 -1.656,0 -2.592,1.104 -0.936,1.08 -0.936,3.48 0,0.984 0.144,1.824 0.168,0.84 0.528,1.44 0.36,0.6 0.936,0.96 0.6,0.336 1.44,0.336 z"
         style=""
         id="path3481" />
      <path
         d="m 227.25466,749.33362 0,6.84 q 0,0.936 0.096,1.656 0.12,0.696 0.384,1.176 0.264,0.456 0.72,0.696 0.456,0.24 1.152,0.24 0.648,0 1.152,-0.192 0.504,-0.216 0.888,-0.576 0.408,-0.36 0.696,-0.816 0.312,-0.48 0.504,-1.008 l 0,-8.016 1.92,0 0,8.592 q 0,0.864 0.048,1.8 0.072,0.912 0.216,1.608 l -1.32,0 -0.48,-1.896 -0.12,0 q -0.552,0.936 -1.488,1.56 -0.936,0.624 -2.376,0.624 -0.96,0 -1.704,-0.24 -0.72,-0.216 -1.224,-0.792 -0.48,-0.576 -0.744,-1.536 -0.24,-0.984 -0.24,-2.472 l 0,-7.248 1.92,0 z"
         style=""
         id="path3483" />
      <path
         d="m 246.64816,760.54162 q -0.72,0.528 -1.704,0.792 -0.984,0.288 -2.064,0.288 -1.392,0 -2.352,-0.432 -0.96,-0.456 -1.584,-1.272 -0.6,-0.84 -0.888,-1.992 -0.264,-1.176 -0.264,-2.592 0,-3.048 1.344,-4.656 1.344,-1.632 3.864,-1.632 1.152,0 1.944,0.192 0.816,0.168 1.464,0.504 l -0.552,1.656 q -0.552,-0.312 -1.224,-0.48 -0.672,-0.192 -1.44,-0.192 -3.408,0 -3.408,4.608 0,0.912 0.168,1.752 0.192,0.816 0.6,1.464 0.432,0.624 1.104,1.008 0.696,0.384 1.704,0.384 0.864,0 1.536,-0.264 0.696,-0.264 1.128,-0.6 l 0.624,1.464 z"
         style=""
         id="path3485" />
      <path
         d="m 257.48978,760.37362 q -0.72,0.576 -1.824,0.912 -1.08,0.336 -2.304,0.336 -1.368,0 -2.376,-0.432 -1.008,-0.456 -1.656,-1.272 -0.648,-0.84 -0.96,-1.992 -0.312,-1.152 -0.312,-2.592 0,-3.072 1.368,-4.68 1.368,-1.608 3.912,-1.608 0.816,0 1.632,0.192 0.816,0.168 1.464,0.672 0.648,0.504 1.056,1.44 0.408,0.912 0.408,2.424 0,0.792 -0.144,1.752 l -7.704,0 q 0,1.056 0.216,1.872 0.216,0.816 0.672,1.392 0.456,0.552 1.176,0.864 0.744,0.288 1.8,0.288 0.816,0 1.632,-0.288 0.816,-0.288 1.224,-0.672 l 0.72,1.392 z m -4.128,-9.648 q -1.416,0 -2.28,0.744 -0.84,0.744 -1.008,2.544 l 5.952,0 q 0,-1.824 -0.696,-2.544 -0.696,-0.744 -1.968,-0.744 z"
         style=""
         id="path3487" />
      <path
         d="m 270.13328,757.20562 q 0,1.224 0.024,2.232 0.024,0.984 0.216,1.944 l -1.296,0 -0.48,-1.704 -0.096,0 q -0.48,0.84 -1.392,1.392 -0.912,0.552 -2.136,0.552 -2.4,0 -3.576,-1.512 -1.152,-1.512 -1.152,-4.728 0,-3.072 1.44,-4.656 1.464,-1.608 4.008,-1.608 0.888,0 1.392,0.096 0.528,0.096 1.128,0.312 l 0,-4.992 1.92,0 0,12.672 z m -4.848,2.736 q 1.224,0 1.944,-0.624 0.72,-0.648 0.984,-1.944 l 0,-5.952 q -0.432,-0.336 -0.984,-0.48 -0.552,-0.144 -1.464,-0.144 -1.656,0 -2.592,1.104 -0.936,1.08 -0.936,3.48 0,0.984 0.144,1.824 0.168,0.84 0.528,1.44 0.36,0.6 0.936,0.96 0.6,0.336 1.44,0.336 z"
         style=""
         id="path3489" />
      <path
         d="m 280.63778,749.33362 1.92,0 0,12 -1.92,0 0,-12 z m -0.408,-3.648 q 0,-0.552 0.36,-0.936 0.384,-0.408 0.96,-0.408 0.576,0 0.984,0.408 0.408,0.384 0.408,0.936 0,0.552 -0.408,0.912 -0.408,0.36 -0.984,0.36 -0.576,0 -0.96,-0.36 -0.36,-0.36 -0.36,-0.912 z"
         style=""
         id="path3491" />
      <path
         d="m 294.35566,761.33362 0,-6.84 q 0,-1.872 -0.552,-2.808 -0.528,-0.96 -1.968,-0.96 -1.272,0 -2.112,0.696 -0.816,0.672 -1.152,1.704 l 0,8.208 -1.92,0 0,-12 1.344,0 0.36,1.464 0.096,0 q 0.576,-0.768 1.536,-1.248 0.984,-0.504 2.328,-0.504 0.984,0 1.728,0.24 0.744,0.216 1.224,0.792 0.504,0.576 0.744,1.56 0.264,0.96 0.264,2.448 l 0,7.248 -1.92,0 z"
         style=""
         id="path3493" />
      <path
         d="m 298.19266,749.33362 1.872,0 0,-2.376 1.92,-0.552 0,2.928 3.264,0 0,1.68 -3.264,0 0,6.648 q 0,1.248 0.312,1.776 0.312,0.504 1.056,0.504 0.624,0 1.056,-0.12 0.432,-0.144 0.96,-0.36 l 0.432,1.464 q -0.648,0.312 -1.416,0.504 -0.768,0.192 -1.656,0.192 -1.464,0 -2.064,-0.816 -0.6,-0.84 -0.6,-2.784 l 0,-7.008 -1.872,0 0,-1.68 z"
         style=""
         id="path3495" />
      <path
         d="m 306.97966,755.33362 q 0,-3.048 1.344,-4.656 1.368,-1.632 3.912,-1.632 1.344,0 2.328,0.456 1.008,0.432 1.656,1.272 0.648,0.816 0.96,1.992 0.312,1.152 0.312,2.568 0,3.048 -1.368,4.68 -1.344,1.608 -3.888,1.608 -1.344,0 -2.352,-0.432 -0.984,-0.456 -1.632,-1.272 -0.648,-0.84 -0.96,-1.992 -0.312,-1.176 -0.312,-2.592 z m 1.992,0 q 0,0.912 0.168,1.752 0.192,0.84 0.576,1.464 0.384,0.624 1.008,1.008 0.624,0.384 1.512,0.384 3.264,0.024 3.264,-4.608 0,-0.936 -0.192,-1.776 -0.168,-0.84 -0.552,-1.464 -0.384,-0.624 -1.008,-0.984 -0.624,-0.384 -1.512,-0.384 -3.264,-0.024 -3.264,4.608 z"
         style=""
         id="path3497" />
      <path
         d="m 327.10928,744.53362 9.144,0 0,1.776 -7.152,0 0,5.736 6.672,0 0,1.776 -6.672,0 0,7.512 -1.992,0 0,-16.8 z"
         style=""
         id="path3499" />
      <path
         d="m 345.00316,751.18162 q -0.72,-0.24 -1.368,-0.24 -1.032,0 -1.632,0.576 -0.6,0.552 -0.744,1.416 l 0,8.4 -1.92,0 0,-12 1.344,0 0.36,1.464 0.096,0 q 0.456,-0.816 1.08,-1.248 0.648,-0.456 1.632,-0.456 0.696,0 1.56,0.24 l -0.408,1.848 z"
         style=""
         id="path3501" />
      <path
         d="m 356.25541,760.37362 q -0.72,0.576 -1.824,0.912 -1.08,0.336 -2.304,0.336 -1.368,0 -2.376,-0.432 -1.008,-0.456 -1.656,-1.272 -0.648,-0.84 -0.96,-1.992 -0.312,-1.152 -0.312,-2.592 0,-3.072 1.368,-4.68 1.368,-1.608 3.912,-1.608 0.816,0 1.632,0.192 0.816,0.168 1.464,0.672 0.648,0.504 1.056,1.44 0.408,0.912 0.408,2.424 0,0.792 -0.144,1.752 l -7.704,0 q 0,1.056 0.216,1.872 0.216,0.816 0.672,1.392 0.456,0.552 1.176,0.864 0.744,0.288 1.8,0.288 0.816,0 1.632,-0.288 0.816,-0.288 1.224,-0.672 l 0.72,1.392 z m -4.128,-9.648 q -1.416,0 -2.28,0.744 -0.84,0.744 -1.008,2.544 l 5.952,0 q 0,-1.824 -0.696,-2.544 -0.696,-0.744 -1.968,-0.744 z"
         style=""
         id="path3503" />
      <path
         d="m 368.16166,760.37362 q -0.72,0.576 -1.824,0.912 -1.08,0.336 -2.304,0.336 -1.368,0 -2.376,-0.432 -1.008,-0.456 -1.656,-1.272 -0.648,-0.84 -0.96,-1.992 -0.312,-1.152 -0.312,-2.592 0,-3.072 1.368,-4.68 1.368,-1.608 3.912,-1.608 0.816,0 1.632,0.192 0.816,0.168 1.464,0.672 0.648,0.504 1.056,1.44 0.408,0.912 0.408,2.424 0,0.792 -0.144,1.752 l -7.704,0 q 0,1.056 0.216,1.872 0.216,0.816 0.672,1.392 0.456,0.552 1.176,0.864 0.744,0.288 1.8,0.288 0.816,0 1.632,-0.288 0.816,-0.288 1.224,-0.672 l 0.72,1.392 z m -4.128,-9.648 q -1.416,0 -2.28,0.744 -0.84,0.744 -1.008,2.544 l 5.952,0 q 0,-1.824 -0.696,-2.544 -0.696,-0.744 -1.968,-0.744 z"
         style=""
         id="path3505" />
      <path
         d="m 381.90916,748.37362 q 0,0.6 -0.192,1.224 -0.192,0.624 -0.576,1.176 -0.384,0.528 -0.984,0.936 -0.6,0.408 -1.416,0.624 l 0,0.096 q 0.72,0.12 1.368,0.408 0.672,0.288 1.176,0.792 0.504,0.504 0.816,1.224 0.312,0.72 0.312,1.704 0,1.296 -0.552,2.256 -0.528,0.936 -1.416,1.536 -0.864,0.6 -1.992,0.888 -1.128,0.288 -2.304,0.288 -0.408,0 -0.96,0 -0.552,0 -1.152,-0.048 -0.6,-0.024 -1.2,-0.096 -0.6,-0.048 -1.056,-0.168 l 0,-16.536 q 0.888,-0.144 2.064,-0.24 1.176,-0.096 2.568,-0.096 0.936,0 1.896,0.168 0.984,0.144 1.776,0.6 0.792,0.432 1.296,1.224 0.528,0.792 0.528,2.04 z m -5.568,11.424 q 0.768,0 1.488,-0.168 0.72,-0.192 1.272,-0.576 0.552,-0.408 0.864,-0.984 0.336,-0.576 0.336,-1.368 0,-0.984 -0.408,-1.584 -0.384,-0.6 -1.032,-0.936 -0.624,-0.336 -1.416,-0.456 -0.792,-0.12 -1.584,-0.12 l -2.088,0 0,6.024 q 0.168,0.048 0.48,0.072 0.312,0.024 0.672,0.048 0.36,0.024 0.744,0.048 0.384,0 0.672,0 z m -1.32,-7.872 q 0.408,0 0.984,-0.024 0.576,-0.024 0.96,-0.072 0.576,-0.192 1.08,-0.456 0.504,-0.288 0.888,-0.648 0.408,-0.384 0.624,-0.864 0.24,-0.504 0.24,-1.08 0,-0.792 -0.312,-1.296 -0.288,-0.528 -0.792,-0.84 -0.504,-0.312 -1.152,-0.432 -0.648,-0.144 -1.32,-0.144 -0.792,0 -1.464,0.048 -0.648,0.024 -0.984,0.096 l 0,5.712 1.248,0 z"
         style=""
         id="path3507" />
      <path
         d="m 393.38078,757.06162 q 0,-1.008 -0.6,-1.632 -0.6,-0.648 -1.512,-1.128 -0.888,-0.504 -1.944,-0.936 -1.056,-0.432 -1.968,-1.032 -0.888,-0.624 -1.488,-1.512 -0.6,-0.912 -0.6,-2.304 0,-1.968 1.368,-3.12 1.368,-1.152 3.888,-1.152 1.464,0 2.664,0.216 1.2,0.216 1.872,0.552 l -0.6,1.752 q -0.552,-0.264 -1.632,-0.504 -1.056,-0.24 -2.4,-0.24 -1.584,0 -2.376,0.72 -0.792,0.696 -0.792,1.656 0,0.936 0.6,1.56 0.6,0.624 1.488,1.128 0.912,0.48 1.968,0.96 1.056,0.48 1.944,1.128 0.912,0.624 1.512,1.512 0.6,0.888 0.6,2.208 0,1.08 -0.384,1.944 -0.384,0.864 -1.128,1.488 -0.744,0.624 -1.8,0.96 -1.056,0.336 -2.4,0.336 -1.8,0 -2.976,-0.288 -1.176,-0.264 -1.824,-0.6 l 0.672,-1.8 q 0.552,0.312 1.632,0.624 1.08,0.288 2.424,0.288 0.792,0 1.488,-0.144 0.696,-0.168 1.2,-0.504 0.504,-0.36 0.792,-0.888 0.312,-0.528 0.312,-1.248 z"
         style=""
         id="path3509" />
      <path
         d="m 398.54678,744.53362 q 0.456,-0.072 1.008,-0.096 0.576,-0.048 1.176,-0.048 0.624,-0.024 1.2,-0.024 0.6,-0.024 1.104,-0.024 2.016,0 3.48,0.624 1.488,0.624 2.448,1.752 0.96,1.104 1.416,2.664 0.48,1.56 0.48,3.432 0,1.704 -0.456,3.288 -0.432,1.56 -1.392,2.784 -0.96,1.2 -2.496,1.944 -1.536,0.72 -3.72,0.72 -0.384,0 -1.008,-0.024 -0.6,0 -1.248,-0.048 -0.648,-0.024 -1.2,-0.048 -0.552,-0.024 -0.792,-0.072 l 0,-16.824 z m 4.536,1.584 q -0.312,0 -0.696,0 -0.36,0 -0.72,0.024 -0.36,0.024 -0.672,0.048 -0.288,0.024 -0.456,0.048 l 0,13.44 q 0.12,0.024 0.456,0.048 0.336,0 0.696,0.024 0.36,0 0.696,0.024 0.336,0 0.456,0 1.68,0 2.808,-0.576 1.152,-0.576 1.824,-1.536 0.696,-0.984 0.984,-2.232 0.288,-1.272 0.288,-2.616 0,-1.176 -0.264,-2.352 -0.264,-1.2 -0.912,-2.16 -0.648,-0.96 -1.752,-1.56 -1.08,-0.624 -2.736,-0.624 z"
         style=""
         id="path3511" />
      <path
         d="m 431.20778,756.17362 -2.832,0 0,5.16 -1.872,0 0,-5.16 -7.392,0 0,-0.792 7.968,-11.112 1.296,0 0,10.224 2.832,0 0,1.68 z m -4.704,-6.912 0.24,-1.968 -0.072,0 -0.84,1.632 -3.384,4.584 -1.152,1.176 1.68,-0.192 3.528,0 0,-5.232 z"
         style=""
         id="path3513" />
      <path
         d="m 432.88591,760.22962 q 0,-0.648 0.36,-1.008 0.384,-0.384 1.008,-0.384 0.648,0 1.032,0.384 0.384,0.36 0.384,1.008 0,0.624 -0.384,1.008 -0.384,0.384 -1.032,0.384 -0.624,0 -1.008,-0.384 -0.36,-0.384 -0.36,-1.008 z"
         style=""
         id="path3515" />
      <path
         d="m 437.89816,752.93362 q 0,-4.32 1.392,-6.504 1.416,-2.184 4.104,-2.184 2.904,0 4.2,2.16 1.32,2.136 1.32,6.528 0,4.32 -1.416,6.504 -1.392,2.184 -4.104,2.184 -2.856,0 -4.176,-2.28 -1.32,-2.28 -1.32,-6.408 z m 1.992,0 q 0,1.56 0.192,2.856 0.216,1.272 0.648,2.208 0.432,0.912 1.08,1.44 0.672,0.504 1.584,0.504 1.824,0 2.664,-1.68 0.864,-1.704 0.864,-5.328 0,-1.536 -0.192,-2.832 -0.168,-1.296 -0.6,-2.232 -0.408,-0.936 -1.08,-1.44 -0.672,-0.504 -1.656,-0.504 -1.8,0 -2.664,1.704 -0.84,1.704 -0.84,5.304 z"
         style=""
         id="path3517" />
    </g>
    <g
       style="font-style:normal;font-variant:normal;font-weight:normal;font-stretch:normal;font-size:24px;line-height:125%;font-family:'PT Sans';-inkscape-font-specification:'PT Sans';text-align:start;letter-spacing:0px;word-spacing:0px;text-anchor:start;fill:#000000;fill-opacity:1;stroke:none"
       id="text5370">
      <path
         d="m 112.37829,697.39073 8.472,-12.264 1.008,-0.96 -9.48,0 0,-1.776 11.28,0 0,1.8 -8.52,12.336 -1.008,0.888 9.528,0 0,1.776 -11.28,0 0,-1.8 z"
         style=""
         id="path3394" />
      <path
         d="m 124.50167,693.19073 q 0,-3.048 1.344,-4.656 1.368,-1.632 3.912,-1.632 1.344,0 2.328,0.456 1.008,0.432 1.656,1.272 0.648,0.816 0.96,1.992 0.312,1.152 0.312,2.568 0,3.048 -1.368,4.68 -1.344,1.608 -3.888,1.608 -1.344,0 -2.352,-0.432 -0.984,-0.456 -1.632,-1.272 -0.648,-0.84 -0.96,-1.992 -0.312,-1.176 -0.312,-2.592 z m 1.992,0 q 0,0.912 0.168,1.752 0.192,0.84 0.576,1.464 0.384,0.624 1.008,1.008 0.624,0.384 1.512,0.384 3.264,0.024 3.264,-4.608 0,-0.936 -0.192,-1.776 -0.168,-0.84 -0.552,-1.464 -0.384,-0.624 -1.008,-0.984 -0.624,-0.384 -1.512,-0.384 -3.264,-0.024 -3.264,4.608 z"
         style=""
         id="path3396" />
      <path
         d="m 145.72142,699.19073 0,-6.84 q 0,-1.872 -0.552,-2.808 -0.528,-0.96 -1.968,-0.96 -1.272,0 -2.112,0.696 -0.816,0.672 -1.152,1.704 l 0,8.208 -1.92,0 0,-12 1.344,0 0.36,1.464 0.096,0 q 0.576,-0.768 1.536,-1.248 0.984,-0.504 2.328,-0.504 0.984,0 1.728,0.24 0.744,0.216 1.224,0.792 0.504,0.576 0.744,1.56 0.264,0.96 0.264,2.448 l 0,7.248 -1.92,0 z"
         style=""
         id="path3398" />
      <path
         d="m 159.90242,698.23073 q -0.72,0.576 -1.824,0.912 -1.08,0.336 -2.304,0.336 -1.368,0 -2.376,-0.432 -1.008,-0.456 -1.656,-1.272 -0.648,-0.84 -0.96,-1.992 -0.312,-1.152 -0.312,-2.592 0,-3.072 1.368,-4.68 1.368,-1.608 3.912,-1.608 0.816,0 1.632,0.192 0.816,0.168 1.464,0.672 0.648,0.504 1.056,1.44 0.408,0.912 0.408,2.424 0,0.792 -0.144,1.752 l -7.704,0 q 0,1.056 0.216,1.872 0.216,0.816 0.672,1.392 0.456,0.552 1.176,0.864 0.744,0.288 1.8,0.288 0.816,0 1.632,-0.288 0.816,-0.288 1.224,-0.672 l 0.72,1.392 z m -4.128,-9.648 q -1.416,0 -2.28,0.744 -0.84,0.744 -1.008,2.544 l 5.952,0 q 0,-1.824 -0.696,-2.544 -0.696,-0.744 -1.968,-0.744 z"
         style=""
         id="path3400" />
      <path
         d="m 168.60992,695.92673 q 0,-0.72 -0.432,-1.128 -0.432,-0.408 -1.08,-0.672 -0.624,-0.288 -1.392,-0.528 -0.744,-0.264 -1.392,-0.648 -0.624,-0.408 -1.056,-1.032 -0.432,-0.624 -0.432,-1.68 0,-1.728 0.984,-2.52 0.984,-0.816 2.736,-0.816 1.296,0 2.16,0.24 0.888,0.216 1.536,0.528 l -0.456,1.584 q -0.552,-0.264 -1.344,-0.456 -0.768,-0.216 -1.656,-0.216 -1.056,0 -1.56,0.36 -0.48,0.36 -0.48,1.248 0,0.624 0.432,0.984 0.432,0.336 1.056,0.624 0.648,0.264 1.392,0.528 0.768,0.264 1.392,0.696 0.648,0.432 1.08,1.104 0.432,0.648 0.432,1.728 0,0.768 -0.264,1.44 -0.24,0.672 -0.768,1.152 -0.528,0.48 -1.32,0.744 -0.768,0.288 -1.824,0.288 -1.368,0 -2.328,-0.264 -0.96,-0.264 -1.608,-0.624 l 0.576,-1.632 q 0.552,0.312 1.44,0.576 0.888,0.264 1.8,0.264 1.032,0 1.704,-0.408 0.672,-0.408 0.672,-1.464 z"
         style=""
         id="path3402" />
      <path
         d="m 180.28479,687.19073 1.92,0 0,12 -1.92,0 0,-12 z m -0.408,-3.648 q 0,-0.552 0.36,-0.936 0.384,-0.408 0.96,-0.408 0.576,0 0.984,0.408 0.408,0.384 0.408,0.936 0,0.552 -0.408,0.912 -0.408,0.36 -0.984,0.36 -0.576,0 -0.96,-0.36 -0.36,-0.36 -0.36,-0.912 z"
         style=""
         id="path3404" />
      <path
         d="m 194.00267,699.19073 0,-6.84 q 0,-1.872 -0.552,-2.808 -0.528,-0.96 -1.968,-0.96 -1.272,0 -2.112,0.696 -0.816,0.672 -1.152,1.704 l 0,8.208 -1.92,0 0,-12 1.344,0 0.36,1.464 0.096,0 q 0.576,-0.768 1.536,-1.248 0.984,-0.504 2.328,-0.504 0.984,0 1.728,0.24 0.744,0.216 1.224,0.792 0.504,0.576 0.744,1.56 0.264,0.96 0.264,2.448 l 0,7.248 -1.92,0 z"
         style=""
         id="path3406" />
      <path
         d="m 197.83967,687.19073 1.872,0 0,-2.376 1.92,-0.552 0,2.928 3.264,0 0,1.68 -3.264,0 0,6.648 q 0,1.248 0.312,1.776 0.312,0.504 1.056,0.504 0.624,0 1.056,-0.12 0.432,-0.144 0.96,-0.36 l 0.432,1.464 q -0.648,0.312 -1.416,0.504 -0.768,0.192 -1.656,0.192 -1.464,0 -2.064,-0.816 -0.6,-0.84 -0.6,-2.784 l 0,-7.008 -1.872,0 0,-1.68 z"
         style=""
         id="path3408" />
      <path
         d="m 213.24392,689.03873 q -0.72,-0.24 -1.368,-0.24 -1.032,0 -1.632,0.576 -0.6,0.552 -0.744,1.416 l 0,8.4 -1.92,0 0,-12 1.344,0 0.36,1.464 0.096,0 q 0.456,-0.816 1.08,-1.248 0.648,-0.456 1.632,-0.456 0.696,0 1.56,0.24 l -0.408,1.848 z"
         style=""
         id="path3410" />
      <path
         d="m 215.06417,693.19073 q 0,-3.048 1.344,-4.656 1.368,-1.632 3.912,-1.632 1.344,0 2.328,0.456 1.008,0.432 1.656,1.272 0.648,0.816 0.96,1.992 0.312,1.152 0.312,2.568 0,3.048 -1.368,4.68 -1.344,1.608 -3.888,1.608 -1.344,0 -2.352,-0.432 -0.984,-0.456 -1.632,-1.272 -0.648,-0.84 -0.96,-1.992 -0.312,-1.176 -0.312,-2.592 z m 1.992,0 q 0,0.912 0.168,1.752 0.192,0.84 0.576,1.464 0.384,0.624 1.008,1.008 0.624,0.384 1.512,0.384 3.264,0.024 3.264,-4.608 0,-0.936 -0.192,-1.776 -0.168,-0.84 -0.552,-1.464 -0.384,-0.624 -1.008,-0.984 -0.624,-0.384 -1.512,-0.384 -3.264,-0.024 -3.264,4.608 z"
         style=""
         id="path3412" />
      <path
         d="m 237.79592,695.06273 q 0,1.224 0.024,2.232 0.024,0.984 0.216,1.944 l -1.296,0 -0.48,-1.704 -0.096,0 q -0.48,0.84 -1.392,1.392 -0.912,0.552 -2.136,0.552 -2.4,0 -3.576,-1.512 -1.152,-1.512 -1.152,-4.728 0,-3.072 1.44,-4.656 1.464,-1.608 4.008,-1.608 0.888,0 1.392,0.096 0.528,0.096 1.128,0.312 l 0,-4.992 1.92,0 0,12.672 z m -4.848,2.736 q 1.224,0 1.944,-0.624 0.72,-0.648 0.984,-1.944 l 0,-5.952 q -0.432,-0.336 -0.984,-0.48 -0.552,-0.144 -1.464,-0.144 -1.656,0 -2.592,1.104 -0.936,1.08 -0.936,3.48 0,0.984 0.144,1.824 0.168,0.84 0.528,1.44 0.36,0.6 0.936,0.96 0.6,0.336 1.44,0.336 z"
         style=""
         id="path3414" />
      <path
         d="m 243.19854,687.19073 0,6.84 q 0,0.936 0.096,1.656 0.12,0.696 0.384,1.176 0.264,0.456 0.72,0.696 0.456,0.24 1.152,0.24 0.648,0 1.152,-0.192 0.504,-0.216 0.888,-0.576 0.408,-0.36 0.696,-0.816 0.312,-0.48 0.504,-1.008 l 0,-8.016 1.92,0 0,8.592 q 0,0.864 0.048,1.8 0.072,0.912 0.216,1.608 l -1.32,0 -0.48,-1.896 -0.12,0 q -0.552,0.936 -1.488,1.56 -0.936,0.624 -2.376,0.624 -0.96,0 -1.704,-0.24 -0.72,-0.216 -1.224,-0.792 -0.48,-0.576 -0.744,-1.536 -0.24,-0.984 -0.24,-2.472 l 0,-7.248 1.92,0 z"
         style=""
         id="path3416" />
      <path
         d="m 262.59204,698.39873 q -0.72,0.528 -1.704,0.792 -0.984,0.288 -2.064,0.288 -1.392,0 -2.352,-0.432 -0.96,-0.456 -1.584,-1.272 -0.6,-0.84 -0.888,-1.992 -0.264,-1.176 -0.264,-2.592 0,-3.048 1.344,-4.656 1.344,-1.632 3.864,-1.632 1.152,0 1.944,0.192 0.816,0.168 1.464,0.504 l -0.552,1.656 q -0.552,-0.312 -1.224,-0.48 -0.672,-0.192 -1.44,-0.192 -3.408,0 -3.408,4.608 0,0.912 0.168,1.752 0.192,0.816 0.6,1.464 0.432,0.624 1.104,1.008 0.696,0.384 1.704,0.384 0.864,0 1.536,-0.264 0.696,-0.264 1.128,-0.6 l 0.624,1.464 z"
         style=""
         id="path3418" />
      <path
         d="m 273.43367,698.23073 q -0.72,0.576 -1.824,0.912 -1.08,0.336 -2.304,0.336 -1.368,0 -2.376,-0.432 -1.008,-0.456 -1.656,-1.272 -0.648,-0.84 -0.96,-1.992 -0.312,-1.152 -0.312,-2.592 0,-3.072 1.368,-4.68 1.368,-1.608 3.912,-1.608 0.816,0 1.632,0.192 0.816,0.168 1.464,0.672 0.648,0.504 1.056,1.44 0.408,0.912 0.408,2.424 0,0.792 -0.144,1.752 l -7.704,0 q 0,1.056 0.216,1.872 0.216,0.816 0.672,1.392 0.456,0.552 1.176,0.864 0.744,0.288 1.8,0.288 0.816,0 1.632,-0.288 0.816,-0.288 1.224,-0.672 l 0.72,1.392 z m -4.128,-9.648 q -1.416,0 -2.28,0.744 -0.84,0.744 -1.008,2.544 l 5.952,0 q 0,-1.824 -0.696,-2.544 -0.696,-0.744 -1.968,-0.744 z"
         style=""
         id="path3420" />
      <path
         d="m 286.07717,695.06273 q 0,1.224 0.024,2.232 0.024,0.984 0.216,1.944 l -1.296,0 -0.48,-1.704 -0.096,0 q -0.48,0.84 -1.392,1.392 -0.912,0.552 -2.136,0.552 -2.4,0 -3.576,-1.512 -1.152,-1.512 -1.152,-4.728 0,-3.072 1.44,-4.656 1.464,-1.608 4.008,-1.608 0.888,0 1.392,0.096 0.528,0.096 1.128,0.312 l 0,-4.992 1.92,0 0,12.672 z m -4.848,2.736 q 1.224,0 1.944,-0.624 0.72,-0.648 0.984,-1.944 l 0,-5.952 q -0.432,-0.336 -0.984,-0.48 -0.552,-0.144 -1.464,-0.144 -1.656,0 -2.592,1.104 -0.936,1.08 -0.936,3.48 0,0.984 0.144,1.824 0.168,0.84 0.528,1.44 0.36,0.6 0.936,0.96 0.6,0.336 1.44,0.336 z"
         style=""
         id="path3422" />
      <path
         d="m 296.58167,687.19073 1.92,0 0,12 -1.92,0 0,-12 z m -0.408,-3.648 q 0,-0.552 0.36,-0.936 0.384,-0.408 0.96,-0.408 0.576,0 0.984,0.408 0.408,0.384 0.408,0.936 0,0.552 -0.408,0.912 -0.408,0.36 -0.984,0.36 -0.576,0 -0.96,-0.36 -0.36,-0.36 -0.36,-0.912 z"
         style=""
         id="path3424" />
      <path
         d="m 310.29954,699.19073 0,-6.84 q 0,-1.872 -0.552,-2.808 -0.528,-0.96 -1.968,-0.96 -1.272,0 -2.112,0.696 -0.816,0.672 -1.152,1.704 l 0,8.208 -1.92,0 0,-12 1.344,0 0.36,1.464 0.096,0 q 0.576,-0.768 1.536,-1.248 0.984,-0.504 2.328,-0.504 0.984,0 1.728,0.24 0.744,0.216 1.224,0.792 0.504,0.576 0.744,1.56 0.264,0.96 0.264,2.448 l 0,7.248 -1.92,0 z"
         style=""
         id="path3426" />
      <path
         d="m 314.13654,687.19073 1.872,0 0,-2.376 1.92,-0.552 0,2.928 3.264,0 0,1.68 -3.264,0 0,6.648 q 0,1.248 0.312,1.776 0.312,0.504 1.056,0.504 0.624,0 1.056,-0.12 0.432,-0.144 0.96,-0.36 l 0.432,1.464 q -0.648,0.312 -1.416,0.504 -0.768,0.192 -1.656,0.192 -1.464,0 -2.064,-0.816 -0.6,-0.84 -0.6,-2.784 l 0,-7.008 -1.872,0 0,-1.68 z"
         style=""
         id="path3428" />
      <path
         d="m 322.92354,693.19073 q 0,-3.048 1.344,-4.656 1.368,-1.632 3.912,-1.632 1.344,0 2.328,0.456 1.008,0.432 1.656,1.272 0.648,0.816 0.96,1.992 0.312,1.152 0.312,2.568 0,3.048 -1.368,4.68 -1.344,1.608 -3.888,1.608 -1.344,0 -2.352,-0.432 -0.984,-0.456 -1.632,-1.272 -0.648,-0.84 -0.96,-1.992 -0.312,-1.176 -0.312,-2.592 z m 1.992,0 q 0,0.912 0.168,1.752 0.192,0.84 0.576,1.464 0.384,0.624 1.008,1.008 0.624,0.384 1.512,0.384 3.264,0.024 3.264,-4.608 0,-0.936 -0.192,-1.776 -0.168,-0.84 -0.552,-1.464 -0.384,-0.624 -1.008,-0.984 -0.624,-0.384 -1.512,-0.384 -3.264,-0.024 -3.264,4.608 z"
         style=""
         id="path3430" />
      <path
         d="m 350.63717,694.91873 q 0,-1.008 -0.6,-1.632 -0.6,-0.648 -1.512,-1.128 -0.888,-0.504 -1.944,-0.936 -1.056,-0.432 -1.968,-1.032 -0.888,-0.624 -1.488,-1.512 -0.6,-0.912 -0.6,-2.304 0,-1.968 1.368,-3.12 1.368,-1.152 3.888,-1.152 1.464,0 2.664,0.216 1.2,0.216 1.872,0.552 l -0.6,1.752 q -0.552,-0.264 -1.632,-0.504 -1.056,-0.24 -2.4,-0.24 -1.584,0 -2.376,0.72 -0.792,0.696 -0.792,1.656 0,0.936 0.6,1.56 0.6,0.624 1.488,1.128 0.912,0.48 1.968,0.96 1.056,0.48 1.944,1.128 0.912,0.624 1.512,1.512 0.6,0.888 0.6,2.208 0,1.08 -0.384,1.944 -0.384,0.864 -1.128,1.488 -0.744,0.624 -1.8,0.96 -1.056,0.336 -2.4,0.336 -1.8,0 -2.976,-0.288 -1.176,-0.264 -1.824,-0.6 l 0.672,-1.8 q 0.552,0.312 1.632,0.624 1.08,0.288 2.424,0.288 0.792,0 1.488,-0.144 0.696,-0.168 1.2,-0.504 0.504,-0.36 0.792,-0.888 0.312,-0.528 0.312,-1.248 z"
         style=""
         id="path3432" />
      <path
         d="m 357.33917,687.19073 0,6.84 q 0,0.936 0.096,1.656 0.12,0.696 0.384,1.176 0.264,0.456 0.72,0.696 0.456,0.24 1.152,0.24 0.648,0 1.152,-0.192 0.504,-0.216 0.888,-0.576 0.408,-0.36 0.696,-0.816 0.312,-0.48 0.504,-1.008 l 0,-8.016 1.92,0 0,8.592 q 0,0.864 0.048,1.8 0.072,0.912 0.216,1.608 l -1.32,0 -0.48,-1.896 -0.12,0 q -0.552,0.936 -1.488,1.56 -0.936,0.624 -2.376,0.624 -0.96,0 -1.704,-0.24 -0.72,-0.216 -1.224,-0.792 -0.48,-0.576 -0.744,-1.536 -0.24,-0.984 -0.24,-2.472 l 0,-7.248 1.92,0 z"
         style=""
         id="path3434" />
      <path
         d="m 376.25267,699.19073 0,-6.84 q 0,-1.872 -0.552,-2.808 -0.528,-0.96 -1.968,-0.96 -1.272,0 -2.112,0.696 -0.816,0.672 -1.152,1.704 l 0,8.208 -1.92,0 0,-12 1.344,0 0.36,1.464 0.096,0 q 0.576,-0.768 1.536,-1.248 0.984,-0.504 2.328,-0.504 0.984,0 1.728,0.24 0.744,0.216 1.224,0.792 0.504,0.576 0.744,1.56 0.264,0.96 0.264,2.448 l 0,7.248 -1.92,0 z"
         style=""
         id="path3436" />
      <path
         d="m 381.98567,682.39073 1.872,0 -0.744,4.632 -1.128,0 0,-4.632 z"
         style=""
         id="path3438" />
      <path
         d="m 390.70367,695.92673 q 0,-0.72 -0.432,-1.128 -0.432,-0.408 -1.08,-0.672 -0.624,-0.288 -1.392,-0.528 -0.744,-0.264 -1.392,-0.648 -0.624,-0.408 -1.056,-1.032 -0.432,-0.624 -0.432,-1.68 0,-1.728 0.984,-2.52 0.984,-0.816 2.736,-0.816 1.296,0 2.16,0.24 0.888,0.216 1.536,0.528 l -0.456,1.584 q -0.552,-0.264 -1.344,-0.456 -0.768,-0.216 -1.656,-0.216 -1.056,0 -1.56,0.36 -0.48,0.36 -0.48,1.248 0,0.624 0.432,0.984 0.432,0.336 1.056,0.624 0.648,0.264 1.392,0.528 0.768,0.264 1.392,0.696 0.648,0.432 1.08,1.104 0.432,0.648 0.432,1.728 0,0.768 -0.264,1.44 -0.24,0.672 -0.768,1.152 -0.528,0.48 -1.32,0.744 -0.768,0.288 -1.824,0.288 -1.368,0 -2.328,-0.264 -0.96,-0.264 -1.608,-0.624 l 0.576,-1.632 q 0.552,0.312 1.44,0.576 0.888,0.264 1.8,0.264 1.032,0 1.704,-0.408 0.672,-0.408 0.672,-1.464 z"
         style=""
         id="path3440" />
      <path
         d="m 409.74654,694.91873 q 0,-1.008 -0.6,-1.632 -0.6,-0.648 -1.512,-1.128 -0.888,-0.504 -1.944,-0.936 -1.056,-0.432 -1.968,-1.032 -0.888,-0.624 -1.488,-1.512 -0.6,-0.912 -0.6,-2.304 0,-1.968 1.368,-3.12 1.368,-1.152 3.888,-1.152 1.464,0 2.664,0.216 1.2,0.216 1.872,0.552 l -0.6,1.752 q -0.552,-0.264 -1.632,-0.504 -1.056,-0.24 -2.4,-0.24 -1.584,0 -2.376,0.72 -0.792,0.696 -0.792,1.656 0,0.936 0.6,1.56 0.6,0.624 1.488,1.128 0.912,0.48 1.968,0.96 1.056,0.48 1.944,1.128 0.912,0.624 1.512,1.512 0.6,0.888 0.6,2.208 0,1.08 -0.384,1.944 -0.384,0.864 -1.128,1.488 -0.744,0.624 -1.8,0.96 -1.056,0.336 -2.4,0.336 -1.8,0 -2.976,-0.288 -1.176,-0.264 -1.824,-0.6 l 0.672,-1.8 q 0.552,0.312 1.632,0.624 1.08,0.288 2.424,0.288 0.792,0 1.488,-0.144 0.696,-0.168 1.2,-0.504 0.504,-0.36 0.792,-0.888 0.312,-0.528 0.312,-1.248 z"
         style=""
         id="path3442" />
      <path
         d="m 414.04854,693.19073 q 0,-3.048 1.344,-4.656 1.368,-1.632 3.912,-1.632 1.344,0 2.328,0.456 1.008,0.432 1.656,1.272 0.648,0.816 0.96,1.992 0.312,1.152 0.312,2.568 0,3.048 -1.368,4.68 -1.344,1.608 -3.888,1.608 -1.344,0 -2.352,-0.432 -0.984,-0.456 -1.632,-1.272 -0.648,-0.84 -0.96,-1.992 -0.312,-1.176 -0.312,-2.592 z m 1.992,0 q 0,0.912 0.168,1.752 0.192,0.84 0.576,1.464 0.384,0.624 1.008,1.008 0.624,0.384 1.512,0.384 3.264,0.024 3.264,-4.608 0,-0.936 -0.192,-1.776 -0.168,-0.84 -0.552,-1.464 -0.384,-0.624 -1.008,-0.984 -0.624,-0.384 -1.512,-0.384 -3.264,-0.024 -3.264,4.608 z"
         style=""
         id="path3444" />
      <path
         d="m 429.70029,696.23873 q 0,0.84 0.288,1.2 0.288,0.36 0.816,0.36 0.312,0 0.672,-0.048 0.36,-0.048 0.816,-0.216 l 0.216,1.512 q -0.384,0.192 -1.08,0.312 -0.672,0.12 -1.176,0.12 -1.08,0 -1.776,-0.6 -0.696,-0.624 -0.696,-2.088 l 0,-14.4 1.92,0 0,13.848 z"
         style=""
         id="path3446" />
      <path
         d="m 434.40354,688.07873 q 0.912,-0.552 2.112,-0.816 1.224,-0.264 2.544,-0.264 1.248,0 1.992,0.336 0.768,0.336 1.152,0.888 0.408,0.528 0.528,1.176 0.144,0.648 0.144,1.296 0,1.44 -0.072,2.808 -0.072,1.368 -0.072,2.592 0,0.888 0.072,1.68 0.072,0.792 0.264,1.464 l -1.416,0 -0.504,-1.68 -0.12,0 q -0.216,0.336 -0.552,0.672 -0.312,0.312 -0.768,0.576 -0.456,0.24 -1.056,0.408 -0.6,0.168 -1.368,0.168 -0.768,0 -1.44,-0.24 -0.648,-0.24 -1.128,-0.672 -0.48,-0.456 -0.768,-1.08 -0.264,-0.624 -0.264,-1.416 0,-1.056 0.432,-1.752 0.432,-0.72 1.2,-1.128 0.792,-0.432 1.872,-0.6 1.104,-0.192 2.424,-0.192 0.336,0 0.648,0 0.336,0 0.672,0.048 0.072,-0.72 0.072,-1.296 0,-1.32 -0.528,-1.848 -0.528,-0.528 -1.92,-0.528 -0.408,0 -0.888,0.072 -0.456,0.048 -0.96,0.168 -0.48,0.096 -0.936,0.264 -0.432,0.144 -0.768,0.336 l -0.6,-1.44 z m 3.408,9.624 q 0.672,0 1.2,-0.168 0.528,-0.192 0.912,-0.456 0.384,-0.288 0.624,-0.624 0.264,-0.336 0.384,-0.648 l 0,-1.992 q -0.336,-0.024 -0.696,-0.024 -0.336,-0.024 -0.672,-0.024 -0.744,0 -1.464,0.096 -0.696,0.072 -1.248,0.312 -0.528,0.216 -0.864,0.624 -0.312,0.384 -0.312,0.984 0,0.84 0.6,1.392 0.6,0.528 1.536,0.528 z"
         style=""
         id="path3448" />
      <path
         d="m 452.16579,689.03873 q -0.72,-0.24 -1.368,-0.24 -1.032,0 -1.632,0.576 -0.6,0.552 -0.744,1.416 l 0,8.4 -1.92,0 0,-12 1.344,0 0.36,1.464 0.096,0 q 0.456,-0.816 1.08,-1.248 0.648,-0.456 1.632,-0.456 0.696,0 1.56,0.24 l -0.408,1.848 z"
         style=""
         id="path3450" />
      <path
         d="m 455.06604,687.19073 1.92,0 0,12 -1.92,0 0,-12 z m -0.408,-3.648 q 0,-0.552 0.36,-0.936 0.384,-0.408 0.96,-0.408 0.576,0 0.984,0.408 0.408,0.384 0.408,0.936 0,0.552 -0.408,0.912 -0.408,0.36 -0.984,0.36 -0.576,0 -0.96,-0.36 -0.36,-0.36 -0.36,-0.912 z"
         style=""
         id="path3452" />
      <path
         d="m 466.35992,695.92673 q 0,-0.72 -0.432,-1.128 -0.432,-0.408 -1.08,-0.672 -0.624,-0.288 -1.392,-0.528 -0.744,-0.264 -1.392,-0.648 -0.624,-0.408 -1.056,-1.032 -0.432,-0.624 -0.432,-1.68 0,-1.728 0.984,-2.52 0.984,-0.816 2.736,-0.816 1.296,0 2.16,0.24 0.888,0.216 1.536,0.528 l -0.456,1.584 q -0.552,-0.264 -1.344,-0.456 -0.768,-0.216 -1.656,-0.216 -1.056,0 -1.56,0.36 -0.48,0.36 -0.48,1.248 0,0.624 0.432,0.984 0.432,0.336 1.056,0.624 0.648,0.264 1.392,0.528 0.768,0.264 1.392,0.696 0.648,0.432 1.08,1.104 0.432,0.648 0.432,1.728 0,0.768 -0.264,1.44 -0.24,0.672 -0.768,1.152 -0.528,0.48 -1.32,0.744 -0.768,0.288 -1.824,0.288 -1.368,0 -2.328,-0.264 -0.96,-0.264 -1.608,-0.624 l 0.576,-1.632 q 0.552,0.312 1.44,0.576 0.888,0.264 1.8,0.264 1.032,0 1.704,-0.408 0.672,-0.408 0.672,-1.464 z"
         style=""
         id="path3454" />
      <path
         d="m 478.37079,697.41473 3.36,0 0,-11.616 0.24,-1.416 -0.96,1.128 -2.64,1.896 -0.912,-1.224 5.28,-4.08 0.864,0 0,15.312 3.288,0 0,1.776 -8.52,0 0,-1.776 z"
         style=""
         id="path3456" />
      <path
         d="m 489.88892,690.79073 q 0,-4.32 1.392,-6.504 1.416,-2.184 4.104,-2.184 2.904,0 4.2,2.16 1.32,2.136 1.32,6.528 0,4.32 -1.416,6.504 -1.392,2.184 -4.104,2.184 -2.856,0 -4.176,-2.28 -1.32,-2.28 -1.32,-6.408 z m 1.992,0 q 0,1.56 0.192,2.856 0.216,1.272 0.648,2.208 0.432,0.912 1.08,1.44 0.672,0.504 1.584,0.504 1.824,0 2.664,-1.68 0.864,-1.704 0.864,-5.328 0,-1.536 -0.192,-2.832 -0.168,-1.296 -0.6,-2.232 -0.408,-0.936 -1.08,-1.44 -0.672,-0.504 -1.656,-0.504 -1.8,0 -2.664,1.704 -0.84,1.704 -0.84,5.304 z"
         style=""
         id="path3458" />
    </g>
    <g
       style="font-style:normal;font-variant:normal;font-weight:normal;font-stretch:normal;font-size:24px;line-height:125%;font-family:'PT Sans';-inkscape-font-specification:'PT Sans';text-align:start;letter-spacing:0px;word-spacing:0px;text-anchor:start;fill:#000000;fill-opacity:1;stroke:none"
       id="text5374">
      <path
         d="m 0.91200017,977.55762 3.36000003,0 0,-11.616 0.24,-1.416 -0.96,1.128 -2.64000003,1.896 L 1.7166138e-7,966.32562 5.2800002,962.24562 l 0.864,0 0,15.312 3.288,0 0,1.776 -8.52000003,0 0,-1.776 z"
         style=""
         id="path3642" />
      <path
         d="m 12.646125,967.62162 q 0,-1.152 0.336,-2.136 0.336,-0.984 0.984,-1.704 0.648,-0.72 1.608,-1.128 0.984,-0.408 2.28,-0.408 2.448,0 3.816,1.584 1.368,1.584 1.368,4.464 0,2.712 -0.624,4.752 -0.6,2.016 -1.68,3.408 -1.08,1.392 -2.568,2.184 -1.464,0.768 -3.192,0.984 l -0.432,-1.536 q 1.392,-0.216 2.496,-0.816 1.128,-0.6 1.92,-1.512 0.816,-0.912 1.32,-2.064 0.504,-1.176 0.696,-2.544 -0.648,0.768 -1.44,1.08 -0.768,0.288 -2.04,0.288 -0.984,0 -1.872,-0.312 -0.864,-0.336 -1.536,-0.96 -0.672,-0.624 -1.056,-1.536 -0.384,-0.912 -0.384,-2.088 z m 1.992,-0.192 q 0,1.704 0.888,2.568 0.912,0.84 2.376,0.84 1.176,0 2.016,-0.384 0.84,-0.384 1.2,-1.008 0.048,-0.312 0.048,-0.552 0,-0.24 0,-0.504 0,-0.864 -0.216,-1.656 -0.192,-0.816 -0.6,-1.44 -0.408,-0.648 -1.08,-1.008 -0.648,-0.36 -1.536,-0.36 -1.464,0 -2.28,0.936 -0.816,0.912 -0.816,2.568 z"
         style=""
         id="path3644" />
      <path
         d="m 27.11625,979.33362 6.024,-14.064 1.056,-1.176 -1.416,0.216 -6.84,0 0,-1.776 10.032,0 0,0.648 -6.912,16.152 -1.944,0 z"
         style=""
         id="path3646" />
      <path
         d="m 38.802375,967.62162 q 0,-1.152 0.336,-2.136 0.336,-0.984 0.984,-1.704 0.648,-0.72 1.608,-1.128 0.984,-0.408 2.28,-0.408 2.448,0 3.816,1.584 1.368,1.584 1.368,4.464 0,2.712 -0.624,4.752 -0.6,2.016 -1.68,3.408 -1.08,1.392 -2.568,2.184 -1.464,0.768 -3.192,0.984 l -0.432,-1.536 q 1.392,-0.216 2.496,-0.816 1.128,-0.6 1.92,-1.512 0.816,-0.912 1.32,-2.064 0.504,-1.176 0.696,-2.544 -0.648,0.768 -1.44,1.08 -0.768,0.288 -2.04,0.288 -0.984,0 -1.872,-0.312 -0.864,-0.336 -1.536,-0.96 -0.672,-0.624 -1.056,-1.536 -0.384,-0.912 -0.384,-2.088 z m 1.992,-0.192 q 0,1.704 0.888,2.568 0.912,0.84 2.376,0.84 1.176,0 2.016,-0.384 0.84,-0.384 1.2,-1.008 0.048,-0.312 0.048,-0.552 0,-0.24 0,-0.504 0,-0.864 -0.216,-1.656 -0.192,-0.816 -0.6,-1.44 -0.408,-0.648 -1.08,-1.008 -0.648,-0.36 -1.536,-0.36 -1.464,0 -2.28,0.936 -0.816,0.912 -0.816,2.568 z"
         style=""
         id="path3648" />
    </g>
    <g
       style="font-style:normal;font-variant:normal;font-weight:normal;font-stretch:normal;font-size:24px;line-height:125%;font-family:'PT Sans';-inkscape-font-specification:'PT Sans';text-align:start;letter-spacing:0px;word-spacing:0px;text-anchor:start;fill:#000000;fill-opacity:1;stroke:none"
       id="text5378">
      <path
         d="m 0.91200017,939.55762 3.36000003,0 0,-11.616 0.24,-1.416 -0.96,1.128 -2.64000003,1.896 L 1.7166138e-7,928.32562 5.2800002,924.24562 l 0.864,0 0,15.312 3.288,0 0,1.776 -8.52000003,0 0,-1.776 z"
         style=""
         id="path3651" />
      <path
         d="m 12.646125,929.62162 q 0,-1.152 0.336,-2.136 0.336,-0.984 0.984,-1.704 0.648,-0.72 1.608,-1.128 0.984,-0.408 2.28,-0.408 2.448,0 3.816,1.584 1.368,1.584 1.368,4.464 0,2.712 -0.624,4.752 -0.6,2.016 -1.68,3.408 -1.08,1.392 -2.568,2.184 -1.464,0.768 -3.192,0.984 l -0.432,-1.536 q 1.392,-0.216 2.496,-0.816 1.128,-0.6 1.92,-1.512 0.816,-0.912 1.32,-2.064 0.504,-1.176 0.696,-2.544 -0.648,0.768 -1.44,1.08 -0.768,0.288 -2.04,0.288 -0.984,0 -1.872,-0.312 -0.864,-0.336 -1.536,-0.96 -0.672,-0.624 -1.056,-1.536 -0.384,-0.912 -0.384,-2.088 z m 1.992,-0.192 q 0,1.704 0.888,2.568 0.912,0.84 2.376,0.84 1.176,0 2.016,-0.384 0.84,-0.384 1.2,-1.008 0.048,-0.312 0.048,-0.552 0,-0.24 0,-0.504 0,-0.864 -0.216,-1.656 -0.192,-0.816 -0.6,-1.44 -0.408,-0.648 -1.08,-1.008 -0.648,-0.36 -1.536,-0.36 -1.464,0 -2.28,0.936 -0.816,0.912 -0.816,2.568 z"
         style=""
         id="path3653" />
      <path
         d="m 26.10825,937.32562 q 0,-1.512 0.792,-2.616 0.792,-1.128 2.472,-2.04 -0.6,-0.36 -1.128,-0.744 -0.504,-0.408 -0.912,-0.912 -0.384,-0.504 -0.624,-1.128 -0.216,-0.624 -0.216,-1.44 0,-0.936 0.312,-1.704 0.336,-0.768 0.936,-1.32 0.624,-0.552 1.464,-0.864 0.864,-0.312 1.944,-0.312 1.008,0 1.824,0.288 0.816,0.288 1.368,0.792 0.576,0.504 0.888,1.2 0.312,0.696 0.312,1.536 0,1.368 -0.624,2.424 -0.624,1.032 -2.064,2.04 0.624,0.36 1.176,0.792 0.576,0.432 0.984,0.96 0.432,0.528 0.672,1.2 0.24,0.648 0.24,1.488 0,1.032 -0.336,1.896 -0.336,0.84 -0.984,1.464 -0.648,0.6 -1.584,0.96 -0.936,0.336 -2.136,0.336 -1.152,0 -2.04,-0.336 -0.888,-0.336 -1.512,-0.912 -0.6,-0.576 -0.912,-1.344 -0.312,-0.792 -0.312,-1.704 z m 7.944,-0.24 q 0,-0.72 -0.288,-1.248 -0.288,-0.552 -0.768,-0.984 -0.456,-0.456 -1.056,-0.816 -0.6,-0.36 -1.248,-0.696 -1.464,0.816 -2.088,1.824 -0.624,1.008 -0.624,1.92 0,0.576 0.192,1.104 0.192,0.528 0.576,0.912 0.384,0.384 0.936,0.624 0.576,0.216 1.32,0.216 0.6,0 1.152,-0.168 0.552,-0.192 0.96,-0.528 0.432,-0.36 0.672,-0.888 0.264,-0.552 0.264,-1.272 z m -5.688,-8.688 q 0,0.672 0.264,1.2 0.264,0.504 0.696,0.912 0.456,0.408 1.032,0.768 0.576,0.336 1.2,0.648 1.08,-0.84 1.584,-1.656 0.528,-0.816 0.528,-1.8 0,-1.224 -0.768,-1.872 -0.744,-0.672 -1.8,-0.672 -0.648,0 -1.152,0.216 -0.504,0.216 -0.864,0.552 -0.36,0.336 -0.552,0.792 -0.168,0.432 -0.168,0.912 z"
         style=""
         id="path3655" />
      <path
         d="m 48.258375,928.34962 q 0,1.272 -0.48,2.616 -0.456,1.32 -1.224,2.664 -0.744,1.344 -1.68,2.64 -0.936,1.272 -1.872,2.424 l -1.176,1.032 0,0.096 1.536,-0.264 5.232,0 0,1.776 -9.552,0 0,-0.696 q 0.528,-0.552 1.272,-1.368 0.744,-0.816 1.536,-1.8 0.816,-1.008 1.584,-2.112 0.792,-1.128 1.416,-2.28 0.648,-1.152 1.032,-2.28 0.384,-1.128 0.384,-2.136 0,-1.176 -0.672,-1.944 -0.672,-0.792 -2.04,-0.792 -0.912,0 -1.776,0.384 -0.864,0.36 -1.488,0.84 l -0.792,-1.368 q 0.84,-0.72 1.992,-1.128 1.152,-0.408 2.472,-0.408 1.032,0 1.824,0.312 0.792,0.288 1.344,0.84 0.552,0.552 0.84,1.32 0.288,0.744 0.288,1.632 z"
         style=""
         id="path3657" />
    </g>
    <g
       style="font-style:normal;font-variant:normal;font-weight:normal;font-stretch:normal;font-size:24px;line-height:125%;font-family:'PT Sans';-inkscape-font-specification:'PT Sans';text-align:start;letter-spacing:0px;word-spacing:0px;text-anchor:start;fill:#000000;fill-opacity:1;stroke:none"
       id="text5382">
      <path
         d="m 9.2160001,748.34962 q 0,1.272 -0.48,2.616 -0.456,1.32 -1.224,2.664 -0.744,1.344 -1.68,2.64 -0.936,1.272 -1.872,2.424 l -1.176,1.032 0,0.096 1.536,-0.264 5.232,0 0,1.776 -9.552000016076661,0 0,-0.696 Q 0.52800008,760.08562 1.2720001,759.26962 q 0.744,-0.816 1.536,-1.8 0.816,-1.008 1.584,-2.112 0.792,-1.128 1.416,-2.28 0.648,-1.152 1.032,-2.28 0.384,-1.128 0.384,-2.136 0,-1.176 -0.672,-1.944 -0.672,-0.792 -2.04,-0.792 -0.912,0 -1.776,0.384 -0.864,0.36 -1.488,0.84 l -0.79200002,-1.368 q 0.84000002,-0.72 1.99200002,-1.128 1.152,-0.408 2.472,-0.408 1.032,0 1.824,0.312 0.792,0.288 1.344,0.84 0.552,0.552 0.84,1.32 0.288,0.744 0.288,1.632 z"
         style=""
         id="path3660" />
      <path
         d="m 12.622125,752.93362 q 0,-4.32 1.392,-6.504 1.416,-2.184 4.104,-2.184 2.904,0 4.2,2.16 1.32,2.136 1.32,6.528 0,4.32 -1.416,6.504 -1.392,2.184 -4.104,2.184 -2.856,0 -4.176,-2.28 -1.32,-2.28 -1.32,-6.408 z m 1.992,0 q 0,1.56 0.192,2.856 0.216,1.272 0.648,2.208 0.432,0.912 1.08,1.44 0.672,0.504 1.584,0.504 1.824,0 2.664,-1.68 0.864,-1.704 0.864,-5.328 0,-1.536 -0.192,-2.832 -0.168,-1.296 -0.6,-2.232 -0.408,-0.936 -1.08,-1.44 -0.672,-0.504 -1.656,-0.504 -1.8,0 -2.664,1.704 -0.84,1.704 -0.84,5.304 z"
         style=""
         id="path3662" />
      <path
         d="m 25.70025,752.93362 q 0,-4.32 1.392,-6.504 1.416,-2.184 4.104,-2.184 2.904,0 4.2,2.16 1.32,2.136 1.32,6.528 0,4.32 -1.416,6.504 -1.392,2.184 -4.104,2.184 -2.856,0 -4.176,-2.28 -1.32,-2.28 -1.32,-6.408 z m 1.992,0 q 0,1.56 0.192,2.856 0.216,1.272 0.648,2.208 0.432,0.912 1.08,1.44 0.672,0.504 1.584,0.504 1.824,0 2.664,-1.68 0.864,-1.704 0.864,-5.328 0,-1.536 -0.192,-2.832 -0.168,-1.296 -0.6,-2.232 -0.408,-0.936 -1.08,-1.44 -0.672,-0.504 -1.656,-0.504 -1.8,0 -2.664,1.704 -0.84,1.704 -0.84,5.304 z"
         style=""
         id="path3664" />
      <path
         d="m 38.778375,752.93362 q 0,-4.32 1.392,-6.504 1.416,-2.184 4.104,-2.184 2.904,0 4.2,2.16 1.32,2.136 1.32,6.528 0,4.32 -1.416,6.504 -1.392,2.184 -4.104,2.184 -2.856,0 -4.176,-2.28 -1.32,-2.28 -1.32,-6.408 z m 1.992,0 q 0,1.56 0.192,2.856 0.216,1.272 0.648,2.208 0.432,0.912 1.08,1.44 0.672,0.504 1.584,0.504 1.824,0 2.664,-1.68 0.864,-1.704 0.864,-5.328 0,-1.536 -0.192,-2.832 -0.168,-1.296 -0.6,-2.232 -0.408,-0.936 -1.08,-1.44 -0.672,-0.504 -1.656,-0.504 -1.8,0 -2.664,1.704 -0.84,1.704 -0.84,5.304 z"
         style=""
         id="path3666" />
    </g>
    <g
       style="font-style:normal;font-variant:normal;font-weight:normal;font-stretch:normal;font-size:24px;line-height:125%;font-family:'PT Sans';-inkscape-font-specification:'PT Sans';text-align:start;letter-spacing:0px;word-spacing:0px;text-anchor:start;fill:#000000;fill-opacity:1;stroke:none"
       id="text5386">
      <path
         d="m 9.2160001,686.20673 q 0,1.272 -0.48,2.616 -0.456,1.32 -1.224,2.664 -0.744,1.344 -1.68,2.64 -0.936,1.272 -1.872,2.424 l -1.176,1.032 0,0.096 1.536,-0.264 5.232,0 0,1.776 -9.552000016076661,0 0,-0.696 Q 0.52800008,697.94273 1.2720001,697.12673 q 0.744,-0.816 1.536,-1.8 0.816,-1.008 1.584,-2.112 0.792,-1.128 1.416,-2.28 0.648,-1.152 1.032,-2.28 0.384,-1.128 0.384,-2.136 0,-1.176 -0.672,-1.944 -0.672,-0.792 -2.04,-0.792 -0.912,0 -1.776,0.384 -0.864,0.36 -1.488,0.84 l -0.79200002,-1.368 q 0.84000002,-0.72 1.99200002,-1.128 1.152,-0.408 2.472,-0.408 1.032,0 1.824,0.312 0.792,0.288 1.344,0.84 0.552,0.552 0.84,1.32 0.288,0.744 0.288,1.632 z"
         style=""
         id="path3669" />
      <path
         d="m 12.622125,690.79073 q 0,-4.32 1.392,-6.504 1.416,-2.184 4.104,-2.184 2.904,0 4.2,2.16 1.32,2.136 1.32,6.528 0,4.32 -1.416,6.504 -1.392,2.184 -4.104,2.184 -2.856,0 -4.176,-2.28 -1.32,-2.28 -1.32,-6.408 z m 1.992,0 q 0,1.56 0.192,2.856 0.216,1.272 0.648,2.208 0.432,0.912 1.08,1.44 0.672,0.504 1.584,0.504 1.824,0 2.664,-1.68 0.864,-1.704 0.864,-5.328 0,-1.536 -0.192,-2.832 -0.168,-1.296 -0.6,-2.232 -0.408,-0.936 -1.08,-1.44 -0.672,-0.504 -1.656,-0.504 -1.8,0 -2.664,1.704 -0.84,1.704 -0.84,5.304 z"
         style=""
         id="path3671" />
      <path
         d="m 25.70025,690.79073 q 0,-4.32 1.392,-6.504 1.416,-2.184 4.104,-2.184 2.904,0 4.2,2.16 1.32,2.136 1.32,6.528 0,4.32 -1.416,6.504 -1.392,2.184 -4.104,2.184 -2.856,0 -4.176,-2.28 -1.32,-2.28 -1.32,-6.408 z m 1.992,0 q 0,1.56 0.192,2.856 0.216,1.272 0.648,2.208 0.432,0.912 1.08,1.44 0.672,0.504 1.584,0.504 1.824,0 2.664,-1.68 0.864,-1.704 0.864,-5.328 0,-1.536 -0.192,-2.832 -0.168,-1.296 -0.6,-2.232 -0.408,-0.936 -1.08,-1.44 -0.672,-0.504 -1.656,-0.504 -1.8,0 -2.664,1.704 -0.84,1.704 -0.84,5.304 z"
         style=""
         id="path3673" />
      <path
         d="m 42.858375,697.79873 q 1.656,0 2.736,-0.96 1.08,-0.96 1.08,-2.784 0,-1.752 -1.08,-2.616 -1.056,-0.864 -2.928,-0.864 l -2.016,0.12 0,-8.304 7.488,0 0,1.776 -5.688,0 0,4.776 1.032,-0.048 q 2.376,0.024 3.744,1.32 1.368,1.296 1.368,3.72 0,1.344 -0.456,2.4 -0.456,1.032 -1.248,1.728 -0.768,0.696 -1.824,1.056 -1.056,0.36 -2.256,0.36 -1.08,0 -1.824,-0.12 -0.744,-0.12 -1.392,-0.36 l 0.504,-1.632 q 0.552,0.216 1.176,0.336 0.648,0.096 1.584,0.096 z"
         style=""
         id="path3675" />
    </g>
  </g>
</svg>
