<?xml version="1.0" encoding="UTF-8" standalone="no"?>
<!-- Created with Inkscape (http://www.inkscape.org/) -->

<svg
   xmlns:dc="http://purl.org/dc/elements/1.1/"
   xmlns:cc="http://creativecommons.org/ns#"
   xmlns:rdf="http://www.w3.org/1999/02/22-rdf-syntax-ns#"
   xmlns:svg="http://www.w3.org/2000/svg"
   xmlns="http://www.w3.org/2000/svg"
   xmlns:sodipodi="http://sodipodi.sourceforge.net/DTD/sodipodi-0.dtd"
   xmlns:inkscape="http://www.inkscape.org/namespaces/inkscape"
   id="svg2"
   version="1.1"
   inkscape:version="0.91 r"
   xml:space="preserve"
   width="600"
   height="206.25"
   viewBox="0 0 600 206.25"
   sodipodi:docname="Docker_Logo.svg"><metadata
     id="metadata8"><rdf:RDF><cc:Work
         rdf:about=""><dc:format>image/svg+xml</dc:format><dc:type
           rdf:resource="http://purl.org/dc/dcmitype/StillImage" /><dc:title></dc:title></cc:Work></rdf:RDF></metadata><defs
     id="defs6" /><sodipodi:namedview
     pagecolor="#ffffff"
     bordercolor="#666666"
     borderopacity="1"
     objecttolerance="10"
     gridtolerance="10"
     guidetolerance="10"
     inkscape:pageopacity="0"
     inkscape:pageshadow="2"
     inkscape:window-width="1672"
     inkscape:window-height="990"
     id="namedview4"
     showgrid="false"
     inkscape:zoom="0.361"
     inkscape:cx="505.54017"
     inkscape:cy="171.875"
     inkscape:window-x="0"
     inkscape:window-y="0"
     inkscape:window-maximized="1"
     inkscape:current-layer="g10" /><g
     id="g10"
     inkscape:groupmode="layer"
     inkscape:label="ink_ext_XXXXXX"
     transform="matrix(1.25,0,0,-1.25,0,206.25)"><g
       id="g12"
       transform="scale(0.06,0.06)"><path
         d="m 0,0 8000,0 0,2750 L 0,2750 0,0 Z"
         style="fill:#242d32;fill-opacity:1;fill-rule:evenodd;stroke:none"
         id="path14"
         inkscape:connector-curvature="0" /><path
         d="m 2174.88,1670.38 254.79,0 0,-260.5 128.88,0 c 59.5,0 120.67,10.61 177.04,29.71 27.69,9.37 58.73,22.43 86.07,38.85 -35.98,46.98 -54.34,106.29 -59.75,164.72 -7.32,79.51 8.68,183.01 62.5,245.23 l 26.78,30.99 31.92,-25.67 c 80.39,-64.59 147.94,-154.77 159.86,-257.62 96.78,28.45 210.35,21.72 295.68,-27.5 l 34.96,-20.17 -18.41,-35.96 C 3283.07,1411.7 3132.29,1368.06 2984.84,1375.8 2764.22,826.309 2283.93,566.16 1701.56,566.16 c -300.89,0 -576.92,112.481 -734.087,379.371 l -2.602,4.399 -22.867,46.57 c -53.125,117.52 -70.805,246.26 -58.813,374.87 l 3.579,38.51 217.91,0 0,260.5 254.8,0 0,254.78 509.6,0 0,254.84 305.8,0 0,-509.62"
         style="fill:#354750;fill-opacity:1;fill-rule:evenodd;stroke:none"
         id="path16"
         inkscape:connector-curvature="0" /><path
         d="m 3000.45,1573.98 c 17.09,132.82 -82.29,237.11 -143.93,286.62 -71.03,-82.09 -82.07,-297.27 29.34,-387.88 -62.17,-55.22 -193.16,-105.3 -327.31,-105.3 l -1633.089,0 C 912.434,1227.4 937.02,1098.45 993.176,988.031 l 18.574,-33.972 c 11.76,-19.989 24.61,-39.258 38.51,-57.77 l 0,0 c 67.13,-4.32 129.03,-5.789 185.65,-4.578 0.02,0 0.02,0 0.02,0 111.29,2.488 202.11,15.598 270.95,39.488 10.25,3.563 21.38,-1.91 24.94,-12.14 3.55,-10.207 -1.88,-21.411 -12.09,-24.938 -9.14,-3.18 -18.71,-6.109 -28.56,-8.98 0,0 -0.04,0 -0.06,0 -54.17,-15.469 -112.29,-25.891 -187.25,-30.481 4.41,-0.09 -4.61,-0.699 -4.67,-0.699 -2.54,-0.16 -5.74,-0.5 -8.32,-0.641 -29.51,-1.691 -61.35,-2.039 -93.91,-2.039 -35.62,0 -70.7,0.688 -109.9,2.68 l -1.02,-0.641 c 136.1,-152.961 348.83,-244.66 615.52,-244.66 564.4,0 1043.15,250.168 1255.12,811.91 150.41,-15.44 294.98,22.89 360.74,151.26 -104.74,60.42 -239.43,41.15 -316.97,2.15"
         style="fill:#48addf;fill-opacity:1;fill-rule:nonzero;stroke:none"
         id="path18"
         inkscape:connector-curvature="0" /><path
         d="m 3000.45,1573.98 c 17.09,132.82 -82.29,237.11 -143.93,286.62 -71.03,-82.09 -82.07,-297.27 29.34,-387.88 -62.17,-55.22 -193.16,-105.3 -327.31,-105.3 l -1536.37,0 c -6.68,-214.43 72.91,-377.24 213.73,-475.709 0.02,0 0.02,0 0.02,0 111.29,2.488 202.11,15.598 270.95,39.488 10.25,3.563 21.38,-1.91 24.94,-12.14 3.55,-10.207 -1.88,-21.411 -12.09,-24.938 -9.14,-3.18 -18.71,-6.109 -28.56,-8.98 0,0 -0.04,0 -0.06,0 -54.17,-15.469 -117.27,-27.2 -192.23,-31.821 -0.06,0 -1.84,1.731 -1.84,1.731 192.06,-98.52 470.58,-98.18 789.93,24.461 358.05,137.548 691.21,399.628 923.67,699.368 -3.47,-1.62 -6.91,-3.21 -10.19,-4.9"
         style="fill:#56beee;fill-opacity:1;fill-rule:nonzero;stroke:none"
         id="path20"
         inkscape:connector-curvature="0" /><path
         d="m 928.547,1197.29 c 10.113,-75.04 32.066,-145.28 64.629,-209.259 l 18.574,-33.972 c 11.76,-19.989 24.61,-39.258 38.51,-57.77 67.13,-4.32 129.03,-5.789 185.67,-4.578 111.29,2.488 202.11,15.598 270.95,39.488 10.25,3.563 21.38,-1.91 24.94,-12.14 3.55,-10.207 -1.88,-21.411 -12.09,-24.938 -9.14,-3.18 -18.71,-6.109 -28.56,-8.98 0,0 -0.04,0 -0.06,0 -54.17,-15.469 -116.96,-26.551 -191.92,-31.18 -2.54,-0.16 -7.03,-0.191 -9.65,-0.32 -29.47,-1.672 -61.01,-2.68 -93.55,-2.68 -35.63,0 -72.05,0.668 -111.27,2.68 136.09,-152.961 350.15,-244.981 616.84,-244.981 483.21,0 903.56,183.391 1147.56,588.63 l -1920.573,0"
         style="fill:#388bbd;fill-opacity:1;fill-rule:nonzero;stroke:none"
         id="path22"
         inkscape:connector-curvature="0" /><path
         d="m 1036.88,1197.29 c 28.87,-131.74 98.31,-235.11 199.05,-305.579 111.29,2.488 202.11,15.598 270.95,39.488 10.25,3.563 21.38,-1.91 24.94,-12.14 3.55,-10.207 -1.88,-21.411 -12.09,-24.938 -9.14,-3.18 -18.71,-6.109 -28.56,-8.98 0,0 -0.04,0 -0.06,0 -54.17,-15.469 -118.27,-26.551 -193.25,-31.18 192.06,-98.52 469.8,-97.09 789.11,25.551 193.15,74.25 379.05,184.698 545.86,317.778 l -1595.95,0"
         style="fill:#409ccb;fill-opacity:1;fill-rule:nonzero;stroke:none"
         id="path24"
         inkscape:connector-curvature="0" /><path
         d="m 1147.14,1627.91 220.82,0 0,-220.85 -220.82,0 0,220.85 z m 18.38,-18.42 17.44,0 0,-184.05 -17.44,0 0,184.05 z m 32.75,0 18.15,0 0,-184.05 -18.15,0 0,184.05 z m 33.48,0 18.12,0 0,-184.05 -18.12,0 0,184.05 z m 33.46,0 18.14,0 0,-184.05 -18.14,0 0,184.05 z m 33.45,0 18.13,0 0,-184.05 -18.13,0 0,184.05 z m 33.46,0 17.46,0 0,-184.05 -17.46,0 0,184.05"
         style="fill:#46b0d7;fill-opacity:1;fill-rule:evenodd;stroke:none"
         id="path26"
         inkscape:connector-curvature="0" /><path
         d="m 1401.92,1882.71 220.85,0 0,-220.84 -220.85,0 0,220.84 z m 18.42,-18.39 17.42,0 0,-184.04 -17.42,0 0,184.04 z m 32.79,0 18.11,0 0,-184.04 -18.11,0 0,184.04 z m 33.39,0 18.15,0 0,-184.04 -18.15,0 0,184.04 z m 33.5,0 18.11,0 0,-184.04 -18.11,0 0,184.04 z m 33.48,0 18.12,0 0,-184.04 -18.12,0 0,184.04 z m 33.43,0 17.46,0 0,-184.04 -17.46,0 0,184.04"
         style="fill:#46b0d7;fill-opacity:1;fill-rule:evenodd;stroke:none"
         id="path28"
         inkscape:connector-curvature="0" /><path
         d="m 1401.92,1627.91 220.85,0 0,-220.85 -220.85,0 0,220.85 z m 18.42,-18.42 17.42,0 0,-184.05 -17.42,0 0,184.05 z m 32.79,0 18.11,0 0,-184.05 -18.11,0 0,184.05 z m 33.39,0 18.15,0 0,-184.05 -18.15,0 0,184.05 z m 33.5,0 18.11,0 0,-184.05 -18.11,0 0,184.05 z m 33.48,0 18.12,0 0,-184.05 -18.12,0 0,184.05 z m 33.43,0 17.46,0 0,-184.05 -17.46,0 0,184.05"
         style="fill:#58c8f1;fill-opacity:1;fill-rule:evenodd;stroke:none"
         id="path30"
         inkscape:connector-curvature="0" /><path
         d="m 1656.76,1627.91 220.86,0 0,-220.85 -220.86,0 0,220.85 z m 18.38,-18.42 17.44,0 0,-184.05 -17.44,0 0,184.05 z m 32.77,0 18.13,0 0,-184.05 -18.13,0 0,184.05 z m 33.5,0 18.1,0 0,-184.05 -18.1,0 0,184.05 z m 33.45,0 18.11,0 0,-184.05 -18.11,0 0,184.05 z m 33.42,0 18.15,0 0,-184.05 -18.15,0 0,184.05 z m 33.5,0 17.42,0 0,-184.05 -17.42,0 0,184.05"
         style="fill:#46b0d7;fill-opacity:1;fill-rule:evenodd;stroke:none"
         id="path32"
         inkscape:connector-curvature="0" /><path
         d="m 1656.76,1882.71 220.86,0 0,-220.84 -220.86,0 0,220.84 z m 18.38,-18.39 17.44,0 0,-184.04 -17.44,0 0,184.04 z m 32.77,0 18.13,0 0,-184.04 -18.13,0 0,184.04 z m 33.5,0 18.1,0 0,-184.04 -18.1,0 0,184.04 z m 33.45,0 18.11,0 0,-184.04 -18.11,0 0,184.04 z m 33.42,0 18.15,0 0,-184.04 -18.15,0 0,184.04 z m 33.5,0 17.42,0 0,-184.04 -17.42,0 0,184.04"
         style="fill:#58c8f1;fill-opacity:1;fill-rule:evenodd;stroke:none"
         id="path34"
         inkscape:connector-curvature="0" /><path
         d="m 1911.58,1627.91 220.84,0 0,-220.85 -220.84,0 0,220.85 z m 18.38,-18.42 17.46,0 0,-184.05 -17.46,0 0,184.05 z m 32.79,0 18.13,0 0,-184.05 -18.13,0 0,184.05 z m 33.46,0 18.13,0 0,-184.05 -18.13,0 0,184.05 z m 33.46,0 18.12,0 0,-184.05 -18.12,0 0,184.05 z m 33.46,0 18.14,0 0,-184.05 -18.14,0 0,184.05 z m 33.45,0 17.46,0 0,-184.05 -17.46,0 0,184.05"
         style="fill:#58c8f1;fill-opacity:1;fill-rule:evenodd;stroke:none"
         id="path36"
         inkscape:connector-curvature="0" /><path
         d="m 1911.58,1882.71 220.84,0 0,-220.84 -220.84,0 0,220.84 z m 18.38,-18.39 17.46,0 0,-184.04 -17.46,0 0,184.04 z m 32.79,0 18.13,0 0,-184.04 -18.13,0 0,184.04 z m 33.46,0 18.13,0 0,-184.04 -18.13,0 0,184.04 z m 33.46,0 18.12,0 0,-184.04 -18.12,0 0,184.04 z m 33.46,0 18.14,0 0,-184.04 -18.14,0 0,184.04 z m 33.45,0 17.46,0 0,-184.04 -17.46,0 0,184.04"
         style="fill:#46b0d7;fill-opacity:1;fill-rule:evenodd;stroke:none"
         id="path38"
         inkscape:connector-curvature="0" /><path
         d="m 1911.58,2137.54 220.84,0 0,-220.85 -220.84,0 0,220.85 z m 18.38,-18.38 17.46,0 0,-184.06 -17.46,0 0,184.06 z m 32.79,0 18.13,0 0,-184.06 -18.13,0 0,184.06 z m 33.46,0 18.13,0 0,-184.06 -18.13,0 0,184.06 z m 33.46,0 18.12,0 0,-184.06 -18.12,0 0,184.06 z m 33.46,0 18.14,0 0,-184.06 -18.14,0 0,184.06 z m 33.45,0 17.46,0 0,-184.06 -17.46,0 0,184.06"
         style="fill:#58c8f1;fill-opacity:1;fill-rule:evenodd;stroke:none"
         id="path40"
         inkscape:connector-curvature="0" /><path
         d="m 2166.39,1627.91 220.82,0 0,-220.85 -220.82,0 0,220.85 z m 18.4,-18.42 17.42,0 0,-184.05 -17.42,0 0,184.05 z m 32.77,0 18.1,0 0,-184.05 -18.1,0 0,184.05 z m 33.46,0 18.12,0 0,-184.05 -18.12,0 0,184.05 z m 33.43,0 18.13,0 0,-184.05 -18.13,0 0,184.05 z m 33.5,0 18.1,0 0,-184.05 -18.1,0 0,184.05 z m 33.46,0 17.42,0 0,-184.05 -17.42,0 0,184.05"
         style="fill:#46b0d7;fill-opacity:1;fill-rule:evenodd;stroke:none"
         id="path42"
         inkscape:connector-curvature="0" /><path
         d="m 1608.96,1048.98 c 33.66,0 60.94,-27.27 60.94,-60.89 0,-33.692 -27.28,-60.93 -60.94,-60.93 -33.67,0 -60.91,27.238 -60.91,60.93 0,33.62 27.24,60.89 60.91,60.89"
         style="fill:#d7f2f2;fill-opacity:1;fill-rule:evenodd;stroke:none"
         id="path44"
         inkscape:connector-curvature="0" /><path
         d="m 1608.96,1031.75 c 5.57,0 10.88,-1.1 15.77,-2.98 -5.3,-3.07 -8.87,-8.85 -8.87,-15.42 0,-9.84 7.95,-17.799 17.79,-17.799 6.74,0 12.6,3.711 15.61,9.269 2.15,-5.16 3.32,-10.8 3.32,-16.73 0,-24.11 -19.53,-43.668 -43.62,-43.668 -24.1,0 -43.65,19.558 -43.65,43.668 0,24.07 19.55,43.66 43.65,43.66"
         style="fill:#354750;fill-opacity:1;fill-rule:evenodd;stroke:none"
         id="path46"
         inkscape:connector-curvature="0" /><path
         d="m 531.316,1175.26 2834.174,0 c -61.74,15.67 -195.28,36.79 -173.22,117.67 -112.23,-129.85 -382.86,-91.09 -451.14,-27.07 -76.03,-110.31 -518.79,-68.38 -549.67,17.57 -95.33,-111.91 -390.78,-111.91 -486.15,0 -30.88,-85.95 -473.58,-127.88 -549.64,-17.57 -68.32,-64.02 -338.9,-102.78 -451.107,27.07 22.007,-80.88 -111.528,-102 -173.247,-117.67"
         style="fill:#354750;fill-opacity:1;fill-rule:evenodd;stroke:none"
         id="path48"
         inkscape:connector-curvature="0" /><path
         d="m 1770.94,609.949 c -150.9,71.61 -233.73,168.91 -279.83,275.192 -56.02,-16 -123.39,-26.211 -201.67,-30.621 -29.51,-1.668 -60.5,-2.481 -93.06,-2.481 -37.54,0 -77.07,1.121 -118.56,3.313 138.36,-138.301 308.56,-244.75 623.74,-246.692 23.24,0 46.39,0.422 69.38,1.289"
         style="fill:#c2e1e1;fill-opacity:1;fill-rule:nonzero;stroke:none"
         id="path50"
         inkscape:connector-curvature="0" /><path
         d="m 1547.17,787.102 c -20.88,28.328 -41.12,63.937 -56,98.039 -56.08,-16 -123.45,-26.211 -201.73,-30.621 53.75,-29.188 130.69,-56.211 257.73,-67.418"
         style="fill:#d7f2f2;fill-opacity:1;fill-rule:nonzero;stroke:none"
         id="path52"
         inkscape:connector-curvature="0" /><path
         d="m 4058.93,1467.62 0,248.04 c 0,32.6 20.35,58.82 54.1,58.82 l 9.33,0 c 33.75,0 54.03,-26.22 54.03,-58.82 l 0,-522.22 c 0,-127.34 -62.93,-228.659 -172.54,-293.241 -50.86,-29.867 -107.05,-45.238 -165.98,-45.238 l -23.3,0 c -127.34,0 -228.55,62.969 -293.18,172.539 -30.02,50.86 -45.28,106.96 -45.28,165.94 l 0,23.31 c 0,127.35 62.93,228.62 172.5,293.3 50.88,30.03 106.98,45.28 165.96,45.28 l 23.3,0 c 86.19,0 159.38,-33.41 221.06,-87.71 z M 3593.57,1205.1 c 0,-92.01 44.59,-161.12 125.22,-205.268 32.58,-17.801 67.97,-27.383 105.17,-27.383 90.28,0 157.27,42.581 203.46,119.111 21.47,35.59 31.51,74.53 31.51,115.94 0,79.74 -37.78,141.96 -102.05,188.15 -38.95,28.07 -82.8,42.11 -130.65,42.11 -98.42,0 -169.24,-49.7 -211.76,-138.05 -14.35,-29.85 -20.9,-61.55 -20.9,-94.61 z m 990.36,350.23 16.28,0 c 136.12,0 239.61,-66.03 305.22,-184.86 26.23,-47.52 40.25,-99.4 40.25,-153.72 l 0,-23.31 c 0,-127.34 -62.79,-228.831 -172.55,-293.241 -50.86,-29.808 -107.04,-45.238 -165.94,-45.238 l -23.26,0 c -127.37,0 -228.58,62.969 -293.23,172.539 -30,50.86 -45.27,106.96 -45.27,165.94 l 0,23.31 c 0,127.35 63.2,228.32 172.42,293.28 50.84,30.18 107.03,45.3 166.08,45.3 z M 4362.87,1205.1 c 0,-89.28 43.85,-154.96 119.3,-201.14 35.37,-21.698 74.37,-31.511 115.78,-31.511 88.2,0 153.4,44.721 198.83,119.211 21.64,35.49 31.42,74.49 31.42,115.84 0,83.07 -39.98,146.44 -108.36,192.42 -37.46,25.22 -79.16,37.84 -124.27,37.84 -98.44,0 -169.26,-49.7 -211.74,-138.05 -14.4,-29.85 -20.96,-61.55 -20.96,-94.61 z M 5434,1428.39 c -17.67,8.29 -50.89,11.04 -70.05,11.78 -98.15,3.7 -169.16,-51.58 -210.84,-138.15 -14.38,-29.85 -20.9,-61.48 -20.9,-94.52 0,-100.63 52.79,-171.07 142.63,-214.02 32.8,-15.648 75.14,-18.64 111,-18.64 31.54,0 76.11,19.308 104.1,32.61 l 4.85,2.28 21.69,0 2.41,-0.47 c 26.75,-5.58 46.89,-22.498 46.89,-51.229 l 0,-11.652 c 0,-71.5 -130.72,-87.91 -180.6,-91.348 -176,-12.199 -307.62,84.457 -357.84,252.329 -8.73,29.18 -12.63,58.13 -12.63,88.49 l 0,23.28 c 0,127.36 63.18,228.28 172.46,293.17 50.86,30.18 107.01,45.33 166.03,45.33 l 23.28,0 c 62.6,0 120.3,-17.78 171.98,-53.1 l 4.27,-2.93 2.64,-4.39 c 5.59,-9.27 10.41,-19.98 10.41,-31 l 0,-11.63 c 0,-29.99 -22.44,-46.09 -49.53,-51.32 l -2.23,-0.37 -6.93,0 c -17.54,0 -57.38,18.12 -73.09,25.5 z m 381.1,-79.56 c 45.6,45.7 91.42,91.29 137.73,136.24 12.89,12.53 61.76,65.59 80.98,65.59 l 21.07,0 2.37,-0.5 c 26.81,-5.56 46.91,-22.52 46.91,-51.31 l 0,-11.66 c 0,-19.63 -23.03,-42.47 -35.7,-55.91 -27.01,-28.6 -55.41,-56.27 -83.05,-84.31 l -141.89,-144.04 c 61.07,-61.26 122.12,-122.56 182.75,-184.28 16.76,-17.06 33.53,-34.17 50.06,-51.478 5.8,-6.113 14.45,-13.774 19.33,-22.274 5.26,-8 8.5,-16.988 8.5,-26.597 l 0,-12.09 -0.7,-2.813 c -6.6,-26.796 -23.62,-48.437 -53.32,-48.437 l -9.34,0 c -19.43,0 -41.39,22.019 -54.69,34.559 -27.42,25.871 -53.94,53.082 -80.86,79.48 l -90.15,88.54 0,-141.52 c 0,-32.54 -20.41,-58.739 -54.12,-58.739 l -9.28,0 c -33.71,0 -54.06,26.199 -54.06,58.739 l 0,797.38 c 0,32.61 20.35,58.7 54.06,58.7 l 9.28,0 c 33.71,0 54.12,-26.09 54.12,-58.7 l 0,-364.57 z m 1464.12,201.83 11.64,0 c 35.23,0 58.77,-23.76 58.77,-58.79 0,-48.64 -46.49,-61.09 -86.7,-61.09 -52.79,0 -103.13,-31.91 -139.53,-67.71 -45.35,-44.76 -65.2,-101.98 -65.2,-164.95 l 0,-284.37 c 0,-32.629 -20.37,-58.789 -54.08,-58.789 l -9.26,0 c -33.79,0 -54.14,26.16 -54.14,58.789 l 0,300.7 c 0,115.49 56.21,209.71 149.92,275.87 56,39.5 120.04,60.34 188.58,60.34 z M 6444.28,987.07 c 42.73,-14.941 91.48,-12.808 135.35,-5.172 22.4,9.543 79.8,34.562 100.9,30.922 l 3.32,-0.57 3.01,-1.49 c 12.87,-6.26 25.17,-15.1 31.75,-28.19 15.41,-30.742 7.99,-61.629 -22.18,-79.05 l -10.06,-5.848 c -111.43,-64.32 -229.94,-55.391 -341.04,4.668 -53.1,28.699 -93.71,71.351 -123.69,123.31 l -7.01,12.12 c -71.54,123.87 -61.88,254.2 18.81,372.02 27.83,40.71 64.22,72.18 106.77,96.77 l 16.12,9.3 c 104.96,60.58 217.42,56.44 325.21,3.27 57.93,-28.59 104.87,-71.22 137.21,-127.25 l 5.84,-10.06 c 23.5,-40.78 -6.95,-76.25 -38.38,-100.52 -36.48,-28.11 -73.3,-61.98 -108.26,-92.15 C 6600,1121.86 6522.21,1054.4 6444.28,987.07 Z m -100.9,70.84 c 87.23,74.77 174.39,149.57 261.33,224.65 29.7,25.6 62.28,52.17 91.79,79.15 -23.67,29.76 -63.18,51.28 -96.75,64.08 -67.76,25.81 -134.55,17.12 -196.7,-18.73 -81.33,-46.94 -116.02,-121.76 -112.97,-214.82 1.23,-36.63 11.07,-71.95 30.55,-103.15 6.83,-10.99 14.51,-21.33 22.75,-31.18"
         style="fill:#eaeaea;fill-opacity:1;fill-rule:evenodd;stroke:none"
         id="path54"
         inkscape:connector-curvature="0" /></g></g></svg>