<?xml version="1.0" encoding="UTF-8" standalone="no"?>
<svg
   xmlns:dc="http://purl.org/dc/elements/1.1/"
   xmlns:cc="http://creativecommons.org/ns#"
   xmlns:rdf="http://www.w3.org/1999/02/22-rdf-syntax-ns#"
   xmlns:svg="http://www.w3.org/2000/svg"
   xmlns="http://www.w3.org/2000/svg"
   xmlns:xlink="http://www.w3.org/1999/xlink"
   xmlns:sodipodi="http://sodipodi.sourceforge.net/DTD/sodipodi-0.dtd"
   xmlns:inkscape="http://www.inkscape.org/namespaces/inkscape"
   version="1.1"
   width="560.94"
   height="460"
   id="svg3139"
   inkscape:version="0.91 r"
   sodipodi:docname="Exponential_Growth.svg">
  <metadata
     id="metadata3243">
    <rdf:RDF>
      <cc:Work
         rdf:about="">
        <dc:format>image/svg+xml</dc:format>
        <dc:type
           rdf:resource="http://purl.org/dc/dcmitype/StillImage" />
        <dc:title />
      </cc:Work>
    </rdf:RDF>
  </metadata>
  <sodipodi:namedview
     pagecolor="#ffffff"
     bordercolor="#666666"
     borderopacity="1"
     objecttolerance="10"
     gridtolerance="10"
     guidetolerance="10"
     inkscape:pageopacity="0"
     inkscape:pageshadow="2"
     inkscape:window-width="1672"
     inkscape:window-height="990"
     id="namedview3241"
     showgrid="false"
     inkscape:zoom="1.1181052"
     inkscape:cx="213.58995"
     inkscape:cy="251.80832"
     inkscape:window-x="0"
     inkscape:window-y="0"
     inkscape:window-maximized="1"
     inkscape:current-layer="svg3139" />
  <defs
     id="defs3141">
    <pattern
       inkscape:collect="always"
       xlink:href="#grid"
       id="pattern3363"
       patternTransform="matrix(0.77051926,0,0,0.77051926,7.7051926,0)" />
    <clipPath
       id="drawfield">
      <rect
         x="0"
         y="22"
         width="698"
         height="560"
         id="rect3144" />
    </clipPath>
    <pattern
       id="grid"
       x="51"
       y="62"
       width="60"
       height="55"
       patternUnits="userSpaceOnUse">
      <path
         style="stroke-dasharray:1,2;stroke:#999;stroke-width:1px;fill:none;"
         d="M 0.5 0.5 h 60 M 0.5 0.5 v 55"
         id="path3147" />
      <path
         style="stroke-dasharray:1,3;stroke:#ccc;stroke-width:1px;fill:none;"
         d="M 0.5 11.5 h 60  m -60 11 h 60  m -60 11 h 60  m -60 11 h 60  M 15.5 0.5 v 55  m 15 -55 v 55  m 15 -55 v 55"
         id="path3149" />
    </pattern>
  </defs>
  <rect
     style="fill:#ffffff"
     y="0"
     x="7.7051926"
     width="553.23285"
     height="460"
     id="rect3151" />
  <rect
     style="fill:url(#pattern3363)"
     x="7.7051926"
     y="16.951424"
     width="537.82245"
     height="431.49078"
     id="rect3153" />
  <path
     inkscape:connector-curvature="0"
     style="fill:none;stroke:#5591cd;stroke-width:2.31155777px;stroke-linecap:round;stroke-opacity:1"
     d="m 7.7051926,387.18593 547.0686774,0 M 47.386934,7.7051926 l 0,446.9011674 m 3.082078,-406.448906 -6.164155,0 m 6.164155,42.378559 -6.164155,0 m 6.164155,42.378557 -6.164155,0 m 6.164155,42.37856 -6.164155,0 m 6.164155,42.37856 -6.164155,0 m 6.164155,42.37856 -6.164155,0 m 6.164155,42.37856 -6.164155,0 m 6.164155,42.37856 -6.164155,0 m 6.164155,42.37856 -6.164155,0 m 6.164155,42.37856 -6.164155,0 m 49.313233,-45.46064 0,6.16416 m 46.23116,-6.16416 0,6.16416 m 46.23115,-6.16416 0,6.16416 m 46.23116,-6.16416 0,6.16416 m 46.23115,-6.16416 0,6.16416 m 46.23116,-6.16416 0,6.16416 m 46.23115,-6.16416 0,6.16416 m 46.23116,-6.16416 0,6.16416 m 46.23115,-6.16416 0,6.16416 m 46.23116,-6.16416 0,6.16416"
     id="path3155" />
  <path
     inkscape:connector-curvature="0"
     style="fill:#000000;stroke:none"
     d="m 47.386934,13.098827 -3.852596,0 3.852596,-7.7051922 3.852597,7.7051922 z m 501.993296,374.087103 0,3.85259 7.70519,-3.85259 -7.70519,-3.8526 z"
     id="path3157" />
  <text
     style="font-weight:bold;font-size:10.01675034px;font-family:FreeSans;text-anchor:middle"
     x="549.7655"
     y="379.866"
     id="text3182">x</text>
  <text
     style="font-weight:bold;font-size:10.01675034px;font-family:FreeSans"
     id="text3184"
     y="8.0904522"
     x="54.321609">y</text>
  <path
     style="fill:none;stroke:#55cd91;stroke-width:2.31155777px;stroke-opacity:1"
     inkscape:connector-curvature="0"
     id="path3239"
     d="M 1.1557789,387.10117 C 400.67002,379.09548 473.86934,423.78559 555.92965,40.02077" />
  <g
     style="font-style:normal;font-variant:normal;font-weight:normal;font-stretch:normal;font-size:22.43752098px;line-height:125%;font-family:'PT Sans';-inkscape-font-specification:'PT Sans';text-align:start;letter-spacing:0px;word-spacing:0px;text-anchor:start;fill:#000000;fill-opacity:1;stroke:none"
     id="text4801">
    <path
       d="m 110.22201,89.997215 q 0.85262,-0.201937 1.83988,-0.26925 0.98725,-0.06731 1.95206,-0.06731 1.03213,0 2.08669,0.201938 1.077,0.201938 1.95206,0.740438 0.87507,0.538501 1.41357,1.480877 0.56094,0.942376 0.56094,2.400814 0,1.436002 -0.51607,2.423253 -0.51606,0.987251 -1.36869,1.615501 -0.85262,0.605813 -1.95206,0.875063 -1.09944,0.269251 -2.26619,0.269251 -0.11219,0 -0.38144,0 -0.24681,0 -0.5385,0 -0.26925,-0.02244 -0.5385,-0.04488 -0.26925,-0.02244 -0.38144,-0.04488 l 0,5.968383 -1.86231,0 0,-15.549205 z m 3.83681,1.278939 q -0.58337,0 -1.12187,0.02244 -0.5385,0.02244 -0.85263,0.112188 l 0,6.506881 q 0.11219,0.04488 0.359,0.06731 0.24682,0 0.51607,0.02244 0.26925,0 0.51606,0 0.24681,0 0.359,0 0.76288,0 1.50331,-0.134625 0.76288,-0.157063 1.36869,-0.5385 0.60582,-0.381438 0.96482,-1.077001 0.38143,-0.695564 0.38143,-1.772565 0,-0.919938 -0.359,-1.525751 -0.33656,-0.628251 -0.91994,-0.987251 -0.56093,-0.381438 -1.27893,-0.5385 -0.718,-0.157063 -1.43601,-0.157063 z"
       style="fill:#cd5555;fill-opacity:1"
       id="path3540" />
    <path
       d="m 127.0824,96.055346 q -0.67312,-0.224375 -1.27893,-0.224375 -0.96482,0 -1.52576,0.5385 -0.56093,0.516063 -0.69556,1.323814 l 0,7.853135 -1.795,0 0,-11.218763 1.2565,0 0.33656,1.368689 0.0897,0 q 0.42632,-0.762876 1.00969,-1.166752 0.60581,-0.426312 1.52575,-0.426312 0.65069,0 1.45844,0.224375 l -0.38144,1.727689 z"
       style="fill:#cd5555;fill-opacity:1"
       id="path3542" />
    <path
       d="m 128.78415,99.937037 q 0,-2.849565 1.2565,-4.352879 1.27894,-1.525752 3.65732,-1.525752 1.2565,0 2.17644,0.426313 0.94237,0.403876 1.54819,1.189189 0.60581,0.762876 0.8975,1.862314 0.29168,1.077001 0.29168,2.400815 0,2.849563 -1.27893,4.375313 -1.25651,1.50332 -3.63488,1.50332 -1.2565,0 -2.19888,-0.40388 -0.91994,-0.42631 -1.52575,-1.18919 -0.60581,-0.78531 -0.8975,-1.86231 -0.29169,-1.09944 -0.29169,-2.423253 z m 1.86231,0 q 0,0.852623 0.15707,1.637943 0.1795,0.78531 0.5385,1.36868 0.359,0.58338 0.94237,0.94238 0.58338,0.359 1.41357,0.359 3.0515,0.0224 3.0515,-4.308003 0,-0.875063 -0.1795,-1.660377 -0.15706,-0.785313 -0.51606,-1.368688 -0.359,-0.583376 -0.94238,-0.919939 -0.58337,-0.359 -1.41356,-0.359 -3.05151,-0.02244 -3.05151,4.308004 z"
       style="fill:#cd5555;fill-opacity:1"
       id="path3544" />
    <path
       d="m 141.77898,94.327657 1.795,0 0,11.824573 q 0,2.08669 -0.718,3.11882 -0.718,1.03212 -2.28863,1.03212 -0.1795,0 -0.33656,-0.0224 -0.15706,0 -0.33656,-0.0224 l 0,-1.52575 q 0.62825,0 0.98725,-0.20194 0.38144,-0.1795 0.58338,-0.58338 0.20193,-0.40387 0.24681,-1.03212 0.0673,-0.60582 0.0673,-1.43601 l 0,-11.151443 z m -0.38144,-3.410503 q 0,-0.516063 0.33657,-0.875064 0.359,-0.381438 0.8975,-0.381438 0.5385,0 0.91993,0.381438 0.38144,0.359001 0.38144,0.875064 0,0.516063 -0.38144,0.852625 -0.38143,0.336563 -0.91993,0.336563 -0.5385,0 -0.8975,-0.336563 -0.33657,-0.336562 -0.33657,-0.852625 z"
       style="fill:#cd5555;fill-opacity:1"
       id="path3546" />
    <path
       d="m 155.61346,104.64892 q -0.67312,0.5385 -1.70525,0.85262 -1.00969,0.31413 -2.154,0.31413 -1.27894,0 -2.22131,-0.40388 -0.94238,-0.42631 -1.54819,-1.18919 -0.60582,-0.78531 -0.8975,-1.86231 -0.29169,-1.077 -0.29169,-2.423253 0,-2.872003 1.27894,-4.375317 1.27894,-1.503314 3.65731,-1.503314 0.76288,0 1.52575,0.179501 0.76288,0.157062 1.36869,0.62825 0.60582,0.471188 0.98725,1.346252 0.38144,0.852625 0.38144,2.266189 0,0.740438 -0.13462,1.637942 l -7.20245,0 q 0,0.98725 0.20194,1.75012 0.20194,0.76288 0.62825,1.30138 0.42631,0.51606 1.09944,0.80775 0.69556,0.26925 1.68281,0.26925 0.76288,0 1.52575,-0.26925 0.76288,-0.26925 1.14432,-0.62825 l 0.67312,1.30138 z m -3.85925,-9.019887 q -1.32381,0 -2.13156,0.695563 -0.78532,0.695563 -0.94238,2.378377 l 5.5645,0 q 0,-1.705251 -0.65068,-2.378377 -0.65069,-0.695563 -1.83988,-0.695563 z"
       style="fill:#cd5555;fill-opacity:1"
       id="path3548" />
    <path
       d="m 166.20608,104.80598 q -0.67313,0.49362 -1.59307,0.74044 -0.91993,0.26925 -1.92962,0.26925 -1.30138,0 -2.19888,-0.40388 -0.8975,-0.42631 -1.48088,-1.18919 -0.56093,-0.78531 -0.83018,-1.86231 -0.24682,-1.09944 -0.24682,-2.423253 0,-2.849565 1.2565,-4.352879 1.25651,-1.525752 3.61244,-1.525752 1.07701,0 1.81744,0.179501 0.76288,0.157062 1.36869,0.471188 l -0.51606,1.548189 q -0.51606,-0.291688 -1.14431,-0.448751 -0.62825,-0.1795 -1.34626,-0.1795 -3.18612,0 -3.18612,4.308004 0,0.852623 0.15706,1.637943 0.1795,0.76287 0.56094,1.36868 0.40387,0.58338 1.03212,0.94238 0.65069,0.359 1.59307,0.359 0.80775,0 1.436,-0.24681 0.65069,-0.24681 1.05456,-0.56094 l 0.58338,1.36869 z"
       style="fill:#cd5555;fill-opacity:1"
       id="path3550" />
    <path
       d="m 167.19719,94.327657 1.75012,0 0,-2.221315 1.79501,-0.516063 0,2.737378 3.0515,0 0,1.570626 -3.0515,0 0,6.215197 q 0,1.16675 0.29168,1.66037 0.29169,0.47119 0.98725,0.47119 0.58338,0 0.98726,-0.11219 0.40387,-0.13462 0.8975,-0.33656 l 0.40387,1.36869 q -0.60581,0.29169 -1.32381,0.47119 -0.718,0.1795 -1.54819,0.1795 -1.36869,0 -1.92963,-0.76288 -0.56094,-0.78531 -0.56094,-2.60275 l 0,-6.551757 -1.75012,0 0,-1.570626 z"
       style="fill:#cd5555;fill-opacity:1"
       id="path3552" />
    <path
       d="m 192.53861,104.89573 q -0.67312,0.51606 -1.70525,0.718 -1.03212,0.20194 -2.19888,0.20194 -1.41356,0 -2.64762,-0.47119 -1.23407,-0.49363 -2.15401,-1.48088 -0.91993,-0.98725 -1.45843,-2.513 -0.5385,-1.548188 -0.5385,-3.657315 0,-2.198877 0.58337,-3.724629 0.60581,-1.548189 1.57063,-2.513002 0.98725,-0.987251 2.19887,-1.436001 1.21163,-0.448751 2.46813,-0.448751 1.34625,0 2.19888,0.157063 0.85262,0.134625 1.45844,0.381438 l -0.44875,1.637939 q -1.077,-0.516063 -3.07394,-0.516063 -0.91994,0 -1.81744,0.336563 -0.8975,0.336562 -1.6155,1.099438 -0.69557,0.762876 -1.12188,1.99694 -0.42631,1.234063 -0.42631,3.029065 0,1.615501 0.40387,2.827125 0.40388,1.21163 1.09944,2.01938 0.718,0.80775 1.66038,1.21163 0.96481,0.40387 2.08669,0.40387 1.00969,0 1.75012,-0.20194 0.76288,-0.20193 1.27894,-0.51606 l 0.44875,1.45844 z"
       style="fill:#cd5555;fill-opacity:1"
       id="path3554" />
    <path
       d="m 193.68643,99.937037 q 0,-2.849565 1.2565,-4.352879 1.27894,-1.525752 3.65732,-1.525752 1.2565,0 2.17644,0.426313 0.94237,0.403876 1.54818,1.189189 0.60582,0.762876 0.89751,1.862314 0.29168,1.077001 0.29168,2.400815 0,2.849563 -1.27894,4.375313 -1.2565,1.50332 -3.63487,1.50332 -1.25651,0 -2.19888,-0.40388 -0.91994,-0.42631 -1.52575,-1.18919 -0.60582,-0.78531 -0.8975,-1.86231 -0.29169,-1.09944 -0.29169,-2.423253 z m 1.86231,0 q 0,0.852623 0.15707,1.637943 0.1795,0.78531 0.5385,1.36868 0.359,0.58338 0.94237,0.94238 0.58338,0.359 1.41357,0.359 3.0515,0.0224 3.0515,-4.308003 0,-0.875063 -0.1795,-1.660377 -0.15706,-0.785313 -0.51606,-1.368688 -0.359,-0.583376 -0.94238,-0.919939 -0.58338,-0.359 -1.41356,-0.359 -3.05151,-0.02244 -3.05151,4.308004 z"
       style="fill:#cd5555;fill-opacity:1"
       id="path3556" />
    <path
       d="m 213.52471,105.54642 0,-6.394696 q 0,-1.750127 -0.51607,-2.62519 -0.49362,-0.897501 -1.83987,-0.897501 -1.18919,0 -1.9745,0.650688 -0.76288,0.628251 -1.07701,1.593064 l 0,7.673635 -1.795,0 0,-11.218763 1.2565,0 0.33657,1.368689 0.0897,0 q 0.5385,-0.718001 1.436,-1.166752 0.91994,-0.471188 2.17644,-0.471188 0.91994,0 1.6155,0.224376 0.69556,0.201937 1.14431,0.740438 0.47119,0.5385 0.69557,1.458439 0.24681,0.897501 0.24681,2.288627 l 0,6.776134 -1.795,0 z"
       style="fill:#cd5555;fill-opacity:1"
       id="path3558" />
    <path
       d="m 217.11191,94.327657 1.75013,0 0,-2.221315 1.795,-0.516063 0,2.737378 3.0515,0 0,1.570626 -3.0515,0 0,6.215197 q 0,1.16675 0.29169,1.66037 0.29168,0.47119 0.98725,0.47119 0.58337,0 0.98725,-0.11219 0.40387,-0.13462 0.8975,-0.33656 l 0.40387,1.36869 q -0.60581,0.29169 -1.32381,0.47119 -0.718,0.1795 -1.54819,0.1795 -1.36869,0 -1.92963,-0.76288 -0.56093,-0.78531 -0.56093,-2.60275 l 0,-6.551757 -1.75013,0 0,-1.570626 z"
       style="fill:#cd5555;fill-opacity:1"
       id="path3560" />
    <path
       d="m 231.51329,96.055346 q -0.67313,-0.224375 -1.27894,-0.224375 -0.96482,0 -1.52575,0.5385 -0.56094,0.516063 -0.69557,1.323814 l 0,7.853135 -1.795,0 0,-11.218763 1.2565,0 0.33656,1.368689 0.0897,0 q 0.42632,-0.762876 1.00969,-1.166752 0.60582,-0.426312 1.52575,-0.426312 0.65069,0 1.45844,0.224375 l -0.38143,1.727689 z"
       style="fill:#cd5555;fill-opacity:1"
       id="path3562" />
    <path
       d="m 234.22472,94.327657 1.795,0 0,11.218763 -1.795,0 0,-11.218763 z m -0.38144,-3.410503 q 0,-0.516063 0.33656,-0.875064 0.35901,-0.381438 0.89751,-0.381438 0.5385,0 0.91993,0.381438 0.38144,0.359001 0.38144,0.875064 0,0.516063 -0.38144,0.852625 -0.38143,0.336563 -0.91993,0.336563 -0.5385,0 -0.89751,-0.336563 -0.33656,-0.336562 -0.33656,-0.852625 z"
       style="fill:#cd5555;fill-opacity:1"
       id="path3564" />
    <path
       d="m 239.84707,89.840153 1.79501,0 0,5.586942 0.0898,0 q 0.51606,-0.650688 1.30137,-1.009688 0.80775,-0.359001 1.75013,-0.359001 2.17644,0 3.25344,1.391127 1.09944,1.391126 1.09944,4.308004 0,2.939313 -1.436,4.465063 -1.43601,1.52575 -4.03876,1.52575 -1.2565,0 -2.28862,-0.26925 -1.00969,-0.26925 -1.52576,-0.58337 l 0,-15.055577 z m 4.62213,5.78888 q -1.12187,0 -1.81744,0.628251 -0.69556,0.62825 -1.00968,1.772564 l 0,5.654252 q 0.42631,0.24682 1.03212,0.38144 0.60581,0.11219 1.2565,0.11219 1.52575,0 2.42325,-1.077 0.91994,-1.077 0.91994,-3.365631 0,-0.875063 -0.15706,-1.637939 -0.15706,-0.762875 -0.49362,-1.301376 -0.33657,-0.5385 -0.87507,-0.852626 -0.51606,-0.314125 -1.27894,-0.314125 z"
       style="fill:#cd5555;fill-opacity:1"
       id="path3566" />
    <path
       d="m 253.55781,94.327657 0,6.394693 q 0,0.87506 0.0898,1.54819 0.11218,0.65069 0.359,1.09944 0.24681,0.42631 0.67312,0.65069 0.42631,0.22437 1.077,0.22437 0.60582,0 1.077,-0.1795 0.47119,-0.20194 0.83019,-0.5385 0.38144,-0.33656 0.65069,-0.76288 0.29169,-0.44875 0.47119,-0.94237 l 0,-7.494133 1.795,0 0,8.032633 q 0,0.80775 0.0449,1.68281 0.0673,0.85263 0.20194,1.50332 l -1.23406,0 -0.44875,-1.77257 -0.11219,0 q -0.51606,0.87507 -1.39113,1.45844 -0.87506,0.58338 -2.22131,0.58338 -0.8975,0 -1.59306,-0.22438 -0.67313,-0.20194 -1.14432,-0.74044 -0.44875,-0.5385 -0.69556,-1.436 -0.22438,-0.91994 -0.22438,-2.31106 l 0,-6.776133 1.79501,0 z"
       style="fill:#cd5555;fill-opacity:1"
       id="path3568" />
    <path
       d="m 262.55666,94.327657 1.75012,0 0,-2.221315 1.79501,-0.516063 0,2.737378 3.0515,0 0,1.570626 -3.0515,0 0,6.215197 q 0,1.16675 0.29168,1.66037 0.29169,0.47119 0.98725,0.47119 0.58338,0 0.98726,-0.11219 0.40387,-0.13462 0.8975,-0.33656 l 0.40387,1.36869 q -0.60581,0.29169 -1.32381,0.47119 -0.718,0.1795 -1.54819,0.1795 -1.36869,0 -1.92963,-0.76288 -0.56094,-0.78531 -0.56094,-2.60275 l 0,-6.551757 -1.75012,0 0,-1.570626 z"
       style="fill:#cd5555;fill-opacity:1"
       id="path3570" />
    <path
       d="m 270.77159,99.937037 q 0,-2.849565 1.2565,-4.352879 1.27894,-1.525752 3.65732,-1.525752 1.2565,0 2.17643,0.426313 0.94238,0.403876 1.54819,1.189189 0.60582,0.762876 0.8975,1.862314 0.29169,1.077001 0.29169,2.400815 0,2.849563 -1.27894,4.375313 -1.2565,1.50332 -3.63487,1.50332 -1.25651,0 -2.19888,-0.40388 -0.91994,-0.42631 -1.52575,-1.18919 -0.60582,-0.78531 -0.8975,-1.86231 -0.29169,-1.09944 -0.29169,-2.423253 z m 1.86231,0 q 0,0.852623 0.15707,1.637943 0.1795,0.78531 0.5385,1.36868 0.359,0.58338 0.94237,0.94238 0.58338,0.359 1.41357,0.359 3.0515,0.0224 3.0515,-4.308003 0,-0.875063 -0.1795,-1.660377 -0.15706,-0.785313 -0.51607,-1.368688 -0.359,-0.583376 -0.94237,-0.919939 -0.58338,-0.359 -1.41356,-0.359 -3.05151,-0.02244 -3.05151,4.308004 z"
       style="fill:#cd5555;fill-opacity:1"
       id="path3572" />
    <path
       d="m 288.70268,96.055346 q -0.67313,-0.224375 -1.27894,-0.224375 -0.96481,0 -1.52575,0.5385 -0.56094,0.516063 -0.69557,1.323814 l 0,7.853135 -1.795,0 0,-11.218763 1.2565,0 0.33657,1.368689 0.0897,0 q 0.42631,-0.762876 1.00968,-1.166752 0.60582,-0.426312 1.52576,-0.426312 0.65068,0 1.45844,0.224375 l -0.38144,1.727689 z"
       style="fill:#cd5555;fill-opacity:1"
       id="path3574" />
    <path
       d="m 295.96892,102.49491 q 0,-0.67312 -0.40387,-1.05456 -0.40388,-0.38144 -1.00969,-0.62825 -0.58338,-0.26925 -1.30138,-0.49363 -0.69556,-0.24681 -1.30138,-0.605808 -0.58337,-0.381438 -0.98725,-0.964814 -0.40387,-0.583375 -0.40387,-1.570626 0,-1.615502 0.91994,-2.35594 0.91994,-0.762876 2.55787,-0.762876 1.21163,0 2.01938,0.224376 0.83019,0.201937 1.436,0.493625 l -0.42631,1.480877 q -0.51606,-0.246813 -1.2565,-0.426313 -0.718,-0.201938 -1.54819,-0.201938 -0.98725,0 -1.45844,0.336563 -0.44875,0.336563 -0.44875,1.166751 0,0.583375 0.40388,0.919938 0.40387,0.314126 0.98725,0.583376 0.60581,0.246813 1.30137,0.493625 0.718,0.246813 1.30138,0.650688 0.60581,0.403876 1.00969,1.032126 0.40387,0.60581 0.40387,1.6155 0,0.718 -0.24681,1.34625 -0.22438,0.62825 -0.718,1.077 -0.49363,0.44875 -1.23406,0.69557 -0.718,0.26925 -1.70526,0.26925 -1.27893,0 -2.17644,-0.24682 -0.8975,-0.24681 -1.50331,-0.58337 l 0.5385,-1.52575 q 0.51606,0.29169 1.34625,0.5385 0.83019,0.24681 1.68282,0.24681 0.96481,0 1.59306,-0.38144 0.62825,-0.38143 0.62825,-1.36869 z"
       style="fill:#cd5555;fill-opacity:1"
       id="path3576" />
    <path
       d="m 305.47016,97.446472 q 0.96481,-0.740438 1.75013,-1.032126 0.78531,-0.291688 1.436,-0.291688 0.62825,0 1.16675,0.201938 0.5385,0.1795 1.03213,0.426313 0.49362,0.224375 0.96481,0.426313 0.47119,0.1795 0.98725,0.1795 0.42631,0 0.87506,-0.1795 0.44875,-0.1795 0.96482,-0.628251 l 0.76287,1.368689 q -0.85262,0.583376 -1.54819,0.830188 -0.67312,0.224376 -1.23406,0.224376 -0.60581,0 -1.12188,-0.179501 -0.49362,-0.201937 -0.96481,-0.426312 -0.44875,-0.246813 -0.91994,-0.426313 -0.44875,-0.201938 -0.98725,-0.201938 -0.51606,0 -1.09944,0.246813 -0.58337,0.224375 -1.30137,0.80775 l -0.76288,-1.346251 z"
       style="fill:#cd5555;fill-opacity:1"
       id="path3578" />
    <path
       d="m 332.13575,93.407718 q 0,1.189189 -0.44875,2.44569 -0.42631,1.234064 -1.14431,2.490565 -0.69557,1.256501 -1.57063,2.468127 -0.87506,1.18919 -1.75013,2.26619 l -1.09943,0.96481 0,0.0898 1.436,-0.24681 4.89138,0 0,1.66038 -8.93014,0 0,-0.65069 q 0.49363,-0.51606 1.18919,-1.27894 0.69556,-0.76288 1.436,-1.68281 0.76288,-0.94238 1.48088,-1.974505 0.74044,-1.054564 1.32381,-2.131565 0.60582,-1.077001 0.96482,-2.131564 0.359,-1.054564 0.359,-1.99694 0,-1.099438 -0.62825,-1.817439 -0.62825,-0.740438 -1.90719,-0.740438 -0.85263,0 -1.66038,0.359 -0.80775,0.336563 -1.39113,0.785313 l -0.74043,-1.278938 q 0.78531,-0.673126 1.86231,-1.054564 1.077,-0.381438 2.31106,-0.381438 0.96482,0 1.70526,0.291688 0.74043,0.26925 1.2565,0.785313 0.51606,0.516063 0.78531,1.234064 0.26925,0.695563 0.26925,1.525751 z"
       style="fill:#cd5555;fill-opacity:1"
       id="path3580" />
    <path
       d="m 335.45475,104.5816 q 0,-0.5385 0.35901,-0.87506 0.359,-0.33656 0.91993,-0.33656 0.69557,0 1.12188,0.49362 0.44875,0.49363 0.44875,1.436 0,0.80776 -0.22438,1.41357 -0.22437,0.60581 -0.58337,1.03212 -0.359,0.44875 -0.78531,0.718 -0.42632,0.29169 -0.85263,0.42632 l -0.56094,-0.87507 q 0.80775,-0.31412 1.18919,-0.98725 0.40388,-0.65068 0.40388,-1.32381 -0.20194,0.0673 -0.38144,0.0673 -0.44875,0 -0.76288,-0.29169 -0.29169,-0.31412 -0.29169,-0.8975 z"
       style="fill:#cd5555;fill-opacity:1"
       id="path3582" />
    <path
       d="m 339.70245,97.693285 q 0,-4.038754 1.30138,-6.080568 1.32381,-2.041815 3.83682,-2.041815 2.71494,0 3.92656,2.019377 1.23407,1.99694 1.23407,6.103006 0,4.038755 -1.32382,6.080565 -1.30137,2.04182 -3.83681,2.04182 -2.67007,0 -3.90413,-2.13157 -1.23407,-2.13156 -1.23407,-5.990815 z m 1.86232,0 q 0,1.458439 0.1795,2.670065 0.20194,1.18919 0.60581,2.06425 0.40388,0.85263 1.00969,1.34625 0.62825,0.47119 1.48088,0.47119 1.70525,0 2.49056,-1.57063 0.80775,-1.59306 0.80775,-4.981125 0,-1.436001 -0.1795,-2.647628 -0.15706,-1.211626 -0.56094,-2.086689 -0.38143,-0.875063 -1.00968,-1.346251 -0.62826,-0.471188 -1.54819,-0.471188 -1.68282,0 -2.49057,1.593064 -0.78531,1.593064 -0.78531,4.958692 z"
       style="fill:#cd5555;fill-opacity:1"
       id="path3584" />
    <path
       d="m 351.92915,97.693285 q 0,-4.038754 1.30138,-6.080568 1.32381,-2.041815 3.83682,-2.041815 2.71494,0 3.92656,2.019377 1.23407,1.99694 1.23407,6.103006 0,4.038755 -1.32382,6.080565 -1.30137,2.04182 -3.83681,2.04182 -2.67007,0 -3.90413,-2.13157 -1.23407,-2.13156 -1.23407,-5.990815 z m 1.86232,0 q 0,1.458439 0.1795,2.670065 0.20194,1.18919 0.60581,2.06425 0.40388,0.85263 1.00969,1.34625 0.62825,0.47119 1.48088,0.47119 1.70525,0 2.49056,-1.57063 0.80775,-1.59306 0.80775,-4.981125 0,-1.436001 -0.1795,-2.647628 -0.15706,-1.211626 -0.56094,-2.086689 -0.38143,-0.875063 -1.00969,-1.346251 -0.62825,-0.471188 -1.54818,-0.471188 -1.68282,0 -2.49057,1.593064 -0.78531,1.593064 -0.78531,4.958692 z"
       style="fill:#cd5555;fill-opacity:1"
       id="path3586" />
    <path
       d="m 364.15585,97.693285 q 0,-4.038754 1.30138,-6.080568 1.32381,-2.041815 3.83682,-2.041815 2.71494,0 3.92656,2.019377 1.23407,1.99694 1.23407,6.103006 0,4.038755 -1.32382,6.080565 -1.30137,2.04182 -3.83681,2.04182 -2.67007,0 -3.90413,-2.13157 -1.23407,-2.13156 -1.23407,-5.990815 z m 1.86232,0 q 0,1.458439 0.1795,2.670065 0.20194,1.18919 0.60581,2.06425 0.40388,0.85263 1.00969,1.34625 0.62825,0.47119 1.48088,0.47119 1.70525,0 2.49056,-1.57063 0.80775,-1.59306 0.80775,-4.981125 0,-1.436001 -0.1795,-2.647628 -0.15706,-1.211626 -0.56094,-2.086689 -0.38143,-0.875063 -1.00969,-1.346251 -0.62825,-0.471188 -1.54818,-0.471188 -1.68282,0 -2.49057,1.593064 -0.78531,1.593064 -0.78531,4.958692 z"
       style="fill:#cd5555;fill-opacity:1"
       id="path3588" />
  </g>
  <g
     style="font-style:normal;font-variant:normal;font-weight:normal;font-stretch:normal;font-size:22.43752098px;line-height:125%;font-family:'PT Sans';-inkscape-font-specification:'PT Sans';text-align:start;letter-spacing:0px;word-spacing:0px;text-anchor:start;fill:#000000;fill-opacity:1;stroke:none"
     id="text4805">
    <path
       d="m 110.22201,141.56975 q 0.42631,-0.0673 0.94237,-0.0898 0.53851,-0.0449 1.09944,-0.0449 0.58338,-0.0224 1.12188,-0.0224 0.56094,-0.0224 1.03213,-0.0224 1.88475,0 3.25344,0.58338 1.39112,0.58337 2.28862,1.63794 0.8975,1.03212 1.32382,2.49056 0.44875,1.45844 0.44875,3.20857 0,1.59306 -0.42632,3.07394 -0.40387,1.45844 -1.30137,2.60275 -0.8975,1.12188 -2.3335,1.81744 -1.43601,0.67312 -3.47782,0.67312 -0.359,0 -0.94238,-0.0224 -0.56093,0 -1.16675,-0.0449 -0.60581,-0.0224 -1.12187,-0.0449 -0.51607,-0.0224 -0.74044,-0.0673 l 0,-15.7287 z m 4.24069,1.48088 q -0.29169,0 -0.65069,0 -0.33656,0 -0.67312,0.0224 -0.33657,0.0224 -0.62825,0.0449 -0.26925,0.0224 -0.42632,0.0449 l 0,12.56501 q 0.11219,0.0224 0.42632,0.0449 0.31412,0 0.65068,0.0224 0.33657,0 0.65069,0.0224 0.31413,0 0.42631,0 1.57063,0 2.62519,-0.5385 1.07701,-0.5385 1.70526,-1.436 0.65068,-0.91994 0.91993,-2.08669 0.26926,-1.18919 0.26926,-2.44569 0,-1.09944 -0.24682,-2.19888 -0.24681,-1.12188 -0.85262,-2.01938 -0.60582,-0.8975 -1.63794,-1.45844 -1.00969,-0.58337 -2.55788,-0.58337 z"
       style="fill:#444444;fill-opacity:1"
       id="path3485" />
    <path
       d="m 124.09506,151.66664 q 0,-2.84957 1.2565,-4.35288 1.27894,-1.52575 3.65731,-1.52575 1.25651,0 2.17644,0.42631 0.94238,0.40387 1.54819,1.18919 0.60582,0.76287 0.8975,1.86231 0.29169,1.077 0.29169,2.40082 0,2.84956 -1.27894,4.37531 -1.2565,1.50332 -3.63488,1.50332 -1.2565,0 -2.19887,-0.40388 -0.91994,-0.42631 -1.52575,-1.18919 -0.60582,-0.78531 -0.8975,-1.86231 -0.29169,-1.09944 -0.29169,-2.42325 z m 1.86231,0 q 0,0.85262 0.15706,1.63794 0.1795,0.78531 0.5385,1.36868 0.35901,0.58338 0.94238,0.94238 0.58338,0.359 1.41356,0.359 3.05151,0.0224 3.05151,-4.308 0,-0.87507 -0.1795,-1.66038 -0.15707,-0.78531 -0.51607,-1.36869 -0.359,-0.58337 -0.94237,-0.91994 -0.58338,-0.359 -1.41357,-0.359 -3.0515,-0.0224 -3.0515,4.30801 z"
       style="fill:#444444;fill-opacity:1"
       id="path3487" />
    <path
       d="m 144.38208,156.53558 q -0.67312,0.49362 -1.59306,0.74044 -0.91994,0.26925 -1.92963,0.26925 -1.30137,0 -2.19888,-0.40388 -0.8975,-0.42631 -1.48087,-1.18919 -0.56094,-0.78531 -0.83019,-1.86231 -0.24681,-1.09944 -0.24681,-2.42325 0,-2.84957 1.2565,-4.35288 1.2565,-1.52575 3.61244,-1.52575 1.077,0 1.81744,0.1795 0.76287,0.15706 1.36869,0.47118 l -0.51607,1.54819 q -0.51606,-0.29169 -1.14431,-0.44875 -0.62825,-0.1795 -1.34625,-0.1795 -3.18613,0 -3.18613,4.30801 0,0.85262 0.15706,1.63794 0.1795,0.76287 0.56094,1.36868 0.40388,0.58338 1.03213,0.94238 0.65069,0.359 1.59306,0.359 0.80775,0 1.436,-0.24681 0.65069,-0.24682 1.05457,-0.56094 l 0.58337,1.36869 z"
       style="fill:#444444;fill-opacity:1"
       id="path3489" />
    <path
       d="m 149.68119,152.22757 -1.03212,0 0,5.04845 -1.795,0 0,-15.70627 1.795,0 0,9.55839 0.91994,-0.31413 3.47781,-4.75675 2.08669,0 -3.43294,4.50994 -0.91994,0.74044 1.12188,0.8975 3.74706,5.07088 -2.22131,0 -3.74707,-5.04845 z"
       style="fill:#444444;fill-opacity:1"
       id="path3491" />
    <path
       d="m 165.51753,156.37852 q -0.67313,0.5385 -1.70525,0.85262 -1.00969,0.31413 -2.15401,0.31413 -1.27893,0 -2.22131,-0.40388 -0.94238,-0.42631 -1.54819,-1.18919 -0.60581,-0.78531 -0.8975,-1.86231 -0.29169,-1.077 -0.29169,-2.42325 0,-2.87201 1.27894,-4.37532 1.27894,-1.50331 3.65732,-1.50331 0.76287,0 1.52575,0.1795 0.76287,0.15706 1.36869,0.62825 0.60581,0.47118 0.98725,1.34625 0.38144,0.85262 0.38144,2.26619 0,0.74044 -0.13463,1.63794 l -7.20244,0 q 0,0.98725 0.20193,1.75012 0.20194,0.76288 0.62825,1.30138 0.42632,0.51606 1.09944,0.80775 0.69557,0.26925 1.68282,0.26925 0.76287,0 1.52575,-0.26925 0.76287,-0.26925 1.14431,-0.62825 l 0.67313,1.30138 z m -3.85926,-9.01989 q -1.32381,0 -2.13156,0.69557 -0.78531,0.69556 -0.94238,2.37837 l 5.56451,0 q 0,-1.70525 -0.65069,-2.37837 -0.65069,-0.69557 -1.83988,-0.69557 z"
       style="fill:#444444;fill-opacity:1"
       id="path3493" />
    <path
       d="m 174.01714,147.78494 q -0.67313,-0.22437 -1.27894,-0.22437 -0.96481,0 -1.52575,0.5385 -0.56094,0.51606 -0.69557,1.32381 l 0,7.85314 -1.795,0 0,-11.21876 1.2565,0 0.33657,1.36868 0.0897,0 q 0.42631,-0.76287 1.00969,-1.16675 0.60581,-0.42631 1.52575,-0.42631 0.65069,0 1.45844,0.22438 l -0.38144,1.72768 z"
       style="fill:#444444;fill-opacity:1"
       id="path3495" />
    <path
       d="m 182.95674,141.56975 1.86231,0 0,15.70627 -1.86231,0 0,-15.70627 z"
       style="fill:#444444;fill-opacity:1"
       id="path3497" />
    <path
       d="m 195.45479,157.27602 0,-6.34982 q 0,-0.8975 -0.0898,-1.54819 -0.0673,-0.67313 -0.29169,-1.12188 -0.22437,-0.44875 -0.65068,-0.67312 -0.40388,-0.22438 -1.07701,-0.22438 -1.03212,0 -1.72768,0.62825 -0.67313,0.62825 -0.94238,1.57063 l 0,7.71851 -1.795,0 0,-11.21876 1.2565,0 0.33656,1.36868 0.0898,0 q 0.60581,-0.718 1.39113,-1.16675 0.80775,-0.47118 2.08669,-0.47118 1.077,0 1.75012,0.42631 0.69557,0.40387 1.077,1.436 0.51607,-0.87506 1.41357,-1.36869 0.91994,-0.49362 2.06425,-0.49362 0.94238,0 1.59306,0.22437 0.65069,0.20194 1.07701,0.74044 0.42631,0.5385 0.60581,1.45844 0.20194,0.91994 0.20194,2.3335 l 0,6.73126 -1.79501,0 0,-6.7537 q 0,-0.80775 -0.0897,-1.39112 -0.0673,-0.60582 -0.31412,-0.98725 -0.22438,-0.40388 -0.65069,-0.58338 -0.40387,-0.20194 -1.077,-0.20194 -1.12188,0 -1.75013,0.62825 -0.62825,0.62825 -0.8975,1.795 l 0,7.49414 -1.795,0 z"
       style="fill:#444444;fill-opacity:1"
       id="path3499" />
    <path
       d="m 206.93158,146.88744 q 0.85263,-0.51606 1.9745,-0.76287 1.14432,-0.24681 2.37838,-0.24681 1.16675,0 1.86231,0.31412 0.71801,0.31413 1.07701,0.83019 0.38143,0.49362 0.49362,1.09944 0.13463,0.60581 0.13463,1.21162 0,1.34626 -0.0673,2.62519 -0.0673,1.27894 -0.0673,2.42326 0,0.83018 0.0673,1.57062 0.0673,0.74044 0.24682,1.36869 l -1.32382,0 -0.47119,-1.57063 -0.11218,0 q -0.20194,0.31413 -0.51607,0.62826 -0.29168,0.29168 -0.718,0.5385 -0.42631,0.22437 -0.98725,0.38143 -0.56094,0.15707 -1.27894,0.15707 -0.718,0 -1.34625,-0.22438 -0.60581,-0.22437 -1.05456,-0.62825 -0.44875,-0.42631 -0.718,-1.00969 -0.24681,-0.58337 -0.24681,-1.32381 0,-0.98725 0.40387,-1.63794 0.40388,-0.67313 1.12188,-1.05456 0.74044,-0.40388 1.75012,-0.56094 1.03213,-0.1795 2.26619,-0.1795 0.31413,0 0.60582,0 0.31412,0 0.62825,0.0449 0.0673,-0.67312 0.0673,-1.21162 0,-1.23407 -0.49363,-1.72769 -0.49362,-0.49363 -1.795,-0.49363 -0.38144,0 -0.83019,0.0673 -0.42631,0.0449 -0.8975,0.15707 -0.44875,0.0897 -0.87506,0.24681 -0.40388,0.13463 -0.718,0.31413 l -0.56094,-1.34626 z m 3.18613,8.99745 q 0.62825,0 1.12188,-0.15706 0.49362,-0.1795 0.85262,-0.42632 0.359,-0.26925 0.58338,-0.58337 0.24681,-0.31413 0.359,-0.60581 l 0,-1.86232 q -0.31413,-0.0224 -0.65069,-0.0224 -0.31413,-0.0224 -0.62825,-0.0224 -0.69556,0 -1.36869,0.0898 -0.65069,0.0673 -1.16675,0.29168 -0.49363,0.20194 -0.80775,0.58338 -0.29169,0.359 -0.29169,0.91994 0,0.78531 0.56094,1.30137 0.56094,0.49363 1.436,0.49363 z"
       style="fill:#444444;fill-opacity:1"
       id="path3501" />
    <path
       d="m 226.83576,157.79208 q 0,2.17644 -1.16675,3.20856 -1.14431,1.03213 -3.4105,1.03213 -1.34625,0 -2.17644,-0.1795 -0.80775,-0.15706 -1.39113,-0.42631 l 0.47119,-1.52575 q 0.51606,0.20193 1.14431,0.38143 0.62826,0.1795 1.63794,0.1795 0.94238,0 1.52575,-0.1795 0.60582,-0.15706 0.96482,-0.56093 0.359,-0.38144 0.49362,-1.00969 0.13463,-0.60582 0.13463,-1.45844 l 0,-1.077 -0.0897,0 q -0.44875,0.65069 -1.14431,1.00969 -0.69557,0.33656 -1.81744,0.33656 -2.26619,0 -3.34319,-1.41356 -1.05457,-1.41357 -1.05457,-4.39776 0,-2.872 1.36869,-4.35288 1.36869,-1.50331 4.03875,-1.50331 1.27894,0 2.17644,0.20194 0.91994,0.20193 1.63794,0.47118 l 0,11.26364 z m -4.50994,-1.83988 q 1.14431,0 1.795,-0.56094 0.65069,-0.58337 0.91994,-1.795 l 0,-5.744 q -0.8975,-0.42632 -2.28863,-0.42632 -1.52575,0 -2.40081,1.03213 -0.87506,1.03213 -0.87506,3.231 0,0.94238 0.15706,1.72769 0.15706,0.78532 0.49362,1.34625 0.33657,0.56094 0.87507,0.87507 0.5385,0.31412 1.32381,0.31412 z"
       style="fill:#444444;fill-opacity:1"
       id="path3503" />
    <path
       d="m 238.48329,156.37852 q -0.67312,0.5385 -1.70525,0.85262 -1.00969,0.31413 -2.154,0.31413 -1.27894,0 -2.22131,-0.40388 -0.94238,-0.42631 -1.54819,-1.18919 -0.60582,-0.78531 -0.8975,-1.86231 -0.29169,-1.077 -0.29169,-2.42325 0,-2.87201 1.27894,-4.37532 1.27894,-1.50331 3.65731,-1.50331 0.76288,0 1.52575,0.1795 0.76288,0.15706 1.36869,0.62825 0.60582,0.47118 0.98725,1.34625 0.38144,0.85262 0.38144,2.26619 0,0.74044 -0.13462,1.63794 l -7.20245,0 q 0,0.98725 0.20194,1.75012 0.20194,0.76288 0.62825,1.30138 0.42631,0.51606 1.09944,0.80775 0.69556,0.26925 1.68281,0.26925 0.76288,0 1.52576,-0.26925 0.76287,-0.26925 1.14431,-0.62825 l 0.67312,1.30138 z m -3.85925,-9.01989 q -1.32381,0 -2.13156,0.69557 -0.78532,0.69556 -0.94238,2.37837 l 5.56451,0 q 0,-1.70525 -0.65069,-2.37837 -0.65069,-0.69557 -1.83988,-0.69557 z"
       style="fill:#444444;fill-opacity:1"
       id="path3505" />
    <path
       d="m 247.87093,141.72681 q 0.85263,-0.20193 1.83988,-0.26925 0.98725,-0.0673 1.95207,-0.0673 1.03212,0 2.08668,0.20194 1.07701,0.20194 1.95207,0.74044 0.87506,0.5385 1.41356,1.48087 0.56094,0.94238 0.56094,2.40082 0,1.436 -0.51606,2.42325 -0.51606,0.98725 -1.36869,1.6155 -0.85263,0.60582 -1.95207,0.87507 -1.09943,0.26925 -2.26618,0.26925 -0.11219,0 -0.38144,0 -0.24682,0 -0.5385,0 -0.26925,-0.0224 -0.5385,-0.0449 -0.26925,-0.0224 -0.38144,-0.0449 l 0,5.96838 -1.86232,0 0,-15.54921 z m 3.83682,1.27894 q -0.58338,0 -1.12188,0.0224 -0.5385,0.0224 -0.85262,0.11219 l 0,6.50688 q 0.11219,0.0449 0.359,0.0673 0.24681,0 0.51606,0.0224 0.26925,0 0.51606,0 0.24682,0 0.35901,0 0.76287,0 1.50331,-0.13463 0.76287,-0.15706 1.36869,-0.5385 0.60581,-0.38143 0.96481,-1.077 0.38144,-0.69556 0.38144,-1.77256 0,-0.91994 -0.359,-1.52575 -0.33656,-0.62825 -0.91994,-0.98725 -0.56094,-0.38144 -1.27894,-0.5385 -0.718,-0.15707 -1.436,-0.15707 z"
       style="fill:#444444;fill-opacity:1"
       id="path3507" />
    <path
       d="m 261.05158,146.05726 0,6.39469 q 0,0.87506 0.0897,1.54819 0.11219,0.65069 0.359,1.09944 0.24681,0.42631 0.67313,0.65068 0.42631,0.22438 1.077,0.22438 0.60581,0 1.077,-0.1795 0.47119,-0.20194 0.83019,-0.5385 0.38143,-0.33656 0.65068,-0.76288 0.29169,-0.44875 0.47119,-0.94237 l 0,-7.49413 1.795,0 0,8.03263 q 0,0.80775 0.0449,1.68281 0.0673,0.85263 0.20194,1.50332 l -1.23407,0 -0.44875,-1.77257 -0.11218,0 q -0.51607,0.87507 -1.39113,1.45844 -0.87506,0.58338 -2.22132,0.58338 -0.8975,0 -1.59306,-0.22438 -0.67313,-0.20194 -1.14431,-0.74044 -0.44875,-0.5385 -0.69557,-1.436 -0.22437,-0.91994 -0.22437,-2.31106 l 0,-6.77613 1.795,0 z"
       style="fill:#444444;fill-opacity:1"
       id="path3509" />
    <path
       d="m 273.52825,154.5162 q 0,0.78531 0.26925,1.12188 0.26925,0.33656 0.76287,0.33656 0.29169,0 0.62825,-0.0449 0.33657,-0.0449 0.76288,-0.20193 l 0.20194,1.41356 q -0.359,0.1795 -1.00969,0.29169 -0.62825,0.11219 -1.09944,0.11219 -1.00969,0 -1.66038,-0.56094 -0.65068,-0.58338 -0.65068,-1.95207 l 0,-13.46251 1.795,0 0,12.94645 z"
       style="fill:#444444;fill-opacity:1"
       id="path3511" />
    <path
       d="m 280.10173,154.5162 q 0,0.78531 0.26925,1.12188 0.26925,0.33656 0.76288,0.33656 0.29169,0 0.62825,-0.0449 0.33656,-0.0449 0.76288,-0.20193 l 0.20193,1.41356 q -0.359,0.1795 -1.00968,0.29169 -0.62825,0.11219 -1.09944,0.11219 -1.00969,0 -1.66038,-0.56094 -0.65069,-0.58338 -0.65069,-1.95207 l 0,-13.46251 1.795,0 0,12.94645 z"
       style="fill:#444444;fill-opacity:1"
       id="path3513" />
    <path
       d="m 289.61455,154.22451 q 0,-0.67312 -0.40387,-1.05456 -0.40388,-0.38144 -1.00969,-0.62825 -0.58338,-0.26925 -1.30138,-0.49363 -0.69556,-0.24681 -1.30138,-0.60581 -0.58337,-0.38144 -0.98725,-0.96481 -0.40387,-0.58338 -0.40387,-1.57063 0,-1.6155 0.91994,-2.35594 0.91994,-0.76287 2.55787,-0.76287 1.21163,0 2.01938,0.22437 0.83019,0.20194 1.436,0.49363 l -0.42631,1.48087 q -0.51606,-0.24681 -1.2565,-0.42631 -0.718,-0.20194 -1.54819,-0.20194 -0.98725,0 -1.45844,0.33656 -0.44875,0.33657 -0.44875,1.16676 0,0.58337 0.40388,0.91993 0.40387,0.31413 0.98725,0.58338 0.60581,0.24681 1.30137,0.49363 0.718,0.24681 1.30138,0.65068 0.60581,0.40388 1.00969,1.03213 0.40387,0.60581 0.40387,1.6155 0,0.718 -0.24681,1.34625 -0.22438,0.62825 -0.718,1.077 -0.49363,0.44875 -1.23406,0.69557 -0.71801,0.26925 -1.70526,0.26925 -1.27893,0 -2.17644,-0.24682 -0.8975,-0.24681 -1.50331,-0.58337 l 0.5385,-1.52575 q 0.51606,0.29168 1.34625,0.5385 0.83019,0.24681 1.68282,0.24681 0.96481,0 1.59306,-0.38144 0.62825,-0.38144 0.62825,-1.36869 z"
       style="fill:#444444;fill-opacity:1"
       id="path3515" />
    <path
       d="m 299.11579,149.17607 q 0.96481,-0.74044 1.75013,-1.03212 0.78531,-0.29169 1.436,-0.29169 0.62825,0 1.16675,0.20194 0.5385,0.1795 1.03213,0.42631 0.49362,0.22437 0.96481,0.42631 0.47119,0.1795 0.98725,0.1795 0.42631,0 0.87506,-0.1795 0.44875,-0.1795 0.96482,-0.62825 l 0.76287,1.36869 q -0.85262,0.58337 -1.54819,0.83019 -0.67312,0.22437 -1.23406,0.22437 -0.60581,0 -1.12188,-0.1795 -0.49362,-0.20194 -0.96481,-0.42631 -0.44875,-0.24681 -0.91994,-0.42631 -0.44875,-0.20194 -0.98725,-0.20194 -0.51606,0 -1.09944,0.24681 -0.58337,0.22438 -1.30137,0.80775 l -0.76288,-1.34625 z"
       style="fill:#444444;fill-opacity:1"
       id="path3517" />
    <path
       d="m 318.1975,155.61564 3.14125,0 0,-10.85976 0.22438,-1.32381 -0.8975,1.05456 -2.46813,1.77256 -0.85263,-1.14431 4.93626,-3.81438 0.80775,0 0,14.31514 3.07394,0 0,1.66038 -7.96532,0 0,-1.66038 z"
       style="fill:#444444;fill-opacity:1"
       id="path3519" />
    <path
       d="m 329.10038,156.24389 q 0,-0.60581 0.33657,-0.94238 0.359,-0.359 0.94237,-0.359 0.60582,0 0.96482,0.359 0.359,0.33657 0.359,0.94238 0,0.58338 -0.359,0.94238 -0.359,0.359 -0.96482,0.359 -0.58337,0 -0.94237,-0.359 -0.33657,-0.359 -0.33657,-0.94238 z"
       style="fill:#444444;fill-opacity:1"
       id="path3521" />
    <path
       d="m 342.82864,145.13732 q 0,1.18919 -0.44875,2.44569 -0.42632,1.23406 -1.14432,2.49056 -0.69556,1.2565 -1.57062,2.46813 -0.87507,1.18919 -1.75013,2.26619 l -1.09944,0.96481 0,0.0898 1.436,-0.24681 4.89138,0 0,1.66038 -8.93013,0 0,-0.65069 q 0.49362,-0.51606 1.18919,-1.27894 0.69556,-0.76288 1.436,-1.68281 0.76287,-0.94238 1.48088,-1.97451 0.74043,-1.05456 1.32381,-2.13156 0.60581,-1.077 0.96481,-2.13157 0.359,-1.05456 0.359,-1.99693 0,-1.09944 -0.62825,-1.81744 -0.62825,-0.74044 -1.90719,-0.74044 -0.85262,0 -1.66037,0.359 -0.80775,0.33656 -1.39113,0.78531 l -0.74044,-1.27894 q 0.78532,-0.67312 1.86232,-1.05456 1.077,-0.38144 2.31106,-0.38144 0.96481,0 1.70525,0.29169 0.74044,0.26925 1.2565,0.78531 0.51607,0.51607 0.78532,1.23407 0.26925,0.69556 0.26925,1.52575 z"
       style="fill:#444444;fill-opacity:1"
       id="path3523" />
    <path
       d="m 362.42781,145.15975 q 0,0.56094 -0.1795,1.14432 -0.1795,0.58337 -0.5385,1.09944 -0.359,0.49362 -0.91994,0.87506 -0.56094,0.38144 -1.32381,0.58338 l 0,0.0897 q 0.67312,0.11218 1.27894,0.38143 0.62825,0.26925 1.09943,0.74044 0.47119,0.47119 0.76288,1.14432 0.29169,0.67312 0.29169,1.59306 0,1.21163 -0.51607,2.10913 -0.49362,0.87506 -1.32381,1.436 -0.80775,0.56094 -1.86231,0.83019 -1.05457,0.26925 -2.15401,0.26925 -0.38143,0 -0.8975,0 -0.51606,0 -1.077,-0.0449 -0.56094,-0.0224 -1.12187,-0.0898 -0.56094,-0.0449 -0.98725,-0.15706 l 0,-15.45945 q 0.83018,-0.13463 1.92962,-0.22438 1.09944,-0.0897 2.40082,-0.0897 0.87506,0 1.77256,0.15706 0.91994,0.13463 1.66038,0.56094 0.74044,0.40388 1.21162,1.14432 0.49363,0.74043 0.49363,1.90718 z m -5.20551,10.68026 q 0.71801,0 1.39113,-0.15706 0.67313,-0.1795 1.18919,-0.5385 0.51606,-0.38144 0.80775,-0.91994 0.31413,-0.5385 0.31413,-1.27894 0,-0.91993 -0.38144,-1.48087 -0.359,-0.56094 -0.96482,-0.87507 -0.58337,-0.31412 -1.32381,-0.42631 -0.74044,-0.11219 -1.48088,-0.11219 l -1.95206,0 0,5.63182 q 0.15706,0.0449 0.44875,0.0673 0.29169,0.0224 0.62825,0.0449 0.33656,0.0224 0.69556,0.0449 0.359,0 0.62825,0 z m -1.23406,-7.3595 q 0.38144,0 0.91994,-0.0224 0.5385,-0.0224 0.8975,-0.0673 0.5385,-0.1795 1.00969,-0.42631 0.47119,-0.26926 0.83019,-0.60582 0.38144,-0.359 0.58337,-0.80775 0.22438,-0.47119 0.22438,-1.00969 0,-0.74044 -0.29169,-1.21162 -0.26925,-0.49363 -0.74044,-0.78532 -0.47119,-0.29168 -1.077,-0.40387 -0.60581,-0.13463 -1.23406,-0.13463 -0.74044,0 -1.36869,0.0449 -0.60581,0.0224 -0.91994,0.0897 l 0,5.34013 1.16675,0 z"
       style="fill:#444444;fill-opacity:1"
       id="path3525" />
    <path
       d="m 366.26428,146.05726 1.795,0 0,11.21876 -1.795,0 0,-11.21876 z m -0.38144,-3.41051 q 0,-0.51606 0.33656,-0.87506 0.359,-0.38144 0.8975,-0.38144 0.5385,0 0.91994,0.38144 0.38144,0.359 0.38144,0.87506 0,0.51607 -0.38144,0.85263 -0.38144,0.33656 -0.91994,0.33656 -0.5385,0 -0.8975,-0.33656 -0.33656,-0.33656 -0.33656,-0.85263 z"
       style="fill:#444444;fill-opacity:1"
       id="path3527" />
    <path
       d="m 373.88356,154.5162 q 0,0.78531 0.26925,1.12188 0.26925,0.33656 0.76288,0.33656 0.29169,0 0.62825,-0.0449 0.33656,-0.0449 0.76288,-0.20193 l 0.20193,1.41356 q -0.359,0.1795 -1.00968,0.29169 -0.62826,0.11219 -1.09944,0.11219 -1.00969,0 -1.66038,-0.56094 -0.65069,-0.58338 -0.65069,-1.95207 l 0,-13.46251 1.795,0 0,12.94645 z"
       style="fill:#444444;fill-opacity:1"
       id="path3529" />
    <path
       d="m 380.45705,154.5162 q 0,0.78531 0.26925,1.12188 0.26925,0.33656 0.76288,0.33656 0.29168,0 0.62825,-0.0449 0.33656,-0.0449 0.76287,-0.20193 l 0.20194,1.41356 q -0.359,0.1795 -1.00969,0.29169 -0.62825,0.11219 -1.09944,0.11219 -1.00969,0 -1.66037,-0.56094 -0.65069,-0.58338 -0.65069,-1.95207 l 0,-13.46251 1.795,0 0,12.94645 z"
       style="fill:#444444;fill-opacity:1"
       id="path3531" />
    <path
       d="m 385.41504,146.05726 1.795,0 0,11.21876 -1.795,0 0,-11.21876 z m -0.38144,-3.41051 q 0,-0.51606 0.33656,-0.87506 0.359,-0.38144 0.8975,-0.38144 0.5385,0 0.91994,0.38144 0.38144,0.359 0.38144,0.87506 0,0.51607 -0.38144,0.85263 -0.38144,0.33656 -0.91994,0.33656 -0.5385,0 -0.8975,-0.33656 -0.33656,-0.33656 -0.33656,-0.85263 z"
       style="fill:#444444;fill-opacity:1"
       id="path3533" />
    <path
       d="m 390.40916,151.66664 q 0,-2.84957 1.2565,-4.35288 1.27894,-1.52575 3.65732,-1.52575 1.2565,0 2.17644,0.42631 0.94237,0.40387 1.54819,1.18919 0.60581,0.76287 0.8975,1.86231 0.29169,1.077 0.29169,2.40082 0,2.84956 -1.27894,4.37531 -1.2565,1.50332 -3.63488,1.50332 -1.2565,0 -2.19888,-0.40388 -0.91994,-0.42631 -1.52575,-1.18919 -0.60581,-0.78531 -0.8975,-1.86231 -0.29169,-1.09944 -0.29169,-2.42325 z m 1.86232,0 q 0,0.85262 0.15706,1.63794 0.1795,0.78531 0.5385,1.36868 0.359,0.58338 0.94237,0.94238 0.58338,0.359 1.41357,0.359 3.0515,0.0224 3.0515,-4.308 0,-0.87507 -0.1795,-1.66038 -0.15706,-0.78531 -0.51606,-1.36869 -0.359,-0.58337 -0.94238,-0.91994 -0.58337,-0.359 -1.41356,-0.359 -3.0515,-0.0224 -3.0515,4.30801 z"
       style="fill:#444444;fill-opacity:1"
       id="path3535" />
    <path
       d="m 410.24742,157.27602 0,-6.3947 q 0,-1.75012 -0.51606,-2.62519 -0.49362,-0.8975 -1.83988,-0.8975 -1.18918,0 -1.9745,0.65069 -0.76287,0.62825 -1.077,1.59306 l 0,7.67364 -1.795,0 0,-11.21876 1.2565,0 0.33656,1.36868 0.0898,0 q 0.5385,-0.718 1.43601,-1.16675 0.91993,-0.47118 2.17644,-0.47118 0.91993,0 1.6155,0.22437 0.69556,0.20194 1.14431,0.74044 0.47119,0.5385 0.69556,1.45844 0.24682,0.8975 0.24682,2.28862 l 0,6.77614 -1.79501,0 z"
       style="fill:#444444;fill-opacity:1"
       id="path3537" />
  </g>
  <g
     style="font-style:normal;font-variant:normal;font-weight:normal;font-stretch:normal;font-size:22.43752098px;line-height:125%;font-family:'PT Sans';-inkscape-font-specification:'PT Sans';text-align:start;letter-spacing:0px;word-spacing:0px;text-anchor:start;fill:#000000;fill-opacity:1;stroke:none"
     id="text4809">
    <path
       d="m 119.62333,201.71343 -7.53901,0 0,7.20245 -1.86231,0 0,-15.70627 1.86231,0 0,6.84345 7.53901,0 0,-6.84345 1.86231,0 0,15.70627 -1.86231,0 0,-7.20245 z"
       style="fill:#5591cd;fill-opacity:1"
       id="path3438" />
    <path
       d="m 126.73322,197.69712 0,6.39469 q 0,0.87506 0.0897,1.54819 0.11219,0.65069 0.359,1.09944 0.24681,0.42631 0.67313,0.65069 0.42631,0.22437 1.077,0.22437 0.60581,0 1.077,-0.1795 0.47119,-0.20194 0.83019,-0.5385 0.38143,-0.33656 0.65068,-0.76287 0.29169,-0.44875 0.47119,-0.94238 l 0,-7.49413 1.795,0 0,8.03263 q 0,0.80775 0.0449,1.68281 0.0673,0.85263 0.20194,1.50332 l -1.23407,0 -0.44875,-1.77257 -0.11219,0 q -0.51606,0.87507 -1.39112,1.45844 -0.87506,0.58338 -2.22132,0.58338 -0.8975,0 -1.59306,-0.22438 -0.67313,-0.20193 -1.14431,-0.74043 -0.44875,-0.53851 -0.69557,-1.43601 -0.22437,-0.91993 -0.22437,-2.31106 l 0,-6.77613 1.795,0 z"
       style="fill:#5591cd;fill-opacity:1"
       id="path3440" />
    <path
       d="m 137.21295,193.20961 1.795,0 0,5.58695 0.0898,0 q 0.51606,-0.65069 1.30137,-1.00969 0.80775,-0.359 1.75013,-0.359 2.17644,0 3.25344,1.39112 1.09944,1.39113 1.09944,4.30801 0,2.93931 -1.436,4.46506 -1.436,1.52576 -4.03876,1.52576 -1.2565,0 -2.28862,-0.26925 -1.00969,-0.26925 -1.52575,-0.58338 l 0,-15.05558 z m 4.62212,5.78888 q -1.12187,0 -1.81743,0.62825 -0.69557,0.62826 -1.00969,1.77257 l 0,5.65425 q 0.42631,0.24682 1.03212,0.38144 0.60582,0.11219 1.2565,0.11219 1.52576,0 2.42326,-1.077 0.91993,-1.077 0.91993,-3.36563 0,-0.87506 -0.15706,-1.63794 -0.15706,-0.76287 -0.49362,-1.30137 -0.33657,-0.53851 -0.87507,-0.85263 -0.51606,-0.31413 -1.27894,-0.31413 z"
       style="fill:#5591cd;fill-opacity:1"
       id="path3442" />
    <path
       d="m 155.49146,193.36668 q 0.85263,-0.15707 1.95206,-0.24682 1.12188,-0.0897 2.04182,-0.0897 1.03212,0 1.95206,0.22438 0.94238,0.22437 1.63794,0.74044 0.718,0.51606 1.14432,1.34625 0.42631,0.83019 0.42631,2.01937 0,1.83988 -1.00969,2.9842 -1.00969,1.14431 -2.55788,1.52575 l 1.077,0.83018 3.90413,6.2152 -2.17644,0 -4.33044,-6.77613 -2.19888,-0.33657 0,7.1127 -1.86231,0 0,-15.5492 z m 4.03875,1.27893 q -0.29168,0 -0.60581,0 -0.31412,0 -0.60581,0.0224 -0.29169,0.0224 -0.56094,0.0449 -0.24681,0.0224 -0.40388,0.0673 l 0,5.78888 1.75013,0 q 1.54819,0 2.55788,-0.76288 1.00969,-0.76287 1.00969,-2.37837 0,-1.21163 -0.83019,-1.99694 -0.83019,-0.78532 -2.31107,-0.78532 z"
       style="fill:#5591cd;fill-opacity:1"
       id="path3444" />
    <path
       d="m 175.77217,208.01838 q -0.67312,0.5385 -1.70525,0.85262 -1.00969,0.31413 -2.154,0.31413 -1.27894,0 -2.22131,-0.40388 -0.94238,-0.42631 -1.54819,-1.18919 -0.60582,-0.78531 -0.8975,-1.86231 -0.29169,-1.077 -0.29169,-2.42325 0,-2.872 1.27894,-4.37532 1.27894,-1.50331 3.65731,-1.50331 0.76288,0 1.52575,0.1795 0.76288,0.15706 1.36869,0.62825 0.60582,0.47119 0.98725,1.34625 0.38144,0.85263 0.38144,2.26619 0,0.74044 -0.13462,1.63794 l -7.20245,0 q 0,0.98725 0.20194,1.75012 0.20194,0.76288 0.62825,1.30138 0.42631,0.51606 1.09944,0.80775 0.69556,0.26925 1.68281,0.26925 0.76288,0 1.52575,-0.26925 0.76288,-0.26925 1.14432,-0.62825 l 0.67312,1.30138 z m -3.85925,-9.01989 q -1.32381,0 -2.13156,0.69557 -0.78532,0.69556 -0.94238,2.37837 l 5.56451,0 q 0,-1.70525 -0.65069,-2.37837 -0.65069,-0.69557 -1.83988,-0.69557 z"
       style="fill:#5591cd;fill-opacity:1"
       id="path3446" />
    <path
       d="m 178.97653,197.69712 1.23406,0 0.33657,1.34625 0.0898,0 q 0.51606,-0.78531 1.32381,-1.18919 0.83019,-0.42631 1.88475,-0.42631 2.24375,0 3.34319,1.32381 1.09944,1.32382 1.09944,4.33044 0,1.41357 -0.38144,2.55788 -0.359,1.12188 -1.03212,1.90719 -0.67313,0.78531 -1.63794,1.21163 -0.94238,0.42631 -2.10913,0.42631 -0.83019,0 -1.32381,-0.11219 -0.47119,-0.0897 -1.03213,-0.33656 l 0,4.667 -1.795,0 0,-15.70626 z m 4.53238,1.30137 q -1.14431,0 -1.81744,0.60582 -0.65069,0.58337 -0.91994,1.795 l 0,5.5645 q 0.40388,0.31413 0.91994,0.49363 0.51606,0.15706 1.36869,0.15706 1.54819,0 2.44569,-1.14431 0.91994,-1.16675 0.91994,-3.4105 0,-0.91994 -0.15707,-1.66038 -0.15706,-0.76288 -0.51606,-1.27894 -0.33656,-0.5385 -0.8975,-0.83019 -0.5385,-0.29169 -1.34625,-0.29169 z"
       style="fill:#5591cd;fill-opacity:1"
       id="path3448" />
    <path
       d="m 190.48733,203.3065 q 0,-2.84957 1.2565,-4.35288 1.27894,-1.52575 3.65732,-1.52575 1.2565,0 2.17644,0.42631 0.94237,0.40388 1.54819,1.18919 0.60581,0.76287 0.8975,1.86231 0.29169,1.077 0.29169,2.40082 0,2.84956 -1.27894,4.37531 -1.2565,1.50332 -3.63488,1.50332 -1.2565,0 -2.19888,-0.40388 -0.91994,-0.42631 -1.52575,-1.18919 -0.60581,-0.78531 -0.8975,-1.86231 -0.29169,-1.09944 -0.29169,-2.42325 z m 1.86232,0 q 0,0.85262 0.15706,1.63794 0.1795,0.78531 0.5385,1.36869 0.359,0.58337 0.94238,0.94237 0.58337,0.359 1.41356,0.359 3.0515,0.0224 3.0515,-4.308 0,-0.87507 -0.1795,-1.66038 -0.15706,-0.78531 -0.51606,-1.36869 -0.359,-0.58337 -0.94238,-0.91994 -0.58337,-0.359 -1.41356,-0.359 -3.0515,-0.0224 -3.0515,4.30801 z"
       style="fill:#5591cd;fill-opacity:1"
       id="path3450" />
    <path
       d="m 208.05942,205.86438 q 0,-0.67313 -0.40387,-1.05457 -0.40388,-0.38144 -1.00969,-0.62825 -0.58338,-0.26925 -1.30138,-0.49362 -0.69556,-0.24682 -1.30138,-0.60582 -0.58337,-0.38144 -0.98725,-0.96481 -0.40387,-0.58338 -0.40387,-1.57063 0,-1.6155 0.91994,-2.35594 0.91994,-0.76287 2.55787,-0.76287 1.21163,0 2.01938,0.22437 0.83019,0.20194 1.436,0.49363 l -0.42631,1.48087 q -0.51606,-0.24681 -1.2565,-0.42631 -0.718,-0.20194 -1.54819,-0.20194 -0.98725,0 -1.45844,0.33657 -0.44875,0.33656 -0.44875,1.16675 0,0.58337 0.40388,0.91994 0.40387,0.31412 0.98725,0.58337 0.60581,0.24681 1.30137,0.49363 0.718,0.24681 1.30138,0.65069 0.60581,0.40387 1.00969,1.03212 0.40387,0.60581 0.40387,1.6155 0,0.718 -0.24681,1.34625 -0.22438,0.62825 -0.718,1.07701 -0.49363,0.44875 -1.23406,0.69556 -0.71801,0.26925 -1.70526,0.26925 -1.27893,0 -2.17644,-0.24681 -0.8975,-0.24682 -1.50331,-0.58338 l 0.5385,-1.52575 q 0.51606,0.29169 1.34625,0.5385 0.83019,0.24681 1.68282,0.24681 0.96481,0 1.59306,-0.38144 0.62825,-0.38143 0.62825,-1.36868 z"
       style="fill:#5591cd;fill-opacity:1"
       id="path3452" />
    <path
       d="m 212.97043,197.69712 1.795,0 0,11.21876 -1.795,0 0,-11.21876 z m -0.38144,-3.41051 q 0,-0.51606 0.33657,-0.87506 0.359,-0.38144 0.8975,-0.38144 0.5385,0 0.91994,0.38144 0.38143,0.359 0.38143,0.87506 0,0.51607 -0.38143,0.85263 -0.38144,0.33656 -0.91994,0.33656 -0.5385,0 -0.8975,-0.33656 -0.33657,-0.33656 -0.33657,-0.85263 z"
       style="fill:#5591cd;fill-opacity:1"
       id="path3454" />
    <path
       d="m 217.1119,197.69712 1.75013,0 0,-2.22132 1.795,-0.51606 0,2.73738 3.0515,0 0,1.57062 -3.0515,0 0,6.2152 q 0,1.16675 0.29169,1.66037 0.29169,0.47119 0.98725,0.47119 0.58337,0 0.98725,-0.11219 0.40388,-0.13462 0.8975,-0.33656 l 0.40388,1.36869 q -0.60582,0.29169 -1.32382,0.47119 -0.718,0.1795 -1.54819,0.1795 -1.36869,0 -1.92962,-0.76288 -0.56094,-0.78531 -0.56094,-2.60275 l 0,-6.55176 -1.75013,0 0,-1.57062 z"
       style="fill:#5591cd;fill-opacity:1"
       id="path3456" />
    <path
       d="m 225.32684,203.3065 q 0,-2.84957 1.2565,-4.35288 1.27894,-1.52575 3.65732,-1.52575 1.2565,0 2.17644,0.42631 0.94237,0.40388 1.54819,1.18919 0.60581,0.76287 0.8975,1.86231 0.29168,1.077 0.29168,2.40082 0,2.84956 -1.27893,4.37531 -1.25651,1.50332 -3.63488,1.50332 -1.2565,0 -2.19888,-0.40388 -0.91994,-0.42631 -1.52575,-1.18919 -0.60581,-0.78531 -0.8975,-1.86231 -0.29169,-1.09944 -0.29169,-2.42325 z m 1.86231,0 q 0,0.85262 0.15707,1.63794 0.1795,0.78531 0.5385,1.36869 0.359,0.58337 0.94237,0.94237 0.58338,0.359 1.41357,0.359 3.0515,0.0224 3.0515,-4.308 0,-0.87507 -0.1795,-1.66038 -0.15706,-0.78531 -0.51606,-1.36869 -0.359,-0.58337 -0.94238,-0.91994 -0.58337,-0.359 -1.41356,-0.359 -3.05151,-0.0224 -3.05151,4.30801 z"
       style="fill:#5591cd;fill-opacity:1"
       id="path3458" />
    <path
       d="m 243.25793,199.42481 q -0.67313,-0.22438 -1.27894,-0.22438 -0.96481,0 -1.52575,0.5385 -0.56094,0.51607 -0.69556,1.32382 l 0,7.85313 -1.79501,0 0,-11.21876 1.25651,0 0.33656,1.36869 0.0898,0 q 0.42631,-0.76288 1.00969,-1.16675 0.60581,-0.42632 1.52575,-0.42632 0.65069,0 1.45844,0.22438 l -0.38144,1.72769 z"
       style="fill:#5591cd;fill-opacity:1"
       id="path3460" />
    <path
       d="m 245.96936,197.69712 1.795,0 0,11.21876 -1.795,0 0,-11.21876 z m -0.38144,-3.41051 q 0,-0.51606 0.33656,-0.87506 0.359,-0.38144 0.8975,-0.38144 0.5385,0 0.91994,0.38144 0.38144,0.359 0.38144,0.87506 0,0.51607 -0.38144,0.85263 -0.38144,0.33656 -0.91994,0.33656 -0.5385,0 -0.8975,-0.33656 -0.33656,-0.33656 -0.33656,-0.85263 z"
       style="fill:#5591cd;fill-opacity:1"
       id="path3462" />
    <path
       d="m 259.78141,208.01838 q -0.67312,0.5385 -1.70525,0.85262 -1.00969,0.31413 -2.154,0.31413 -1.27894,0 -2.22131,-0.40388 -0.94238,-0.42631 -1.54819,-1.18919 -0.60582,-0.78531 -0.8975,-1.86231 -0.29169,-1.077 -0.29169,-2.42325 0,-2.872 1.27894,-4.37532 1.27893,-1.50331 3.65731,-1.50331 0.76288,0 1.52575,0.1795 0.76288,0.15706 1.36869,0.62825 0.60582,0.47119 0.98725,1.34625 0.38144,0.85263 0.38144,2.26619 0,0.74044 -0.13462,1.63794 l -7.20245,0 q 0,0.98725 0.20194,1.75012 0.20194,0.76288 0.62825,1.30138 0.42631,0.51606 1.09944,0.80775 0.69556,0.26925 1.68281,0.26925 0.76288,0 1.52575,-0.26925 0.76288,-0.26925 1.14432,-0.62825 l 0.67312,1.30138 z m -3.85925,-9.01989 q -1.32381,0 -2.13156,0.69557 -0.78532,0.69556 -0.94238,2.37837 l 5.5645,0 q 0,-1.70525 -0.65068,-2.37837 -0.65069,-0.69557 -1.83988,-0.69557 z"
       style="fill:#5591cd;fill-opacity:1"
       id="path3464" />
    <path
       d="m 267.92202,205.86438 q 0,-0.67313 -0.40388,-1.05457 -0.40388,-0.38144 -1.00969,-0.62825 -0.58337,-0.26925 -1.30137,-0.49362 -0.69557,-0.24682 -1.30138,-0.60582 -0.58338,-0.38144 -0.98725,-0.96481 -0.40388,-0.58338 -0.40388,-1.57063 0,-1.6155 0.91994,-2.35594 0.91994,-0.76287 2.55788,-0.76287 1.21162,0 2.01938,0.22437 0.83018,0.20194 1.436,0.49363 l -0.42632,1.48087 q -0.51606,-0.24681 -1.2565,-0.42631 -0.718,-0.20194 -1.54819,-0.20194 -0.98725,0 -1.45843,0.33657 -0.44876,0.33656 -0.44876,1.16675 0,0.58337 0.40388,0.91994 0.40388,0.31412 0.98725,0.58337 0.60581,0.24681 1.30138,0.49363 0.718,0.24681 1.30137,0.65069 0.60582,0.40387 1.00969,1.03212 0.40388,0.60581 0.40388,1.6155 0,0.718 -0.24682,1.34625 -0.22437,0.62825 -0.718,1.07701 -0.49362,0.44875 -1.23406,0.69556 -0.718,0.26925 -1.70525,0.26925 -1.27894,0 -2.17644,-0.24681 -0.8975,-0.24682 -1.50331,-0.58338 l 0.5385,-1.52575 q 0.51606,0.29169 1.34625,0.5385 0.83019,0.24681 1.68281,0.24681 0.96481,0 1.59307,-0.38144 0.62825,-0.38143 0.62825,-1.36868 z"
       style="fill:#5591cd;fill-opacity:1"
       id="path3466" />
    <path
       d="m 277.42325,200.81593 q 0.96482,-0.74043 1.75013,-1.03212 0.78531,-0.29169 1.436,-0.29169 0.62825,0 1.16675,0.20194 0.5385,0.1795 1.03213,0.42631 0.49363,0.22438 0.96481,0.42631 0.47119,0.1795 0.98725,0.1795 0.42632,0 0.87507,-0.1795 0.44875,-0.1795 0.96481,-0.62825 l 0.76288,1.36869 q -0.85263,0.58338 -1.54819,0.83019 -0.67313,0.22437 -1.23407,0.22437 -0.60581,0 -1.12187,-0.1795 -0.49363,-0.20193 -0.96482,-0.42631 -0.44875,-0.24681 -0.91993,-0.42631 -0.44875,-0.20194 -0.98725,-0.20194 -0.51607,0 -1.09944,0.24681 -0.58338,0.22438 -1.30138,0.80775 l -0.76288,-1.34625 z"
       style="fill:#5591cd;fill-opacity:1"
       id="path3468" />
    <path
       d="m 304.08885,196.77718 q 0,1.18919 -0.44876,2.44569 -0.42631,1.23406 -1.14431,2.49056 -0.69556,1.25651 -1.57063,2.46813 -0.87506,1.18919 -1.75012,2.26619 l -1.09944,0.96481 0,0.0897 1.436,-0.24681 4.89138,0 0,1.66038 -8.93013,0 0,-0.65069 q 0.49362,-0.51606 1.18919,-1.27894 0.69556,-0.76287 1.436,-1.68281 0.76287,-0.94238 1.48087,-1.9745 0.74044,-1.05457 1.32382,-2.13157 0.60581,-1.077 0.96481,-2.13156 0.359,-1.05457 0.359,-1.99694 0,-1.09944 -0.62825,-1.81744 -0.62825,-0.74044 -1.90719,-0.74044 -0.85262,0 -1.66038,0.359 -0.80775,0.33656 -1.39112,0.78531 l -0.74044,-1.27894 q 0.78531,-0.67312 1.86231,-1.05456 1.07701,-0.38144 2.31107,-0.38144 0.96481,0 1.70525,0.29169 0.74044,0.26925 1.2565,0.78531 0.51606,0.51607 0.78531,1.23407 0.26926,0.69556 0.26926,1.52575 z"
       style="fill:#5591cd;fill-opacity:1"
       id="path3470" />
    <path
       d="m 318.06567,204.09181 -2.64763,0 0,4.82407 -1.75012,0 0,-4.82407 -6.91076,0 0,-0.74044 7.44926,-10.38857 1.21162,0 0,9.55838 2.64763,0 0,1.57063 z m -4.39775,-6.462 0.22437,-1.83988 -0.0673,0 -0.78531,1.52575 -3.16369,4.28557 -1.077,1.09943 1.57062,-0.1795 3.29832,0 0,-4.89137 z"
       style="fill:#5591cd;fill-opacity:1"
       id="path3472" />
    <path
       d="m 319.49992,201.06275 q 0,-4.03876 1.30138,-6.08057 1.32381,-2.04182 3.83682,-2.04182 2.71494,0 3.92656,2.01938 1.23407,1.99694 1.23407,6.10301 0,4.03875 -1.32382,6.08056 -1.30137,2.04182 -3.83681,2.04182 -2.67007,0 -3.90413,-2.13157 -1.23407,-2.13156 -1.23407,-5.99081 z m 1.86232,0 q 0,1.45843 0.1795,2.67006 0.20194,1.18919 0.60581,2.06425 0.40388,0.85263 1.00969,1.34625 0.62825,0.47119 1.48088,0.47119 1.70525,0 2.49056,-1.57062 0.80775,-1.59307 0.80775,-4.98113 0,-1.43601 -0.1795,-2.64763 -0.15706,-1.21163 -0.56094,-2.08669 -0.38143,-0.87506 -1.00968,-1.34625 -0.62826,-0.47119 -1.54819,-0.47119 -1.68282,0 -2.49057,1.59306 -0.78531,1.59307 -0.78531,4.9587 z"
       style="fill:#5591cd;fill-opacity:1"
       id="path3474" />
    <path
       d="m 331.86125,207.95106 q 0,-0.5385 0.359,-0.87506 0.359,-0.33656 0.91994,-0.33656 0.69556,0 1.12187,0.49362 0.44875,0.49363 0.44875,1.43601 0,0.80775 -0.22437,1.41356 -0.22438,0.60581 -0.58338,1.03213 -0.359,0.44875 -0.78531,0.718 -0.42631,0.29168 -0.85263,0.42631 l -0.56093,-0.87506 q 0.80775,-0.31413 1.18918,-0.98726 0.40388,-0.65068 0.40388,-1.32381 -0.20194,0.0673 -0.38144,0.0673 -0.44875,0 -0.76287,-0.29168 -0.29169,-0.31413 -0.29169,-0.89751 z"
       style="fill:#5591cd;fill-opacity:1"
       id="path3476" />
    <path
       d="m 336.10895,201.06275 q 0,-4.03876 1.30137,-6.08057 1.32382,-2.04182 3.83682,-2.04182 2.71494,0 3.92657,2.01938 1.23406,1.99694 1.23406,6.10301 0,4.03875 -1.32381,6.08056 -1.30138,2.04182 -3.83682,2.04182 -2.67006,0 -3.90413,-2.13157 -1.23406,-2.13156 -1.23406,-5.99081 z m 1.86231,0 q 0,1.45843 0.1795,2.67006 0.20194,1.18919 0.60582,2.06425 0.40387,0.85263 1.00968,1.34625 0.62825,0.47119 1.48088,0.47119 1.70525,0 2.49057,-1.57062 0.80775,-1.59307 0.80775,-4.98113 0,-1.43601 -0.1795,-2.64763 -0.15707,-1.21163 -0.56094,-2.08669 -0.38144,-0.87506 -1.00969,-1.34625 -0.62825,-0.47119 -1.54819,-0.47119 -1.68281,0 -2.49056,1.59306 -0.78532,1.59307 -0.78532,4.9587 z"
       style="fill:#5591cd;fill-opacity:1"
       id="path3478" />
    <path
       d="m 348.33565,201.06275 q 0,-4.03876 1.30137,-6.08057 1.32382,-2.04182 3.83682,-2.04182 2.71494,0 3.92657,2.01938 1.23406,1.99694 1.23406,6.10301 0,4.03875 -1.32381,6.08056 -1.30138,2.04182 -3.83682,2.04182 -2.67006,0 -3.90413,-2.13157 -1.23406,-2.13156 -1.23406,-5.99081 z m 1.86231,0 q 0,1.45843 0.1795,2.67006 0.20194,1.18919 0.60582,2.06425 0.40387,0.85263 1.00968,1.34625 0.62825,0.47119 1.48088,0.47119 1.70525,0 2.49056,-1.57062 0.80776,-1.59307 0.80776,-4.98113 0,-1.43601 -0.1795,-2.64763 -0.15707,-1.21163 -0.56094,-2.08669 -0.38144,-0.87506 -1.00969,-1.34625 -0.62825,-0.47119 -1.54819,-0.47119 -1.68281,0 -2.49056,1.59306 -0.78532,1.59307 -0.78532,4.9587 z"
       style="fill:#5591cd;fill-opacity:1"
       id="path3480" />
    <path
       d="m 360.56233,201.06275 q 0,-4.03876 1.30138,-6.08057 1.32381,-2.04182 3.83681,-2.04182 2.71494,0 3.92657,2.01938 1.23406,1.99694 1.23406,6.10301 0,4.03875 -1.32381,6.08056 -1.30138,2.04182 -3.83682,2.04182 -2.67006,0 -3.90412,-2.13157 -1.23407,-2.13156 -1.23407,-5.99081 z m 1.86232,0 q 0,1.45843 0.1795,2.67006 0.20193,1.18919 0.60581,2.06425 0.40388,0.85263 1.00969,1.34625 0.62825,0.47119 1.48087,0.47119 1.70526,0 2.49057,-1.57062 0.80775,-1.59307 0.80775,-4.98113 0,-1.43601 -0.1795,-2.64763 -0.15706,-1.21163 -0.56094,-2.08669 -0.38144,-0.87506 -1.00969,-1.34625 -0.62825,-0.47119 -1.54819,-0.47119 -1.68281,0 -2.49056,1.59306 -0.78531,1.59307 -0.78531,4.9587 z"
       style="fill:#5591cd;fill-opacity:1"
       id="path3482" />
  </g>
  <g
     style="font-style:normal;font-variant:normal;font-weight:normal;font-stretch:normal;font-size:22.43752098px;line-height:125%;font-family:'PT Sans';-inkscape-font-specification:'PT Sans';text-align:start;letter-spacing:0px;word-spacing:0px;text-anchor:start;fill:#000000;fill-opacity:1;stroke:none"
     id="text4813">
    <path
       d="m 121.86706,249.87545 0.22438,-2.35594 -0.11219,0 -0.85262,2.154 -4.08363,7.09026 -0.56094,0 -4.33044,-7.1127 -0.80775,-2.13156 -0.11219,0 0.31412,2.3335 0,10.56807 -1.75012,0 0,-15.70626 1.39112,0 4.91382,8.03263 0.74044,1.75013 0.0449,0 0.69557,-1.79501 4.68944,-7.98775 1.45844,0 0,15.70626 -1.86232,0 0,-10.54563 z"
       style="fill:#55cd91;fill-opacity:1"
       id="path3405" />
    <path
       d="m 135.5543,259.52358 q -0.67312,0.5385 -1.70525,0.85263 -1.00969,0.31412 -2.154,0.31412 -1.27894,0 -2.22131,-0.40387 -0.94238,-0.42632 -1.54819,-1.18919 -0.60582,-0.78532 -0.8975,-1.86232 -0.29169,-1.077 -0.29169,-2.42325 0,-2.872 1.27894,-4.37532 1.27893,-1.50331 3.65731,-1.50331 0.76288,0 1.52575,0.1795 0.76288,0.15706 1.36869,0.62825 0.60582,0.47119 0.98725,1.34625 0.38144,0.85263 0.38144,2.26619 0,0.74044 -0.13462,1.63794 l -7.20245,0 q 0,0.98725 0.20194,1.75013 0.20194,0.76287 0.62825,1.30137 0.42631,0.51607 1.09944,0.80776 0.69556,0.26925 1.68281,0.26925 0.76288,0 1.52575,-0.26925 0.76288,-0.26926 1.14432,-0.62826 l 0.67312,1.30138 z m -3.85925,-9.01988 q -1.32381,0 -2.13156,0.69556 -0.78532,0.69556 -0.94238,2.37838 l 5.5645,0 q 0,-1.70525 -0.65068,-2.37838 -0.65069,-0.69556 -1.83988,-0.69556 z"
       style="fill:#55cd91;fill-opacity:1"
       id="path3407" />
    <path
       d="m 146.68542,259.52358 q -0.67313,0.5385 -1.70526,0.85263 -1.00968,0.31412 -2.154,0.31412 -1.27894,0 -2.22131,-0.40387 -0.94238,-0.42632 -1.54819,-1.18919 -0.60581,-0.78532 -0.8975,-1.86232 -0.29169,-1.077 -0.29169,-2.42325 0,-2.872 1.27894,-4.37532 1.27894,-1.50331 3.65732,-1.50331 0.76287,0 1.52575,0.1795 0.76287,0.15706 1.36869,0.62825 0.60581,0.47119 0.98725,1.34625 0.38143,0.85263 0.38143,2.26619 0,0.74044 -0.13462,1.63794 l -7.20245,0 q 0,0.98725 0.20194,1.75013 0.20194,0.76287 0.62825,1.30137 0.42632,0.51607 1.09944,0.80776 0.69556,0.26925 1.68282,0.26925 0.76287,0 1.52575,-0.26925 0.76287,-0.26926 1.14431,-0.62826 l 0.67313,1.30138 z m -3.85926,-9.01988 q -1.32381,0 -2.13156,0.69556 -0.78531,0.69556 -0.94238,2.37838 l 5.56451,0 q 0,-1.70525 -0.65069,-2.37838 -0.65069,-0.69556 -1.83988,-0.69556 z"
       style="fill:#55cd91;fill-opacity:1"
       id="path3409" />
    <path
       d="m 148.4089,249.20232 1.75013,0 0,-2.22131 1.795,-0.51607 0,2.73738 3.0515,0 0,1.57063 -3.0515,0 0,6.21519 q 0,1.16675 0.29169,1.66038 0.29168,0.47119 0.98725,0.47119 0.58337,0 0.98725,-0.11219 0.40387,-0.13463 0.8975,-0.33657 l 0.40387,1.36869 q -0.60581,0.29169 -1.32381,0.47119 -0.718,0.1795 -1.54819,0.1795 -1.36869,0 -1.92963,-0.76287 -0.56093,-0.78532 -0.56093,-2.60276 l 0,-6.55175 -1.75013,0 0,-1.57063 z"
       style="fill:#55cd91;fill-opacity:1"
       id="path3411" />
    <path
       d="m 159.13053,249.20232 0,6.39469 q 0,0.87507 0.0898,1.54819 0.11219,0.65069 0.359,1.09944 0.24681,0.42631 0.67312,0.65069 0.42632,0.22438 1.07701,0.22438 0.60581,0 1.077,-0.1795 0.47118,-0.20194 0.83019,-0.53851 0.38143,-0.33656 0.65068,-0.76287 0.29169,-0.44875 0.47119,-0.94238 l 0,-7.49413 1.795,0 0,8.03263 q 0,0.80775 0.0449,1.68282 0.0673,0.85262 0.20194,1.50331 l -1.23407,0 -0.44875,-1.77256 -0.11219,0 q -0.51606,0.87506 -1.39112,1.45844 -0.87507,0.58337 -2.22132,0.58337 -0.8975,0 -1.59306,-0.22437 -0.67313,-0.20194 -1.14431,-0.74044 -0.44875,-0.5385 -0.69557,-1.436 -0.22437,-0.91994 -0.22437,-2.31107 l 0,-6.77613 1.795,0 z"
       style="fill:#55cd91;fill-opacity:1"
       id="path3413" />
    <path
       d="m 169.61025,249.20232 1.23407,0 0.33656,1.34625 0.0898,0 q 0.51606,-0.78531 1.32381,-1.18919 0.83019,-0.42631 1.88476,-0.42631 2.24375,0 3.34319,1.32381 1.09943,1.32382 1.09943,4.33045 0,1.41356 -0.38143,2.55787 -0.359,1.12188 -1.03213,1.90719 -0.67312,0.78532 -1.63794,1.21163 -0.94237,0.42631 -2.10912,0.42631 -0.83019,0 -1.32382,-0.11219 -0.47119,-0.0898 -1.03212,-0.33656 l 0,4.66701 -1.79501,0 0,-15.70627 z m 4.53238,1.30138 q -1.14431,0 -1.81744,0.60581 -0.65068,0.58338 -0.91993,1.795 l 0,5.56451 q 0.40387,0.31412 0.91993,0.49362 0.51607,0.15707 1.36869,0.15707 1.54819,0 2.44569,-1.14432 0.91994,-1.16675 0.91994,-3.4105 0,-0.91994 -0.15706,-1.66038 -0.15706,-0.76287 -0.51607,-1.27894 -0.33656,-0.5385 -0.8975,-0.83018 -0.5385,-0.29169 -1.34625,-0.29169 z"
       style="fill:#55cd91;fill-opacity:1"
       id="path3415" />
    <path
       d="m 193.22785,252.59039 5.27282,0 0,6.91075 q -0.359,0.26925 -0.87507,0.49363 -0.49362,0.22437 -1.077,0.38144 -0.56093,0.15706 -1.18919,0.22437 -0.60581,0.0898 -1.18918,0.0898 -1.50332,0 -2.75982,-0.47119 -1.2565,-0.49362 -2.17644,-1.48087 -0.91994,-1.00969 -1.436,-2.53544 -0.51606,-1.54819 -0.51606,-3.63488 0,-2.17644 0.62825,-3.72463 0.62825,-1.54819 1.63794,-2.513 1.00969,-0.98725 2.26619,-1.436 1.2565,-0.44875 2.513,-0.44875 1.34625,0 2.22131,0.15706 0.87507,0.13462 1.48088,0.38144 l -0.47119,1.63794 q -1.077,-0.51607 -3.07394,-0.51607 -0.94237,0 -1.88475,0.33657 -0.91994,0.31412 -1.66038,1.077 -0.74044,0.76287 -1.21162,1.99694 -0.47119,1.23406 -0.47119,3.0515 0,1.66038 0.38144,2.872 0.38143,1.21163 1.05456,2.01938 0.69556,0.78531 1.66038,1.18919 0.96481,0.38144 2.10912,0.38144 1.43601,0 2.44569,-0.56094 l 0,-4.37532 -3.67975,-0.44875 0,-1.05456 z"
       style="fill:#55cd91;fill-opacity:1"
       id="path3417" />
    <path
       d="m 206.76503,250.93001 q -0.67312,-0.22438 -1.27894,-0.22438 -0.96481,0 -1.52575,0.53851 -0.56094,0.51606 -0.69556,1.32381 l 0,7.85313 -1.795,0 0,-11.21876 1.2565,0 0.33656,1.36869 0.0898,0 q 0.42631,-0.76288 1.00969,-1.16675 0.60581,-0.42631 1.52575,-0.42631 0.65069,0 1.45844,0.22437 l -0.38144,1.72769 z"
       style="fill:#55cd91;fill-opacity:1"
       id="path3419" />
    <path
       d="m 208.46678,254.8117 q 0,-2.84956 1.2565,-4.35288 1.27894,-1.52575 3.65732,-1.52575 1.2565,0 2.17644,0.42631 0.94237,0.40388 1.54818,1.18919 0.60582,0.76288 0.89751,1.86232 0.29168,1.077 0.29168,2.40081 0,2.84957 -1.27894,4.37532 -1.2565,1.50331 -3.63487,1.50331 -1.25651,0 -2.19888,-0.40387 -0.91994,-0.42632 -1.52575,-1.18919 -0.60582,-0.78532 -0.8975,-1.86232 -0.29169,-1.09943 -0.29169,-2.42325 z m 1.86231,0 q 0,0.85263 0.15707,1.63794 0.1795,0.78531 0.5385,1.36869 0.359,0.58337 0.94237,0.94237 0.58338,0.35901 1.41357,0.35901 3.0515,0.0224 3.0515,-4.30801 0,-0.87506 -0.1795,-1.66038 -0.15706,-0.78531 -0.51606,-1.36868 -0.359,-0.58338 -0.94238,-0.91994 -0.58338,-0.359 -1.41356,-0.359 -3.05151,-0.0224 -3.05151,4.308 z"
       style="fill:#55cd91;fill-opacity:1"
       id="path3421" />
    <path
       d="m 222.71811,249.20232 0,6.39469 q 0,0.87507 0.0898,1.54819 0.11219,0.65069 0.359,1.09944 0.24682,0.42631 0.67313,0.65069 0.42631,0.22438 1.077,0.22438 0.60581,0 1.077,-0.1795 0.47119,-0.20194 0.83019,-0.53851 0.38144,-0.33656 0.65069,-0.76287 0.29169,-0.44875 0.47119,-0.94238 l 0,-7.49413 1.795,0 0,8.03263 q 0,0.80775 0.0449,1.68282 0.0673,0.85262 0.20194,1.50331 l -1.23406,0 -0.44875,-1.77256 -0.11219,0 q -0.51606,0.87506 -1.39113,1.45844 -0.87506,0.58337 -2.22131,0.58337 -0.8975,0 -1.59307,-0.22437 -0.67312,-0.20194 -1.14431,-0.74044 -0.44875,-0.5385 -0.69556,-1.436 -0.22438,-0.91994 -0.22438,-2.31107 l 0,-6.77613 1.795,0 z"
       style="fill:#55cd91;fill-opacity:1"
       id="path3423" />
    <path
       d="m 233.19784,249.20232 1.23406,0 0.33656,1.34625 0.0898,0 q 0.51606,-0.78531 1.32382,-1.18919 0.83018,-0.42631 1.88475,-0.42631 2.24375,0 3.34319,1.32381 1.09944,1.32382 1.09944,4.33045 0,1.41356 -0.38144,2.55787 -0.359,1.12188 -1.03213,1.90719 -0.67312,0.78532 -1.63794,1.21163 -0.94237,0.42631 -2.10912,0.42631 -0.83019,0 -1.32382,-0.11219 -0.47119,-0.0898 -1.03212,-0.33656 l 0,4.66701 -1.795,0 0,-15.70627 z m 4.53237,1.30138 q -1.14431,0 -1.81743,0.60581 -0.65069,0.58338 -0.91994,1.795 l 0,5.56451 q 0.40387,0.31412 0.91994,0.49362 0.51606,0.15707 1.36868,0.15707 1.54819,0 2.44569,-1.14432 0.91994,-1.16675 0.91994,-3.4105 0,-0.91994 -0.15706,-1.66038 -0.15706,-0.76287 -0.51606,-1.27894 -0.33657,-0.5385 -0.8975,-0.83018 -0.5385,-0.29169 -1.34626,-0.29169 z"
       style="fill:#55cd91;fill-opacity:1"
       id="path3425" />
    <path
       d="m 250.27314,257.36958 q 0,-0.67313 -0.40388,-1.05456 -0.40388,-0.38144 -1.00969,-0.62826 -0.58337,-0.26925 -1.30137,-0.49362 -0.69557,-0.24681 -1.30138,-0.60581 -0.58338,-0.38144 -0.98725,-0.96482 -0.40388,-0.58337 -0.40388,-1.57062 0,-1.61551 0.91994,-2.35594 0.91994,-0.76288 2.55788,-0.76288 1.21162,0 2.01938,0.22438 0.83018,0.20193 1.436,0.49362 l -0.42632,1.48088 q -0.51606,-0.24681 -1.2565,-0.42632 -0.718,-0.20193 -1.54819,-0.20193 -0.98725,0 -1.45843,0.33656 -0.44876,0.33656 -0.44876,1.16675 0,0.58338 0.40388,0.91994 0.40388,0.31412 0.98725,0.58338 0.60581,0.24681 1.30138,0.49362 0.718,0.24681 1.30137,0.65069 0.60582,0.40387 1.00969,1.03212 0.40388,0.60582 0.40388,1.61551 0,0.718 -0.24682,1.34625 -0.22437,0.62825 -0.718,1.077 -0.49362,0.44875 -1.23406,0.69556 -0.718,0.26925 -1.70525,0.26925 -1.27894,0 -2.17644,-0.24681 -0.8975,-0.24681 -1.50331,-0.58338 l 0.5385,-1.52575 q 0.51606,0.29169 1.34625,0.5385 0.83019,0.24682 1.68281,0.24682 0.96481,0 1.59307,-0.38144 0.62825,-0.38144 0.62825,-1.36869 z"
       style="fill:#55cd91;fill-opacity:1"
       id="path3427" />
    <path
       d="m 259.77437,252.32114 q 0.96482,-0.74044 1.75013,-1.03213 0.78531,-0.29169 1.436,-0.29169 0.62825,0 1.16675,0.20194 0.5385,0.1795 1.03213,0.42631 0.49363,0.22438 0.96481,0.42632 0.47119,0.1795 0.98725,0.1795 0.42632,0 0.87507,-0.1795 0.44875,-0.1795 0.96481,-0.62825 l 0.76288,1.36868 q -0.85263,0.58338 -1.54819,0.83019 -0.67313,0.22438 -1.23407,0.22438 -0.60581,0 -1.12187,-0.1795 -0.49363,-0.20194 -0.96482,-0.42632 -0.44875,-0.24681 -0.91993,-0.42631 -0.44875,-0.20194 -0.98725,-0.20194 -0.51607,0 -1.09944,0.24682 -0.58338,0.22437 -1.30138,0.80775 l -0.76288,-1.34625 z"
       style="fill:#55cd91;fill-opacity:1"
       id="path3429" />
    <path
       d="m 286.43997,248.28238 q 0,1.18919 -0.44876,2.44569 -0.42631,1.23407 -1.14431,2.49057 -0.69556,1.2565 -1.57063,2.46812 -0.87506,1.18919 -1.75012,2.26619 l -1.09944,0.96482 0,0.0897 1.436,-0.24682 4.89138,0 0,1.66038 -8.93013,0 0,-0.65069 q 0.49362,-0.51606 1.18919,-1.27894 0.69556,-0.76287 1.436,-1.68281 0.76287,-0.94238 1.48087,-1.9745 0.74044,-1.05456 1.32382,-2.13157 0.60581,-1.077 0.96481,-2.13156 0.359,-1.05456 0.359,-1.99694 0,-1.09944 -0.62825,-1.81744 -0.62825,-0.74044 -1.90719,-0.74044 -0.85262,0 -1.66038,0.359 -0.80775,0.33657 -1.39112,0.78532 l -0.74044,-1.27894 q 0.78531,-0.67313 1.86231,-1.05457 1.07701,-0.38143 2.31107,-0.38143 0.96481,0 1.70525,0.29168 0.74044,0.26925 1.2565,0.78532 0.51606,0.51606 0.78531,1.23406 0.26926,0.69556 0.26926,1.52575 z"
       style="fill:#55cd91;fill-opacity:1"
       id="path3431" />
    <path
       d="m 291.08278,258.7607 3.14126,0 0,-10.85976 0.22437,-1.32381 -0.8975,1.05456 -2.46813,1.77257 -0.85262,-1.14431 4.93625,-3.81438 0.80775,0 0,14.31513 3.07394,0 0,1.66038 -7.96532,0 0,-1.66038 z"
       style="fill:#55cd91;fill-opacity:1"
       id="path3433" />
    <path
       d="m 311.92549,255.68676 q 0,1.03213 -0.31412,1.95207 -0.31413,0.8975 -0.91994,1.59306 -0.60582,0.67313 -1.50332,1.077 -0.8975,0.38144 -2.04181,0.38144 -1.12188,0 -2.01938,-0.359 -0.8975,-0.359 -1.54819,-1.05456 -0.65069,-0.718 -1.00969,-1.75013 -0.33656,-1.03212 -0.33656,-2.37838 0,-2.22131 0.56094,-4.08362 0.58338,-1.88476 1.59306,-3.27588 1.00969,-1.39113 2.37838,-2.24375 1.39113,-0.87507 3.00663,-1.09944 l 0.38144,1.436 q -1.2565,0.22437 -2.28863,0.85262 -1.03213,0.62825 -1.81744,1.54819 -0.76288,0.91994 -1.2565,2.06425 -0.49363,1.14432 -0.67313,2.35594 0.359,-0.60581 1.21163,-1.09943 0.85263,-0.51607 2.08669,-0.51607 2.10913,0 3.29831,1.21163 1.21163,1.21163 1.21163,3.38806 z m -1.86231,0.1795 q 0,-1.59306 -0.74044,-2.40081 -0.74044,-0.80775 -2.28863,-0.80775 -1.09944,0 -1.90719,0.5385 -0.78531,0.5385 -1.09944,1.21163 -0.0449,0.31412 -0.0449,0.51606 0,0.20194 0,0.44875 0,0.69556 0.1795,1.36869 0.20194,0.67312 0.60581,1.21162 0.40388,0.51607 0.98725,0.85263 0.60582,0.31413 1.41357,0.31413 0.65068,0 1.16675,-0.24682 0.5385,-0.24681 0.91994,-0.67312 0.38143,-0.42632 0.58337,-1.03213 0.22438,-0.60581 0.22438,-1.30138 z"
       style="fill:#55cd91;fill-opacity:1"
       id="path3435" />
  </g>
  <g
     style="font-style:normal;font-variant:normal;font-weight:normal;font-stretch:normal;font-size:22.43752098px;line-height:125%;font-family:'PT Sans';-inkscape-font-specification:'PT Sans';text-align:start;letter-spacing:0px;word-spacing:0px;text-anchor:start;fill:#000000;fill-opacity:1;stroke:none"
     id="text4817">
    <path
       d="m 110.22199,296.35465 1.86232,0 0,15.70626 -1.86232,0 0,-15.70626 z"
       style="fill:#cd5555;fill-opacity:1"
       id="path3358" />
    <path
       d="m 123.34829,312.06091 0,-6.39469 q 0,-1.75013 -0.51606,-2.62519 -0.49363,-0.8975 -1.83988,-0.8975 -1.18919,0 -1.9745,0.65069 -0.76288,0.62825 -1.077,1.59306 l 0,7.67363 -1.795,0 0,-11.21876 1.2565,0 0.33656,1.36869 0.0897,0 q 0.5385,-0.718 1.436,-1.16675 0.91994,-0.47119 2.17644,-0.47119 0.91994,0 1.6155,0.22438 0.69557,0.20194 1.14432,0.74044 0.47119,0.5385 0.69556,1.45843 0.24681,0.89751 0.24681,2.28863 l 0,6.77613 -1.795,0 z"
       style="fill:#cd5555;fill-opacity:1"
       id="path3360" />
    <path
       d="m 131.64737,307.41635 0.62825,2.13156 0.0224,0 0.56094,-2.17644 2.513,-6.52932 1.92962,0 -4.77919,11.46558 -0.76287,0 -4.86895,-11.46558 2.06426,0 2.6925,6.5742 z"
       style="fill:#cd5555;fill-opacity:1"
       id="path3362" />
    <path
       d="m 147.16747,311.16341 q -0.67312,0.5385 -1.70525,0.85263 -1.00969,0.31412 -2.154,0.31412 -1.27894,0 -2.22132,-0.40387 -0.94237,-0.42631 -1.54819,-1.18919 -0.60581,-0.78531 -0.8975,-1.86231 -0.29168,-1.07701 -0.29168,-2.42326 0,-2.872 1.27893,-4.37531 1.27894,-1.50332 3.65732,-1.50332 0.76288,0 1.52575,0.1795 0.76288,0.15707 1.36869,0.62825 0.60581,0.47119 0.98725,1.34625 0.38144,0.85263 0.38144,2.26619 0,0.74044 -0.13463,1.63794 l -7.20244,0 q 0,0.98725 0.20194,1.75013 0.20194,0.76288 0.62825,1.30138 0.42631,0.51606 1.09944,0.80775 0.69556,0.26925 1.68281,0.26925 0.76288,0 1.52575,-0.26925 0.76288,-0.26925 1.14432,-0.62825 l 0.67312,1.30137 z m -3.85925,-9.01988 q -1.32382,0 -2.13157,0.69556 -0.78531,0.69557 -0.94237,2.37838 l 5.5645,0 q 0,-1.70525 -0.65068,-2.37838 -0.65069,-0.69556 -1.83988,-0.69556 z"
       style="fill:#cd5555;fill-opacity:1"
       id="path3364" />
    <path
       d="m 155.30809,309.00941 q 0,-0.67313 -0.40388,-1.05456 -0.40387,-0.38144 -1.00969,-0.62825 -0.58337,-0.26925 -1.30137,-0.49363 -0.69557,-0.24681 -1.30138,-0.60581 -0.58338,-0.38144 -0.98725,-0.96482 -0.40388,-0.58337 -0.40388,-1.57062 0,-1.6155 0.91994,-2.35594 0.91994,-0.76288 2.55788,-0.76288 1.21163,0 2.01938,0.22438 0.83018,0.20194 1.436,0.49362 l -0.42632,1.48088 q -0.51606,-0.24681 -1.2565,-0.42631 -0.718,-0.20194 -1.54819,-0.20194 -0.98725,0 -1.45843,0.33656 -0.44875,0.33656 -0.44875,1.16675 0,0.58338 0.40387,0.91994 0.40388,0.31413 0.98725,0.58338 0.60581,0.24681 1.30138,0.49362 0.718,0.24681 1.30137,0.65069 0.60582,0.40388 1.00969,1.03213 0.40388,0.60581 0.40388,1.6155 0,0.718 -0.24682,1.34625 -0.22437,0.62825 -0.718,1.077 -0.49362,0.44875 -1.23406,0.69556 -0.718,0.26925 -1.70525,0.26925 -1.27894,0 -2.17644,-0.24681 -0.8975,-0.24681 -1.50331,-0.58337 l 0.5385,-1.52576 q 0.51606,0.29169 1.34625,0.5385 0.83019,0.24682 1.68281,0.24682 0.96481,0 1.59307,-0.38144 0.62825,-0.38144 0.62825,-1.36869 z"
       style="fill:#cd5555;fill-opacity:1"
       id="path3366" />
    <path
       d="m 158.35678,300.84215 1.75013,0 0,-2.22131 1.795,-0.51606 0,2.73737 3.0515,0 0,1.57063 -3.0515,0 0,6.21519 q 0,1.16675 0.29169,1.66038 0.29169,0.47119 0.98725,0.47119 0.58338,0 0.98725,-0.11219 0.40388,-0.13463 0.8975,-0.33656 l 0.40388,1.36869 q -0.60582,0.29168 -1.32382,0.47118 -0.718,0.1795 -1.54819,0.1795 -1.36868,0 -1.92962,-0.76287 -0.56094,-0.78532 -0.56094,-2.60275 l 0,-6.55176 -1.75013,0 0,-1.57063 z"
       style="fill:#cd5555;fill-opacity:1"
       id="path3368" />
    <path
       d="m 174.0371,312.06091 0,-6.34982 q 0,-0.8975 -0.0898,-1.54818 -0.0673,-0.67313 -0.29168,-1.12188 -0.22438,-0.44875 -0.65069,-0.67313 -0.40388,-0.22437 -1.077,-0.22437 -1.03213,0 -1.72769,0.62825 -0.67313,0.62825 -0.94238,1.57063 l 0,7.7185 -1.795,0 0,-11.21876 1.2565,0 0.33656,1.36869 0.0898,0 q 0.60581,-0.718 1.39112,-1.16675 0.80775,-0.47119 2.08669,-0.47119 1.077,0 1.75013,0.42632 0.69556,0.40387 1.077,1.436 0.51606,-0.87507 1.41356,-1.36869 0.91994,-0.49363 2.06425,-0.49363 0.94238,0 1.59307,0.22438 0.65069,0.20194 1.077,0.74044 0.42631,0.5385 0.60581,1.45843 0.20194,0.91994 0.20194,2.33351 l 0,6.73125 -1.795,0 0,-6.75369 q 0,-0.80775 -0.0898,-1.39113 -0.0673,-0.60581 -0.31413,-0.98725 -0.22437,-0.40387 -0.65069,-0.58337 -0.40387,-0.20194 -1.077,-0.20194 -1.12187,0 -1.75012,0.62825 -0.62825,0.62825 -0.8975,1.795 l 0,7.49413 -1.79501,0 z"
       style="fill:#cd5555;fill-opacity:1"
       id="path3370" />
    <path
       d="m 193.88309,311.16341 q -0.67313,0.5385 -1.70525,0.85263 -1.00969,0.31412 -2.154,0.31412 -1.27894,0 -2.22132,-0.40387 -0.94237,-0.42631 -1.54819,-1.18919 -0.60581,-0.78531 -0.8975,-1.86231 -0.29169,-1.07701 -0.29169,-2.42326 0,-2.872 1.27894,-4.37531 1.27894,-1.50332 3.65732,-1.50332 0.76287,0 1.52575,0.1795 0.76288,0.15707 1.36869,0.62825 0.60581,0.47119 0.98725,1.34625 0.38144,0.85263 0.38144,2.26619 0,0.74044 -0.13463,1.63794 l -7.20244,0 q 0,0.98725 0.20194,1.75013 0.20193,0.76288 0.62825,1.30138 0.42631,0.51606 1.09944,0.80775 0.69556,0.26925 1.68281,0.26925 0.76288,0 1.52575,-0.26925 0.76288,-0.26925 1.14431,-0.62825 l 0.67313,1.30137 z m -3.85925,-9.01988 q -1.32382,0 -2.13157,0.69556 -0.78531,0.69557 -0.94237,2.37838 l 5.5645,0 q 0,-1.70525 -0.65069,-2.37838 -0.65068,-0.69556 -1.83987,-0.69556 z"
       style="fill:#cd5555;fill-opacity:1"
       id="path3372" />
    <path
       d="m 204.2899,312.06091 0,-6.39469 q 0,-1.75013 -0.51607,-2.62519 -0.49362,-0.8975 -1.83987,-0.8975 -1.18919,0 -1.9745,0.65069 -0.76288,0.62825 -1.07701,1.59306 l 0,7.67363 -1.795,0 0,-11.21876 1.2565,0 0.33657,1.36869 0.0898,0 q 0.5385,-0.718 1.436,-1.16675 0.91994,-0.47119 2.17644,-0.47119 0.91994,0 1.6155,0.22438 0.69556,0.20194 1.14431,0.74044 0.47119,0.5385 0.69557,1.45843 0.24681,0.89751 0.24681,2.28863 l 0,6.77613 -1.795,0 z"
       style="fill:#cd5555;fill-opacity:1"
       id="path3374" />
    <path
       d="m 207.87709,300.84215 1.75013,0 0,-2.22131 1.795,-0.51606 0,2.73737 3.0515,0 0,1.57063 -3.0515,0 0,6.21519 q 0,1.16675 0.29169,1.66038 0.29169,0.47119 0.98725,0.47119 0.58337,0 0.98725,-0.11219 0.40388,-0.13463 0.8975,-0.33656 l 0.40388,1.36869 q -0.60582,0.29168 -1.32382,0.47118 -0.718,0.1795 -1.54819,0.1795 -1.36869,0 -1.92962,-0.76287 -0.56094,-0.78532 -0.56094,-2.60275 l 0,-6.55176 -1.75013,0 0,-1.57063 z"
       style="fill:#cd5555;fill-opacity:1"
       id="path3376" />
    <path
       d="m 223.16651,296.35465 8.5487,0 0,1.66037 -6.68638,0 0,5.36257 6.23763,0 0,1.66038 -6.23763,0 0,7.02294 -1.86232,0 0,-15.70626 z"
       style="fill:#cd5555;fill-opacity:1"
       id="path3378" />
    <path
       d="m 236.21568,300.84215 0,6.3947 q 0,0.87506 0.0898,1.54819 0.11219,0.65068 0.359,1.09943 0.24681,0.42632 0.67313,0.65069 0.42631,0.22438 1.077,0.22438 0.60581,0 1.077,-0.1795 0.47119,-0.20194 0.83019,-0.5385 0.38143,-0.33657 0.65069,-0.76288 0.29168,-0.44875 0.47118,-0.94238 l 0,-7.49413 1.795,0 0,8.03264 q 0,0.80775 0.0449,1.68281 0.0673,0.85262 0.20194,1.50331 l -1.23407,0 -0.44875,-1.77256 -0.11218,0 q -0.51607,0.87506 -1.39113,1.45844 -0.87506,0.58337 -2.22132,0.58337 -0.8975,0 -1.59306,-0.22437 -0.67312,-0.20194 -1.14431,-0.74044 -0.44875,-0.5385 -0.69557,-1.436 -0.22437,-0.91994 -0.22437,-2.31107 l 0,-6.77613 1.795,0 z"
       style="fill:#cd5555;fill-opacity:1"
       id="path3380" />
    <path
       d="m 253.89785,312.06091 0,-6.39469 q 0,-1.75013 -0.51607,-2.62519 -0.49362,-0.8975 -1.83987,-0.8975 -1.18919,0 -1.97451,0.65069 -0.76287,0.62825 -1.077,1.59306 l 0,7.67363 -1.795,0 0,-11.21876 1.2565,0 0.33657,1.36869 0.0898,0 q 0.5385,-0.718 1.436,-1.16675 0.91994,-0.47119 2.17644,-0.47119 0.91993,0 1.6155,0.22438 0.69556,0.20194 1.14431,0.74044 0.47119,0.5385 0.69556,1.45843 0.24682,0.89751 0.24682,2.28863 l 0,6.77613 -1.795,0 z"
       style="fill:#cd5555;fill-opacity:1"
       id="path3382" />
    <path
       d="m 267.58193,308.20166 q 0,1.14431 0.0224,2.08669 0.0224,0.91994 0.20194,1.81744 l -1.21163,0 -0.44875,-1.59307 -0.0898,0 q -0.44875,0.78532 -1.30137,1.30138 -0.85263,0.51606 -1.99694,0.51606 -2.24376,0 -3.34319,-1.41356 -1.07701,-1.41356 -1.07701,-4.42019 0,-2.872 1.34626,-4.35288 1.36868,-1.50332 3.74706,-1.50332 0.83019,0 1.30138,0.0897 0.49362,0.0898 1.05456,0.29169 l 0,-4.667 1.795,0 0,11.84701 z m -4.53238,2.55788 q 1.14432,0 1.81744,-0.58338 0.67313,-0.60581 0.91994,-1.81744 l 0,-5.5645 q -0.40387,-0.31413 -0.91994,-0.44875 -0.51606,-0.13463 -1.36869,-0.13463 -1.54819,0 -2.42325,1.03213 -0.87506,1.00969 -0.87506,3.25344 0,0.91994 0.13462,1.70525 0.15707,0.78531 0.49363,1.34625 0.33656,0.56094 0.87506,0.8975 0.56094,0.31413 1.34625,0.31413 z"
       style="fill:#cd5555;fill-opacity:1"
       id="path3384" />
    <path
       d="m 271.39877,300.84215 1.795,0 0,11.21876 -1.795,0 0,-11.21876 z m -0.38144,-3.4105 q 0,-0.51606 0.33656,-0.87506 0.359,-0.38144 0.89751,-0.38144 0.5385,0 0.91993,0.38144 0.38144,0.359 0.38144,0.87506 0,0.51606 -0.38144,0.85263 -0.38143,0.33656 -0.91993,0.33656 -0.53851,0 -0.89751,-0.33656 -0.33656,-0.33657 -0.33656,-0.85263 z"
       style="fill:#cd5555;fill-opacity:1"
       id="path3386" />
    <path
       d="m 284.22356,312.06091 0,-6.39469 q 0,-1.75013 -0.51606,-2.62519 -0.49363,-0.8975 -1.83988,-0.8975 -1.18919,0 -1.9745,0.65069 -0.76288,0.62825 -1.077,1.59306 l 0,7.67363 -1.795,0 0,-11.21876 1.2565,0 0.33656,1.36869 0.0898,0 q 0.5385,-0.718 1.436,-1.16675 0.91994,-0.47119 2.17644,-0.47119 0.91994,0 1.6155,0.22438 0.69557,0.20194 1.14432,0.74044 0.47118,0.5385 0.69556,1.45843 0.24681,0.89751 0.24681,2.28863 l 0,6.77613 -1.795,0 z"
       style="fill:#cd5555;fill-opacity:1"
       id="path3388" />
    <path
       d="m 297.88521,312.57698 q 0,2.17644 -1.16675,3.20856 -1.14432,1.03213 -3.41051,1.03213 -1.34625,0 -2.17643,-0.1795 -0.80776,-0.15707 -1.39113,-0.42632 l 0.47119,-1.52575 q 0.51606,0.20194 1.14431,0.38144 0.62825,0.1795 1.63794,0.1795 0.94238,0 1.52575,-0.1795 0.60581,-0.15706 0.96481,-0.56094 0.359,-0.38143 0.49363,-1.00969 0.13463,-0.60581 0.13463,-1.45843 l 0,-1.07701 -0.0898,0 q -0.44875,0.65069 -1.14431,1.00969 -0.69556,0.33657 -1.81744,0.33657 -2.26619,0 -3.34319,-1.41357 -1.05456,-1.41356 -1.05456,-4.39775 0,-2.872 1.36869,-4.35288 1.36869,-1.50332 4.03875,-1.50332 1.27894,0 2.17644,0.20194 0.91994,0.20194 1.63794,0.47119 l 0,11.26364 z m -4.50994,-1.83988 q 1.14431,0 1.795,-0.56094 0.65069,-0.58337 0.91994,-1.795 l 0,-5.74401 q -0.8975,-0.42631 -2.28863,-0.42631 -1.52575,0 -2.40081,1.03213 -0.87507,1.03212 -0.87507,3.231 0,0.94238 0.15707,1.72769 0.15706,0.78531 0.49362,1.34625 0.33656,0.56094 0.87506,0.87506 0.5385,0.31413 1.32382,0.31413 z"
       style="fill:#cd5555;fill-opacity:1"
       id="path3390" />
    <path
       d="m 305.1462,304.76872 5.42988,0 0,1.66038 -5.42988,0 0,-1.66038 z"
       style="fill:#cd5555;fill-opacity:1"
       id="path3392" />
    <path
       d="m 321.52279,312.33016 q -1.23406,-0.0224 -2.19888,-0.22437 -0.94237,-0.1795 -1.52575,-0.49363 l 0.60582,-1.63794 q 0.44875,0.26925 1.21162,0.49363 0.78531,0.22437 1.90719,0.24681 l 0,-6.05813 q -0.67312,-0.33656 -1.34625,-0.718 -0.65069,-0.38144 -1.16675,-0.8975 -0.51606,-0.5385 -0.83019,-1.2565 -0.31413,-0.718 -0.31413,-1.70525 0,-1.6155 0.89751,-2.64763 0.91993,-1.03213 2.75981,-1.27894 l 0,-2.04181 1.52575,0 0,1.9745 q 1.14432,0.0449 1.86232,0.22437 0.74043,0.15707 1.32381,0.42632 l -0.5385,1.57062 q -0.44875,-0.22437 -1.077,-0.38144 -0.62825,-0.1795 -1.57063,-0.22437 l 0,5.54207 q 0.69557,0.359 1.39113,0.78531 0.69556,0.40388 1.23406,0.94238 0.56094,0.5385 0.8975,1.2565 0.33657,0.718 0.33657,1.68281 0,1.75013 -0.98726,2.89444 -0.96481,1.12188 -2.872,1.436 l 0,2.06426 -1.52575,0 0,-1.97451 z m 3.52269,-4.26313 q 0,-0.5385 -0.20194,-0.96481 -0.1795,-0.42631 -0.49362,-0.76287 -0.31413,-0.33657 -0.74044,-0.60582 -0.42631,-0.26925 -0.91994,-0.51606 l 0,5.45232 q 1.03213,-0.15707 1.68282,-0.78532 0.67312,-0.65068 0.67312,-1.81744 z m -5.31769,-8.09994 q 0,0.96481 0.60581,1.57063 0.62825,0.60581 1.54819,1.09943 l 0,-4.91381 q -1.18919,0.13462 -1.68281,0.78531 -0.47119,0.65069 -0.47119,1.45844 z"
       style="fill:#cd5555;fill-opacity:1"
       id="path3394" />
    <path
       d="m 330.74285,310.40054 3.14125,0 0,-10.85976 0.22438,-1.32382 -0.89751,1.05457 -2.46812,1.77256 -0.85263,-1.14431 4.93626,-3.81438 0.80775,0 0,14.31514 3.07394,0 0,1.66037 -7.96532,0 0,-1.66037 z"
       style="fill:#cd5555;fill-opacity:1"
       id="path3396" />
    <path
       d="m 351.58556,307.3266 q 0,1.03212 -0.31413,1.95206 -0.31413,0.8975 -0.91994,1.59306 -0.60581,0.67313 -1.50331,1.07701 -0.8975,0.38143 -2.04182,0.38143 -1.12187,0 -2.01937,-0.359 -0.8975,-0.359 -1.54819,-1.05456 -0.65069,-0.718 -1.00969,-1.75013 -0.33656,-1.03212 -0.33656,-2.37837 0,-2.22132 0.56093,-4.08363 0.58338,-1.88475 1.59307,-3.27588 1.00969,-1.39113 2.37838,-2.24375 1.39112,-0.87507 3.00662,-1.09944 l 0.38144,1.436 q -1.2565,0.22437 -2.28863,0.85263 -1.03212,0.62825 -1.81744,1.54818 -0.76287,0.91994 -1.2565,2.06426 -0.49362,1.14431 -0.67312,2.35594 0.359,-0.60582 1.21162,-1.09944 0.85263,-0.51607 2.08669,-0.51607 2.10913,0 3.29832,1.21163 1.21163,1.21163 1.21163,3.38807 z m -1.86232,0.1795 q 0,-1.59307 -0.74044,-2.40082 -0.74044,-0.80775 -2.28862,-0.80775 -1.09944,0 -1.90719,0.5385 -0.78532,0.5385 -1.09944,1.21163 -0.0449,0.31412 -0.0449,0.51606 0,0.20194 0,0.44875 0,0.69556 0.1795,1.36869 0.20194,0.67313 0.60582,1.21163 0.40387,0.51606 0.98725,0.85262 0.60581,0.31413 1.41356,0.31413 0.65069,0 1.16675,-0.24682 0.5385,-0.24681 0.91994,-0.67312 0.38144,-0.42631 0.58338,-1.03213 0.22437,-0.60581 0.22437,-1.30137 z"
       style="fill:#cd5555;fill-opacity:1"
       id="path3398" />
    <path
       d="m 355.19625,310.40054 3.14125,0 0,-10.85976 0.22438,-1.32382 -0.89751,1.05457 -2.46812,1.77256 -0.85263,-1.14431 4.93626,-3.81438 0.80775,0 0,14.31514 3.07394,0 0,1.66037 -7.96532,0 0,-1.66037 z"
       style="fill:#cd5555;fill-opacity:1"
       id="path3400" />
    <path
       d="m 378.97827,301.51528 0.22438,-2.35594 -0.11219,0 -0.85263,2.154 -4.08363,7.09026 -0.56093,0 -4.33045,-7.1127 -0.80775,-2.13156 -0.11218,0 0.31412,2.3335 0,10.56807 -1.75013,0 0,-15.70626 1.39113,0 4.91382,8.03263 0.74044,1.75013 0.0449,0 0.69556,-1.795 4.68945,-7.98776 1.45843,0 0,15.70626 -1.86231,0 0,-10.54563 z"
       style="fill:#cd5555;fill-opacity:1"
       id="path3402" />
  </g>
  <text
     xml:space="preserve"
     style="font-style:normal;font-variant:normal;font-weight:500;font-stretch:normal;font-size:13.75px;line-height:125%;font-family:Inconsolata;-inkscape-font-specification:'Inconsolata Medium';text-align:start;letter-spacing:0px;word-spacing:0px;text-anchor:start;fill:#000000;fill-opacity:1;stroke:none;stroke-width:1px;stroke-linecap:butt;stroke-linejoin:miter;stroke-opacity:1"
     x="345.2269"
     y="148.75916"
     id="text4155"
     sodipodi:linespacing="125%"><tspan
       sodipodi:role="line"
       id="tspan4157"
       x="345.2269"
       y="148.75916" /></text>
</svg>
