<?xml version="1.0" encoding="UTF-8" standalone="no"?>
<!-- Created with Inkscape (http://www.inkscape.org/) -->

<svg
   xmlns:dc="http://purl.org/dc/elements/1.1/"
   xmlns:cc="http://creativecommons.org/ns#"
   xmlns:rdf="http://www.w3.org/1999/02/22-rdf-syntax-ns#"
   xmlns:svg="http://www.w3.org/2000/svg"
   xmlns="http://www.w3.org/2000/svg"
   xmlns:sodipodi="http://sodipodi.sourceforge.net/DTD/sodipodi-0.dtd"
   xmlns:inkscape="http://www.inkscape.org/namespaces/inkscape"
   width="206.53999"
   height="159.81"
   id="svg2"
   version="1.1"
   inkscape:version="0.91 r"
   sodipodi:docname="PID_Namespace.svg">
  <defs
     id="defs4" />
  <sodipodi:namedview
     id="base"
     pagecolor="#ffffff"
     bordercolor="#666666"
     borderopacity="1.0"
     inkscape:pageopacity="0.0"
     inkscape:pageshadow="2"
     inkscape:zoom="1.4"
     inkscape:cx="170.61639"
     inkscape:cy="151.66155"
     inkscape:document-units="px"
     inkscape:current-layer="layer1"
     showgrid="false"
     inkscape:window-width="1672"
     inkscape:window-height="990"
     inkscape:window-x="0"
     inkscape:window-y="0"
     inkscape:window-maximized="1" />
  <metadata
     id="metadata7">
    <rdf:RDF>
      <cc:Work
         rdf:about="">
        <dc:format>image/svg+xml</dc:format>
        <dc:type
           rdf:resource="http://purl.org/dc/dcmitype/StillImage" />
        <dc:title />
      </cc:Work>
    </rdf:RDF>
  </metadata>
  <g
     inkscape:label="Layer 1"
     inkscape:groupmode="layer"
     id="layer1"
     transform="translate(0,-892.55217)">
    <path
       inkscape:connector-curvature="0"
       id="path58241"
       style="fill:#5591cd;fill-opacity:1;stroke:#000000;stroke-width:2;stroke-linecap:round;stroke-linejoin:round;stroke-miterlimit:4;stroke-dasharray:none;stroke-dashoffset:162;stroke-opacity:1"
       d="m 103.26928,898.5575 c -3.00732,0 -5.9378,0.31522 -8.78049,0.89177 l 0,6.79116 c -3.80853,0.92074 -7.37561,2.39784 -10.62439,4.39024 l -4.80732,-4.80183 c -2.45853,1.6312 -4.70853,3.5449 -6.7939,5.625 -2.07439,2.07966 -3.99512,4.32966 -5.61951,6.79149 l 4.79634,4.80183 c -1.98658,3.25646 -3.46829,6.81805 -4.39024,10.63207 l -6.78293,0 c -0.58171,2.8372 -0.9,5.77427 -0.9,8.78049 0,3.00622 0.31829,5.94329 0.9,8.78049 l 6.78293,0 c 0.92195,3.81402 2.40366,7.37561 4.39024,10.63317 l -4.79634,4.80183 c 1.62439,2.46073 3.54512,4.71073 5.61951,6.79061 2.08537,2.07988 4.33537,3.99402 6.7939,5.625 l 4.80732,-4.80183 c 3.24878,1.99317 6.81586,3.46939 10.62439,4.39024 l 0,6.79171 c 2.84269,0.57622 5.77317,0.89122 8.78049,0.89122 3.00732,0 5.94878,-0.315 8.78049,-0.89122 l 0,-6.79171 c 3.81951,-0.92085 7.37561,-2.39707 10.63536,-4.39024 l 4.80732,4.80183 c 2.45854,-1.63098 4.70854,-3.54512 6.78293,-5.625 2.08536,-2.07988 3.99512,-4.32988 5.63049,-6.79061 l -4.80732,-4.80183 c 1.99756,-3.25756 3.46829,-6.81915 4.39024,-10.63317 l 6.7939,0 c 0.58171,-2.8372 0.88903,-5.77427 0.88903,-8.78049 0,-3.00622 -0.30732,-5.94329 -0.88903,-8.78049 l -6.7939,0 c -0.92195,-3.81402 -2.39268,-7.37561 -4.39024,-10.63207 l 4.80732,-4.80183 c -1.63537,-2.46183 -3.54513,-4.71183 -5.63049,-6.79149 -2.07439,-2.0801 -4.32439,-3.9938 -6.78293,-5.625 l -4.80732,4.80183 c -3.25975,-1.9924 -6.81585,-3.4695 -10.63536,-4.39024 l 0,-6.79116 c -2.83171,-0.57655 -5.77317,-0.89177 -8.78049,-0.89177 z m 0,21.95122 c 12.11707,0 21.95122,9.83415 21.95122,21.95122 0,12.11707 -9.83415,21.95122 -21.95122,21.95122 -12.11707,0 -21.95122,-9.83415 -21.95122,-21.95122 0,-12.11707 9.83415,-21.95122 21.95122,-21.95122 z" />
    <g
       style="font-style:normal;font-variant:normal;font-weight:normal;font-stretch:normal;font-size:24px;line-height:125%;font-family:'PT Sans';-inkscape-font-specification:'PT Sans';text-align:center;letter-spacing:0px;word-spacing:0px;text-anchor:middle;fill:#000000;fill-opacity:1;stroke:none"
       id="text5740">
      <path
         d="m 24.999999,1005.9302 q 0.912,-0.216 1.968,-0.288 1.056,-0.072 2.088,-0.072 1.104,0 2.232,0.216 1.152,0.216 2.088,0.792 0.936,0.576 1.512,1.584 0.6,1.008 0.6,2.568 0,1.536 -0.552,2.592 -0.552,1.056 -1.464,1.728 -0.912,0.648 -2.088,0.936 -1.176,0.288 -2.424,0.288 -0.12,0 -0.408,0 -0.264,0 -0.576,0 -0.288,-0.024 -0.576,-0.048 -0.288,-0.024 -0.408,-0.048 l 0,6.384 -1.992,0 0,-16.632 z m 4.104,1.368 q -0.624,0 -1.2,0.024 -0.576,0.024 -0.912,0.12 l 0,6.96 q 0.12,0.048 0.384,0.072 0.264,0 0.552,0.024 0.288,0 0.552,0 0.264,0 0.384,0 0.816,0 1.608,-0.144 0.816,-0.168 1.464,-0.576 0.648,-0.408 1.032,-1.152 0.408,-0.744 0.408,-1.896 0,-0.984 -0.384,-1.632 -0.36,-0.672 -0.984,-1.056 -0.6,-0.408 -1.368,-0.576 -0.768,-0.168 -1.536,-0.168 z"
         style=""
         id="path3341" />
      <path
         d="m 38.862249,1005.7622 1.992,0 0,16.8 -1.992,0 0,-16.8 z"
         style=""
         id="path3343" />
      <path
         d="m 45.390624,1005.7622 q 0.456,-0.072 1.008,-0.096 0.576,-0.048 1.176,-0.048 0.624,-0.024 1.2,-0.024 0.6,-0.024 1.104,-0.024 2.016,0 3.48,0.624 1.488,0.624 2.448,1.752 0.96,1.104 1.416,2.664 0.48,1.56 0.48,3.432 0,1.704 -0.456,3.288 -0.432,1.56 -1.392,2.784 -0.96,1.2 -2.496,1.944 -1.536,0.72 -3.72,0.72 -0.384,0 -1.008,-0.024 -0.6,0 -1.248,-0.048 -0.648,-0.024 -1.2,-0.048 -0.552,-0.024 -0.792,-0.072 l 0,-16.824 z m 4.536,1.584 q -0.312,0 -0.696,0 -0.36,0 -0.72,0.024 -0.36,0.024 -0.672,0.048 -0.288,0.024 -0.456,0.048 l 0,13.44 q 0.12,0.024 0.456,0.048 0.336,0 0.696,0.024 0.36,0 0.696,0.024 0.336,0 0.456,0 1.68,0 2.808,-0.576 1.152,-0.576 1.824,-1.536 0.696,-0.984 0.984,-2.232 0.288,-1.272 0.288,-2.616 0,-1.176 -0.264,-2.352 -0.264,-1.2 -0.912,-2.16 -0.648,-0.96 -1.752,-1.56 -1.08,-0.624 -2.736,-0.624 z"
         style=""
         id="path3345" />
      <path
         d="m 70.539624,1011.5702 -1.296,-2.424 -0.096,0 0.24,2.424 0,10.992 -1.872,0 0,-17.064 1.056,0 8.04,11.208 1.248,2.304 0.12,0 -0.264,-2.304 0,-10.944 1.872,0 0,17.064 -1.056,0 -7.992,-11.256 z"
         style=""
         id="path3347" />
      <path
         d="m 83.303499,1011.4502 q 0.912,-0.552 2.112,-0.816 1.224,-0.264 2.544,-0.264 1.248,0 1.992,0.336 0.768,0.336 1.152,0.888 0.408,0.528 0.528,1.176 0.144,0.648 0.144,1.296 0,1.44 -0.072,2.808 -0.072,1.368 -0.072,2.592 0,0.888 0.072,1.68 0.072,0.792 0.264,1.464 l -1.416,0 -0.504,-1.68 -0.12,0 q -0.216,0.336 -0.552,0.672 -0.312,0.312 -0.768,0.576 -0.456,0.24 -1.056,0.408 -0.6,0.168 -1.368,0.168 -0.768,0 -1.44,-0.24 -0.648,-0.24 -1.128,-0.672 -0.48,-0.456 -0.768,-1.08 -0.264,-0.624 -0.264,-1.416 0,-1.056 0.432,-1.752 0.432,-0.72 1.2,-1.128 0.792,-0.432 1.872,-0.6 1.104,-0.192 2.424,-0.192 0.336,0 0.648,0 0.336,0 0.672,0.048 0.072,-0.72 0.072,-1.296 0,-1.32 -0.528,-1.848 -0.528,-0.528 -1.92,-0.528 -0.408,0 -0.888,0.072 -0.456,0.048 -0.96,0.168 -0.48,0.096 -0.936,0.264 -0.432,0.144 -0.768,0.336 l -0.6,-1.44 z m 3.408,9.624 q 0.672,0 1.2,-0.168 0.528,-0.192 0.912,-0.456 0.384,-0.288 0.624,-0.624 0.264,-0.336 0.384,-0.648 l 0,-1.992 q -0.336,-0.024 -0.696,-0.024 -0.336,-0.024 -0.672,-0.024 -0.744,0 -1.464,0.096 -0.696,0.072 -1.248,0.312 -0.528,0.216 -0.864,0.624 -0.312,0.384 -0.312,0.984 0,0.84 0.6,1.392 0.6,0.528 1.536,0.528 z"
         style=""
         id="path3349" />
      <path
         d="m 102.43375,1022.5622 0,-6.792 q 0,-0.96 -0.096,-1.656 -0.072,-0.72 -0.312,-1.2 -0.24,-0.48 -0.696,-0.72 -0.432,-0.24 -1.152,-0.24 -1.104001,0 -1.848001,0.672 -0.72,0.672 -1.008,1.68 l 0,8.256 -1.92,0 0,-12 1.344,0 0.36,1.464 0.096,0 q 0.648,-0.768 1.488,-1.248 0.864,-0.504 2.232001,-0.504 1.152,0 1.872,0.456 0.744,0.432 1.152,1.536 0.552,-0.936 1.512,-1.464 0.984,-0.528 2.208,-0.528 1.008,0 1.704,0.24 0.696,0.216 1.152,0.792 0.456,0.576 0.648,1.56 0.216,0.984 0.216,2.496 l 0,7.2 -1.92,0 0,-7.224 q 0,-0.864 -0.096,-1.488 -0.072,-0.648 -0.336,-1.056 -0.24,-0.432 -0.696,-0.624 -0.432,-0.216 -1.152,-0.216 -1.2,0 -1.872,0.672 -0.672,0.672 -0.96,1.92 l 0,8.016 -1.92,0 z"
         style=""
         id="path3351" />
      <path
         d="m 123.66175,1021.6022 q -0.72,0.576 -1.824,0.912 -1.08,0.336 -2.304,0.336 -1.368,0 -2.376,-0.432 -1.008,-0.456 -1.656,-1.272 -0.648,-0.84 -0.96,-1.992 -0.312,-1.152 -0.312,-2.592 0,-3.072 1.368,-4.68 1.368,-1.608 3.912,-1.608 0.816,0 1.632,0.192 0.816,0.168 1.464,0.672 0.648,0.504 1.056,1.44 0.408,0.912 0.408,2.424 0,0.792 -0.144,1.752 l -7.704,0 q 0,1.056 0.216,1.872 0.216,0.816 0.672,1.392 0.456,0.552 1.176,0.864 0.744,0.288 1.8,0.288 0.816,0 1.632,-0.288 0.816,-0.288 1.224,-0.672 l 0.72,1.392 z m -4.128,-9.648 q -1.416,0 -2.28,0.744 -0.84,0.744 -1.008,2.544 l 5.952,0 q 0,-1.824 -0.696,-2.544 -0.696,-0.744 -1.968,-0.744 z"
         style=""
         id="path3353" />
      <path
         d="m 132.36925,1019.2982 q 0,-0.72 -0.432,-1.128 -0.432,-0.408 -1.08,-0.672 -0.624,-0.288 -1.392,-0.528 -0.744,-0.264 -1.392,-0.648 -0.624,-0.408 -1.056,-1.032 -0.432,-0.624 -0.432,-1.68 0,-1.728 0.984,-2.52 0.984,-0.816 2.736,-0.816 1.296,0 2.16,0.24 0.888,0.216 1.536,0.528 l -0.456,1.584 q -0.552,-0.264 -1.344,-0.456 -0.768,-0.216 -1.656,-0.216 -1.056,0 -1.56,0.36 -0.48,0.36 -0.48,1.248 0,0.624 0.432,0.984 0.432,0.336 1.056,0.624 0.648,0.264 1.392,0.528 0.768,0.264 1.392,0.696 0.648,0.432 1.08,1.104 0.432,0.648 0.432,1.728 0,0.768 -0.264,1.44 -0.24,0.672 -0.768,1.152 -0.528,0.48 -1.32,0.744 -0.768,0.288 -1.824,0.288 -1.368,0 -2.328,-0.264 -0.96,-0.264 -1.608,-0.624 l 0.576,-1.632 q 0.552,0.312 1.44,0.576 0.888,0.264 1.8,0.264 1.032,0 1.704,-0.408 0.672,-0.408 0.672,-1.464 z"
         style=""
         id="path3355" />
      <path
         d="m 137.21425,1010.5622 1.32,0 0.36,1.44 0.096,0 q 0.552,-0.84 1.416,-1.272 0.888,-0.456 2.016,-0.456 2.4,0 3.576,1.416 1.176,1.416 1.176,4.632 0,1.512 -0.408,2.736 -0.384,1.2 -1.104,2.04 -0.72,0.84 -1.752,1.296 -1.008,0.456 -2.256,0.456 -0.888,0 -1.416,-0.12 -0.504,-0.096 -1.104,-0.36 l 0,4.992 -1.92,0 0,-16.8 z m 4.848,1.392 q -1.224,0 -1.944,0.648 -0.696,0.624 -0.984,1.92 l 0,5.952 q 0.432,0.336 0.984,0.528 0.552,0.168 1.464,0.168 1.656,0 2.616,-1.224 0.984,-1.248 0.984,-3.648 0,-0.984 -0.168,-1.776 -0.168,-0.816 -0.552,-1.368 -0.36,-0.576 -0.96,-0.888 -0.576,-0.312 -1.44,-0.312 z"
         style=""
         id="path3357" />
      <path
         d="m 150.00662,1011.4502 q 0.912,-0.552 2.112,-0.816 1.224,-0.264 2.544,-0.264 1.248,0 1.992,0.336 0.768,0.336 1.152,0.888 0.408,0.528 0.528,1.176 0.144,0.648 0.144,1.296 0,1.44 -0.072,2.808 -0.072,1.368 -0.072,2.592 0,0.888 0.072,1.68 0.072,0.792 0.264,1.464 l -1.416,0 -0.504,-1.68 -0.12,0 q -0.216,0.336 -0.552,0.672 -0.312,0.312 -0.768,0.576 -0.456,0.24 -1.056,0.408 -0.6,0.168 -1.368,0.168 -0.768,0 -1.44,-0.24 -0.648,-0.24 -1.128,-0.672 -0.48,-0.456 -0.768,-1.08 -0.264,-0.624 -0.264,-1.416 0,-1.056 0.432,-1.752 0.432,-0.72 1.2,-1.128 0.792,-0.432 1.872,-0.6 1.104,-0.192 2.424,-0.192 0.336,0 0.648,0 0.336,0 0.672,0.048 0.072,-0.72 0.072,-1.296 0,-1.32 -0.528,-1.848 -0.528,-0.528 -1.92,-0.528 -0.408,0 -0.888,0.072 -0.456,0.048 -0.96,0.168 -0.48,0.096 -0.936,0.264 -0.432,0.144 -0.768,0.336 l -0.6,-1.44 z m 3.408,9.624 q 0.672,0 1.2,-0.168 0.528,-0.192 0.912,-0.456 0.384,-0.288 0.624,-0.624 0.264,-0.336 0.384,-0.648 l 0,-1.992 q -0.336,-0.024 -0.696,-0.024 -0.336,-0.024 -0.672,-0.024 -0.744,0 -1.464,0.096 -0.696,0.072 -1.248,0.312 -0.528,0.216 -0.864,0.624 -0.312,0.384 -0.312,0.984 0,0.84 0.6,1.392 0.6,0.528 1.536,0.528 z"
         style=""
         id="path3359" />
      <path
         d="m 170.28887,1021.7702 q -0.72,0.528 -1.704,0.792 -0.984,0.288 -2.064,0.288 -1.392,0 -2.352,-0.432 -0.96,-0.456 -1.584,-1.272 -0.6,-0.84 -0.888,-1.992 -0.264,-1.176 -0.264,-2.592 0,-3.048 1.344,-4.656 1.344,-1.632 3.864,-1.632 1.152,0 1.944,0.192 0.816,0.168 1.464,0.504 l -0.552,1.656 q -0.552,-0.312 -1.224,-0.48 -0.672,-0.192 -1.44,-0.192 -3.408,0 -3.408,4.608 0,0.912 0.168,1.752 0.192,0.816 0.6,1.464 0.432,0.624 1.104,1.008 0.696,0.384 1.704,0.384 0.864,0 1.536,-0.264 0.696,-0.264 1.128,-0.6 l 0.624,1.464 z"
         style=""
         id="path3361" />
      <path
         d="m 181.1305,1021.6022 q -0.72,0.576 -1.824,0.912 -1.08,0.336 -2.304,0.336 -1.368,0 -2.376,-0.432 -1.008,-0.456 -1.656,-1.272 -0.648,-0.84 -0.96,-1.992 -0.312,-1.152 -0.312,-2.592 0,-3.072 1.368,-4.68 1.368,-1.608 3.912,-1.608 0.816,0 1.632,0.192 0.816,0.168 1.464,0.672 0.648,0.504 1.056,1.44 0.408,0.912 0.408,2.424 0,0.792 -0.144,1.752 l -7.704,0 q 0,1.056 0.216,1.872 0.216,0.816 0.672,1.392 0.456,0.552 1.176,0.864 0.744,0.288 1.8,0.288 0.816,0 1.632,-0.288 0.816,-0.288 1.224,-0.672 l 0.72,1.392 z m -4.128,-9.648 q -1.416,0 -2.28,0.744 -0.84,0.744 -1.008,2.544 l 5.952,0 q 0,-1.824 -0.696,-2.544 -0.696,-0.744 -1.968,-0.744 z"
         style=""
         id="path3363" />
    </g>
  </g>
</svg>
