<?xml version="1.0" encoding="UTF-8" standalone="no"?>
<!-- Created with Inkscape (http://www.inkscape.org/) -->

<svg
   xmlns:dc="http://purl.org/dc/elements/1.1/"
   xmlns:cc="http://creativecommons.org/ns#"
   xmlns:rdf="http://www.w3.org/1999/02/22-rdf-syntax-ns#"
   xmlns:svg="http://www.w3.org/2000/svg"
   xmlns="http://www.w3.org/2000/svg"
   xmlns:sodipodi="http://sodipodi.sourceforge.net/DTD/sodipodi-0.dtd"
   xmlns:inkscape="http://www.inkscape.org/namespaces/inkscape"
   width="212.17"
   height="161.85001"
   id="svg2"
   version="1.1"
   inkscape:version="0.91 r"
   sodipodi:docname="UTS_Namespace.svg">
  <defs
     id="defs4" />
  <sodipodi:namedview
     id="base"
     pagecolor="#ffffff"
     bordercolor="#666666"
     borderopacity="1.0"
     inkscape:pageopacity="0.0"
     inkscape:pageshadow="2"
     inkscape:zoom="0.9899495"
     inkscape:cx="-22.021469"
     inkscape:cy="203.30039"
     inkscape:document-units="px"
     inkscape:current-layer="layer1"
     showgrid="false"
     inkscape:window-width="1672"
     inkscape:window-height="990"
     inkscape:window-x="0"
     inkscape:window-y="0"
     inkscape:window-maximized="1" />
  <metadata
     id="metadata7">
    <rdf:RDF>
      <cc:Work
         rdf:about="">
        <dc:format>image/svg+xml</dc:format>
        <dc:type
           rdf:resource="http://purl.org/dc/dcmitype/StillImage" />
        <dc:title />
      </cc:Work>
    </rdf:RDF>
  </metadata>
  <g
     inkscape:label="Layer 1"
     inkscape:groupmode="layer"
     id="layer1"
     transform="translate(0,-890.51217)">
    <g
       id="g5633"
       transform="matrix(0.47029634,0,0,0.47029634,33.18581,706.88859)">
      <circle
         r="100.51018"
         cy="182.11577"
         cx="647.00269"
         transform="matrix(0.98497636,0,0,0.98497636,-482.28235,322.98245)"
         id="path5526"
         style="color:#000000;display:inline;overflow:visible;visibility:visible;fill:none;stroke:#cd5555;stroke-width:4.06101131;stroke-linecap:round;stroke-linejoin:miter;stroke-miterlimit:4;stroke-dasharray:none;stroke-dashoffset:0;stroke-opacity:1;marker:none;enable-background:accumulate" />
      <path
         inkscape:connector-curvature="0"
         id="path5558"
         d="m 55.999951,502.36218 198.000099,0"
         style="fill:none;stroke:#cd5555;stroke-width:4;stroke-linecap:butt;stroke-linejoin:miter;stroke-miterlimit:4;stroke-dasharray:none;stroke-opacity:1" />
      <path
         inkscape:connector-curvature="0"
         id="path5558-2"
         d="m 155,601.36222 0,-198.00009"
         style="fill:none;stroke:#cd5555;stroke-width:4;stroke-linecap:butt;stroke-linejoin:miter;stroke-miterlimit:4;stroke-dasharray:none;stroke-opacity:1" />
      <path
         sodipodi:nodetypes="cc"
         inkscape:connector-curvature="0"
         id="path5584"
         d="m 154.64286,403.07647 c -123.907545,100 -0.71429,198.57143 -0.71429,198.57143"
         style="fill:none;stroke:#cd5555;stroke-width:4;stroke-linecap:butt;stroke-linejoin:miter;stroke-miterlimit:4;stroke-dasharray:none;stroke-opacity:1" />
      <path
         sodipodi:nodetypes="cc"
         inkscape:connector-curvature="0"
         id="path5584-3"
         d="m 155.39578,403.07647 c 126.18039,99.74746 0.71429,198.57143 0.71429,198.57143"
         style="fill:none;stroke:#cd5555;stroke-width:4;stroke-linecap:butt;stroke-linejoin:miter;stroke-miterlimit:4;stroke-dasharray:none;stroke-opacity:1" />
      <path
         sodipodi:nodetypes="cc"
         inkscape:connector-curvature="0"
         id="path5604"
         d="M 75.714286,563.07647 C 155,499.50503 232.85714,562.36218 232.85714,562.36218"
         style="fill:none;stroke:#cd5555;stroke-width:4;stroke-linecap:butt;stroke-linejoin:miter;stroke-miterlimit:4;stroke-dasharray:none;stroke-opacity:1" />
      <path
         sodipodi:nodetypes="cc"
         inkscape:connector-curvature="0"
         id="path5604-2"
         d="M 75.714286,441.57083 C 155,505.14227 232.85714,442.28512 232.85714,442.28512"
         style="fill:none;stroke:#cd5555;stroke-width:4;stroke-linecap:butt;stroke-linejoin:miter;stroke-miterlimit:4;stroke-dasharray:none;stroke-opacity:1" />
    </g>
    <g
       style="font-style:normal;font-variant:normal;font-weight:normal;font-stretch:normal;font-size:24px;line-height:125%;font-family:'PT Sans';-inkscape-font-specification:'PT Sans';text-align:center;letter-spacing:0px;word-spacing:0px;text-anchor:middle;fill:#000000;fill-opacity:1;stroke:none"
       id="text5642">
      <path
         d="m 34.647999,1005.7622 1.92,0 0,11.208 q 0,1.512 -0.408,2.616 -0.384,1.104 -1.128,1.824 -0.72,0.696 -1.752,1.032 -1.032,0.336 -2.28,0.336 -2.976,0 -4.488,-1.344 -1.512,-1.344 -1.512,-4.08 l 0,-11.592 1.992,0 0,10.656 q 0,1.272 0.24,2.16 0.264,0.864 0.768,1.416 0.504,0.528 1.248,0.768 0.768,0.24 1.776,0.24 1.944,0 2.784,-1.056 0.84,-1.08 0.84,-3.528 l 0,-10.656 z"
         style=""
         id="path3355" />
      <path
         d="m 51.504249,1007.5382 -5.232,0 0,15.024 -1.992,0 0,-15.024 -5.232,0 0,-1.776 12.456,0 0,1.776 z"
         style=""
         id="path3357" />
      <path
         d="m 61.552749,1018.2902 q 0,-1.008 -0.6,-1.632 -0.6,-0.648 -1.512,-1.128 -0.888,-0.504 -1.944,-0.936 -1.056,-0.432 -1.968,-1.032 -0.888,-0.624 -1.488,-1.512 -0.6,-0.912 -0.6,-2.304 0,-1.968 1.368,-3.12 1.368,-1.152 3.888,-1.152 1.464,0 2.664,0.216 1.2,0.216 1.872,0.552 l -0.6,1.752 q -0.552,-0.264 -1.632,-0.504 -1.056,-0.24 -2.4,-0.24 -1.584,0 -2.376,0.72 -0.792,0.696 -0.792,1.656 0,0.936 0.6,1.56 0.6,0.624 1.488,1.128 0.912,0.48 1.968,0.96 1.056,0.48 1.944,1.128 0.912,0.624 1.512,1.512 0.6,0.888 0.6,2.208 0,1.08 -0.384,1.944 -0.384,0.864 -1.128,1.488 -0.744,0.624 -1.8,0.96 -1.056,0.336 -2.4,0.336 -1.8,0 -2.976,-0.288 -1.176,-0.264 -1.824,-0.6 l 0.672,-1.8 q 0.552,0.312 1.632,0.624 1.08,0.288 2.424,0.288 0.792,0 1.488,-0.144 0.696,-0.168 1.2,-0.504 0.504,-0.36 0.792,-0.888 0.312,-0.528 0.312,-1.248 z"
         style=""
         id="path3359" />
      <path
         d="m 76.164624,1011.5702 -1.296,-2.424 -0.096,0 0.24,2.424 0,10.992 -1.872,0 0,-17.064 1.056,0 8.04,11.208 1.248,2.304 0.12,0 -0.264,-2.304 0,-10.944 1.872,0 0,17.064 -1.056,0 -7.992,-11.256 z"
         style=""
         id="path3361" />
      <path
         d="m 88.928499,1011.4502 q 0.912,-0.552 2.112,-0.816 1.224,-0.264 2.544,-0.264 1.248,0 1.992,0.336 0.768,0.336 1.152,0.888 0.408,0.528 0.528,1.176 0.144,0.648 0.144,1.296 0,1.44 -0.072,2.808 -0.072,1.368 -0.072,2.592 0,0.888 0.072,1.68 0.072,0.792 0.264,1.464 l -1.416,0 -0.504,-1.68 -0.12,0 q -0.216,0.336 -0.552,0.672 -0.312,0.312 -0.768,0.576 -0.456,0.24 -1.056,0.408 -0.6,0.168 -1.368,0.168 -0.768,0 -1.44,-0.24 -0.648,-0.24 -1.128,-0.672 -0.48,-0.456 -0.768,-1.08 -0.264,-0.624 -0.264,-1.416 0,-1.056 0.432,-1.752 0.432,-0.72 1.2,-1.128 0.792,-0.432 1.872,-0.6 1.104,-0.192 2.424,-0.192 0.336,0 0.648,0 0.336,0 0.672,0.048 0.072,-0.72 0.072,-1.296 0,-1.32 -0.528,-1.848 -0.528,-0.528 -1.92,-0.528 -0.408,0 -0.888,0.072 -0.456,0.048 -0.96,0.168 -0.48,0.096 -0.936,0.264 -0.432,0.144 -0.768,0.336 l -0.6,-1.44 z m 3.408,9.624 q 0.672,0 1.2,-0.168 0.528,-0.192 0.912,-0.456 0.384,-0.288 0.624,-0.624 0.264,-0.336 0.384,-0.648 l 0,-1.992 q -0.336,-0.024 -0.696,-0.024 -0.336,-0.024 -0.672,-0.024 -0.744,0 -1.464,0.096 -0.696,0.072 -1.248,0.312 -0.528,0.216 -0.864,0.624 -0.312,0.384 -0.312,0.984 0,0.84 0.6,1.392 0.6,0.528 1.536,0.528 z"
         style=""
         id="path3363" />
      <path
         d="m 108.05875,1022.5622 0,-6.792 q 0,-0.96 -0.096,-1.656 -0.072,-0.72 -0.312,-1.2 -0.24,-0.48 -0.696,-0.72 -0.432,-0.24 -1.152,-0.24 -1.104,0 -1.848,0.672 -0.72,0.672 -1.008,1.68 l 0,8.256 -1.92,0 0,-12 1.344,0 0.36,1.464 0.096,0 q 0.648,-0.768 1.488,-1.248 0.864,-0.504 2.232,-0.504 1.152,0 1.872,0.456 0.744,0.432 1.152,1.536 0.552,-0.936 1.512,-1.464 0.984,-0.528 2.208,-0.528 1.008,0 1.704,0.24 0.696,0.216 1.152,0.792 0.456,0.576 0.648,1.56 0.216,0.984 0.216,2.496 l 0,7.2 -1.92,0 0,-7.224 q 0,-0.864 -0.096,-1.488 -0.072,-0.648 -0.336,-1.056 -0.24,-0.432 -0.696,-0.624 -0.432,-0.216 -1.152,-0.216 -1.2,0 -1.872,0.672 -0.672,0.672 -0.96,1.92 l 0,8.016 -1.92,0 z"
         style=""
         id="path3365" />
      <path
         d="m 129.28675,1021.6022 q -0.72,0.576 -1.824,0.912 -1.08,0.336 -2.304,0.336 -1.368,0 -2.376,-0.432 -1.008,-0.456 -1.656,-1.272 -0.648,-0.84 -0.96,-1.992 -0.312,-1.152 -0.312,-2.592 0,-3.072 1.368,-4.68 1.368,-1.608 3.912,-1.608 0.816,0 1.632,0.192 0.816,0.168 1.464,0.672 0.648,0.504 1.056,1.44 0.408,0.912 0.408,2.424 0,0.792 -0.144,1.752 l -7.704,0 q 0,1.056 0.216,1.872 0.216,0.816 0.672,1.392 0.456,0.552 1.176,0.864 0.744,0.288 1.8,0.288 0.816,0 1.632,-0.288 0.816,-0.288 1.224,-0.672 l 0.72,1.392 z m -4.128,-9.648 q -1.416,0 -2.28,0.744 -0.84,0.744 -1.008,2.544 l 5.952,0 q 0,-1.824 -0.696,-2.544 -0.696,-0.744 -1.968,-0.744 z"
         style=""
         id="path3367" />
      <path
         d="m 137.99425,1019.2982 q 0,-0.72 -0.432,-1.128 -0.432,-0.408 -1.08,-0.672 -0.624,-0.288 -1.392,-0.528 -0.744,-0.264 -1.392,-0.648 -0.624,-0.408 -1.056,-1.032 -0.432,-0.624 -0.432,-1.68 0,-1.728 0.984,-2.52 0.984,-0.816 2.736,-0.816 1.296,0 2.16,0.24 0.888,0.216 1.536,0.528 l -0.456,1.584 q -0.552,-0.264 -1.344,-0.456 -0.768,-0.216 -1.656,-0.216 -1.056,0 -1.56,0.36 -0.48,0.36 -0.48,1.248 0,0.624 0.432,0.984 0.432,0.336 1.056,0.624 0.648,0.264 1.392,0.528 0.768,0.264 1.392,0.696 0.648,0.432 1.08,1.104 0.432,0.648 0.432,1.728 0,0.768 -0.264,1.44 -0.24,0.672 -0.768,1.152 -0.528,0.48 -1.32,0.744 -0.768,0.288 -1.824,0.288 -1.368,0 -2.328,-0.264 -0.96,-0.264 -1.608,-0.624 l 0.576,-1.632 q 0.552,0.312 1.44,0.576 0.888,0.264 1.8,0.264 1.032,0 1.704,-0.408 0.672,-0.408 0.672,-1.464 z"
         style=""
         id="path3369" />
      <path
         d="m 142.83925,1010.5622 1.32,0 0.36,1.44 0.096,0 q 0.552,-0.84 1.416,-1.272 0.888,-0.456 2.016,-0.456 2.4,0 3.576,1.416 1.176,1.416 1.176,4.632 0,1.512 -0.408,2.736 -0.384,1.2 -1.104,2.04 -0.72,0.84 -1.752,1.296 -1.008,0.456 -2.256,0.456 -0.888,0 -1.416,-0.12 -0.504,-0.096 -1.104,-0.36 l 0,4.992 -1.92,0 0,-16.8 z m 4.848,1.392 q -1.224,0 -1.944,0.648 -0.696,0.624 -0.984,1.92 l 0,5.952 q 0.432,0.336 0.984,0.528 0.552,0.168 1.464,0.168 1.656,0 2.616,-1.224 0.984,-1.248 0.984,-3.648 0,-0.984 -0.168,-1.776 -0.168,-0.816 -0.552,-1.368 -0.36,-0.576 -0.96,-0.888 -0.576,-0.312 -1.44,-0.312 z"
         style=""
         id="path3371" />
      <path
         d="m 155.63162,1011.4502 q 0.912,-0.552 2.112,-0.816 1.224,-0.264 2.544,-0.264 1.248,0 1.992,0.336 0.768,0.336 1.152,0.888 0.408,0.528 0.528,1.176 0.144,0.648 0.144,1.296 0,1.44 -0.072,2.808 -0.072,1.368 -0.072,2.592 0,0.888 0.072,1.68 0.072,0.792 0.264,1.464 l -1.416,0 -0.504,-1.68 -0.12,0 q -0.216,0.336 -0.552,0.672 -0.312,0.312 -0.768,0.576 -0.456,0.24 -1.056,0.408 -0.6,0.168 -1.368,0.168 -0.768,0 -1.44,-0.24 -0.648,-0.24 -1.128,-0.672 -0.48,-0.456 -0.768,-1.08 -0.264,-0.624 -0.264,-1.416 0,-1.056 0.432,-1.752 0.432,-0.72 1.2,-1.128 0.792,-0.432 1.872,-0.6 1.104,-0.192 2.424,-0.192 0.336,0 0.648,0 0.336,0 0.672,0.048 0.072,-0.72 0.072,-1.296 0,-1.32 -0.528,-1.848 -0.528,-0.528 -1.92,-0.528 -0.408,0 -0.888,0.072 -0.456,0.048 -0.96,0.168 -0.48,0.096 -0.936,0.264 -0.432,0.144 -0.768,0.336 l -0.6,-1.44 z m 3.408,9.624 q 0.672,0 1.2,-0.168 0.528,-0.192 0.912,-0.456 0.384,-0.288 0.624,-0.624 0.264,-0.336 0.384,-0.648 l 0,-1.992 q -0.336,-0.024 -0.696,-0.024 -0.336,-0.024 -0.672,-0.024 -0.744,0 -1.464,0.096 -0.696,0.072 -1.248,0.312 -0.528,0.216 -0.864,0.624 -0.312,0.384 -0.312,0.984 0,0.84 0.6,1.392 0.6,0.528 1.536,0.528 z"
         style=""
         id="path3373" />
      <path
         d="m 175.91387,1021.7702 q -0.72,0.528 -1.704,0.792 -0.984,0.288 -2.064,0.288 -1.392,0 -2.352,-0.432 -0.96,-0.456 -1.584,-1.272 -0.6,-0.84 -0.888,-1.992 -0.264,-1.176 -0.264,-2.592 0,-3.048 1.344,-4.656 1.344,-1.632 3.864,-1.632 1.152,0 1.944,0.192 0.816,0.168 1.464,0.504 l -0.552,1.656 q -0.552,-0.312 -1.224,-0.48 -0.672,-0.192 -1.44,-0.192 -3.408,0 -3.408,4.608 0,0.912 0.168,1.752 0.192,0.816 0.6,1.464 0.432,0.624 1.104,1.008 0.696,0.384 1.704,0.384 0.864,0 1.536,-0.264 0.696,-0.264 1.128,-0.6 l 0.624,1.464 z"
         style=""
         id="path3375" />
      <path
         d="m 186.7555,1021.6022 q -0.72,0.576 -1.824,0.912 -1.08,0.336 -2.304,0.336 -1.368,0 -2.376,-0.432 -1.008,-0.456 -1.656,-1.272 -0.648,-0.84 -0.96,-1.992 -0.312,-1.152 -0.312,-2.592 0,-3.072 1.368,-4.68 1.368,-1.608 3.912,-1.608 0.816,0 1.632,0.192 0.816,0.168 1.464,0.672 0.648,0.504 1.056,1.44 0.408,0.912 0.408,2.424 0,0.792 -0.144,1.752 l -7.704,0 q 0,1.056 0.216,1.872 0.216,0.816 0.672,1.392 0.456,0.552 1.176,0.864 0.744,0.288 1.8,0.288 0.816,0 1.632,-0.288 0.816,-0.288 1.224,-0.672 l 0.72,1.392 z m -4.128,-9.648 q -1.416,0 -2.28,0.744 -0.84,0.744 -1.008,2.544 l 5.952,0 q 0,-1.824 -0.696,-2.544 -0.696,-0.744 -1.968,-0.744 z"
         style=""
         id="path3377" />
    </g>
  </g>
</svg>
